%TF.GenerationSoftware,KiCad,Pcbnew,7.0.6*%
%TF.CreationDate,2023-08-28T22:53:50+01:00*%
%TF.ProjectId,SiPM Bias,5369504d-2042-4696-9173-2e6b69636164,rev?*%
%TF.SameCoordinates,Original*%
%TF.FileFunction,Copper,L1,Top*%
%TF.FilePolarity,Positive*%
%FSLAX46Y46*%
G04 Gerber Fmt 4.6, Leading zero omitted, Abs format (unit mm)*
G04 Created by KiCad (PCBNEW 7.0.6) date 2023-08-28 22:53:50*
%MOMM*%
%LPD*%
G01*
G04 APERTURE LIST*
G04 Aperture macros list*
%AMRoundRect*
0 Rectangle with rounded corners*
0 $1 Rounding radius*
0 $2 $3 $4 $5 $6 $7 $8 $9 X,Y pos of 4 corners*
0 Add a 4 corners polygon primitive as box body*
4,1,4,$2,$3,$4,$5,$6,$7,$8,$9,$2,$3,0*
0 Add four circle primitives for the rounded corners*
1,1,$1+$1,$2,$3*
1,1,$1+$1,$4,$5*
1,1,$1+$1,$6,$7*
1,1,$1+$1,$8,$9*
0 Add four rect primitives between the rounded corners*
20,1,$1+$1,$2,$3,$4,$5,0*
20,1,$1+$1,$4,$5,$6,$7,0*
20,1,$1+$1,$6,$7,$8,$9,0*
20,1,$1+$1,$8,$9,$2,$3,0*%
G04 Aperture macros list end*
%TA.AperFunction,ComponentPad*%
%ADD10C,3.800000*%
%TD*%
%TA.AperFunction,ComponentPad*%
%ADD11C,3.500000*%
%TD*%
%TA.AperFunction,SMDPad,CuDef*%
%ADD12RoundRect,0.150000X0.512500X0.150000X-0.512500X0.150000X-0.512500X-0.150000X0.512500X-0.150000X0*%
%TD*%
%TA.AperFunction,SMDPad,CuDef*%
%ADD13RoundRect,0.150000X0.150000X-0.512500X0.150000X0.512500X-0.150000X0.512500X-0.150000X-0.512500X0*%
%TD*%
%TA.AperFunction,SMDPad,CuDef*%
%ADD14RoundRect,0.200000X-0.200000X-0.275000X0.200000X-0.275000X0.200000X0.275000X-0.200000X0.275000X0*%
%TD*%
%TA.AperFunction,ComponentPad*%
%ADD15C,1.440000*%
%TD*%
%TA.AperFunction,ComponentPad*%
%ADD16C,2.250000*%
%TD*%
%TA.AperFunction,SMDPad,CuDef*%
%ADD17RoundRect,0.225000X-0.225000X-0.250000X0.225000X-0.250000X0.225000X0.250000X-0.225000X0.250000X0*%
%TD*%
%TA.AperFunction,SMDPad,CuDef*%
%ADD18RoundRect,0.225000X-0.250000X0.225000X-0.250000X-0.225000X0.250000X-0.225000X0.250000X0.225000X0*%
%TD*%
%TA.AperFunction,SMDPad,CuDef*%
%ADD19RoundRect,0.150000X-0.512500X-0.150000X0.512500X-0.150000X0.512500X0.150000X-0.512500X0.150000X0*%
%TD*%
%TA.AperFunction,SMDPad,CuDef*%
%ADD20RoundRect,0.200000X0.275000X-0.200000X0.275000X0.200000X-0.275000X0.200000X-0.275000X-0.200000X0*%
%TD*%
%TA.AperFunction,SMDPad,CuDef*%
%ADD21RoundRect,0.200000X0.200000X0.275000X-0.200000X0.275000X-0.200000X-0.275000X0.200000X-0.275000X0*%
%TD*%
%TA.AperFunction,SMDPad,CuDef*%
%ADD22RoundRect,0.225000X0.225000X0.250000X-0.225000X0.250000X-0.225000X-0.250000X0.225000X-0.250000X0*%
%TD*%
%TA.AperFunction,ViaPad*%
%ADD23C,0.400000*%
%TD*%
%TA.AperFunction,ViaPad*%
%ADD24C,0.800000*%
%TD*%
%TA.AperFunction,Conductor*%
%ADD25C,0.300000*%
%TD*%
%TA.AperFunction,Conductor*%
%ADD26C,0.500000*%
%TD*%
G04 APERTURE END LIST*
D10*
%TO.P,REF\u002A\u002A,1*%
%TO.N,GND*%
X160400001Y-80700001D03*
%TD*%
%TO.P,REF\u002A\u002A,1*%
%TO.N,GND*%
X138900001Y-80700001D03*
%TD*%
D11*
%TO.P,REF\u002A\u002A,1*%
%TO.N,GND*%
X138900001Y-102200001D03*
%TD*%
D10*
%TO.P,REF\u002A\u002A,1*%
%TO.N,GND*%
X160400001Y-102200001D03*
%TD*%
D12*
%TO.P,Q1,3,C*%
%TO.N,Net-(Q1-C)*%
X152912501Y-85600001D03*
%TO.P,Q1,2,E*%
%TO.N,Net-(Q1-E)*%
X155187501Y-84650001D03*
%TO.P,Q1,1,B*%
%TO.N,Net-(Q1-B)*%
X155187501Y-86550001D03*
%TD*%
D13*
%TO.P,U1,5,OUT*%
%TO.N,Net-(Q1-B)*%
X155450001Y-88512501D03*
%TO.P,U1,4,GND*%
%TO.N,GND*%
X157350001Y-88512501D03*
%TO.P,U1,3,GND*%
X157350001Y-90787501D03*
%TO.P,U1,2,NC*%
%TO.N,unconnected-(U1-NC-Pad2)*%
X156400001Y-90787501D03*
%TO.P,U1,1,IN*%
%TO.N,BIAS*%
X155450001Y-90787501D03*
%TD*%
D14*
%TO.P,R5,1*%
%TO.N,SiPM*%
X155475000Y-95350000D03*
%TO.P,R5,2*%
%TO.N,GND*%
X157125000Y-95350000D03*
%TD*%
D15*
%TO.P,J3,1,In*%
%TO.N,SiPM*%
X152450000Y-100350000D03*
D16*
%TO.P,J3,2,Ext*%
%TO.N,GND*%
X154990000Y-102890000D03*
X154990000Y-97810000D03*
X149910000Y-102890000D03*
X149910000Y-97810000D03*
%TD*%
%TO.P,J2,2,Ext*%
%TO.N,GND*%
X144360000Y-79860000D03*
X144360000Y-84940000D03*
X149440000Y-79860000D03*
X149440000Y-84940000D03*
D15*
%TO.P,J2,1,In*%
%TO.N,BIAS*%
X146900000Y-82400000D03*
%TD*%
D17*
%TO.P,C6,1*%
%TO.N,Net-(D1-C)*%
X145100002Y-88412503D03*
%TO.P,C6,2*%
%TO.N,GND*%
X146650002Y-88412503D03*
%TD*%
%TO.P,C4,1*%
%TO.N,Net-(D1-C)*%
X145100001Y-91712502D03*
%TO.P,C4,2*%
%TO.N,GND*%
X146650001Y-91712502D03*
%TD*%
D18*
%TO.P,C2,1*%
%TO.N,Net-(Q1-B)*%
X153650001Y-88325001D03*
%TO.P,C2,2*%
%TO.N,GND*%
X153650001Y-89875001D03*
%TD*%
D14*
%TO.P,R2,2*%
%TO.N,Net-(Q1-C)*%
X151150001Y-87912502D03*
%TO.P,R2,1*%
%TO.N,Net-(Q2-B)*%
X149500001Y-87912502D03*
%TD*%
D19*
%TO.P,Q2,3,C*%
%TO.N,BIAS*%
X150887501Y-94312501D03*
%TO.P,Q2,2,E*%
%TO.N,Net-(Q2-E)*%
X148612501Y-95262501D03*
%TO.P,Q2,1,B*%
%TO.N,Net-(Q2-B)*%
X148612501Y-93362501D03*
%TD*%
D20*
%TO.P,R3,1*%
%TO.N,Net-(Q1-E)*%
X157200001Y-86612502D03*
%TO.P,R3,2*%
%TO.N,GND*%
X157200001Y-84962502D03*
%TD*%
D21*
%TO.P,R4,1*%
%TO.N,Net-(Q2-E)*%
X146700001Y-93462502D03*
%TO.P,R4,2*%
%TO.N,Net-(D1-C)*%
X145050001Y-93462502D03*
%TD*%
%TO.P,R1,2*%
%TO.N,Net-(Q2-B)*%
X149475002Y-91412503D03*
%TO.P,R1,1*%
%TO.N,BIAS*%
X151125002Y-91412503D03*
%TD*%
D17*
%TO.P,C1,2*%
%TO.N,GND*%
X156975001Y-92550001D03*
%TO.P,C1,1*%
%TO.N,BIAS*%
X155425001Y-92550001D03*
%TD*%
%TO.P,C5,1*%
%TO.N,Net-(D1-C)*%
X145100002Y-90062502D03*
%TO.P,C5,2*%
%TO.N,GND*%
X146650002Y-90062502D03*
%TD*%
D21*
%TO.P,TH1,1*%
%TO.N,BIAS*%
X151125002Y-89662503D03*
%TO.P,TH1,2*%
%TO.N,Net-(Q2-B)*%
X149475002Y-89662503D03*
%TD*%
D22*
%TO.P,C3,1*%
%TO.N,Net-(Q2-E)*%
X146700001Y-95212503D03*
%TO.P,C3,2*%
%TO.N,GND*%
X145150001Y-95212503D03*
%TD*%
D23*
%TO.N,GND*%
X147900001Y-92300001D03*
X152950001Y-87000001D03*
D24*
X159500001Y-89600001D03*
D23*
%TO.N,*%
X153250000Y-95150000D03*
X154150000Y-94850000D03*
X155100000Y-94650000D03*
X155300000Y-96100000D03*
X154500001Y-96000001D03*
X154050000Y-96400000D03*
X153000000Y-96350000D03*
X153000000Y-97350000D03*
X153000000Y-98350000D03*
X153100000Y-99400000D03*
X151800000Y-99400000D03*
X151900000Y-98350000D03*
X151900000Y-97350000D03*
X151900000Y-96350000D03*
X151900000Y-95350000D03*
%TO.N,SiPM*%
X153650000Y-95850000D03*
D24*
%TO.N,BIAS*%
X153950001Y-91450001D03*
%TO.N,Net-(D1-C)*%
X147900001Y-87150001D03*
%TD*%
D25*
%TO.N,GND*%
X153925001Y-89600001D02*
X159500001Y-89600001D01*
X153650001Y-89875001D02*
X153925001Y-89600001D01*
D26*
%TO.N,SiPM*%
X154150000Y-95350000D02*
X153650000Y-95850000D01*
X155475000Y-95350000D02*
X154150000Y-95350000D01*
D25*
%TO.N,BIAS*%
X151125001Y-94075001D02*
X150887501Y-94312501D01*
X151125001Y-89662503D02*
X151125001Y-94075001D01*
X152150001Y-93050001D02*
X154925001Y-93050001D01*
X154925001Y-93050001D02*
X155425001Y-92550001D01*
X150887501Y-94312501D02*
X152150001Y-93050001D01*
X155050001Y-92550001D02*
X153950001Y-91450001D01*
X155425001Y-92550001D02*
X155050001Y-92550001D01*
%TO.N,Net-(Q1-E)*%
X155237500Y-84650001D02*
X157200001Y-86612502D01*
X155187501Y-84650001D02*
X155237500Y-84650001D01*
%TO.N,BIAS*%
X155425001Y-90812501D02*
X155450001Y-90787501D01*
X155425001Y-92550001D02*
X155425001Y-90812501D01*
%TO.N,Net-(Q1-B)*%
X153837501Y-88512501D02*
X153650001Y-88325001D01*
X155450001Y-88512501D02*
X153837501Y-88512501D01*
X155450001Y-86812501D02*
X155187501Y-86550001D01*
X155450001Y-88512501D02*
X155450001Y-86812501D01*
%TO.N,Net-(Q1-C)*%
X152912501Y-86150002D02*
X151150001Y-87912502D01*
X152912501Y-85600001D02*
X152912501Y-86150002D01*
%TO.N,Net-(D1-C)*%
X146362504Y-87150001D02*
X147900001Y-87150001D01*
X145100002Y-88412503D02*
X146362504Y-87150001D01*
%TO.N,Net-(Q2-E)*%
X146749999Y-95262503D02*
X146700001Y-95212504D01*
X148612500Y-95262503D02*
X146749999Y-95262503D01*
%TO.N,Net-(D1-C)*%
X145100000Y-90062502D02*
X145100000Y-88412503D01*
X145100001Y-91712501D02*
X145100000Y-90062502D01*
X145050001Y-91762503D02*
X145100001Y-91712501D01*
X145050001Y-93462502D02*
X145050001Y-91762503D01*
%TO.N,Net-(Q2-E)*%
X146700001Y-95212504D02*
X146700001Y-93462502D01*
%TO.N,Net-(Q2-B)*%
X149475001Y-92500002D02*
X148612500Y-93362503D01*
X149475001Y-91412501D02*
X149475001Y-92500002D01*
X149475002Y-89662503D02*
X149475001Y-91412501D01*
X149500001Y-89637503D02*
X149475002Y-89662503D01*
X149500001Y-87912502D02*
X149500001Y-89637503D01*
%TD*%
%TA.AperFunction,Conductor*%
%TO.N,GND*%
G36*
X148536476Y-87890254D02*
G01*
X148585171Y-87940360D01*
X148599501Y-87998227D01*
X148599501Y-88244115D01*
X148605914Y-88314694D01*
X148605914Y-88314696D01*
X148605915Y-88314698D01*
X148656523Y-88477108D01*
X148744529Y-88622687D01*
X148809164Y-88687322D01*
X148842648Y-88748643D01*
X148837664Y-88818335D01*
X148809164Y-88862683D01*
X148719531Y-88952316D01*
X148631524Y-89097896D01*
X148580915Y-89260310D01*
X148575784Y-89316778D01*
X148574502Y-89330887D01*
X148574502Y-89994119D01*
X148576364Y-90014606D01*
X148580915Y-90064695D01*
X148580915Y-90064697D01*
X148580916Y-90064699D01*
X148631524Y-90227109D01*
X148719530Y-90372688D01*
X148788183Y-90441341D01*
X148821667Y-90502662D01*
X148824501Y-90529021D01*
X148824501Y-90545983D01*
X148804816Y-90613022D01*
X148788183Y-90633663D01*
X148719532Y-90702315D01*
X148719530Y-90702317D01*
X148631524Y-90847896D01*
X148580915Y-91010310D01*
X148574502Y-91080889D01*
X148574502Y-91744116D01*
X148580915Y-91814695D01*
X148580915Y-91814697D01*
X148580916Y-91814699D01*
X148631524Y-91977109D01*
X148713274Y-92112340D01*
X148719532Y-92122691D01*
X148738266Y-92141424D01*
X148771753Y-92202746D01*
X148766770Y-92272438D01*
X148738268Y-92316788D01*
X148529375Y-92525682D01*
X148468052Y-92559167D01*
X148441694Y-92562001D01*
X148034305Y-92562001D01*
X147997433Y-92564902D01*
X147997427Y-92564903D01*
X147839607Y-92610755D01*
X147839604Y-92610756D01*
X147698138Y-92694418D01*
X147698133Y-92694422D01*
X147635535Y-92757019D01*
X147574211Y-92790503D01*
X147504520Y-92785517D01*
X147460174Y-92757017D01*
X147370663Y-92667506D01*
X147337178Y-92606183D01*
X147342162Y-92536491D01*
X147370663Y-92492143D01*
X147447577Y-92415229D01*
X147536543Y-92270994D01*
X147536548Y-92270983D01*
X147589856Y-92110108D01*
X147600000Y-92010824D01*
X147600001Y-92010811D01*
X147600001Y-91962502D01*
X146524001Y-91962502D01*
X146456962Y-91942817D01*
X146411207Y-91890013D01*
X146400001Y-91838502D01*
X146400001Y-91462502D01*
X146900001Y-91462502D01*
X147600000Y-91462502D01*
X147600000Y-91414194D01*
X147599999Y-91414179D01*
X147589856Y-91314894D01*
X147536548Y-91154020D01*
X147536543Y-91154009D01*
X147447576Y-91009773D01*
X147447573Y-91009769D01*
X147412987Y-90975183D01*
X147379502Y-90913860D01*
X147384486Y-90844168D01*
X147412988Y-90799820D01*
X147447575Y-90765233D01*
X147447577Y-90765230D01*
X147536544Y-90620994D01*
X147536549Y-90620983D01*
X147589857Y-90460108D01*
X147600001Y-90360824D01*
X147600002Y-90360811D01*
X147600002Y-90312502D01*
X146900002Y-90312502D01*
X146900002Y-91026139D01*
X146900001Y-91026142D01*
X146900001Y-91462502D01*
X146400001Y-91462502D01*
X146400001Y-90748865D01*
X146400002Y-90748861D01*
X146400002Y-88662503D01*
X146900002Y-88662503D01*
X146900002Y-89812502D01*
X147600001Y-89812502D01*
X147600001Y-89764194D01*
X147600000Y-89764179D01*
X147589857Y-89664894D01*
X147536549Y-89504020D01*
X147536544Y-89504009D01*
X147447577Y-89359773D01*
X147447574Y-89359769D01*
X147412988Y-89325183D01*
X147379503Y-89263860D01*
X147384487Y-89194168D01*
X147412989Y-89149820D01*
X147447575Y-89115234D01*
X147447577Y-89115231D01*
X147536544Y-88970995D01*
X147536549Y-88970984D01*
X147589857Y-88810109D01*
X147600001Y-88710825D01*
X147600002Y-88710812D01*
X147600002Y-88662503D01*
X146900002Y-88662503D01*
X146400002Y-88662503D01*
X146400002Y-88286503D01*
X146419687Y-88219464D01*
X146472491Y-88173709D01*
X146524002Y-88162503D01*
X147600001Y-88162503D01*
X147600001Y-88159978D01*
X147619686Y-88092939D01*
X147672490Y-88047184D01*
X147741648Y-88037240D01*
X147749756Y-88038683D01*
X147805355Y-88050501D01*
X147805357Y-88050501D01*
X147994645Y-88050501D01*
X147994647Y-88050501D01*
X148179804Y-88011145D01*
X148352731Y-87934152D01*
X148377344Y-87916270D01*
X148402616Y-87897909D01*
X148468422Y-87874429D01*
X148536476Y-87890254D01*
G37*
%TD.AperFunction*%
%TA.AperFunction,Conductor*%
G36*
X153958051Y-86258060D02*
G01*
X154008297Y-86306610D01*
X154024501Y-86367896D01*
X154024501Y-86765697D01*
X154027402Y-86802568D01*
X154027403Y-86802574D01*
X154073255Y-86960394D01*
X154073256Y-86960397D01*
X154156918Y-87101863D01*
X154156924Y-87101871D01*
X154264015Y-87208962D01*
X154297500Y-87270285D01*
X154292516Y-87339977D01*
X154250644Y-87395910D01*
X154185180Y-87420327D01*
X154137330Y-87414349D01*
X154047710Y-87384652D01*
X153948347Y-87374501D01*
X153351663Y-87374501D01*
X153351645Y-87374502D01*
X153252293Y-87384651D01*
X153252290Y-87384652D01*
X153091306Y-87437997D01*
X153091295Y-87438002D01*
X152946960Y-87527030D01*
X152946956Y-87527033D01*
X152827033Y-87646956D01*
X152827030Y-87646960D01*
X152738002Y-87791295D01*
X152737997Y-87791306D01*
X152684652Y-87952291D01*
X152674501Y-88051648D01*
X152674501Y-88598338D01*
X152674502Y-88598356D01*
X152684651Y-88697708D01*
X152684652Y-88697711D01*
X152737997Y-88858695D01*
X152738002Y-88858706D01*
X152827030Y-89003041D01*
X152827033Y-89003045D01*
X152836661Y-89012673D01*
X152870146Y-89073996D01*
X152865162Y-89143688D01*
X152836664Y-89188032D01*
X152827429Y-89197266D01*
X152827425Y-89197272D01*
X152738458Y-89341508D01*
X152738453Y-89341519D01*
X152685145Y-89502394D01*
X152675001Y-89601678D01*
X152675001Y-89625001D01*
X153776001Y-89625001D01*
X153843040Y-89644686D01*
X153888795Y-89697490D01*
X153900001Y-89749001D01*
X153900001Y-90001001D01*
X153880316Y-90068040D01*
X153827512Y-90113795D01*
X153776001Y-90125001D01*
X152675002Y-90125001D01*
X152675002Y-90148323D01*
X152685145Y-90247608D01*
X152738453Y-90408482D01*
X152738458Y-90408493D01*
X152827425Y-90552729D01*
X152827428Y-90552733D01*
X152947268Y-90672573D01*
X152947272Y-90672576D01*
X153091508Y-90761543D01*
X153091521Y-90761549D01*
X153128465Y-90773791D01*
X153185910Y-90813563D01*
X153212734Y-90878079D01*
X153200419Y-90946855D01*
X153196850Y-90953496D01*
X153122821Y-91081719D01*
X153122819Y-91081723D01*
X153064328Y-91261741D01*
X153064327Y-91261745D01*
X153044541Y-91450001D01*
X153064327Y-91638257D01*
X153064328Y-91638260D01*
X153122819Y-91818278D01*
X153122822Y-91818285D01*
X153217468Y-91982217D01*
X153243246Y-92010846D01*
X153334631Y-92112340D01*
X153344130Y-92122889D01*
X153384739Y-92152393D01*
X153416107Y-92175183D01*
X153458772Y-92230513D01*
X153464751Y-92300126D01*
X153432145Y-92361921D01*
X153371306Y-92396279D01*
X153343221Y-92399501D01*
X152235507Y-92399501D01*
X152219496Y-92397733D01*
X152219474Y-92397975D01*
X152211707Y-92397240D01*
X152139784Y-92399501D01*
X152109076Y-92399501D01*
X152109072Y-92399501D01*
X152109061Y-92399502D01*
X152101805Y-92400418D01*
X152095987Y-92400876D01*
X152047434Y-92402402D01*
X152036434Y-92405598D01*
X152027041Y-92408326D01*
X152007997Y-92412269D01*
X151986943Y-92414930D01*
X151964031Y-92424001D01*
X151945145Y-92431478D01*
X151875566Y-92437852D01*
X151813587Y-92405598D01*
X151778885Y-92344955D01*
X151775501Y-92316184D01*
X151775501Y-92279023D01*
X151795186Y-92211984D01*
X151811815Y-92191346D01*
X151880474Y-92122688D01*
X151968480Y-91977109D01*
X152019088Y-91814699D01*
X152025502Y-91744119D01*
X152025502Y-91080887D01*
X152019088Y-91010307D01*
X151968480Y-90847897D01*
X151880474Y-90702318D01*
X151880472Y-90702316D01*
X151880471Y-90702314D01*
X151811820Y-90633663D01*
X151778335Y-90572340D01*
X151775501Y-90545982D01*
X151775501Y-90529023D01*
X151795186Y-90461984D01*
X151811815Y-90441346D01*
X151880474Y-90372688D01*
X151968480Y-90227109D01*
X152019088Y-90064699D01*
X152025502Y-89994119D01*
X152025502Y-89330887D01*
X152019088Y-89260307D01*
X151968480Y-89097897D01*
X151880474Y-88952318D01*
X151880472Y-88952316D01*
X151880471Y-88952314D01*
X151815839Y-88887682D01*
X151782354Y-88826359D01*
X151787338Y-88756667D01*
X151815838Y-88712321D01*
X151905473Y-88622687D01*
X151993479Y-88477108D01*
X152044087Y-88314698D01*
X152050501Y-88244118D01*
X152050501Y-87983309D01*
X152070186Y-87916270D01*
X152086815Y-87895633D01*
X153312014Y-86670433D01*
X153324580Y-86660367D01*
X153324426Y-86660180D01*
X153330438Y-86655206D01*
X153330438Y-86655205D01*
X153330441Y-86655204D01*
X153379691Y-86602757D01*
X153401412Y-86581037D01*
X153405902Y-86575247D01*
X153409684Y-86570817D01*
X153442949Y-86535395D01*
X153453175Y-86516792D01*
X153463854Y-86500535D01*
X153476863Y-86483766D01*
X153489045Y-86455612D01*
X153533733Y-86401903D01*
X153568247Y-86385780D01*
X153685399Y-86351745D01*
X153826866Y-86268082D01*
X153826865Y-86268082D01*
X153833581Y-86264111D01*
X153834656Y-86265929D01*
X153889533Y-86244382D01*
X153958051Y-86258060D01*
G37*
%TD.AperFunction*%
%TA.AperFunction,Conductor*%
G36*
X154817294Y-89464864D02*
G01*
X154833716Y-89478663D01*
X154898130Y-89543077D01*
X154898141Y-89543086D01*
X154898456Y-89543272D01*
X154898651Y-89543481D01*
X154904299Y-89547862D01*
X154903592Y-89548773D01*
X154946137Y-89594344D01*
X154958638Y-89663086D01*
X154931989Y-89727674D01*
X154904079Y-89751857D01*
X154904299Y-89752140D01*
X154899093Y-89756177D01*
X154898456Y-89756730D01*
X154898141Y-89756915D01*
X154898134Y-89756921D01*
X154836681Y-89818374D01*
X154775357Y-89851858D01*
X154705666Y-89846873D01*
X154649732Y-89805002D01*
X154625316Y-89739537D01*
X154625000Y-89730692D01*
X154625000Y-89601693D01*
X154624999Y-89601677D01*
X154622677Y-89578946D01*
X154635447Y-89510253D01*
X154683327Y-89459369D01*
X154751117Y-89442448D01*
X154817294Y-89464864D01*
G37*
%TD.AperFunction*%
%TA.AperFunction,Conductor*%
G36*
X161402019Y-77700634D02*
G01*
X161483746Y-77705990D01*
X161492953Y-77706648D01*
X161665442Y-77718983D01*
X161673089Y-77720014D01*
X161789604Y-77743190D01*
X161933632Y-77774523D01*
X161940370Y-77776393D01*
X162059370Y-77816788D01*
X162059494Y-77816830D01*
X162191731Y-77866152D01*
X162197468Y-77868628D01*
X162299442Y-77918917D01*
X162312993Y-77925600D01*
X162434891Y-77992161D01*
X162439618Y-77995023D01*
X162546695Y-78066568D01*
X162549362Y-78068456D01*
X162658638Y-78150259D01*
X162662333Y-78153255D01*
X162759532Y-78238496D01*
X162762470Y-78241248D01*
X162821223Y-78300001D01*
X162858734Y-78337512D01*
X162861508Y-78340474D01*
X162901604Y-78386194D01*
X162946740Y-78437663D01*
X162949752Y-78441378D01*
X163031535Y-78550629D01*
X163033453Y-78553339D01*
X163104972Y-78660374D01*
X163107838Y-78665108D01*
X163174400Y-78787007D01*
X163231362Y-78902515D01*
X163233848Y-78908273D01*
X163283175Y-79040520D01*
X163323601Y-79159614D01*
X163325476Y-79166369D01*
X163356822Y-79310468D01*
X163379982Y-79426897D01*
X163381017Y-79434578D01*
X163393994Y-79616018D01*
X163399368Y-79697999D01*
X163399501Y-79702056D01*
X163399501Y-103197976D01*
X163399368Y-103202033D01*
X163394018Y-103283649D01*
X163381016Y-103465438D01*
X163379981Y-103473118D01*
X163356842Y-103589447D01*
X163325475Y-103733635D01*
X163323601Y-103740389D01*
X163283195Y-103859425D01*
X163271907Y-103889691D01*
X163233844Y-103991738D01*
X163231358Y-103997496D01*
X163174415Y-104112965D01*
X163107827Y-104234911D01*
X163104961Y-104239645D01*
X163033469Y-104346640D01*
X163031551Y-104349350D01*
X162949744Y-104458633D01*
X162946723Y-104462359D01*
X162861530Y-104559503D01*
X162858756Y-104562464D01*
X162762464Y-104658756D01*
X162759503Y-104661530D01*
X162662359Y-104746723D01*
X162658633Y-104749744D01*
X162549350Y-104831551D01*
X162546640Y-104833469D01*
X162439645Y-104904961D01*
X162434911Y-104907827D01*
X162312965Y-104974415D01*
X162197496Y-105031358D01*
X162191738Y-105033844D01*
X162089691Y-105071907D01*
X162059425Y-105083195D01*
X161940389Y-105123601D01*
X161933635Y-105125475D01*
X161789447Y-105156842D01*
X161673118Y-105179981D01*
X161665438Y-105181016D01*
X161483649Y-105194018D01*
X161432583Y-105197365D01*
X161402026Y-105199368D01*
X161397977Y-105199501D01*
X137902025Y-105199501D01*
X137897975Y-105199368D01*
X137879293Y-105198143D01*
X137816451Y-105194024D01*
X137634545Y-105181013D01*
X137626866Y-105179978D01*
X137510689Y-105156869D01*
X137366335Y-105125467D01*
X137359579Y-105123592D01*
X137240641Y-105083218D01*
X137223127Y-105076685D01*
X137108236Y-105033832D01*
X137102478Y-105031346D01*
X136987089Y-104974443D01*
X136865073Y-104907817D01*
X136860339Y-104904951D01*
X136803427Y-104866924D01*
X136753359Y-104833469D01*
X136750680Y-104831572D01*
X136641336Y-104749719D01*
X136637635Y-104746719D01*
X136540518Y-104661549D01*
X136537557Y-104658775D01*
X136441225Y-104562445D01*
X136438461Y-104559493D01*
X136353284Y-104462368D01*
X136350271Y-104458652D01*
X136347408Y-104454828D01*
X136268435Y-104349331D01*
X136266517Y-104346621D01*
X136263673Y-104342365D01*
X136224133Y-104283188D01*
X136195043Y-104239651D01*
X136192177Y-104234918D01*
X136177871Y-104208719D01*
X136125560Y-104112918D01*
X136102909Y-104066987D01*
X136068650Y-103997516D01*
X136066164Y-103991758D01*
X136046207Y-103938252D01*
X136016797Y-103859404D01*
X135976396Y-103740386D01*
X135974536Y-103733683D01*
X135946769Y-103606040D01*
X135943136Y-103589338D01*
X135927500Y-103510735D01*
X135920018Y-103473118D01*
X135918987Y-103465472D01*
X135905968Y-103283456D01*
X135902193Y-103225851D01*
X135900634Y-103202049D01*
X135900501Y-103197994D01*
X135900501Y-102200001D01*
X136645173Y-102200001D01*
X136664463Y-102494313D01*
X136664465Y-102494325D01*
X136722002Y-102783585D01*
X136722006Y-102783600D01*
X136816813Y-103062889D01*
X136947259Y-103327407D01*
X136947266Y-103327420D01*
X137111123Y-103572649D01*
X137140407Y-103606040D01*
X137964211Y-102782236D01*
X138064895Y-102923625D01*
X138216933Y-103068593D01*
X138319223Y-103134330D01*
X137493960Y-103959593D01*
X137493960Y-103959594D01*
X137527345Y-103988873D01*
X137527349Y-103988876D01*
X137772581Y-104152735D01*
X137772594Y-104152742D01*
X138037112Y-104283188D01*
X138316401Y-104377995D01*
X138316416Y-104377999D01*
X138605676Y-104435536D01*
X138605688Y-104435538D01*
X138900001Y-104454828D01*
X139194313Y-104435538D01*
X139194325Y-104435536D01*
X139483585Y-104377999D01*
X139483600Y-104377995D01*
X139762889Y-104283188D01*
X140027407Y-104152742D01*
X140027420Y-104152735D01*
X140272651Y-103988878D01*
X140306040Y-103959594D01*
X140306041Y-103959593D01*
X139483307Y-103136860D01*
X139497411Y-103129590D01*
X139662541Y-102999730D01*
X139800111Y-102840966D01*
X139834666Y-102781114D01*
X140659593Y-103606041D01*
X140659594Y-103606040D01*
X140688878Y-103572651D01*
X140852735Y-103327420D01*
X140852742Y-103327407D01*
X140983188Y-103062889D01*
X141041877Y-102890000D01*
X148279975Y-102890000D01*
X148300042Y-103144989D01*
X148359752Y-103393702D01*
X148457634Y-103630012D01*
X148457636Y-103630015D01*
X148591275Y-103848095D01*
X148591286Y-103848110D01*
X148594533Y-103851911D01*
X148594535Y-103851911D01*
X149158766Y-103287679D01*
X149202316Y-103369822D01*
X149322009Y-103510735D01*
X149469195Y-103622623D01*
X149511402Y-103642150D01*
X148948087Y-104205464D01*
X148948087Y-104205465D01*
X148951888Y-104208712D01*
X148951898Y-104208719D01*
X149169984Y-104342363D01*
X149169987Y-104342365D01*
X149406297Y-104440247D01*
X149655011Y-104499957D01*
X149655010Y-104499957D01*
X149910000Y-104520024D01*
X150164989Y-104499957D01*
X150413702Y-104440247D01*
X150650012Y-104342365D01*
X150650015Y-104342363D01*
X150868103Y-104208719D01*
X150871912Y-104205464D01*
X150308609Y-103642161D01*
X150427431Y-103570669D01*
X150561658Y-103443523D01*
X150664861Y-103291308D01*
X151225464Y-103851912D01*
X151228719Y-103848103D01*
X151362363Y-103630015D01*
X151362365Y-103630012D01*
X151460247Y-103393702D01*
X151519957Y-103144989D01*
X151540024Y-102890000D01*
X153359975Y-102890000D01*
X153380042Y-103144989D01*
X153439752Y-103393702D01*
X153537634Y-103630012D01*
X153537636Y-103630015D01*
X153671275Y-103848095D01*
X153671286Y-103848110D01*
X153674533Y-103851911D01*
X153674535Y-103851911D01*
X154238766Y-103287679D01*
X154282316Y-103369822D01*
X154402009Y-103510735D01*
X154549195Y-103622623D01*
X154591402Y-103642150D01*
X154028087Y-104205464D01*
X154028087Y-104205465D01*
X154031888Y-104208712D01*
X154031898Y-104208719D01*
X154249984Y-104342363D01*
X154249987Y-104342365D01*
X154486297Y-104440247D01*
X154735011Y-104499957D01*
X154735010Y-104499957D01*
X154990000Y-104520024D01*
X155244989Y-104499957D01*
X155493702Y-104440247D01*
X155730012Y-104342365D01*
X155730015Y-104342363D01*
X155948103Y-104208719D01*
X155951912Y-104205464D01*
X155388609Y-103642161D01*
X155507431Y-103570669D01*
X155641658Y-103443523D01*
X155744861Y-103291308D01*
X156305464Y-103851912D01*
X156308719Y-103848103D01*
X156442363Y-103630015D01*
X156442365Y-103630012D01*
X156540247Y-103393702D01*
X156599957Y-103144989D01*
X156620024Y-102890000D01*
X156599957Y-102635010D01*
X156540247Y-102386297D01*
X156463083Y-102200006D01*
X157995256Y-102200006D01*
X158014216Y-102501384D01*
X158014217Y-102501391D01*
X158070806Y-102798041D01*
X158164126Y-103085248D01*
X158164128Y-103085253D01*
X158292705Y-103358492D01*
X158292708Y-103358498D01*
X158454514Y-103613465D01*
X158535313Y-103711134D01*
X159464212Y-102782236D01*
X159564895Y-102923625D01*
X159716933Y-103068593D01*
X159819223Y-103134330D01*
X158886565Y-104066987D01*
X159111475Y-104230394D01*
X159111486Y-104230401D01*
X159376110Y-104375879D01*
X159376118Y-104375883D01*
X159656890Y-104487048D01*
X159656893Y-104487049D01*
X159949400Y-104562151D01*
X160248996Y-104600000D01*
X160249008Y-104600001D01*
X160550994Y-104600001D01*
X160551005Y-104600000D01*
X160850601Y-104562151D01*
X161143108Y-104487049D01*
X161143111Y-104487048D01*
X161423883Y-104375883D01*
X161423891Y-104375879D01*
X161688515Y-104230401D01*
X161688526Y-104230394D01*
X161913434Y-104066987D01*
X161913435Y-104066987D01*
X160983307Y-103136860D01*
X160997411Y-103129590D01*
X161162541Y-102999730D01*
X161300111Y-102840966D01*
X161334666Y-102781113D01*
X162264687Y-103711134D01*
X162345484Y-103613470D01*
X162507293Y-103358498D01*
X162507296Y-103358492D01*
X162635873Y-103085253D01*
X162635875Y-103085248D01*
X162729195Y-102798041D01*
X162785784Y-102501391D01*
X162785785Y-102501384D01*
X162804746Y-102200006D01*
X162804746Y-102199995D01*
X162785785Y-101898617D01*
X162785784Y-101898610D01*
X162729195Y-101601960D01*
X162635875Y-101314753D01*
X162635873Y-101314748D01*
X162507296Y-101041509D01*
X162507293Y-101041503D01*
X162345487Y-100786536D01*
X162264686Y-100688865D01*
X161335788Y-101617764D01*
X161235107Y-101476377D01*
X161083069Y-101331409D01*
X160980778Y-101265670D01*
X161913435Y-100333013D01*
X161688531Y-100169610D01*
X161688521Y-100169603D01*
X161423891Y-100024122D01*
X161423883Y-100024118D01*
X161143111Y-99912953D01*
X161143108Y-99912952D01*
X160850601Y-99837850D01*
X160551005Y-99800001D01*
X160248996Y-99800001D01*
X159949400Y-99837850D01*
X159656893Y-99912952D01*
X159656890Y-99912953D01*
X159376118Y-100024118D01*
X159376110Y-100024122D01*
X159111480Y-100169603D01*
X159111462Y-100169615D01*
X158886566Y-100333011D01*
X158886565Y-100333013D01*
X159816694Y-101263141D01*
X159802591Y-101270412D01*
X159637461Y-101400272D01*
X159499891Y-101559036D01*
X159465335Y-101618887D01*
X158535313Y-100688865D01*
X158454517Y-100786531D01*
X158292708Y-101041503D01*
X158292705Y-101041509D01*
X158164128Y-101314748D01*
X158164126Y-101314753D01*
X158070806Y-101601960D01*
X158014217Y-101898610D01*
X158014216Y-101898617D01*
X157995256Y-102199995D01*
X157995256Y-102200006D01*
X156463083Y-102200006D01*
X156442365Y-102149987D01*
X156442363Y-102149984D01*
X156308719Y-101931898D01*
X156308712Y-101931888D01*
X156305465Y-101928087D01*
X156305464Y-101928087D01*
X155741232Y-102492319D01*
X155697684Y-102410178D01*
X155577991Y-102269265D01*
X155430805Y-102157377D01*
X155388596Y-102137849D01*
X155951911Y-101574535D01*
X155951911Y-101574533D01*
X155948110Y-101571286D01*
X155948095Y-101571275D01*
X155730015Y-101437636D01*
X155730012Y-101437634D01*
X155493702Y-101339752D01*
X155244988Y-101280042D01*
X155244989Y-101280042D01*
X154990000Y-101259975D01*
X154735010Y-101280042D01*
X154486297Y-101339752D01*
X154249987Y-101437634D01*
X154249984Y-101437636D01*
X154031897Y-101571280D01*
X154028087Y-101574534D01*
X154591390Y-102137838D01*
X154472569Y-102209331D01*
X154338342Y-102336477D01*
X154235139Y-102488690D01*
X153674534Y-101928087D01*
X153671280Y-101931897D01*
X153537636Y-102149984D01*
X153537634Y-102149987D01*
X153439752Y-102386297D01*
X153380042Y-102635010D01*
X153359975Y-102890000D01*
X151540024Y-102890000D01*
X151519957Y-102635010D01*
X151460247Y-102386297D01*
X151362365Y-102149987D01*
X151362363Y-102149984D01*
X151228719Y-101931898D01*
X151228712Y-101931888D01*
X151225465Y-101928087D01*
X151225464Y-101928087D01*
X150661232Y-102492319D01*
X150617684Y-102410178D01*
X150497991Y-102269265D01*
X150350805Y-102157377D01*
X150308597Y-102137849D01*
X150871911Y-101574535D01*
X150871911Y-101574533D01*
X150868110Y-101571286D01*
X150868095Y-101571275D01*
X150650015Y-101437636D01*
X150650012Y-101437634D01*
X150413702Y-101339752D01*
X150164988Y-101280042D01*
X150164989Y-101280042D01*
X149910000Y-101259975D01*
X149655010Y-101280042D01*
X149406297Y-101339752D01*
X149169987Y-101437634D01*
X149169984Y-101437636D01*
X148951897Y-101571280D01*
X148948087Y-101574534D01*
X149511390Y-102137837D01*
X149392569Y-102209331D01*
X149258342Y-102336477D01*
X149155138Y-102488691D01*
X148594534Y-101928087D01*
X148591280Y-101931897D01*
X148457636Y-102149984D01*
X148457634Y-102149987D01*
X148359752Y-102386297D01*
X148300042Y-102635010D01*
X148279975Y-102890000D01*
X141041877Y-102890000D01*
X141077995Y-102783600D01*
X141077999Y-102783585D01*
X141135536Y-102494325D01*
X141135538Y-102494313D01*
X141154828Y-102200001D01*
X141135538Y-101905688D01*
X141135536Y-101905676D01*
X141077999Y-101616416D01*
X141077995Y-101616401D01*
X140983188Y-101337112D01*
X140852742Y-101072594D01*
X140852735Y-101072581D01*
X140688876Y-100827349D01*
X140688873Y-100827345D01*
X140659594Y-100793960D01*
X140659593Y-100793960D01*
X139835789Y-101617764D01*
X139735107Y-101476377D01*
X139583069Y-101331409D01*
X139480778Y-101265670D01*
X140306040Y-100440407D01*
X140272649Y-100411123D01*
X140027420Y-100247266D01*
X140027407Y-100247259D01*
X139762889Y-100116813D01*
X139483600Y-100022006D01*
X139483585Y-100022002D01*
X139194325Y-99964465D01*
X139194313Y-99964463D01*
X138900001Y-99945173D01*
X138605688Y-99964463D01*
X138605676Y-99964465D01*
X138316416Y-100022002D01*
X138316401Y-100022006D01*
X138037112Y-100116813D01*
X137772594Y-100247259D01*
X137772581Y-100247266D01*
X137527351Y-100411124D01*
X137493959Y-100440407D01*
X138316694Y-101263141D01*
X138302591Y-101270412D01*
X138137461Y-101400272D01*
X137999891Y-101559036D01*
X137965335Y-101618887D01*
X137140407Y-100793959D01*
X137111124Y-100827351D01*
X136947266Y-101072581D01*
X136947259Y-101072594D01*
X136816813Y-101337112D01*
X136722006Y-101616401D01*
X136722002Y-101616416D01*
X136664465Y-101905676D01*
X136664463Y-101905688D01*
X136645173Y-102200001D01*
X135900501Y-102200001D01*
X135900501Y-95462503D01*
X144200002Y-95462503D01*
X144200002Y-95510825D01*
X144210145Y-95610110D01*
X144263453Y-95770984D01*
X144263458Y-95770995D01*
X144352425Y-95915231D01*
X144352428Y-95915235D01*
X144472268Y-96035075D01*
X144472272Y-96035078D01*
X144616508Y-96124045D01*
X144616519Y-96124050D01*
X144777394Y-96177358D01*
X144876684Y-96187502D01*
X144900001Y-96187501D01*
X144900001Y-95462503D01*
X144200002Y-95462503D01*
X135900501Y-95462503D01*
X135900501Y-93794115D01*
X144149501Y-93794115D01*
X144155914Y-93864694D01*
X144155914Y-93864696D01*
X144155915Y-93864698D01*
X144206523Y-94027108D01*
X144294529Y-94172687D01*
X144404340Y-94282498D01*
X144437824Y-94343819D01*
X144432840Y-94413511D01*
X144404340Y-94457858D01*
X144352428Y-94509770D01*
X144352425Y-94509774D01*
X144263458Y-94654010D01*
X144263453Y-94654021D01*
X144210145Y-94814896D01*
X144200001Y-94914180D01*
X144200001Y-94962503D01*
X145276001Y-94962503D01*
X145343040Y-94982188D01*
X145388795Y-95034992D01*
X145400001Y-95086503D01*
X145400001Y-96187502D01*
X145423309Y-96187502D01*
X145423323Y-96187501D01*
X145522608Y-96177358D01*
X145683482Y-96124050D01*
X145683493Y-96124045D01*
X145827732Y-96035076D01*
X145836960Y-96025848D01*
X145898280Y-95992359D01*
X145967972Y-95997338D01*
X146012328Y-96025842D01*
X146021956Y-96035470D01*
X146021960Y-96035473D01*
X146166295Y-96124501D01*
X146166298Y-96124502D01*
X146166304Y-96124506D01*
X146327293Y-96177852D01*
X146426656Y-96188003D01*
X146973345Y-96188002D01*
X146973353Y-96188001D01*
X146973356Y-96188001D01*
X147040638Y-96181128D01*
X147072709Y-96177852D01*
X147233698Y-96124506D01*
X147378045Y-96035471D01*
X147464194Y-95949322D01*
X147525517Y-95915837D01*
X147551875Y-95913003D01*
X147634489Y-95913003D01*
X147697610Y-95930271D01*
X147698136Y-95930582D01*
X147839603Y-96014245D01*
X147866530Y-96022068D01*
X147997427Y-96060098D01*
X147997430Y-96060098D01*
X147997432Y-96060099D01*
X148009723Y-96061066D01*
X148034305Y-96063001D01*
X148034307Y-96063001D01*
X149190697Y-96063001D01*
X149209132Y-96061550D01*
X149227570Y-96060099D01*
X149276587Y-96045858D01*
X149346454Y-96046057D01*
X149351080Y-96049048D01*
X149382223Y-96016123D01*
X149526860Y-95930586D01*
X149526861Y-95930584D01*
X149526866Y-95930582D01*
X149643082Y-95814366D01*
X149726745Y-95672899D01*
X149771494Y-95518874D01*
X149772598Y-95515074D01*
X149772599Y-95515068D01*
X149775501Y-95478197D01*
X149775501Y-95080396D01*
X149795186Y-95013357D01*
X149847990Y-94967602D01*
X149917148Y-94957658D01*
X149965497Y-94978172D01*
X149966421Y-94976611D01*
X150007035Y-95000629D01*
X150114603Y-95064245D01*
X150156225Y-95076337D01*
X150272427Y-95110098D01*
X150272430Y-95110098D01*
X150272432Y-95110099D01*
X150284723Y-95111066D01*
X150309305Y-95113001D01*
X150309307Y-95113001D01*
X151083165Y-95113001D01*
X151150204Y-95132686D01*
X151195959Y-95185490D01*
X151206261Y-95251948D01*
X151194355Y-95350000D01*
X151214859Y-95518869D01*
X151214860Y-95518874D01*
X151275182Y-95677931D01*
X151345332Y-95779559D01*
X151367215Y-95845913D01*
X151349750Y-95913565D01*
X151345332Y-95920439D01*
X151275183Y-96022068D01*
X151275182Y-96022068D01*
X151214860Y-96181125D01*
X151214859Y-96181130D01*
X151194355Y-96350000D01*
X151214859Y-96518869D01*
X151214860Y-96518874D01*
X151277842Y-96684943D01*
X151276133Y-96685590D01*
X151287958Y-96744647D01*
X151262459Y-96809697D01*
X151252119Y-96821432D01*
X150661232Y-97412319D01*
X150617684Y-97330178D01*
X150497991Y-97189265D01*
X150350805Y-97077377D01*
X150308597Y-97057849D01*
X150871911Y-96494535D01*
X150871911Y-96494533D01*
X150868110Y-96491286D01*
X150868095Y-96491275D01*
X150650015Y-96357636D01*
X150650012Y-96357634D01*
X150413702Y-96259752D01*
X150164988Y-96200042D01*
X150164989Y-96200042D01*
X149910000Y-96179975D01*
X149655010Y-96200042D01*
X149474290Y-96243429D01*
X149404507Y-96239938D01*
X149403969Y-96239553D01*
X149377924Y-96269439D01*
X149358634Y-96279495D01*
X149169983Y-96357636D01*
X148951897Y-96491280D01*
X148948087Y-96494534D01*
X149511390Y-97057837D01*
X149392569Y-97129331D01*
X149258342Y-97256477D01*
X149155138Y-97408691D01*
X148594534Y-96848087D01*
X148591280Y-96851897D01*
X148457636Y-97069984D01*
X148457634Y-97069987D01*
X148359752Y-97306297D01*
X148300042Y-97555010D01*
X148279975Y-97810000D01*
X148300042Y-98064989D01*
X148359752Y-98313702D01*
X148457634Y-98550012D01*
X148457636Y-98550015D01*
X148591275Y-98768095D01*
X148591286Y-98768110D01*
X148594533Y-98771911D01*
X148594535Y-98771911D01*
X149158766Y-98207679D01*
X149202316Y-98289822D01*
X149322009Y-98430735D01*
X149469195Y-98542623D01*
X149511402Y-98562150D01*
X148948087Y-99125464D01*
X148948087Y-99125465D01*
X148951888Y-99128712D01*
X148951898Y-99128719D01*
X149169984Y-99262363D01*
X149169987Y-99262365D01*
X149406297Y-99360247D01*
X149655011Y-99419957D01*
X149655010Y-99419957D01*
X149910000Y-99440024D01*
X150164989Y-99419957D01*
X150413702Y-99360247D01*
X150650012Y-99262365D01*
X150650015Y-99262363D01*
X150868100Y-99128721D01*
X150868101Y-99128720D01*
X150922365Y-99082375D01*
X150986126Y-99053804D01*
X151055212Y-99064241D01*
X151107688Y-99110372D01*
X151126894Y-99177550D01*
X151118839Y-99220635D01*
X151114861Y-99231122D01*
X151114859Y-99231130D01*
X151094355Y-99399999D01*
X151114859Y-99568869D01*
X151114860Y-99568874D01*
X151175182Y-99727931D01*
X151270808Y-99866468D01*
X151292691Y-99932822D01*
X151288533Y-99969001D01*
X151243452Y-100137247D01*
X151243450Y-100137258D01*
X151224838Y-100349998D01*
X151224838Y-100350001D01*
X151243450Y-100562741D01*
X151243452Y-100562752D01*
X151298721Y-100769022D01*
X151298723Y-100769026D01*
X151298724Y-100769030D01*
X151325917Y-100827345D01*
X151388977Y-100962578D01*
X151511472Y-101137521D01*
X151662478Y-101288527D01*
X151662481Y-101288529D01*
X151837419Y-101411021D01*
X151837421Y-101411022D01*
X151837420Y-101411022D01*
X151901936Y-101441106D01*
X152030970Y-101501276D01*
X152237253Y-101556549D01*
X152389215Y-101569843D01*
X152449998Y-101575162D01*
X152450000Y-101575162D01*
X152450002Y-101575162D01*
X152503186Y-101570508D01*
X152662747Y-101556549D01*
X152869030Y-101501276D01*
X153062581Y-101411021D01*
X153237519Y-101288529D01*
X153388529Y-101137519D01*
X153511021Y-100962581D01*
X153601276Y-100769030D01*
X153656549Y-100562747D01*
X153675162Y-100350000D01*
X153656549Y-100137253D01*
X153611466Y-99968999D01*
X153613129Y-99899150D01*
X153629191Y-99866468D01*
X153724818Y-99727930D01*
X153785140Y-99568872D01*
X153805645Y-99400000D01*
X153785140Y-99231128D01*
X153781161Y-99220638D01*
X153775792Y-99150978D01*
X153808937Y-99089470D01*
X153870074Y-99055647D01*
X153939792Y-99060245D01*
X153977633Y-99082374D01*
X154031898Y-99128720D01*
X154031899Y-99128721D01*
X154249984Y-99262363D01*
X154249987Y-99262365D01*
X154486297Y-99360247D01*
X154735011Y-99419957D01*
X154735010Y-99419957D01*
X154990000Y-99440024D01*
X155244989Y-99419957D01*
X155493702Y-99360247D01*
X155730012Y-99262365D01*
X155730015Y-99262363D01*
X155948103Y-99128719D01*
X155951912Y-99125464D01*
X155388609Y-98562161D01*
X155507431Y-98490669D01*
X155641658Y-98363523D01*
X155744861Y-98211309D01*
X156305464Y-98771912D01*
X156308719Y-98768103D01*
X156442363Y-98550015D01*
X156442365Y-98550012D01*
X156540247Y-98313702D01*
X156599957Y-98064989D01*
X156620024Y-97810000D01*
X156599957Y-97555010D01*
X156540247Y-97306297D01*
X156442365Y-97069987D01*
X156442363Y-97069984D01*
X156308719Y-96851898D01*
X156308712Y-96851888D01*
X156305465Y-96848087D01*
X156305464Y-96848087D01*
X155741232Y-97412319D01*
X155697684Y-97330178D01*
X155577991Y-97189265D01*
X155430805Y-97077377D01*
X155388597Y-97057849D01*
X155951911Y-96494535D01*
X155951152Y-96475203D01*
X155940523Y-96458917D01*
X155940029Y-96389049D01*
X155943299Y-96379198D01*
X155976269Y-96292262D01*
X156018446Y-96236561D01*
X156028061Y-96230118D01*
X156110182Y-96180474D01*
X156110186Y-96180471D01*
X156113299Y-96177358D01*
X156212673Y-96077983D01*
X156273994Y-96044499D01*
X156343685Y-96049483D01*
X156388034Y-96077984D01*
X156490122Y-96180072D01*
X156635604Y-96268019D01*
X156635603Y-96268019D01*
X156797894Y-96318590D01*
X156797893Y-96318590D01*
X156868408Y-96324998D01*
X156868426Y-96324999D01*
X156874999Y-96324998D01*
X156875000Y-96324998D01*
X157374999Y-96324998D01*
X157375000Y-96324999D01*
X157381581Y-96324999D01*
X157452102Y-96318591D01*
X157452107Y-96318590D01*
X157614396Y-96268018D01*
X157759877Y-96180072D01*
X157880072Y-96059877D01*
X157968019Y-95914395D01*
X158018590Y-95752106D01*
X158025000Y-95681572D01*
X158025000Y-95600000D01*
X157375000Y-95600000D01*
X157374999Y-96324998D01*
X156875000Y-96324998D01*
X156875000Y-94375000D01*
X157375000Y-94375000D01*
X157375000Y-95100000D01*
X158024999Y-95100000D01*
X158024999Y-95018417D01*
X158018591Y-94947897D01*
X158018590Y-94947892D01*
X157968018Y-94785603D01*
X157880072Y-94640122D01*
X157759877Y-94519927D01*
X157614395Y-94431980D01*
X157614396Y-94431980D01*
X157452105Y-94381409D01*
X157452106Y-94381409D01*
X157381572Y-94375000D01*
X157375000Y-94375000D01*
X156875000Y-94375000D01*
X156874999Y-94374999D01*
X156868436Y-94375000D01*
X156868417Y-94375001D01*
X156797897Y-94381408D01*
X156797892Y-94381409D01*
X156635603Y-94431981D01*
X156490122Y-94519927D01*
X156490121Y-94519928D01*
X156388035Y-94622015D01*
X156326712Y-94655500D01*
X156257020Y-94650516D01*
X156212673Y-94622015D01*
X156110188Y-94519530D01*
X156095672Y-94510755D01*
X155964606Y-94431522D01*
X155802196Y-94380914D01*
X155802192Y-94380913D01*
X155795932Y-94378963D01*
X155796816Y-94376125D01*
X155746361Y-94349666D01*
X155729896Y-94327678D01*
X155729079Y-94328243D01*
X155688370Y-94269266D01*
X155628183Y-94182071D01*
X155531939Y-94096807D01*
X155500849Y-94069263D01*
X155350226Y-93990210D01*
X155185056Y-93949500D01*
X155014944Y-93949500D01*
X154849773Y-93990210D01*
X154699149Y-94069264D01*
X154699147Y-94069265D01*
X154566275Y-94186979D01*
X154503042Y-94216700D01*
X154433779Y-94207516D01*
X154426425Y-94203961D01*
X154400225Y-94190210D01*
X154235056Y-94149500D01*
X154064944Y-94149500D01*
X153899773Y-94190210D01*
X153749150Y-94269263D01*
X153621813Y-94382074D01*
X153588967Y-94429660D01*
X153534684Y-94473650D01*
X153465235Y-94481309D01*
X153457243Y-94479616D01*
X153335056Y-94449500D01*
X153164944Y-94449500D01*
X152999773Y-94490210D01*
X152849150Y-94569263D01*
X152721816Y-94682072D01*
X152625182Y-94822068D01*
X152625182Y-94822069D01*
X152622308Y-94829648D01*
X152580128Y-94885350D01*
X152514530Y-94909405D01*
X152446340Y-94894176D01*
X152424140Y-94878489D01*
X152300852Y-94769266D01*
X152300850Y-94769264D01*
X152150225Y-94690209D01*
X152150222Y-94690208D01*
X152142090Y-94688204D01*
X152081710Y-94653047D01*
X152049922Y-94590827D01*
X152048149Y-94558079D01*
X152050501Y-94528197D01*
X152050501Y-94120808D01*
X152070186Y-94053769D01*
X152086820Y-94033127D01*
X152383128Y-93736820D01*
X152444451Y-93703335D01*
X152470809Y-93700501D01*
X154839496Y-93700501D01*
X154855506Y-93702268D01*
X154855529Y-93702027D01*
X154863290Y-93702759D01*
X154863297Y-93702761D01*
X154935204Y-93700501D01*
X154965926Y-93700501D01*
X154973191Y-93699582D01*
X154979017Y-93699123D01*
X155027570Y-93697598D01*
X155047957Y-93691674D01*
X155066997Y-93687732D01*
X155088059Y-93685072D01*
X155133236Y-93667184D01*
X155138736Y-93665301D01*
X155185399Y-93651745D01*
X155203666Y-93640940D01*
X155221137Y-93632381D01*
X155240872Y-93624569D01*
X155280178Y-93596011D01*
X155285044Y-93592814D01*
X155326866Y-93568082D01*
X155333128Y-93561819D01*
X155394452Y-93528334D01*
X155420810Y-93525500D01*
X155698339Y-93525500D01*
X155698345Y-93525500D01*
X155698353Y-93525499D01*
X155698356Y-93525499D01*
X155752761Y-93519941D01*
X155797709Y-93515350D01*
X155958698Y-93462004D01*
X156103045Y-93372969D01*
X156112669Y-93363344D01*
X156173988Y-93329857D01*
X156243680Y-93334836D01*
X156288035Y-93363340D01*
X156297268Y-93372573D01*
X156297272Y-93372576D01*
X156441508Y-93461543D01*
X156441519Y-93461548D01*
X156602394Y-93514856D01*
X156701684Y-93525000D01*
X156725001Y-93524999D01*
X156725001Y-92800001D01*
X157225001Y-92800001D01*
X157225001Y-93525000D01*
X157248309Y-93525000D01*
X157248323Y-93524999D01*
X157347608Y-93514856D01*
X157508482Y-93461548D01*
X157508493Y-93461543D01*
X157652729Y-93372576D01*
X157652733Y-93372573D01*
X157772573Y-93252733D01*
X157772576Y-93252729D01*
X157861543Y-93108493D01*
X157861548Y-93108482D01*
X157914856Y-92947607D01*
X157925000Y-92848323D01*
X157925001Y-92848310D01*
X157925001Y-92800001D01*
X157225001Y-92800001D01*
X156725001Y-92800001D01*
X156725001Y-92424001D01*
X156744686Y-92356962D01*
X156797490Y-92311207D01*
X156849001Y-92300001D01*
X157925000Y-92300001D01*
X157925000Y-92251693D01*
X157924999Y-92251678D01*
X157914856Y-92152393D01*
X157861546Y-91991513D01*
X157859999Y-91989005D01*
X157859461Y-91987042D01*
X157858493Y-91984964D01*
X157858847Y-91984798D01*
X157841558Y-91921612D01*
X157862480Y-91854949D01*
X157896001Y-91823246D01*
X157895394Y-91822464D01*
X157901562Y-91817679D01*
X158017679Y-91701562D01*
X158017686Y-91701553D01*
X158101283Y-91560197D01*
X158101284Y-91560194D01*
X158147100Y-91402496D01*
X158147101Y-91402490D01*
X158150001Y-91365645D01*
X158150001Y-91037501D01*
X157324501Y-91037501D01*
X157257462Y-91017816D01*
X157211707Y-90965012D01*
X157200501Y-90913501D01*
X157200501Y-90209305D01*
X157197599Y-90172433D01*
X157197598Y-90172427D01*
X157151746Y-90014607D01*
X157151746Y-90014606D01*
X157151745Y-90014605D01*
X157151745Y-90014603D01*
X157117268Y-89956305D01*
X157100001Y-89893185D01*
X157100001Y-88762501D01*
X157600001Y-88762501D01*
X157600001Y-90537501D01*
X158150001Y-90537501D01*
X158150001Y-90209357D01*
X158147101Y-90172511D01*
X158147100Y-90172505D01*
X158101284Y-90014807D01*
X158101283Y-90014804D01*
X158017686Y-89873448D01*
X158017679Y-89873439D01*
X157901562Y-89757322D01*
X157901556Y-89757318D01*
X157900569Y-89756734D01*
X157899952Y-89756073D01*
X157895394Y-89752538D01*
X157895964Y-89751802D01*
X157852885Y-89705665D01*
X157840381Y-89636924D01*
X157867025Y-89572334D01*
X157895527Y-89547636D01*
X157895394Y-89547464D01*
X157898565Y-89545003D01*
X157900569Y-89543268D01*
X157901556Y-89542683D01*
X157901562Y-89542679D01*
X158017679Y-89426562D01*
X158017686Y-89426553D01*
X158101283Y-89285197D01*
X158101284Y-89285194D01*
X158147100Y-89127496D01*
X158147101Y-89127490D01*
X158150001Y-89090645D01*
X158150001Y-88762501D01*
X157600001Y-88762501D01*
X157100001Y-88762501D01*
X156550001Y-88762501D01*
X156550001Y-89090645D01*
X156552900Y-89127490D01*
X156552901Y-89127496D01*
X156598717Y-89285194D01*
X156598718Y-89285197D01*
X156686289Y-89433272D01*
X156684567Y-89434289D01*
X156706258Y-89489546D01*
X156692573Y-89558063D01*
X156644018Y-89608304D01*
X156582743Y-89624501D01*
X156217896Y-89624501D01*
X156150857Y-89604816D01*
X156105102Y-89552012D01*
X156095158Y-89482854D01*
X156115672Y-89434504D01*
X156114111Y-89433581D01*
X156128027Y-89410049D01*
X156201745Y-89285399D01*
X156237305Y-89163001D01*
X156247598Y-89127574D01*
X156247599Y-89127568D01*
X156248546Y-89115543D01*
X156250501Y-89090695D01*
X156250501Y-87934307D01*
X156247599Y-87897432D01*
X156237305Y-87862001D01*
X156201746Y-87739607D01*
X156201745Y-87739604D01*
X156201745Y-87739603D01*
X156118267Y-87598448D01*
X156117769Y-87597606D01*
X156100501Y-87534485D01*
X156100501Y-87270810D01*
X156120186Y-87203771D01*
X156136815Y-87183134D01*
X156145608Y-87174340D01*
X156206929Y-87140851D01*
X156276621Y-87145832D01*
X156332557Y-87187700D01*
X156339410Y-87197865D01*
X156369529Y-87247687D01*
X156369532Y-87247691D01*
X156489812Y-87367971D01*
X156489814Y-87367972D01*
X156489816Y-87367974D01*
X156626931Y-87450863D01*
X156674116Y-87502389D01*
X156685955Y-87571248D01*
X156669511Y-87620099D01*
X156598718Y-87739804D01*
X156598717Y-87739807D01*
X156552901Y-87897505D01*
X156552900Y-87897511D01*
X156550001Y-87934357D01*
X156550001Y-88262501D01*
X158150001Y-88262501D01*
X158150001Y-87934357D01*
X158147101Y-87897511D01*
X158147100Y-87897505D01*
X158101284Y-87739807D01*
X158101283Y-87739804D01*
X158017686Y-87598448D01*
X158017679Y-87598439D01*
X157936381Y-87517141D01*
X157902896Y-87455818D01*
X157907880Y-87386126D01*
X157936379Y-87341780D01*
X158030473Y-87247687D01*
X158118479Y-87102108D01*
X158169087Y-86939698D01*
X158175501Y-86869118D01*
X158175501Y-86355886D01*
X158169087Y-86285306D01*
X158118479Y-86122896D01*
X158030473Y-85977317D01*
X158030471Y-85977315D01*
X158030470Y-85977313D01*
X157927985Y-85874828D01*
X157894500Y-85813505D01*
X157899484Y-85743813D01*
X157927986Y-85699465D01*
X158030072Y-85597380D01*
X158030073Y-85597379D01*
X158118020Y-85451897D01*
X158168591Y-85289608D01*
X158175001Y-85219074D01*
X158175001Y-85212502D01*
X157074001Y-85212502D01*
X157006962Y-85192817D01*
X156961207Y-85140013D01*
X156950001Y-85088502D01*
X156950001Y-84062502D01*
X157450001Y-84062502D01*
X157450001Y-84712502D01*
X158175000Y-84712502D01*
X158175000Y-84705919D01*
X158168592Y-84635399D01*
X158168591Y-84635394D01*
X158118019Y-84473105D01*
X158030073Y-84327624D01*
X157909878Y-84207429D01*
X157764396Y-84119482D01*
X157764397Y-84119482D01*
X157602106Y-84068911D01*
X157602107Y-84068911D01*
X157531573Y-84062502D01*
X157450001Y-84062502D01*
X156950001Y-84062502D01*
X156950000Y-84062501D01*
X156868418Y-84062502D01*
X156797898Y-84068910D01*
X156797893Y-84068911D01*
X156635604Y-84119483D01*
X156490123Y-84207429D01*
X156490122Y-84207430D01*
X156472832Y-84224721D01*
X156411509Y-84258206D01*
X156341817Y-84253222D01*
X156285884Y-84211350D01*
X156278419Y-84200161D01*
X156236775Y-84129745D01*
X156218082Y-84098136D01*
X156218080Y-84098134D01*
X156218077Y-84098130D01*
X156101871Y-83981924D01*
X156101863Y-83981918D01*
X155960397Y-83898256D01*
X155960394Y-83898255D01*
X155802574Y-83852403D01*
X155802568Y-83852402D01*
X155765697Y-83849501D01*
X155765695Y-83849501D01*
X154609307Y-83849501D01*
X154609305Y-83849501D01*
X154572433Y-83852402D01*
X154572427Y-83852403D01*
X154414607Y-83898255D01*
X154414604Y-83898256D01*
X154273138Y-83981918D01*
X154273130Y-83981924D01*
X154156924Y-84098130D01*
X154156918Y-84098138D01*
X154073256Y-84239604D01*
X154073255Y-84239607D01*
X154027403Y-84397427D01*
X154027402Y-84397433D01*
X154024501Y-84434305D01*
X154024501Y-84832105D01*
X154004816Y-84899144D01*
X153952012Y-84944899D01*
X153882854Y-84954843D01*
X153834503Y-84934331D01*
X153833581Y-84935891D01*
X153685397Y-84848256D01*
X153685394Y-84848255D01*
X153527574Y-84802403D01*
X153527568Y-84802402D01*
X153490697Y-84799501D01*
X153490695Y-84799501D01*
X152334307Y-84799501D01*
X152334305Y-84799501D01*
X152297433Y-84802402D01*
X152297427Y-84802403D01*
X152139607Y-84848255D01*
X152139604Y-84848256D01*
X151998138Y-84931918D01*
X151998130Y-84931924D01*
X151881924Y-85048130D01*
X151881918Y-85048138D01*
X151798256Y-85189604D01*
X151798255Y-85189607D01*
X151752403Y-85347427D01*
X151752402Y-85347433D01*
X151749501Y-85384305D01*
X151749501Y-85815697D01*
X151752402Y-85852568D01*
X151752403Y-85852574D01*
X151798255Y-86010394D01*
X151798258Y-86010401D01*
X151873379Y-86137426D01*
X151890562Y-86205150D01*
X151868402Y-86271412D01*
X151854328Y-86288227D01*
X151241874Y-86900683D01*
X151180551Y-86934168D01*
X151154193Y-86937002D01*
X150893385Y-86937002D01*
X150874146Y-86938750D01*
X150822808Y-86943415D01*
X150660394Y-86994024D01*
X150514812Y-87082032D01*
X150514811Y-87082033D01*
X150412682Y-87184163D01*
X150351359Y-87217648D01*
X150281667Y-87212664D01*
X150237320Y-87184163D01*
X150135189Y-87082032D01*
X149989607Y-86994024D01*
X149892218Y-86963677D01*
X149827197Y-86943416D01*
X149827195Y-86943415D01*
X149827193Y-86943415D01*
X149777779Y-86938925D01*
X149756617Y-86937002D01*
X149243385Y-86937002D01*
X149224146Y-86938750D01*
X149172808Y-86943415D01*
X149010395Y-86994024D01*
X148965108Y-87021401D01*
X148897553Y-87039236D01*
X148831079Y-87017718D01*
X148786792Y-86963677D01*
X148783034Y-86953618D01*
X148727180Y-86781717D01*
X148632534Y-86617785D01*
X148632534Y-86617784D01*
X148628716Y-86612530D01*
X148630674Y-86611107D01*
X148605177Y-86558006D01*
X148613787Y-86488669D01*
X148658517Y-86434994D01*
X148725165Y-86414022D01*
X148775004Y-86423438D01*
X148936297Y-86490247D01*
X149185011Y-86549957D01*
X149185010Y-86549957D01*
X149440000Y-86570024D01*
X149694989Y-86549957D01*
X149943702Y-86490247D01*
X150180012Y-86392365D01*
X150180015Y-86392363D01*
X150398103Y-86258719D01*
X150401912Y-86255464D01*
X149838609Y-85692161D01*
X149957431Y-85620669D01*
X150091658Y-85493523D01*
X150194861Y-85341309D01*
X150755464Y-85901912D01*
X150758719Y-85898103D01*
X150892363Y-85680015D01*
X150892365Y-85680012D01*
X150990247Y-85443702D01*
X151049957Y-85194989D01*
X151070024Y-84940000D01*
X151049957Y-84685010D01*
X150990247Y-84436297D01*
X150892365Y-84199987D01*
X150892363Y-84199984D01*
X150758719Y-83981898D01*
X150758712Y-83981888D01*
X150755465Y-83978087D01*
X150755464Y-83978087D01*
X150191232Y-84542319D01*
X150147684Y-84460178D01*
X150027991Y-84319265D01*
X149880805Y-84207377D01*
X149838597Y-84187849D01*
X150401911Y-83624535D01*
X150401911Y-83624533D01*
X150398110Y-83621286D01*
X150398095Y-83621275D01*
X150180015Y-83487636D01*
X150180012Y-83487634D01*
X149943702Y-83389752D01*
X149694988Y-83330042D01*
X149694989Y-83330042D01*
X149440000Y-83309975D01*
X149185010Y-83330042D01*
X148936297Y-83389752D01*
X148699987Y-83487634D01*
X148699984Y-83487636D01*
X148481897Y-83621280D01*
X148478087Y-83624534D01*
X149041390Y-84187837D01*
X148922569Y-84259331D01*
X148788342Y-84386477D01*
X148685138Y-84538691D01*
X148124534Y-83978087D01*
X148121280Y-83981897D01*
X147987636Y-84199984D01*
X147987634Y-84199987D01*
X147889752Y-84436297D01*
X147830042Y-84685010D01*
X147809975Y-84940000D01*
X147830042Y-85194989D01*
X147889752Y-85443702D01*
X147987634Y-85680012D01*
X147987636Y-85680015D01*
X148121275Y-85898095D01*
X148121286Y-85898110D01*
X148124533Y-85901911D01*
X148124535Y-85901911D01*
X148688766Y-85337679D01*
X148732316Y-85419822D01*
X148852009Y-85560735D01*
X148999195Y-85672623D01*
X149041402Y-85692150D01*
X148466398Y-86267153D01*
X148459863Y-86293136D01*
X148408892Y-86340925D01*
X148340176Y-86353570D01*
X148302565Y-86343514D01*
X148179808Y-86288858D01*
X148179803Y-86288856D01*
X148034001Y-86257866D01*
X147994647Y-86249501D01*
X147805355Y-86249501D01*
X147777301Y-86255464D01*
X147620198Y-86288856D01*
X147620193Y-86288858D01*
X147447271Y-86365849D01*
X147447266Y-86365852D01*
X147295911Y-86475819D01*
X147230105Y-86499299D01*
X147223026Y-86499501D01*
X146448008Y-86499501D01*
X146431997Y-86497733D01*
X146431975Y-86497975D01*
X146424208Y-86497241D01*
X146424207Y-86497241D01*
X146352300Y-86499501D01*
X146321579Y-86499501D01*
X146321575Y-86499501D01*
X146321565Y-86499502D01*
X146314297Y-86500420D01*
X146308480Y-86500877D01*
X146259939Y-86502403D01*
X146259928Y-86502405D01*
X146239552Y-86508324D01*
X146220512Y-86512267D01*
X146199451Y-86514928D01*
X146199443Y-86514930D01*
X146154279Y-86532812D01*
X146148751Y-86534704D01*
X146102106Y-86548256D01*
X146083836Y-86559061D01*
X146066367Y-86567619D01*
X146046632Y-86575433D01*
X146046630Y-86575434D01*
X146015089Y-86598349D01*
X146009024Y-86602757D01*
X146007343Y-86603978D01*
X146002460Y-86607185D01*
X145960636Y-86631920D01*
X145945630Y-86646927D01*
X145930840Y-86659559D01*
X145913671Y-86672033D01*
X145913669Y-86672035D01*
X145882698Y-86709471D01*
X145878766Y-86713792D01*
X145191873Y-87400684D01*
X145130550Y-87434169D01*
X145104192Y-87437003D01*
X144826665Y-87437003D01*
X144826646Y-87437004D01*
X144727294Y-87447153D01*
X144727291Y-87447154D01*
X144566307Y-87500499D01*
X144566296Y-87500504D01*
X144421961Y-87589532D01*
X144421957Y-87589535D01*
X144302034Y-87709458D01*
X144302031Y-87709462D01*
X144213003Y-87853797D01*
X144212998Y-87853808D01*
X144159653Y-88014793D01*
X144149502Y-88114150D01*
X144149502Y-88710840D01*
X144149503Y-88710858D01*
X144159652Y-88810210D01*
X144159653Y-88810213D01*
X144212998Y-88971197D01*
X144213003Y-88971208D01*
X144302031Y-89115543D01*
X144302034Y-89115547D01*
X144336308Y-89149821D01*
X144369793Y-89211144D01*
X144364809Y-89280836D01*
X144336309Y-89325182D01*
X144302034Y-89359456D01*
X144302031Y-89359461D01*
X144213003Y-89503796D01*
X144212998Y-89503807D01*
X144159653Y-89664792D01*
X144149502Y-89764149D01*
X144149502Y-90360839D01*
X144149503Y-90360857D01*
X144159652Y-90460209D01*
X144159653Y-90460212D01*
X144212998Y-90621196D01*
X144213003Y-90621207D01*
X144302031Y-90765542D01*
X144302034Y-90765546D01*
X144336308Y-90799820D01*
X144369793Y-90861143D01*
X144364809Y-90930835D01*
X144336309Y-90975181D01*
X144302033Y-91009456D01*
X144302030Y-91009461D01*
X144213002Y-91153796D01*
X144212997Y-91153807D01*
X144159652Y-91314792D01*
X144149501Y-91414149D01*
X144149501Y-92010839D01*
X144149502Y-92010857D01*
X144159651Y-92110209D01*
X144159652Y-92110212D01*
X144212997Y-92271196D01*
X144213002Y-92271207D01*
X144302029Y-92415541D01*
X144302031Y-92415543D01*
X144302033Y-92415546D01*
X144363184Y-92476697D01*
X144396667Y-92538016D01*
X144399501Y-92564375D01*
X144399501Y-92595982D01*
X144379816Y-92663021D01*
X144363182Y-92683663D01*
X144294532Y-92752312D01*
X144294531Y-92752313D01*
X144206523Y-92897895D01*
X144155914Y-93060309D01*
X144149501Y-93130888D01*
X144149501Y-93794115D01*
X135900501Y-93794115D01*
X135900501Y-84940000D01*
X142729975Y-84940000D01*
X142750042Y-85194989D01*
X142809752Y-85443702D01*
X142907634Y-85680012D01*
X142907636Y-85680015D01*
X143041275Y-85898095D01*
X143041286Y-85898110D01*
X143044533Y-85901911D01*
X143044535Y-85901911D01*
X143608766Y-85337679D01*
X143652316Y-85419822D01*
X143772009Y-85560735D01*
X143919195Y-85672623D01*
X143961402Y-85692150D01*
X143398087Y-86255464D01*
X143398087Y-86255465D01*
X143401888Y-86258712D01*
X143401898Y-86258719D01*
X143619984Y-86392363D01*
X143619987Y-86392365D01*
X143856297Y-86490247D01*
X144105011Y-86549957D01*
X144105010Y-86549957D01*
X144360000Y-86570024D01*
X144614989Y-86549957D01*
X144863702Y-86490247D01*
X145100012Y-86392365D01*
X145100015Y-86392363D01*
X145318103Y-86258719D01*
X145321912Y-86255464D01*
X144758609Y-85692161D01*
X144877431Y-85620669D01*
X145011658Y-85493523D01*
X145114861Y-85341308D01*
X145675464Y-85901912D01*
X145678719Y-85898103D01*
X145812363Y-85680015D01*
X145812365Y-85680012D01*
X145910247Y-85443702D01*
X145969957Y-85194989D01*
X145990024Y-84940000D01*
X145969957Y-84685010D01*
X145910247Y-84436297D01*
X145812365Y-84199987D01*
X145812363Y-84199984D01*
X145678719Y-83981898D01*
X145678712Y-83981888D01*
X145675465Y-83978087D01*
X145675464Y-83978087D01*
X145111232Y-84542319D01*
X145067684Y-84460178D01*
X144947991Y-84319265D01*
X144800805Y-84207377D01*
X144758597Y-84187849D01*
X145321911Y-83624535D01*
X145321911Y-83624533D01*
X145318110Y-83621286D01*
X145318095Y-83621275D01*
X145100015Y-83487636D01*
X145100012Y-83487634D01*
X144863702Y-83389752D01*
X144614988Y-83330042D01*
X144614989Y-83330042D01*
X144360000Y-83309975D01*
X144105010Y-83330042D01*
X143856297Y-83389752D01*
X143619987Y-83487634D01*
X143619984Y-83487636D01*
X143401897Y-83621280D01*
X143398087Y-83624534D01*
X143961390Y-84187837D01*
X143842569Y-84259331D01*
X143708342Y-84386477D01*
X143605138Y-84538691D01*
X143044534Y-83978087D01*
X143041280Y-83981897D01*
X142907636Y-84199984D01*
X142907634Y-84199987D01*
X142809752Y-84436297D01*
X142750042Y-84685010D01*
X142729975Y-84940000D01*
X135900501Y-84940000D01*
X135900501Y-80700006D01*
X136495256Y-80700006D01*
X136514216Y-81001384D01*
X136514217Y-81001391D01*
X136570806Y-81298041D01*
X136664126Y-81585248D01*
X136664128Y-81585253D01*
X136792705Y-81858492D01*
X136792708Y-81858498D01*
X136954514Y-82113465D01*
X137035313Y-82211134D01*
X137964212Y-81282236D01*
X138064895Y-81423625D01*
X138216933Y-81568593D01*
X138319223Y-81634330D01*
X137386565Y-82566987D01*
X137611475Y-82730394D01*
X137611486Y-82730401D01*
X137876110Y-82875879D01*
X137876118Y-82875883D01*
X138156890Y-82987048D01*
X138156893Y-82987049D01*
X138449400Y-83062151D01*
X138748996Y-83100000D01*
X138749008Y-83100001D01*
X139050994Y-83100001D01*
X139051005Y-83100000D01*
X139350601Y-83062151D01*
X139643108Y-82987049D01*
X139643111Y-82987048D01*
X139923883Y-82875883D01*
X139923891Y-82875879D01*
X140188515Y-82730401D01*
X140188526Y-82730394D01*
X140413434Y-82566987D01*
X140413435Y-82566987D01*
X140246449Y-82400001D01*
X145674838Y-82400001D01*
X145693450Y-82612741D01*
X145693452Y-82612752D01*
X145748721Y-82819022D01*
X145748723Y-82819026D01*
X145748724Y-82819030D01*
X145775235Y-82875883D01*
X145838977Y-83012578D01*
X145961472Y-83187521D01*
X146112478Y-83338527D01*
X146112481Y-83338529D01*
X146287419Y-83461021D01*
X146287421Y-83461022D01*
X146287420Y-83461022D01*
X146351936Y-83491106D01*
X146480970Y-83551276D01*
X146687253Y-83606549D01*
X146839215Y-83619843D01*
X146899998Y-83625162D01*
X146900000Y-83625162D01*
X146900002Y-83625162D01*
X146953186Y-83620508D01*
X147112747Y-83606549D01*
X147319030Y-83551276D01*
X147512581Y-83461021D01*
X147687519Y-83338529D01*
X147838529Y-83187519D01*
X147961021Y-83012581D01*
X148051276Y-82819030D01*
X148106549Y-82612747D01*
X148125162Y-82400000D01*
X148106549Y-82187253D01*
X148051276Y-81980970D01*
X147961021Y-81787419D01*
X147838529Y-81612481D01*
X147838527Y-81612478D01*
X147687521Y-81461472D01*
X147512578Y-81338977D01*
X147512579Y-81338977D01*
X147383547Y-81278809D01*
X147319030Y-81248724D01*
X147319026Y-81248723D01*
X147319022Y-81248721D01*
X147112752Y-81193452D01*
X147112748Y-81193451D01*
X147112747Y-81193451D01*
X147112746Y-81193450D01*
X147112741Y-81193450D01*
X146900002Y-81174838D01*
X146899998Y-81174838D01*
X146687258Y-81193450D01*
X146687247Y-81193452D01*
X146480977Y-81248721D01*
X146480968Y-81248725D01*
X146287421Y-81338977D01*
X146112478Y-81461472D01*
X145961472Y-81612478D01*
X145838977Y-81787421D01*
X145748725Y-81980968D01*
X145748721Y-81980977D01*
X145693452Y-82187247D01*
X145693450Y-82187258D01*
X145674838Y-82399998D01*
X145674838Y-82400001D01*
X140246449Y-82400001D01*
X139483307Y-81636860D01*
X139497411Y-81629590D01*
X139662541Y-81499730D01*
X139800111Y-81340966D01*
X139834666Y-81281113D01*
X140764687Y-82211134D01*
X140845484Y-82113470D01*
X141007293Y-81858498D01*
X141007296Y-81858492D01*
X141135873Y-81585253D01*
X141135875Y-81585248D01*
X141229195Y-81298041D01*
X141285784Y-81001391D01*
X141285785Y-81001384D01*
X141304746Y-80700006D01*
X141304746Y-80699995D01*
X141285785Y-80398617D01*
X141285784Y-80398610D01*
X141229195Y-80101960D01*
X141150577Y-79860000D01*
X142729975Y-79860000D01*
X142750042Y-80114989D01*
X142809752Y-80363702D01*
X142907634Y-80600012D01*
X142907636Y-80600015D01*
X143041275Y-80818095D01*
X143041286Y-80818110D01*
X143044533Y-80821911D01*
X143044535Y-80821911D01*
X143608766Y-80257679D01*
X143652316Y-80339822D01*
X143772009Y-80480735D01*
X143919195Y-80592623D01*
X143961402Y-80612150D01*
X143398087Y-81175464D01*
X143398087Y-81175465D01*
X143401888Y-81178712D01*
X143401898Y-81178719D01*
X143619984Y-81312363D01*
X143619987Y-81312365D01*
X143856297Y-81410247D01*
X144105011Y-81469957D01*
X144105010Y-81469957D01*
X144360000Y-81490024D01*
X144614989Y-81469957D01*
X144863702Y-81410247D01*
X145100012Y-81312365D01*
X145100015Y-81312363D01*
X145318103Y-81178719D01*
X145321912Y-81175464D01*
X144758609Y-80612161D01*
X144877431Y-80540669D01*
X145011658Y-80413523D01*
X145114861Y-80261309D01*
X145675464Y-80821912D01*
X145678719Y-80818103D01*
X145812363Y-80600015D01*
X145812365Y-80600012D01*
X145910247Y-80363702D01*
X145969957Y-80114989D01*
X145990024Y-79860000D01*
X147809975Y-79860000D01*
X147830042Y-80114989D01*
X147889752Y-80363702D01*
X147987634Y-80600012D01*
X147987636Y-80600015D01*
X148121275Y-80818095D01*
X148121286Y-80818110D01*
X148124533Y-80821911D01*
X148124535Y-80821911D01*
X148688766Y-80257679D01*
X148732316Y-80339822D01*
X148852009Y-80480735D01*
X148999195Y-80592623D01*
X149041402Y-80612150D01*
X148478087Y-81175464D01*
X148478087Y-81175465D01*
X148481888Y-81178712D01*
X148481898Y-81178719D01*
X148699984Y-81312363D01*
X148699987Y-81312365D01*
X148936297Y-81410247D01*
X149185011Y-81469957D01*
X149185010Y-81469957D01*
X149440000Y-81490024D01*
X149694989Y-81469957D01*
X149943702Y-81410247D01*
X150180012Y-81312365D01*
X150180015Y-81312363D01*
X150398103Y-81178719D01*
X150401912Y-81175464D01*
X149838609Y-80612161D01*
X149957431Y-80540669D01*
X150091658Y-80413523D01*
X150194861Y-80261309D01*
X150755464Y-80821912D01*
X150758719Y-80818103D01*
X150831089Y-80700006D01*
X157995256Y-80700006D01*
X158014216Y-81001384D01*
X158014217Y-81001391D01*
X158070806Y-81298041D01*
X158164126Y-81585248D01*
X158164128Y-81585253D01*
X158292705Y-81858492D01*
X158292708Y-81858498D01*
X158454514Y-82113465D01*
X158535313Y-82211134D01*
X159464212Y-81282236D01*
X159564895Y-81423625D01*
X159716933Y-81568593D01*
X159819223Y-81634330D01*
X158886565Y-82566987D01*
X159111475Y-82730394D01*
X159111486Y-82730401D01*
X159376110Y-82875879D01*
X159376118Y-82875883D01*
X159656890Y-82987048D01*
X159656893Y-82987049D01*
X159949400Y-83062151D01*
X160248996Y-83100000D01*
X160249008Y-83100001D01*
X160550994Y-83100001D01*
X160551005Y-83100000D01*
X160850601Y-83062151D01*
X161143108Y-82987049D01*
X161143111Y-82987048D01*
X161423883Y-82875883D01*
X161423891Y-82875879D01*
X161688515Y-82730401D01*
X161688526Y-82730394D01*
X161913434Y-82566987D01*
X161913435Y-82566987D01*
X160983307Y-81636860D01*
X160997411Y-81629590D01*
X161162541Y-81499730D01*
X161300111Y-81340966D01*
X161334666Y-81281113D01*
X162264687Y-82211134D01*
X162345484Y-82113470D01*
X162507293Y-81858498D01*
X162507296Y-81858492D01*
X162635873Y-81585253D01*
X162635875Y-81585248D01*
X162729195Y-81298041D01*
X162785784Y-81001391D01*
X162785785Y-81001384D01*
X162804746Y-80700006D01*
X162804746Y-80699995D01*
X162785785Y-80398617D01*
X162785784Y-80398610D01*
X162729195Y-80101960D01*
X162635875Y-79814753D01*
X162635873Y-79814748D01*
X162507296Y-79541509D01*
X162507293Y-79541503D01*
X162345487Y-79286536D01*
X162264686Y-79188865D01*
X161335788Y-80117764D01*
X161235107Y-79976377D01*
X161083069Y-79831409D01*
X160980778Y-79765670D01*
X161913435Y-78833013D01*
X161688531Y-78669610D01*
X161688521Y-78669603D01*
X161423891Y-78524122D01*
X161423883Y-78524118D01*
X161143111Y-78412953D01*
X161143108Y-78412952D01*
X160850601Y-78337850D01*
X160551005Y-78300001D01*
X160248996Y-78300001D01*
X159949400Y-78337850D01*
X159656893Y-78412952D01*
X159656890Y-78412953D01*
X159376118Y-78524118D01*
X159376110Y-78524122D01*
X159111480Y-78669603D01*
X159111462Y-78669615D01*
X158886566Y-78833011D01*
X158886565Y-78833013D01*
X159816694Y-79763141D01*
X159802591Y-79770412D01*
X159637461Y-79900272D01*
X159499891Y-80059036D01*
X159465335Y-80118887D01*
X158535313Y-79188865D01*
X158454517Y-79286531D01*
X158292708Y-79541503D01*
X158292705Y-79541509D01*
X158164128Y-79814748D01*
X158164126Y-79814753D01*
X158070806Y-80101960D01*
X158014217Y-80398610D01*
X158014216Y-80398617D01*
X157995256Y-80699995D01*
X157995256Y-80700006D01*
X150831089Y-80700006D01*
X150892363Y-80600015D01*
X150892365Y-80600012D01*
X150990247Y-80363702D01*
X151049957Y-80114989D01*
X151070024Y-79860000D01*
X151049957Y-79605010D01*
X150990247Y-79356297D01*
X150892365Y-79119987D01*
X150892363Y-79119984D01*
X150758719Y-78901898D01*
X150758712Y-78901888D01*
X150755465Y-78898087D01*
X150755464Y-78898087D01*
X150191232Y-79462319D01*
X150147684Y-79380178D01*
X150027991Y-79239265D01*
X149880805Y-79127377D01*
X149838596Y-79107849D01*
X150401911Y-78544535D01*
X150401911Y-78544533D01*
X150398110Y-78541286D01*
X150398095Y-78541275D01*
X150180015Y-78407636D01*
X150180012Y-78407634D01*
X149943702Y-78309752D01*
X149694988Y-78250042D01*
X149694989Y-78250042D01*
X149440000Y-78229975D01*
X149185010Y-78250042D01*
X148936297Y-78309752D01*
X148699987Y-78407634D01*
X148699984Y-78407636D01*
X148481897Y-78541280D01*
X148478087Y-78544534D01*
X149041391Y-79107837D01*
X148922569Y-79179331D01*
X148788342Y-79306477D01*
X148685138Y-79458691D01*
X148124534Y-78898087D01*
X148121280Y-78901897D01*
X147987636Y-79119984D01*
X147987634Y-79119987D01*
X147889752Y-79356297D01*
X147830042Y-79605010D01*
X147809975Y-79860000D01*
X145990024Y-79860000D01*
X145969957Y-79605010D01*
X145910247Y-79356297D01*
X145812365Y-79119987D01*
X145812363Y-79119984D01*
X145678719Y-78901898D01*
X145678712Y-78901888D01*
X145675465Y-78898087D01*
X145675464Y-78898087D01*
X145111232Y-79462319D01*
X145067684Y-79380178D01*
X144947991Y-79239265D01*
X144800805Y-79127377D01*
X144758596Y-79107849D01*
X145321911Y-78544535D01*
X145321911Y-78544533D01*
X145318110Y-78541286D01*
X145318095Y-78541275D01*
X145100015Y-78407636D01*
X145100012Y-78407634D01*
X144863702Y-78309752D01*
X144614988Y-78250042D01*
X144614989Y-78250042D01*
X144360000Y-78229975D01*
X144105010Y-78250042D01*
X143856297Y-78309752D01*
X143619987Y-78407634D01*
X143619984Y-78407636D01*
X143401897Y-78541280D01*
X143398087Y-78544534D01*
X143961391Y-79107837D01*
X143842569Y-79179331D01*
X143708342Y-79306477D01*
X143605138Y-79458691D01*
X143044534Y-78898087D01*
X143041280Y-78901897D01*
X142907636Y-79119984D01*
X142907634Y-79119987D01*
X142809752Y-79356297D01*
X142750042Y-79605010D01*
X142729975Y-79860000D01*
X141150577Y-79860000D01*
X141135875Y-79814753D01*
X141135873Y-79814748D01*
X141007296Y-79541509D01*
X141007293Y-79541503D01*
X140845487Y-79286536D01*
X140764686Y-79188865D01*
X139835788Y-80117764D01*
X139735107Y-79976377D01*
X139583069Y-79831409D01*
X139480778Y-79765670D01*
X140413435Y-78833013D01*
X140188531Y-78669610D01*
X140188521Y-78669603D01*
X139923891Y-78524122D01*
X139923883Y-78524118D01*
X139643111Y-78412953D01*
X139643108Y-78412952D01*
X139350601Y-78337850D01*
X139051005Y-78300001D01*
X138748996Y-78300001D01*
X138449400Y-78337850D01*
X138156893Y-78412952D01*
X138156890Y-78412953D01*
X137876118Y-78524118D01*
X137876110Y-78524122D01*
X137611480Y-78669603D01*
X137611462Y-78669615D01*
X137386566Y-78833011D01*
X137386565Y-78833013D01*
X138316694Y-79763141D01*
X138302591Y-79770412D01*
X138137461Y-79900272D01*
X137999891Y-80059036D01*
X137965335Y-80118887D01*
X137035313Y-79188865D01*
X136954517Y-79286531D01*
X136792708Y-79541503D01*
X136792705Y-79541509D01*
X136664128Y-79814748D01*
X136664126Y-79814753D01*
X136570806Y-80101960D01*
X136514217Y-80398610D01*
X136514216Y-80398617D01*
X136495256Y-80699995D01*
X136495256Y-80700006D01*
X135900501Y-80700006D01*
X135900501Y-79702037D01*
X135900634Y-79697982D01*
X135905983Y-79616361D01*
X135911336Y-79541509D01*
X135918987Y-79434537D01*
X135920017Y-79426897D01*
X135943154Y-79310580D01*
X135948385Y-79286531D01*
X135974534Y-79166324D01*
X135976393Y-79159626D01*
X136016816Y-79040544D01*
X136066160Y-78908252D01*
X136068634Y-78902521D01*
X136125584Y-78787037D01*
X136192183Y-78665071D01*
X136195028Y-78660374D01*
X136266575Y-78553295D01*
X136268413Y-78550699D01*
X136350294Y-78441318D01*
X136353242Y-78437681D01*
X136438509Y-78340453D01*
X136441204Y-78337576D01*
X136537576Y-78241204D01*
X136540453Y-78238509D01*
X136637681Y-78153242D01*
X136641318Y-78150294D01*
X136750699Y-78068413D01*
X136753295Y-78066575D01*
X136860380Y-77995023D01*
X136865071Y-77992183D01*
X136987037Y-77925584D01*
X137102521Y-77868634D01*
X137108252Y-77866160D01*
X137240544Y-77816816D01*
X137359626Y-77776393D01*
X137366324Y-77774534D01*
X137510549Y-77743159D01*
X137626904Y-77720015D01*
X137634537Y-77718987D01*
X137816245Y-77705990D01*
X137869212Y-77702518D01*
X137897982Y-77700634D01*
X137902037Y-77700501D01*
X161397964Y-77700501D01*
X161402019Y-77700634D01*
G37*
%TD.AperFunction*%
%TD*%
M02*
