%TF.GenerationSoftware,KiCad,Pcbnew,7.0.6*%
%TF.CreationDate,2023-08-28T22:53:50+01:00*%
%TF.ProjectId,SiPM Bias,5369504d-2042-4696-9173-2e6b69636164,rev?*%
%TF.SameCoordinates,Original*%
%TF.FileFunction,Soldermask,Top*%
%TF.FilePolarity,Negative*%
%FSLAX46Y46*%
G04 Gerber Fmt 4.6, Leading zero omitted, Abs format (unit mm)*
G04 Created by KiCad (PCBNEW 7.0.6) date 2023-08-28 22:53:50*
%MOMM*%
%LPD*%
G01*
G04 APERTURE LIST*
G04 Aperture macros list*
%AMRoundRect*
0 Rectangle with rounded corners*
0 $1 Rounding radius*
0 $2 $3 $4 $5 $6 $7 $8 $9 X,Y pos of 4 corners*
0 Add a 4 corners polygon primitive as box body*
4,1,4,$2,$3,$4,$5,$6,$7,$8,$9,$2,$3,0*
0 Add four circle primitives for the rounded corners*
1,1,$1+$1,$2,$3*
1,1,$1+$1,$4,$5*
1,1,$1+$1,$6,$7*
1,1,$1+$1,$8,$9*
0 Add four rect primitives between the rounded corners*
20,1,$1+$1,$2,$3,$4,$5,0*
20,1,$1+$1,$4,$5,$6,$7,0*
20,1,$1+$1,$6,$7,$8,$9,0*
20,1,$1+$1,$8,$9,$2,$3,0*%
G04 Aperture macros list end*
%ADD10C,3.800000*%
%ADD11C,3.500000*%
%ADD12RoundRect,0.150000X0.512500X0.150000X-0.512500X0.150000X-0.512500X-0.150000X0.512500X-0.150000X0*%
%ADD13RoundRect,0.150000X0.150000X-0.512500X0.150000X0.512500X-0.150000X0.512500X-0.150000X-0.512500X0*%
%ADD14RoundRect,0.200000X-0.200000X-0.275000X0.200000X-0.275000X0.200000X0.275000X-0.200000X0.275000X0*%
%ADD15C,1.440000*%
%ADD16C,2.250000*%
%ADD17RoundRect,0.225000X-0.225000X-0.250000X0.225000X-0.250000X0.225000X0.250000X-0.225000X0.250000X0*%
%ADD18RoundRect,0.225000X-0.250000X0.225000X-0.250000X-0.225000X0.250000X-0.225000X0.250000X0.225000X0*%
%ADD19RoundRect,0.150000X-0.512500X-0.150000X0.512500X-0.150000X0.512500X0.150000X-0.512500X0.150000X0*%
%ADD20RoundRect,0.200000X0.275000X-0.200000X0.275000X0.200000X-0.275000X0.200000X-0.275000X-0.200000X0*%
%ADD21RoundRect,0.200000X0.200000X0.275000X-0.200000X0.275000X-0.200000X-0.275000X0.200000X-0.275000X0*%
%ADD22RoundRect,0.225000X0.225000X0.250000X-0.225000X0.250000X-0.225000X-0.250000X0.225000X-0.250000X0*%
G04 APERTURE END LIST*
D10*
%TO.C,REF\u002A\u002A*%
X160400001Y-80700001D03*
%TD*%
%TO.C,REF\u002A\u002A*%
X138900001Y-80700001D03*
%TD*%
D11*
%TO.C,REF\u002A\u002A*%
X138900001Y-102200001D03*
%TD*%
D10*
%TO.C,REF\u002A\u002A*%
X160400001Y-102200001D03*
%TD*%
D12*
%TO.C,Q1*%
X152912501Y-85600001D03*
X155187501Y-84650001D03*
X155187501Y-86550001D03*
%TD*%
D13*
%TO.C,U1*%
X155450001Y-88512501D03*
X157350001Y-88512501D03*
X157350001Y-90787501D03*
X156400001Y-90787501D03*
X155450001Y-90787501D03*
%TD*%
D14*
%TO.C,R5*%
X155475000Y-95350000D03*
X157125000Y-95350000D03*
%TD*%
D15*
%TO.C,J3*%
X152450000Y-100350000D03*
D16*
X154990000Y-102890000D03*
X154990000Y-97810000D03*
X149910000Y-102890000D03*
X149910000Y-97810000D03*
%TD*%
%TO.C,J2*%
X144360000Y-79860000D03*
X144360000Y-84940000D03*
X149440000Y-79860000D03*
X149440000Y-84940000D03*
D15*
X146900000Y-82400000D03*
%TD*%
D17*
%TO.C,C6*%
X145100002Y-88412503D03*
X146650002Y-88412503D03*
%TD*%
%TO.C,C4*%
X145100001Y-91712502D03*
X146650001Y-91712502D03*
%TD*%
D18*
%TO.C,C2*%
X153650001Y-88325001D03*
X153650001Y-89875001D03*
%TD*%
D14*
%TO.C,R2*%
X151150001Y-87912502D03*
X149500001Y-87912502D03*
%TD*%
D19*
%TO.C,Q2*%
X150887501Y-94312501D03*
X148612501Y-95262501D03*
X148612501Y-93362501D03*
%TD*%
D20*
%TO.C,R3*%
X157200001Y-86612502D03*
X157200001Y-84962502D03*
%TD*%
D21*
%TO.C,R4*%
X146700001Y-93462502D03*
X145050001Y-93462502D03*
%TD*%
%TO.C,R1*%
X149475002Y-91412503D03*
X151125002Y-91412503D03*
%TD*%
D17*
%TO.C,C1*%
X156975001Y-92550001D03*
X155425001Y-92550001D03*
%TD*%
%TO.C,C5*%
X145100002Y-90062502D03*
X146650002Y-90062502D03*
%TD*%
D21*
%TO.C,TH1*%
X151125002Y-89662503D03*
X149475002Y-89662503D03*
%TD*%
D22*
%TO.C,C3*%
X146700001Y-95212503D03*
X145150001Y-95212503D03*
%TD*%
M02*
