%TF.GenerationSoftware,KiCad,Pcbnew,7.0.6*%
%TF.CreationDate,2023-08-28T22:53:50+01:00*%
%TF.ProjectId,SiPM Bias,5369504d-2042-4696-9173-2e6b69636164,rev?*%
%TF.SameCoordinates,Original*%
%TF.FileFunction,Legend,Top*%
%TF.FilePolarity,Positive*%
%FSLAX46Y46*%
G04 Gerber Fmt 4.6, Leading zero omitted, Abs format (unit mm)*
G04 Created by KiCad (PCBNEW 7.0.6) date 2023-08-28 22:53:50*
%MOMM*%
%LPD*%
G01*
G04 APERTURE LIST*
%ADD10C,0.150000*%
%ADD11C,0.120000*%
G04 APERTURE END LIST*
D10*
X162774581Y-86263221D02*
X162822201Y-86215602D01*
X162822201Y-86215602D02*
X162869820Y-86263221D01*
X162869820Y-86263221D02*
X162822201Y-86310840D01*
X162822201Y-86310840D02*
X162774581Y-86263221D01*
X162774581Y-86263221D02*
X162869820Y-86263221D01*
X161965058Y-85072745D02*
X161917439Y-85025126D01*
X161917439Y-85025126D02*
X161869820Y-84929888D01*
X161869820Y-84929888D02*
X161869820Y-84691793D01*
X161869820Y-84691793D02*
X161917439Y-84596555D01*
X161917439Y-84596555D02*
X161965058Y-84548936D01*
X161965058Y-84548936D02*
X162060296Y-84501317D01*
X162060296Y-84501317D02*
X162155534Y-84501317D01*
X162155534Y-84501317D02*
X162298391Y-84548936D01*
X162298391Y-84548936D02*
X162869820Y-85120364D01*
X162869820Y-85120364D02*
X162869820Y-84501317D01*
G36*
X161945213Y-98694871D02*
G01*
X162023371Y-98694871D01*
X162023371Y-99596616D01*
X162398528Y-99596616D01*
X162398528Y-98694871D01*
X162930001Y-98694871D01*
X162930001Y-99679659D01*
X162851843Y-99679659D01*
X162851843Y-98777914D01*
X162476686Y-98777914D01*
X162476686Y-99679659D01*
X162392666Y-99679659D01*
X161945213Y-99679659D01*
X161945213Y-98694871D01*
G37*
G36*
X162226581Y-98560049D02*
G01*
X162226581Y-98477007D01*
X162930001Y-98477007D01*
X162930001Y-98560049D01*
X162226581Y-98560049D01*
G37*
G36*
X162039003Y-98560049D02*
G01*
X162039003Y-98477007D01*
X162117160Y-98477007D01*
X162117160Y-98560049D01*
X162039003Y-98560049D01*
G37*
G36*
X162476686Y-97434578D02*
G01*
X162476686Y-98253280D01*
X162699191Y-98253280D01*
X162846469Y-98253280D01*
X162930001Y-98253280D01*
X162930001Y-98336323D01*
X161945213Y-98336323D01*
X161945213Y-97434578D01*
X162023371Y-97434578D01*
X162023371Y-98253280D01*
X162398528Y-98253280D01*
X162398528Y-97434578D01*
X162023371Y-97434578D01*
X161945213Y-97434578D01*
X161945213Y-97351536D01*
X162476686Y-97351536D01*
X162476686Y-97434578D01*
G37*
G36*
X161945213Y-96231927D02*
G01*
X162930001Y-96231927D01*
X162930001Y-96314969D01*
X162846469Y-96314969D01*
X162699435Y-96314969D01*
X162023371Y-96314969D01*
X162023371Y-96682066D01*
X162930001Y-96682066D01*
X162930001Y-96766574D01*
X162023371Y-96766574D01*
X162023371Y-97133671D01*
X162699435Y-97133671D01*
X162846469Y-97133671D01*
X162930001Y-97133671D01*
X162930001Y-97216714D01*
X161945213Y-97216714D01*
X161945213Y-96231927D01*
G37*
G36*
X162930001Y-95747349D02*
G01*
X161945213Y-95747349D01*
X161945213Y-95195848D01*
X162023371Y-95195848D01*
X162023371Y-95664306D01*
X162398528Y-95664306D01*
X162398528Y-95195848D01*
X162023371Y-95195848D01*
X161945213Y-95195848D01*
X161945213Y-95112806D01*
X162398528Y-95112806D01*
X162398528Y-94845604D01*
X162476686Y-94845604D01*
X162476686Y-95664306D01*
X162851843Y-95664306D01*
X162851843Y-94845604D01*
X162476686Y-94845604D01*
X162398528Y-94845604D01*
X162398528Y-94762562D01*
X162930001Y-94762562D01*
X162930001Y-95747349D01*
G37*
G36*
X162930001Y-93725995D02*
G01*
X162930001Y-94544697D01*
X162930001Y-94627740D01*
X161945213Y-94627740D01*
X161945213Y-93725995D01*
X162023371Y-93725995D01*
X162023371Y-94544697D01*
X162703832Y-94544697D01*
X162851843Y-94544697D01*
X162851843Y-93725995D01*
X162703832Y-93725995D01*
X162023371Y-93725995D01*
X161945213Y-93725995D01*
X161945213Y-93642952D01*
X162930001Y-93642952D01*
X162930001Y-93725995D01*
G37*
G36*
X162930001Y-92606386D02*
G01*
X162846469Y-92606386D01*
X162699191Y-92606386D01*
X162476686Y-92606386D01*
X162476686Y-93425088D01*
X162699191Y-93425088D01*
X162846469Y-93425088D01*
X162930001Y-93425088D01*
X162930001Y-93508130D01*
X162479861Y-93508130D01*
X162395353Y-93508130D01*
X161945213Y-93508130D01*
X161945213Y-92606386D01*
X162023371Y-92606386D01*
X162023371Y-93425088D01*
X162398528Y-93425088D01*
X162398528Y-92606386D01*
X162023371Y-92606386D01*
X161945213Y-92606386D01*
X161945213Y-92523343D01*
X162930001Y-92523343D01*
X162930001Y-92606386D01*
G37*
G36*
X162476686Y-91486776D02*
G01*
X162479861Y-91853873D01*
X162930001Y-91403734D01*
X162930001Y-91521947D01*
X162476686Y-91972087D01*
X162476686Y-92305479D01*
X162699191Y-92305479D01*
X162846469Y-92305479D01*
X162930001Y-92305479D01*
X162930001Y-92388521D01*
X161945213Y-92388521D01*
X161945213Y-91486776D01*
X162023371Y-91486776D01*
X162023371Y-92305479D01*
X162398528Y-92305479D01*
X162398528Y-91486776D01*
X162023371Y-91486776D01*
X161945213Y-91486776D01*
X161945213Y-91403734D01*
X162398528Y-91403734D01*
X162476686Y-91403734D01*
X162476686Y-91486776D01*
G37*
G36*
X162668919Y-90284311D02*
G01*
X162679311Y-90284872D01*
X162689578Y-90285806D01*
X162699721Y-90287113D01*
X162709740Y-90288794D01*
X162719634Y-90290848D01*
X162729403Y-90293276D01*
X162739048Y-90296077D01*
X162748569Y-90299252D01*
X162757965Y-90302801D01*
X162764160Y-90305374D01*
X162773261Y-90309456D01*
X162782157Y-90313826D01*
X162790847Y-90318484D01*
X162799331Y-90323429D01*
X162807608Y-90328662D01*
X162815680Y-90334182D01*
X162823545Y-90339990D01*
X162831204Y-90346086D01*
X162838657Y-90352470D01*
X162845905Y-90359141D01*
X162850622Y-90363748D01*
X162857443Y-90370816D01*
X162863985Y-90378099D01*
X162872274Y-90388144D01*
X162880067Y-90398570D01*
X162885586Y-90406640D01*
X162890826Y-90414924D01*
X162895787Y-90423424D01*
X162900469Y-90432138D01*
X162904872Y-90441066D01*
X162908996Y-90450210D01*
X162912749Y-90459479D01*
X162916134Y-90468877D01*
X162919149Y-90478404D01*
X162921795Y-90488060D01*
X162924072Y-90497844D01*
X162925980Y-90507758D01*
X162927518Y-90517800D01*
X162928688Y-90527971D01*
X162929488Y-90538270D01*
X162929918Y-90548699D01*
X162930001Y-90555723D01*
X162930001Y-91268912D01*
X161945213Y-91268912D01*
X161945213Y-91185869D01*
X162023371Y-91185869D01*
X162851843Y-91185869D01*
X162851843Y-90555723D01*
X162851479Y-90543554D01*
X162850388Y-90531623D01*
X162848569Y-90519931D01*
X162846023Y-90508477D01*
X162842749Y-90497262D01*
X162838748Y-90486285D01*
X162836944Y-90481961D01*
X162832026Y-90471356D01*
X162826583Y-90461215D01*
X162820615Y-90451540D01*
X162814123Y-90442329D01*
X162807105Y-90433584D01*
X162799563Y-90425304D01*
X162796400Y-90422122D01*
X162788159Y-90414446D01*
X162779465Y-90407296D01*
X162770318Y-90400670D01*
X162760717Y-90394568D01*
X162750664Y-90388992D01*
X162740157Y-90383940D01*
X162735827Y-90382066D01*
X162724794Y-90377774D01*
X162713521Y-90374209D01*
X162702010Y-90371372D01*
X162690261Y-90369262D01*
X162678273Y-90367880D01*
X162668511Y-90367298D01*
X162661089Y-90367167D01*
X162214125Y-90367167D01*
X162204248Y-90367400D01*
X162192117Y-90368346D01*
X162180225Y-90370019D01*
X162168571Y-90372420D01*
X162157155Y-90375548D01*
X162145978Y-90379404D01*
X162139386Y-90382066D01*
X162128698Y-90386908D01*
X162118464Y-90392275D01*
X162108682Y-90398166D01*
X162099353Y-90404582D01*
X162090478Y-90411523D01*
X162082056Y-90418989D01*
X162078814Y-90422122D01*
X162071062Y-90430216D01*
X162063835Y-90438775D01*
X162057133Y-90447800D01*
X162050955Y-90457289D01*
X162045302Y-90467244D01*
X162040174Y-90477663D01*
X162038270Y-90481961D01*
X162033978Y-90492843D01*
X162030413Y-90503962D01*
X162027576Y-90515321D01*
X162025466Y-90526917D01*
X162024084Y-90538753D01*
X162023429Y-90550826D01*
X162023371Y-90555723D01*
X162023371Y-91185869D01*
X161945213Y-91185869D01*
X161945213Y-90555723D01*
X161945400Y-90545208D01*
X161945960Y-90534823D01*
X161946894Y-90524566D01*
X161948201Y-90514438D01*
X161949882Y-90504439D01*
X161951937Y-90494569D01*
X161954365Y-90484827D01*
X161957166Y-90475214D01*
X161960341Y-90465730D01*
X161963889Y-90456375D01*
X161966462Y-90450210D01*
X161970545Y-90441066D01*
X161974915Y-90432138D01*
X161979572Y-90423424D01*
X161984517Y-90414924D01*
X161989750Y-90406640D01*
X161995271Y-90398570D01*
X162003079Y-90388144D01*
X162009271Y-90380574D01*
X162015750Y-90373220D01*
X162022517Y-90366080D01*
X162024837Y-90363748D01*
X162031905Y-90356885D01*
X162039188Y-90350310D01*
X162046685Y-90344022D01*
X162054398Y-90338022D01*
X162062324Y-90332310D01*
X162070466Y-90326885D01*
X162078822Y-90321748D01*
X162087393Y-90316899D01*
X162096179Y-90312337D01*
X162105179Y-90308063D01*
X162111298Y-90305374D01*
X162120568Y-90301576D01*
X162129966Y-90298152D01*
X162139493Y-90295102D01*
X162149148Y-90292425D01*
X162158933Y-90290122D01*
X162168846Y-90288192D01*
X162178888Y-90286636D01*
X162189059Y-90285453D01*
X162199359Y-90284643D01*
X162209787Y-90284208D01*
X162216811Y-90284125D01*
X162658402Y-90284125D01*
X162668919Y-90284311D01*
G37*
G36*
X162476686Y-88897802D02*
G01*
X162479861Y-89264899D01*
X162930001Y-88814760D01*
X162930001Y-88932973D01*
X162476686Y-89383113D01*
X162476686Y-89716504D01*
X162699191Y-89716504D01*
X162846469Y-89716504D01*
X162930001Y-89716504D01*
X162930001Y-89799547D01*
X161945213Y-89799547D01*
X161945213Y-88897802D01*
X162023371Y-88897802D01*
X162023371Y-89716504D01*
X162398528Y-89716504D01*
X162398528Y-88897802D01*
X162023371Y-88897802D01*
X161945213Y-88897802D01*
X161945213Y-88814760D01*
X162398528Y-88814760D01*
X162476686Y-88814760D01*
X162476686Y-88897802D01*
G37*
G36*
X161945213Y-87695151D02*
G01*
X162023371Y-87695151D01*
X162023371Y-87778193D01*
X162023371Y-87924495D01*
X162023371Y-88596895D01*
X162398528Y-88596895D01*
X162398528Y-87810433D01*
X162476686Y-87810433D01*
X162476686Y-88596895D01*
X162851843Y-88596895D01*
X162851843Y-87924495D01*
X162851843Y-87778193D01*
X162851843Y-87695151D01*
X162930001Y-87695151D01*
X162930001Y-88679938D01*
X162479861Y-88679938D01*
X162395353Y-88679938D01*
X161945213Y-88679938D01*
X161945213Y-87695151D01*
G37*
G36*
X161945213Y-86575541D02*
G01*
X162004320Y-86575541D01*
X162233664Y-86658584D01*
X162846958Y-86882310D01*
X162930001Y-86911864D01*
X162930001Y-87224006D01*
X162846958Y-87253559D01*
X162233664Y-87477286D01*
X162004320Y-87560328D01*
X161945213Y-87560328D01*
X161945213Y-87477286D01*
X161990398Y-87477286D01*
X162851843Y-87164899D01*
X162851843Y-86970970D01*
X161990398Y-86658584D01*
X161945213Y-86658584D01*
X161945213Y-86575541D01*
G37*
G36*
X137504788Y-86203385D02*
G01*
X137421257Y-86203385D01*
X137315255Y-86203385D01*
X136598158Y-86203385D01*
X136598158Y-86875786D01*
X136598158Y-87022087D01*
X136598158Y-87105130D01*
X136520001Y-87105130D01*
X136520001Y-86120342D01*
X137504788Y-86120342D01*
X137504788Y-86203385D01*
G37*
G36*
X137504788Y-88224739D02*
G01*
X137426630Y-88224739D01*
X137426630Y-88141696D01*
X137426630Y-87995395D01*
X137426630Y-87322994D01*
X137051473Y-87322994D01*
X137051473Y-88109456D01*
X136973315Y-88109456D01*
X136973315Y-87322994D01*
X136598158Y-87322994D01*
X136598158Y-87995395D01*
X136598158Y-88141696D01*
X136598158Y-88224739D01*
X136520001Y-88224739D01*
X136520001Y-87239952D01*
X136970140Y-87239952D01*
X137054648Y-87239952D01*
X137504788Y-87239952D01*
X137504788Y-88224739D01*
G37*
G36*
X137504788Y-88359561D02*
G01*
X137504788Y-88442603D01*
X136520001Y-88442603D01*
X136520001Y-88359561D01*
X137504788Y-88359561D01*
G37*
G36*
X137504788Y-89566121D02*
G01*
X137426630Y-89566121D01*
X137426630Y-89483078D01*
X137426630Y-89336776D01*
X137426630Y-88664376D01*
X137051473Y-88664376D01*
X137051473Y-89450838D01*
X136973315Y-89450838D01*
X136973315Y-88664376D01*
X136641878Y-88664376D01*
X136603532Y-88664376D01*
X136520001Y-88664376D01*
X136520001Y-88581333D01*
X136970140Y-88581333D01*
X137054648Y-88581333D01*
X137504788Y-88581333D01*
X137504788Y-89566121D01*
G37*
G36*
X137504788Y-90895779D02*
G01*
X137426630Y-90895779D01*
X137426630Y-90445639D01*
X136520001Y-90445639D01*
X136520001Y-90361131D01*
X137426630Y-90361131D01*
X137426630Y-89910991D01*
X137504788Y-89910991D01*
X137504788Y-90895779D01*
G37*
G36*
X137504788Y-91030601D02*
G01*
X137504788Y-91113643D01*
X136520001Y-91113643D01*
X136520001Y-91030601D01*
X137504788Y-91030601D01*
G37*
G36*
X137504788Y-92237160D02*
G01*
X136520001Y-92237160D01*
X136520001Y-91787021D01*
X136520001Y-91702513D01*
X137426630Y-91702513D01*
X137426630Y-91335416D01*
X136520001Y-91335416D01*
X136520001Y-91252373D01*
X137504788Y-91252373D01*
X137504788Y-91787021D01*
X136598158Y-91787021D01*
X136598158Y-92154118D01*
X137504788Y-92154118D01*
X137504788Y-92237160D01*
G37*
G36*
X137504788Y-93356770D02*
G01*
X136520001Y-93356770D01*
X136520001Y-92906630D01*
X136520001Y-92822122D01*
X136520001Y-92371982D01*
X137504788Y-92371982D01*
X137504788Y-92455025D01*
X137421257Y-92455025D01*
X137274222Y-92455025D01*
X136598158Y-92455025D01*
X136598158Y-92822122D01*
X137504788Y-92822122D01*
X137504788Y-92906630D01*
X136598158Y-92906630D01*
X136598158Y-93273727D01*
X137274222Y-93273727D01*
X137421257Y-93273727D01*
X137504788Y-93273727D01*
X137504788Y-93356770D01*
G37*
G36*
X137504788Y-94476379D02*
G01*
X137426630Y-94476379D01*
X137426630Y-94393336D01*
X137426630Y-94247035D01*
X137426630Y-93574634D01*
X137051473Y-93574634D01*
X137051473Y-94361096D01*
X136973315Y-94361096D01*
X136973315Y-93574634D01*
X136598158Y-93574634D01*
X136598158Y-94247035D01*
X136598158Y-94393336D01*
X136598158Y-94476379D01*
X136520001Y-94476379D01*
X136520001Y-93491592D01*
X136970140Y-93491592D01*
X137054648Y-93491592D01*
X137504788Y-93491592D01*
X137504788Y-94476379D01*
G37*
G36*
X137504788Y-94694243D02*
G01*
X137421257Y-94694243D01*
X137315255Y-94694243D01*
X136598158Y-94694243D01*
X136598158Y-95366644D01*
X136598158Y-95512945D01*
X136598158Y-95595988D01*
X136520001Y-95595988D01*
X136520001Y-94611201D01*
X137504788Y-94611201D01*
X137504788Y-94694243D01*
G37*
G36*
X137504788Y-95813853D02*
G01*
X137421257Y-95813853D01*
X137315255Y-95813853D01*
X136598158Y-95813853D01*
X136598158Y-96486253D01*
X136598158Y-96632555D01*
X136598158Y-96715597D01*
X136520001Y-96715597D01*
X136520001Y-95730810D01*
X137504788Y-95730810D01*
X137504788Y-95813853D01*
G37*
X152404762Y-83800058D02*
X152309524Y-83752439D01*
X152309524Y-83752439D02*
X152214286Y-83657201D01*
X152214286Y-83657201D02*
X152071429Y-83514343D01*
X152071429Y-83514343D02*
X151976191Y-83466724D01*
X151976191Y-83466724D02*
X151880953Y-83466724D01*
X151928572Y-83704820D02*
X151833334Y-83657201D01*
X151833334Y-83657201D02*
X151738096Y-83561962D01*
X151738096Y-83561962D02*
X151690477Y-83371486D01*
X151690477Y-83371486D02*
X151690477Y-83038153D01*
X151690477Y-83038153D02*
X151738096Y-82847677D01*
X151738096Y-82847677D02*
X151833334Y-82752439D01*
X151833334Y-82752439D02*
X151928572Y-82704820D01*
X151928572Y-82704820D02*
X152119048Y-82704820D01*
X152119048Y-82704820D02*
X152214286Y-82752439D01*
X152214286Y-82752439D02*
X152309524Y-82847677D01*
X152309524Y-82847677D02*
X152357143Y-83038153D01*
X152357143Y-83038153D02*
X152357143Y-83371486D01*
X152357143Y-83371486D02*
X152309524Y-83561962D01*
X152309524Y-83561962D02*
X152214286Y-83657201D01*
X152214286Y-83657201D02*
X152119048Y-83704820D01*
X152119048Y-83704820D02*
X151928572Y-83704820D01*
X153309524Y-83704820D02*
X152738096Y-83704820D01*
X153023810Y-83704820D02*
X153023810Y-82704820D01*
X153023810Y-82704820D02*
X152928572Y-82847677D01*
X152928572Y-82847677D02*
X152833334Y-82942915D01*
X152833334Y-82942915D02*
X152738096Y-82990534D01*
X158304820Y-89011905D02*
X159114343Y-89011905D01*
X159114343Y-89011905D02*
X159209581Y-88964286D01*
X159209581Y-88964286D02*
X159257201Y-88916667D01*
X159257201Y-88916667D02*
X159304820Y-88821429D01*
X159304820Y-88821429D02*
X159304820Y-88630953D01*
X159304820Y-88630953D02*
X159257201Y-88535715D01*
X159257201Y-88535715D02*
X159209581Y-88488096D01*
X159209581Y-88488096D02*
X159114343Y-88440477D01*
X159114343Y-88440477D02*
X158304820Y-88440477D01*
X159304820Y-87440477D02*
X159304820Y-88011905D01*
X159304820Y-87726191D02*
X158304820Y-87726191D01*
X158304820Y-87726191D02*
X158447677Y-87821429D01*
X158447677Y-87821429D02*
X158542915Y-87916667D01*
X158542915Y-87916667D02*
X158590534Y-88011905D01*
X156133333Y-94374819D02*
X155800000Y-93898628D01*
X155561905Y-94374819D02*
X155561905Y-93374819D01*
X155561905Y-93374819D02*
X155942857Y-93374819D01*
X155942857Y-93374819D02*
X156038095Y-93422438D01*
X156038095Y-93422438D02*
X156085714Y-93470057D01*
X156085714Y-93470057D02*
X156133333Y-93565295D01*
X156133333Y-93565295D02*
X156133333Y-93708152D01*
X156133333Y-93708152D02*
X156085714Y-93803390D01*
X156085714Y-93803390D02*
X156038095Y-93851009D01*
X156038095Y-93851009D02*
X155942857Y-93898628D01*
X155942857Y-93898628D02*
X155561905Y-93898628D01*
X157038095Y-93374819D02*
X156561905Y-93374819D01*
X156561905Y-93374819D02*
X156514286Y-93851009D01*
X156514286Y-93851009D02*
X156561905Y-93803390D01*
X156561905Y-93803390D02*
X156657143Y-93755771D01*
X156657143Y-93755771D02*
X156895238Y-93755771D01*
X156895238Y-93755771D02*
X156990476Y-93803390D01*
X156990476Y-93803390D02*
X157038095Y-93851009D01*
X157038095Y-93851009D02*
X157085714Y-93946247D01*
X157085714Y-93946247D02*
X157085714Y-94184342D01*
X157085714Y-94184342D02*
X157038095Y-94279580D01*
X157038095Y-94279580D02*
X156990476Y-94327200D01*
X156990476Y-94327200D02*
X156895238Y-94374819D01*
X156895238Y-94374819D02*
X156657143Y-94374819D01*
X156657143Y-94374819D02*
X156561905Y-94327200D01*
X156561905Y-94327200D02*
X156514286Y-94279580D01*
X147154819Y-100683333D02*
X147869104Y-100683333D01*
X147869104Y-100683333D02*
X148011961Y-100730952D01*
X148011961Y-100730952D02*
X148107200Y-100826190D01*
X148107200Y-100826190D02*
X148154819Y-100969047D01*
X148154819Y-100969047D02*
X148154819Y-101064285D01*
X147154819Y-100302380D02*
X147154819Y-99683333D01*
X147154819Y-99683333D02*
X147535771Y-100016666D01*
X147535771Y-100016666D02*
X147535771Y-99873809D01*
X147535771Y-99873809D02*
X147583390Y-99778571D01*
X147583390Y-99778571D02*
X147631009Y-99730952D01*
X147631009Y-99730952D02*
X147726247Y-99683333D01*
X147726247Y-99683333D02*
X147964342Y-99683333D01*
X147964342Y-99683333D02*
X148059580Y-99730952D01*
X148059580Y-99730952D02*
X148107200Y-99778571D01*
X148107200Y-99778571D02*
X148154819Y-99873809D01*
X148154819Y-99873809D02*
X148154819Y-100159523D01*
X148154819Y-100159523D02*
X148107200Y-100254761D01*
X148107200Y-100254761D02*
X148059580Y-100302380D01*
X141366667Y-78304820D02*
X141366667Y-79019105D01*
X141366667Y-79019105D02*
X141319048Y-79161962D01*
X141319048Y-79161962D02*
X141223810Y-79257201D01*
X141223810Y-79257201D02*
X141080953Y-79304820D01*
X141080953Y-79304820D02*
X140985715Y-79304820D01*
X141795239Y-78400058D02*
X141842858Y-78352439D01*
X141842858Y-78352439D02*
X141938096Y-78304820D01*
X141938096Y-78304820D02*
X142176191Y-78304820D01*
X142176191Y-78304820D02*
X142271429Y-78352439D01*
X142271429Y-78352439D02*
X142319048Y-78400058D01*
X142319048Y-78400058D02*
X142366667Y-78495296D01*
X142366667Y-78495296D02*
X142366667Y-78590534D01*
X142366667Y-78590534D02*
X142319048Y-78733391D01*
X142319048Y-78733391D02*
X141747620Y-79304820D01*
X141747620Y-79304820D02*
X142366667Y-79304820D01*
X143283334Y-88759581D02*
X143235715Y-88807201D01*
X143235715Y-88807201D02*
X143092858Y-88854820D01*
X143092858Y-88854820D02*
X142997620Y-88854820D01*
X142997620Y-88854820D02*
X142854763Y-88807201D01*
X142854763Y-88807201D02*
X142759525Y-88711962D01*
X142759525Y-88711962D02*
X142711906Y-88616724D01*
X142711906Y-88616724D02*
X142664287Y-88426248D01*
X142664287Y-88426248D02*
X142664287Y-88283391D01*
X142664287Y-88283391D02*
X142711906Y-88092915D01*
X142711906Y-88092915D02*
X142759525Y-87997677D01*
X142759525Y-87997677D02*
X142854763Y-87902439D01*
X142854763Y-87902439D02*
X142997620Y-87854820D01*
X142997620Y-87854820D02*
X143092858Y-87854820D01*
X143092858Y-87854820D02*
X143235715Y-87902439D01*
X143235715Y-87902439D02*
X143283334Y-87950058D01*
X144140477Y-87854820D02*
X143950001Y-87854820D01*
X143950001Y-87854820D02*
X143854763Y-87902439D01*
X143854763Y-87902439D02*
X143807144Y-87950058D01*
X143807144Y-87950058D02*
X143711906Y-88092915D01*
X143711906Y-88092915D02*
X143664287Y-88283391D01*
X143664287Y-88283391D02*
X143664287Y-88664343D01*
X143664287Y-88664343D02*
X143711906Y-88759581D01*
X143711906Y-88759581D02*
X143759525Y-88807201D01*
X143759525Y-88807201D02*
X143854763Y-88854820D01*
X143854763Y-88854820D02*
X144045239Y-88854820D01*
X144045239Y-88854820D02*
X144140477Y-88807201D01*
X144140477Y-88807201D02*
X144188096Y-88759581D01*
X144188096Y-88759581D02*
X144235715Y-88664343D01*
X144235715Y-88664343D02*
X144235715Y-88426248D01*
X144235715Y-88426248D02*
X144188096Y-88331010D01*
X144188096Y-88331010D02*
X144140477Y-88283391D01*
X144140477Y-88283391D02*
X144045239Y-88235772D01*
X144045239Y-88235772D02*
X143854763Y-88235772D01*
X143854763Y-88235772D02*
X143759525Y-88283391D01*
X143759525Y-88283391D02*
X143711906Y-88331010D01*
X143711906Y-88331010D02*
X143664287Y-88426248D01*
X143133334Y-92072083D02*
X143085715Y-92119703D01*
X143085715Y-92119703D02*
X142942858Y-92167322D01*
X142942858Y-92167322D02*
X142847620Y-92167322D01*
X142847620Y-92167322D02*
X142704763Y-92119703D01*
X142704763Y-92119703D02*
X142609525Y-92024464D01*
X142609525Y-92024464D02*
X142561906Y-91929226D01*
X142561906Y-91929226D02*
X142514287Y-91738750D01*
X142514287Y-91738750D02*
X142514287Y-91595893D01*
X142514287Y-91595893D02*
X142561906Y-91405417D01*
X142561906Y-91405417D02*
X142609525Y-91310179D01*
X142609525Y-91310179D02*
X142704763Y-91214941D01*
X142704763Y-91214941D02*
X142847620Y-91167322D01*
X142847620Y-91167322D02*
X142942858Y-91167322D01*
X142942858Y-91167322D02*
X143085715Y-91214941D01*
X143085715Y-91214941D02*
X143133334Y-91262560D01*
X143990477Y-91500655D02*
X143990477Y-92167322D01*
X143752382Y-91119703D02*
X143514287Y-91833988D01*
X143514287Y-91833988D02*
X144133334Y-91833988D01*
X152809581Y-90266667D02*
X152857201Y-90314286D01*
X152857201Y-90314286D02*
X152904820Y-90457143D01*
X152904820Y-90457143D02*
X152904820Y-90552381D01*
X152904820Y-90552381D02*
X152857201Y-90695238D01*
X152857201Y-90695238D02*
X152761962Y-90790476D01*
X152761962Y-90790476D02*
X152666724Y-90838095D01*
X152666724Y-90838095D02*
X152476248Y-90885714D01*
X152476248Y-90885714D02*
X152333391Y-90885714D01*
X152333391Y-90885714D02*
X152142915Y-90838095D01*
X152142915Y-90838095D02*
X152047677Y-90790476D01*
X152047677Y-90790476D02*
X151952439Y-90695238D01*
X151952439Y-90695238D02*
X151904820Y-90552381D01*
X151904820Y-90552381D02*
X151904820Y-90457143D01*
X151904820Y-90457143D02*
X151952439Y-90314286D01*
X151952439Y-90314286D02*
X152000058Y-90266667D01*
X152000058Y-89885714D02*
X151952439Y-89838095D01*
X151952439Y-89838095D02*
X151904820Y-89742857D01*
X151904820Y-89742857D02*
X151904820Y-89504762D01*
X151904820Y-89504762D02*
X151952439Y-89409524D01*
X151952439Y-89409524D02*
X152000058Y-89361905D01*
X152000058Y-89361905D02*
X152095296Y-89314286D01*
X152095296Y-89314286D02*
X152190534Y-89314286D01*
X152190534Y-89314286D02*
X152333391Y-89361905D01*
X152333391Y-89361905D02*
X152904820Y-89933333D01*
X152904820Y-89933333D02*
X152904820Y-89314286D01*
X147906547Y-88454819D02*
X147573214Y-87978628D01*
X147335119Y-88454819D02*
X147335119Y-87454819D01*
X147335119Y-87454819D02*
X147716071Y-87454819D01*
X147716071Y-87454819D02*
X147811309Y-87502438D01*
X147811309Y-87502438D02*
X147858928Y-87550057D01*
X147858928Y-87550057D02*
X147906547Y-87645295D01*
X147906547Y-87645295D02*
X147906547Y-87788152D01*
X147906547Y-87788152D02*
X147858928Y-87883390D01*
X147858928Y-87883390D02*
X147811309Y-87931009D01*
X147811309Y-87931009D02*
X147716071Y-87978628D01*
X147716071Y-87978628D02*
X147335119Y-87978628D01*
X148287500Y-87550057D02*
X148335119Y-87502438D01*
X148335119Y-87502438D02*
X148430357Y-87454819D01*
X148430357Y-87454819D02*
X148668452Y-87454819D01*
X148668452Y-87454819D02*
X148763690Y-87502438D01*
X148763690Y-87502438D02*
X148811309Y-87550057D01*
X148811309Y-87550057D02*
X148858928Y-87645295D01*
X148858928Y-87645295D02*
X148858928Y-87740533D01*
X148858928Y-87740533D02*
X148811309Y-87883390D01*
X148811309Y-87883390D02*
X148239881Y-88454819D01*
X148239881Y-88454819D02*
X148858928Y-88454819D01*
X149484802Y-97691490D02*
X149389564Y-97643871D01*
X149389564Y-97643871D02*
X149294326Y-97548633D01*
X149294326Y-97548633D02*
X149151469Y-97405775D01*
X149151469Y-97405775D02*
X149056231Y-97358156D01*
X149056231Y-97358156D02*
X148960993Y-97358156D01*
X149008612Y-97596252D02*
X148913374Y-97548633D01*
X148913374Y-97548633D02*
X148818136Y-97453394D01*
X148818136Y-97453394D02*
X148770517Y-97262918D01*
X148770517Y-97262918D02*
X148770517Y-96929585D01*
X148770517Y-96929585D02*
X148818136Y-96739109D01*
X148818136Y-96739109D02*
X148913374Y-96643871D01*
X148913374Y-96643871D02*
X149008612Y-96596252D01*
X149008612Y-96596252D02*
X149199088Y-96596252D01*
X149199088Y-96596252D02*
X149294326Y-96643871D01*
X149294326Y-96643871D02*
X149389564Y-96739109D01*
X149389564Y-96739109D02*
X149437183Y-96929585D01*
X149437183Y-96929585D02*
X149437183Y-97262918D01*
X149437183Y-97262918D02*
X149389564Y-97453394D01*
X149389564Y-97453394D02*
X149294326Y-97548633D01*
X149294326Y-97548633D02*
X149199088Y-97596252D01*
X149199088Y-97596252D02*
X149008612Y-97596252D01*
X149818136Y-96691490D02*
X149865755Y-96643871D01*
X149865755Y-96643871D02*
X149960993Y-96596252D01*
X149960993Y-96596252D02*
X150199088Y-96596252D01*
X150199088Y-96596252D02*
X150294326Y-96643871D01*
X150294326Y-96643871D02*
X150341945Y-96691490D01*
X150341945Y-96691490D02*
X150389564Y-96786728D01*
X150389564Y-96786728D02*
X150389564Y-96881966D01*
X150389564Y-96881966D02*
X150341945Y-97024823D01*
X150341945Y-97024823D02*
X149770517Y-97596252D01*
X149770517Y-97596252D02*
X150389564Y-97596252D01*
X157754820Y-83404168D02*
X157278629Y-83737501D01*
X157754820Y-83975596D02*
X156754820Y-83975596D01*
X156754820Y-83975596D02*
X156754820Y-83594644D01*
X156754820Y-83594644D02*
X156802439Y-83499406D01*
X156802439Y-83499406D02*
X156850058Y-83451787D01*
X156850058Y-83451787D02*
X156945296Y-83404168D01*
X156945296Y-83404168D02*
X157088153Y-83404168D01*
X157088153Y-83404168D02*
X157183391Y-83451787D01*
X157183391Y-83451787D02*
X157231010Y-83499406D01*
X157231010Y-83499406D02*
X157278629Y-83594644D01*
X157278629Y-83594644D02*
X157278629Y-83975596D01*
X156754820Y-83070834D02*
X156754820Y-82451787D01*
X156754820Y-82451787D02*
X157135772Y-82785120D01*
X157135772Y-82785120D02*
X157135772Y-82642263D01*
X157135772Y-82642263D02*
X157183391Y-82547025D01*
X157183391Y-82547025D02*
X157231010Y-82499406D01*
X157231010Y-82499406D02*
X157326248Y-82451787D01*
X157326248Y-82451787D02*
X157564343Y-82451787D01*
X157564343Y-82451787D02*
X157659581Y-82499406D01*
X157659581Y-82499406D02*
X157707201Y-82547025D01*
X157707201Y-82547025D02*
X157754820Y-82642263D01*
X157754820Y-82642263D02*
X157754820Y-82927977D01*
X157754820Y-82927977D02*
X157707201Y-83023215D01*
X157707201Y-83023215D02*
X157659581Y-83070834D01*
X143233334Y-93904820D02*
X142900001Y-93428629D01*
X142661906Y-93904820D02*
X142661906Y-92904820D01*
X142661906Y-92904820D02*
X143042858Y-92904820D01*
X143042858Y-92904820D02*
X143138096Y-92952439D01*
X143138096Y-92952439D02*
X143185715Y-93000058D01*
X143185715Y-93000058D02*
X143233334Y-93095296D01*
X143233334Y-93095296D02*
X143233334Y-93238153D01*
X143233334Y-93238153D02*
X143185715Y-93333391D01*
X143185715Y-93333391D02*
X143138096Y-93381010D01*
X143138096Y-93381010D02*
X143042858Y-93428629D01*
X143042858Y-93428629D02*
X142661906Y-93428629D01*
X144090477Y-93238153D02*
X144090477Y-93904820D01*
X143852382Y-92857201D02*
X143614287Y-93571486D01*
X143614287Y-93571486D02*
X144233334Y-93571486D01*
X148083334Y-91704820D02*
X147750001Y-91228629D01*
X147511906Y-91704820D02*
X147511906Y-90704820D01*
X147511906Y-90704820D02*
X147892858Y-90704820D01*
X147892858Y-90704820D02*
X147988096Y-90752439D01*
X147988096Y-90752439D02*
X148035715Y-90800058D01*
X148035715Y-90800058D02*
X148083334Y-90895296D01*
X148083334Y-90895296D02*
X148083334Y-91038153D01*
X148083334Y-91038153D02*
X148035715Y-91133391D01*
X148035715Y-91133391D02*
X147988096Y-91181010D01*
X147988096Y-91181010D02*
X147892858Y-91228629D01*
X147892858Y-91228629D02*
X147511906Y-91228629D01*
X149035715Y-91704820D02*
X148464287Y-91704820D01*
X148750001Y-91704820D02*
X148750001Y-90704820D01*
X148750001Y-90704820D02*
X148654763Y-90847677D01*
X148654763Y-90847677D02*
X148559525Y-90942915D01*
X148559525Y-90942915D02*
X148464287Y-90990534D01*
X158659581Y-92066667D02*
X158707201Y-92114286D01*
X158707201Y-92114286D02*
X158754820Y-92257143D01*
X158754820Y-92257143D02*
X158754820Y-92352381D01*
X158754820Y-92352381D02*
X158707201Y-92495238D01*
X158707201Y-92495238D02*
X158611962Y-92590476D01*
X158611962Y-92590476D02*
X158516724Y-92638095D01*
X158516724Y-92638095D02*
X158326248Y-92685714D01*
X158326248Y-92685714D02*
X158183391Y-92685714D01*
X158183391Y-92685714D02*
X157992915Y-92638095D01*
X157992915Y-92638095D02*
X157897677Y-92590476D01*
X157897677Y-92590476D02*
X157802439Y-92495238D01*
X157802439Y-92495238D02*
X157754820Y-92352381D01*
X157754820Y-92352381D02*
X157754820Y-92257143D01*
X157754820Y-92257143D02*
X157802439Y-92114286D01*
X157802439Y-92114286D02*
X157850058Y-92066667D01*
X158754820Y-91114286D02*
X158754820Y-91685714D01*
X158754820Y-91400000D02*
X157754820Y-91400000D01*
X157754820Y-91400000D02*
X157897677Y-91495238D01*
X157897677Y-91495238D02*
X157992915Y-91590476D01*
X157992915Y-91590476D02*
X158040534Y-91685714D01*
X143133335Y-90322083D02*
X143085716Y-90369703D01*
X143085716Y-90369703D02*
X142942859Y-90417322D01*
X142942859Y-90417322D02*
X142847621Y-90417322D01*
X142847621Y-90417322D02*
X142704764Y-90369703D01*
X142704764Y-90369703D02*
X142609526Y-90274464D01*
X142609526Y-90274464D02*
X142561907Y-90179226D01*
X142561907Y-90179226D02*
X142514288Y-89988750D01*
X142514288Y-89988750D02*
X142514288Y-89845893D01*
X142514288Y-89845893D02*
X142561907Y-89655417D01*
X142561907Y-89655417D02*
X142609526Y-89560179D01*
X142609526Y-89560179D02*
X142704764Y-89464941D01*
X142704764Y-89464941D02*
X142847621Y-89417322D01*
X142847621Y-89417322D02*
X142942859Y-89417322D01*
X142942859Y-89417322D02*
X143085716Y-89464941D01*
X143085716Y-89464941D02*
X143133335Y-89512560D01*
X144038097Y-89417322D02*
X143561907Y-89417322D01*
X143561907Y-89417322D02*
X143514288Y-89893512D01*
X143514288Y-89893512D02*
X143561907Y-89845893D01*
X143561907Y-89845893D02*
X143657145Y-89798274D01*
X143657145Y-89798274D02*
X143895240Y-89798274D01*
X143895240Y-89798274D02*
X143990478Y-89845893D01*
X143990478Y-89845893D02*
X144038097Y-89893512D01*
X144038097Y-89893512D02*
X144085716Y-89988750D01*
X144085716Y-89988750D02*
X144085716Y-90226845D01*
X144085716Y-90226845D02*
X144038097Y-90322083D01*
X144038097Y-90322083D02*
X143990478Y-90369703D01*
X143990478Y-90369703D02*
X143895240Y-90417322D01*
X143895240Y-90417322D02*
X143657145Y-90417322D01*
X143657145Y-90417322D02*
X143561907Y-90369703D01*
X143561907Y-90369703D02*
X143514288Y-90322083D01*
X146614287Y-89054820D02*
X147185715Y-89054820D01*
X146900001Y-90054820D02*
X146900001Y-89054820D01*
X147519049Y-90054820D02*
X147519049Y-89054820D01*
X147519049Y-89531010D02*
X148090477Y-89531010D01*
X148090477Y-90054820D02*
X148090477Y-89054820D01*
X149090477Y-90054820D02*
X148519049Y-90054820D01*
X148804763Y-90054820D02*
X148804763Y-89054820D01*
X148804763Y-89054820D02*
X148709525Y-89197677D01*
X148709525Y-89197677D02*
X148614287Y-89292915D01*
X148614287Y-89292915D02*
X148519049Y-89340534D01*
X143283334Y-95622083D02*
X143235715Y-95669703D01*
X143235715Y-95669703D02*
X143092858Y-95717322D01*
X143092858Y-95717322D02*
X142997620Y-95717322D01*
X142997620Y-95717322D02*
X142854763Y-95669703D01*
X142854763Y-95669703D02*
X142759525Y-95574464D01*
X142759525Y-95574464D02*
X142711906Y-95479226D01*
X142711906Y-95479226D02*
X142664287Y-95288750D01*
X142664287Y-95288750D02*
X142664287Y-95145893D01*
X142664287Y-95145893D02*
X142711906Y-94955417D01*
X142711906Y-94955417D02*
X142759525Y-94860179D01*
X142759525Y-94860179D02*
X142854763Y-94764941D01*
X142854763Y-94764941D02*
X142997620Y-94717322D01*
X142997620Y-94717322D02*
X143092858Y-94717322D01*
X143092858Y-94717322D02*
X143235715Y-94764941D01*
X143235715Y-94764941D02*
X143283334Y-94812560D01*
X143616668Y-94717322D02*
X144235715Y-94717322D01*
X144235715Y-94717322D02*
X143902382Y-95098274D01*
X143902382Y-95098274D02*
X144045239Y-95098274D01*
X144045239Y-95098274D02*
X144140477Y-95145893D01*
X144140477Y-95145893D02*
X144188096Y-95193512D01*
X144188096Y-95193512D02*
X144235715Y-95288750D01*
X144235715Y-95288750D02*
X144235715Y-95526845D01*
X144235715Y-95526845D02*
X144188096Y-95622083D01*
X144188096Y-95622083D02*
X144140477Y-95669703D01*
X144140477Y-95669703D02*
X144045239Y-95717322D01*
X144045239Y-95717322D02*
X143759525Y-95717322D01*
X143759525Y-95717322D02*
X143664287Y-95669703D01*
X143664287Y-95669703D02*
X143616668Y-95622083D01*
D11*
%TO.C,Q1*%
X154050001Y-84040001D02*
X153250001Y-84040001D01*
X154050001Y-84040001D02*
X154850001Y-84040001D01*
X154050001Y-87160001D02*
X153250001Y-87160001D01*
X154050001Y-87160001D02*
X155850001Y-87160001D01*
%TO.C,U1*%
X157960001Y-89650001D02*
X157960001Y-88850001D01*
X157960001Y-89650001D02*
X157960001Y-90450001D01*
X154840001Y-89650001D02*
X154840001Y-88850001D01*
X154840001Y-89650001D02*
X154840001Y-91450001D01*
%TO.C,R5*%
X156062742Y-95872500D02*
X156537258Y-95872500D01*
X156062742Y-94827500D02*
X156537258Y-94827500D01*
%TO.C,J3*%
X156130000Y-102150000D02*
X156130000Y-98550000D01*
X148770000Y-102150000D02*
X148770000Y-98550000D01*
X150650000Y-96670000D02*
X154250000Y-96670000D01*
X150650000Y-104030000D02*
X154250000Y-104030000D01*
%TO.C,J2*%
X145100000Y-86080000D02*
X148700000Y-86080000D01*
X145100000Y-78720000D02*
X148700000Y-78720000D01*
X143220000Y-84200000D02*
X143220000Y-80600000D01*
X150580000Y-84200000D02*
X150580000Y-80600000D01*
%TO.C,C6*%
X145734422Y-88922503D02*
X146015582Y-88922503D01*
X145734422Y-87902503D02*
X146015582Y-87902503D01*
%TO.C,C4*%
X145734421Y-91202502D02*
X146015581Y-91202502D01*
X145734421Y-92222502D02*
X146015581Y-92222502D01*
%TO.C,C2*%
X154160001Y-88959421D02*
X154160001Y-89240581D01*
X153140001Y-88959421D02*
X153140001Y-89240581D01*
%TO.C,R2*%
X150087743Y-88435002D02*
X150562259Y-88435002D01*
X150087743Y-87390002D02*
X150562259Y-87390002D01*
%TO.C,Q2*%
X149750001Y-95872501D02*
X150550001Y-95872501D01*
X149750001Y-95872501D02*
X148950001Y-95872501D01*
X149750001Y-92752501D02*
X150550001Y-92752501D01*
X149750001Y-92752501D02*
X147950001Y-92752501D01*
%TO.C,R3*%
X156677501Y-86024760D02*
X156677501Y-85550244D01*
X157722501Y-86024760D02*
X157722501Y-85550244D01*
%TO.C,R4*%
X146112259Y-93985002D02*
X145637743Y-93985002D01*
X146112259Y-92940002D02*
X145637743Y-92940002D01*
%TO.C,R1*%
X150537260Y-90890003D02*
X150062744Y-90890003D01*
X150537260Y-91935003D02*
X150062744Y-91935003D01*
%TO.C,C1*%
X156059421Y-93060001D02*
X156340581Y-93060001D01*
X156059421Y-92040001D02*
X156340581Y-92040001D01*
%TO.C,C5*%
X145734422Y-89552502D02*
X146015582Y-89552502D01*
X145734422Y-90572502D02*
X146015582Y-90572502D01*
%TO.C,TH1*%
X150537260Y-90185003D02*
X150062744Y-90185003D01*
X150537260Y-89140003D02*
X150062744Y-89140003D01*
%TO.C,C3*%
X146065581Y-95722503D02*
X145784421Y-95722503D01*
X146065581Y-94702503D02*
X145784421Y-94702503D01*
%TD*%
M02*
