%TF.GenerationSoftware,KiCad,Pcbnew,7.0.6*%
%TF.CreationDate,2023-08-29T11:28:15+01:00*%
%TF.ProjectId,SiPM_output,5369504d-5f6f-4757-9470-75742e6b6963,2.2*%
%TF.SameCoordinates,Original*%
%TF.FileFunction,Legend,Top*%
%TF.FilePolarity,Positive*%
%FSLAX46Y46*%
G04 Gerber Fmt 4.6, Leading zero omitted, Abs format (unit mm)*
G04 Created by KiCad (PCBNEW 7.0.6) date 2023-08-29 11:28:15*
%MOMM*%
%LPD*%
G01*
G04 APERTURE LIST*
%ADD10C,0.300000*%
%ADD11C,0.150000*%
%ADD12C,0.100000*%
%ADD13C,0.200000*%
%ADD14C,0.125000*%
%ADD15C,0.254000*%
%ADD16C,0.120000*%
%ADD17C,0.127000*%
%ADD18C,0.250000*%
G04 APERTURE END LIST*
D10*
X105883082Y-127779400D02*
X106097368Y-127850828D01*
X106097368Y-127850828D02*
X106454510Y-127850828D01*
X106454510Y-127850828D02*
X106597368Y-127779400D01*
X106597368Y-127779400D02*
X106668796Y-127707971D01*
X106668796Y-127707971D02*
X106740225Y-127565114D01*
X106740225Y-127565114D02*
X106740225Y-127422257D01*
X106740225Y-127422257D02*
X106668796Y-127279400D01*
X106668796Y-127279400D02*
X106597368Y-127207971D01*
X106597368Y-127207971D02*
X106454510Y-127136542D01*
X106454510Y-127136542D02*
X106168796Y-127065114D01*
X106168796Y-127065114D02*
X106025939Y-126993685D01*
X106025939Y-126993685D02*
X105954510Y-126922257D01*
X105954510Y-126922257D02*
X105883082Y-126779400D01*
X105883082Y-126779400D02*
X105883082Y-126636542D01*
X105883082Y-126636542D02*
X105954510Y-126493685D01*
X105954510Y-126493685D02*
X106025939Y-126422257D01*
X106025939Y-126422257D02*
X106168796Y-126350828D01*
X106168796Y-126350828D02*
X106525939Y-126350828D01*
X106525939Y-126350828D02*
X106740225Y-126422257D01*
X107383081Y-127850828D02*
X107383081Y-126850828D01*
X107383081Y-126350828D02*
X107311653Y-126422257D01*
X107311653Y-126422257D02*
X107383081Y-126493685D01*
X107383081Y-126493685D02*
X107454510Y-126422257D01*
X107454510Y-126422257D02*
X107383081Y-126350828D01*
X107383081Y-126350828D02*
X107383081Y-126493685D01*
X108097367Y-127850828D02*
X108097367Y-126350828D01*
X108097367Y-126350828D02*
X108668796Y-126350828D01*
X108668796Y-126350828D02*
X108811653Y-126422257D01*
X108811653Y-126422257D02*
X108883082Y-126493685D01*
X108883082Y-126493685D02*
X108954510Y-126636542D01*
X108954510Y-126636542D02*
X108954510Y-126850828D01*
X108954510Y-126850828D02*
X108883082Y-126993685D01*
X108883082Y-126993685D02*
X108811653Y-127065114D01*
X108811653Y-127065114D02*
X108668796Y-127136542D01*
X108668796Y-127136542D02*
X108097367Y-127136542D01*
X109597367Y-127850828D02*
X109597367Y-126350828D01*
X109597367Y-126350828D02*
X110097367Y-127422257D01*
X110097367Y-127422257D02*
X110597367Y-126350828D01*
X110597367Y-126350828D02*
X110597367Y-127850828D01*
X112383082Y-127422257D02*
X113097368Y-127422257D01*
X112240225Y-127850828D02*
X112740225Y-126350828D01*
X112740225Y-126350828D02*
X113240225Y-127850828D01*
X113668796Y-127779400D02*
X113811653Y-127850828D01*
X113811653Y-127850828D02*
X114097367Y-127850828D01*
X114097367Y-127850828D02*
X114240224Y-127779400D01*
X114240224Y-127779400D02*
X114311653Y-127636542D01*
X114311653Y-127636542D02*
X114311653Y-127565114D01*
X114311653Y-127565114D02*
X114240224Y-127422257D01*
X114240224Y-127422257D02*
X114097367Y-127350828D01*
X114097367Y-127350828D02*
X113883082Y-127350828D01*
X113883082Y-127350828D02*
X113740224Y-127279400D01*
X113740224Y-127279400D02*
X113668796Y-127136542D01*
X113668796Y-127136542D02*
X113668796Y-127065114D01*
X113668796Y-127065114D02*
X113740224Y-126922257D01*
X113740224Y-126922257D02*
X113883082Y-126850828D01*
X113883082Y-126850828D02*
X114097367Y-126850828D01*
X114097367Y-126850828D02*
X114240224Y-126922257D01*
X114883082Y-127779400D02*
X115025939Y-127850828D01*
X115025939Y-127850828D02*
X115311653Y-127850828D01*
X115311653Y-127850828D02*
X115454510Y-127779400D01*
X115454510Y-127779400D02*
X115525939Y-127636542D01*
X115525939Y-127636542D02*
X115525939Y-127565114D01*
X115525939Y-127565114D02*
X115454510Y-127422257D01*
X115454510Y-127422257D02*
X115311653Y-127350828D01*
X115311653Y-127350828D02*
X115097368Y-127350828D01*
X115097368Y-127350828D02*
X114954510Y-127279400D01*
X114954510Y-127279400D02*
X114883082Y-127136542D01*
X114883082Y-127136542D02*
X114883082Y-127065114D01*
X114883082Y-127065114D02*
X114954510Y-126922257D01*
X114954510Y-126922257D02*
X115097368Y-126850828D01*
X115097368Y-126850828D02*
X115311653Y-126850828D01*
X115311653Y-126850828D02*
X115454510Y-126922257D01*
X116740225Y-127779400D02*
X116597368Y-127850828D01*
X116597368Y-127850828D02*
X116311654Y-127850828D01*
X116311654Y-127850828D02*
X116168796Y-127779400D01*
X116168796Y-127779400D02*
X116097368Y-127636542D01*
X116097368Y-127636542D02*
X116097368Y-127065114D01*
X116097368Y-127065114D02*
X116168796Y-126922257D01*
X116168796Y-126922257D02*
X116311654Y-126850828D01*
X116311654Y-126850828D02*
X116597368Y-126850828D01*
X116597368Y-126850828D02*
X116740225Y-126922257D01*
X116740225Y-126922257D02*
X116811654Y-127065114D01*
X116811654Y-127065114D02*
X116811654Y-127207971D01*
X116811654Y-127207971D02*
X116097368Y-127350828D01*
X117454510Y-127850828D02*
X117454510Y-126850828D01*
X117454510Y-126993685D02*
X117525939Y-126922257D01*
X117525939Y-126922257D02*
X117668796Y-126850828D01*
X117668796Y-126850828D02*
X117883082Y-126850828D01*
X117883082Y-126850828D02*
X118025939Y-126922257D01*
X118025939Y-126922257D02*
X118097368Y-127065114D01*
X118097368Y-127065114D02*
X118097368Y-127850828D01*
X118097368Y-127065114D02*
X118168796Y-126922257D01*
X118168796Y-126922257D02*
X118311653Y-126850828D01*
X118311653Y-126850828D02*
X118525939Y-126850828D01*
X118525939Y-126850828D02*
X118668796Y-126922257D01*
X118668796Y-126922257D02*
X118740225Y-127065114D01*
X118740225Y-127065114D02*
X118740225Y-127850828D01*
X119454510Y-127850828D02*
X119454510Y-126350828D01*
X119454510Y-126922257D02*
X119597368Y-126850828D01*
X119597368Y-126850828D02*
X119883082Y-126850828D01*
X119883082Y-126850828D02*
X120025939Y-126922257D01*
X120025939Y-126922257D02*
X120097368Y-126993685D01*
X120097368Y-126993685D02*
X120168796Y-127136542D01*
X120168796Y-127136542D02*
X120168796Y-127565114D01*
X120168796Y-127565114D02*
X120097368Y-127707971D01*
X120097368Y-127707971D02*
X120025939Y-127779400D01*
X120025939Y-127779400D02*
X119883082Y-127850828D01*
X119883082Y-127850828D02*
X119597368Y-127850828D01*
X119597368Y-127850828D02*
X119454510Y-127779400D01*
X121025939Y-127850828D02*
X120883082Y-127779400D01*
X120883082Y-127779400D02*
X120811653Y-127636542D01*
X120811653Y-127636542D02*
X120811653Y-126350828D01*
X121454510Y-126850828D02*
X121811653Y-127850828D01*
X122168796Y-126850828D02*
X121811653Y-127850828D01*
X121811653Y-127850828D02*
X121668796Y-128207971D01*
X121668796Y-128207971D02*
X121597367Y-128279400D01*
X121597367Y-128279400D02*
X121454510Y-128350828D01*
D11*
X78181421Y-115900000D02*
G75*
G03*
X78181421Y-115900000I-141421J0D01*
G01*
D12*
X94661803Y-99750000D02*
G75*
G03*
X94661803Y-99750000I-111803J0D01*
G01*
D13*
X95150000Y-109750000D02*
X130150000Y-109750000D01*
X130150000Y-144750000D01*
X95150000Y-144750000D01*
X95150000Y-109750000D01*
D12*
X87200000Y-103400000D02*
G75*
G03*
X87200000Y-103400000I-100000J0D01*
G01*
X57806265Y-68924800D02*
X57949122Y-68972419D01*
X57949122Y-68972419D02*
X58187217Y-68972419D01*
X58187217Y-68972419D02*
X58282455Y-68924800D01*
X58282455Y-68924800D02*
X58330074Y-68877180D01*
X58330074Y-68877180D02*
X58377693Y-68781942D01*
X58377693Y-68781942D02*
X58377693Y-68686704D01*
X58377693Y-68686704D02*
X58330074Y-68591466D01*
X58330074Y-68591466D02*
X58282455Y-68543847D01*
X58282455Y-68543847D02*
X58187217Y-68496228D01*
X58187217Y-68496228D02*
X57996741Y-68448609D01*
X57996741Y-68448609D02*
X57901503Y-68400990D01*
X57901503Y-68400990D02*
X57853884Y-68353371D01*
X57853884Y-68353371D02*
X57806265Y-68258133D01*
X57806265Y-68258133D02*
X57806265Y-68162895D01*
X57806265Y-68162895D02*
X57853884Y-68067657D01*
X57853884Y-68067657D02*
X57901503Y-68020038D01*
X57901503Y-68020038D02*
X57996741Y-67972419D01*
X57996741Y-67972419D02*
X58234836Y-67972419D01*
X58234836Y-67972419D02*
X58377693Y-68020038D01*
X59377693Y-68877180D02*
X59330074Y-68924800D01*
X59330074Y-68924800D02*
X59187217Y-68972419D01*
X59187217Y-68972419D02*
X59091979Y-68972419D01*
X59091979Y-68972419D02*
X58949122Y-68924800D01*
X58949122Y-68924800D02*
X58853884Y-68829561D01*
X58853884Y-68829561D02*
X58806265Y-68734323D01*
X58806265Y-68734323D02*
X58758646Y-68543847D01*
X58758646Y-68543847D02*
X58758646Y-68400990D01*
X58758646Y-68400990D02*
X58806265Y-68210514D01*
X58806265Y-68210514D02*
X58853884Y-68115276D01*
X58853884Y-68115276D02*
X58949122Y-68020038D01*
X58949122Y-68020038D02*
X59091979Y-67972419D01*
X59091979Y-67972419D02*
X59187217Y-67972419D01*
X59187217Y-67972419D02*
X59330074Y-68020038D01*
X59330074Y-68020038D02*
X59377693Y-68067657D01*
X60282455Y-68972419D02*
X59806265Y-68972419D01*
X59806265Y-68972419D02*
X59806265Y-67972419D01*
X58175312Y-77472419D02*
X57841979Y-76996228D01*
X57603884Y-77472419D02*
X57603884Y-76472419D01*
X57603884Y-76472419D02*
X57984836Y-76472419D01*
X57984836Y-76472419D02*
X58080074Y-76520038D01*
X58080074Y-76520038D02*
X58127693Y-76567657D01*
X58127693Y-76567657D02*
X58175312Y-76662895D01*
X58175312Y-76662895D02*
X58175312Y-76805752D01*
X58175312Y-76805752D02*
X58127693Y-76900990D01*
X58127693Y-76900990D02*
X58080074Y-76948609D01*
X58080074Y-76948609D02*
X57984836Y-76996228D01*
X57984836Y-76996228D02*
X57603884Y-76996228D01*
X58508646Y-76472419D02*
X59175312Y-77472419D01*
X59175312Y-76472419D02*
X58508646Y-77472419D01*
X57758646Y-65522419D02*
X58377693Y-65522419D01*
X58377693Y-65522419D02*
X58044360Y-65903371D01*
X58044360Y-65903371D02*
X58187217Y-65903371D01*
X58187217Y-65903371D02*
X58282455Y-65950990D01*
X58282455Y-65950990D02*
X58330074Y-65998609D01*
X58330074Y-65998609D02*
X58377693Y-66093847D01*
X58377693Y-66093847D02*
X58377693Y-66331942D01*
X58377693Y-66331942D02*
X58330074Y-66427180D01*
X58330074Y-66427180D02*
X58282455Y-66474800D01*
X58282455Y-66474800D02*
X58187217Y-66522419D01*
X58187217Y-66522419D02*
X57901503Y-66522419D01*
X57901503Y-66522419D02*
X57806265Y-66474800D01*
X57806265Y-66474800D02*
X57758646Y-66427180D01*
X58663408Y-65522419D02*
X58996741Y-66522419D01*
X58996741Y-66522419D02*
X59330074Y-65522419D01*
X59568170Y-65522419D02*
X60187217Y-65522419D01*
X60187217Y-65522419D02*
X59853884Y-65903371D01*
X59853884Y-65903371D02*
X59996741Y-65903371D01*
X59996741Y-65903371D02*
X60091979Y-65950990D01*
X60091979Y-65950990D02*
X60139598Y-65998609D01*
X60139598Y-65998609D02*
X60187217Y-66093847D01*
X60187217Y-66093847D02*
X60187217Y-66331942D01*
X60187217Y-66331942D02*
X60139598Y-66427180D01*
X60139598Y-66427180D02*
X60091979Y-66474800D01*
X60091979Y-66474800D02*
X59996741Y-66522419D01*
X59996741Y-66522419D02*
X59711027Y-66522419D01*
X59711027Y-66522419D02*
X59615789Y-66474800D01*
X59615789Y-66474800D02*
X59568170Y-66427180D01*
X57861027Y-87872419D02*
X58432455Y-87872419D01*
X58146741Y-88872419D02*
X58146741Y-87872419D01*
X58670551Y-87872419D02*
X59337217Y-88872419D01*
X59337217Y-87872419D02*
X58670551Y-88872419D01*
X57561027Y-79072419D02*
X58132455Y-79072419D01*
X57846741Y-80072419D02*
X57846741Y-79072419D01*
X58370551Y-79072419D02*
X59037217Y-80072419D01*
X59037217Y-79072419D02*
X58370551Y-80072419D01*
X57511027Y-82509800D02*
X57582455Y-82533609D01*
X57582455Y-82533609D02*
X57701503Y-82533609D01*
X57701503Y-82533609D02*
X57749122Y-82509800D01*
X57749122Y-82509800D02*
X57772931Y-82485990D01*
X57772931Y-82485990D02*
X57796741Y-82438371D01*
X57796741Y-82438371D02*
X57796741Y-82390752D01*
X57796741Y-82390752D02*
X57772931Y-82343133D01*
X57772931Y-82343133D02*
X57749122Y-82319323D01*
X57749122Y-82319323D02*
X57701503Y-82295514D01*
X57701503Y-82295514D02*
X57606265Y-82271704D01*
X57606265Y-82271704D02*
X57558646Y-82247895D01*
X57558646Y-82247895D02*
X57534836Y-82224085D01*
X57534836Y-82224085D02*
X57511027Y-82176466D01*
X57511027Y-82176466D02*
X57511027Y-82128847D01*
X57511027Y-82128847D02*
X57534836Y-82081228D01*
X57534836Y-82081228D02*
X57558646Y-82057419D01*
X57558646Y-82057419D02*
X57606265Y-82033609D01*
X57606265Y-82033609D02*
X57725312Y-82033609D01*
X57725312Y-82033609D02*
X57796741Y-82057419D01*
X58296740Y-82485990D02*
X58272931Y-82509800D01*
X58272931Y-82509800D02*
X58201502Y-82533609D01*
X58201502Y-82533609D02*
X58153883Y-82533609D01*
X58153883Y-82533609D02*
X58082455Y-82509800D01*
X58082455Y-82509800D02*
X58034836Y-82462180D01*
X58034836Y-82462180D02*
X58011026Y-82414561D01*
X58011026Y-82414561D02*
X57987217Y-82319323D01*
X57987217Y-82319323D02*
X57987217Y-82247895D01*
X57987217Y-82247895D02*
X58011026Y-82152657D01*
X58011026Y-82152657D02*
X58034836Y-82105038D01*
X58034836Y-82105038D02*
X58082455Y-82057419D01*
X58082455Y-82057419D02*
X58153883Y-82033609D01*
X58153883Y-82033609D02*
X58201502Y-82033609D01*
X58201502Y-82033609D02*
X58272931Y-82057419D01*
X58272931Y-82057419D02*
X58296740Y-82081228D01*
X58511026Y-82533609D02*
X58511026Y-82033609D01*
X58796740Y-82533609D02*
X58582455Y-82247895D01*
X58796740Y-82033609D02*
X58511026Y-82319323D01*
D10*
X79404510Y-139415114D02*
X79618796Y-139486542D01*
X79618796Y-139486542D02*
X79690225Y-139557971D01*
X79690225Y-139557971D02*
X79761653Y-139700828D01*
X79761653Y-139700828D02*
X79761653Y-139915114D01*
X79761653Y-139915114D02*
X79690225Y-140057971D01*
X79690225Y-140057971D02*
X79618796Y-140129400D01*
X79618796Y-140129400D02*
X79475939Y-140200828D01*
X79475939Y-140200828D02*
X78904510Y-140200828D01*
X78904510Y-140200828D02*
X78904510Y-138700828D01*
X78904510Y-138700828D02*
X79404510Y-138700828D01*
X79404510Y-138700828D02*
X79547368Y-138772257D01*
X79547368Y-138772257D02*
X79618796Y-138843685D01*
X79618796Y-138843685D02*
X79690225Y-138986542D01*
X79690225Y-138986542D02*
X79690225Y-139129400D01*
X79690225Y-139129400D02*
X79618796Y-139272257D01*
X79618796Y-139272257D02*
X79547368Y-139343685D01*
X79547368Y-139343685D02*
X79404510Y-139415114D01*
X79404510Y-139415114D02*
X78904510Y-139415114D01*
X80404510Y-140200828D02*
X80404510Y-138700828D01*
X81047368Y-139772257D02*
X81761654Y-139772257D01*
X80904511Y-140200828D02*
X81404511Y-138700828D01*
X81404511Y-138700828D02*
X81904511Y-140200828D01*
X82333082Y-140129400D02*
X82547368Y-140200828D01*
X82547368Y-140200828D02*
X82904510Y-140200828D01*
X82904510Y-140200828D02*
X83047368Y-140129400D01*
X83047368Y-140129400D02*
X83118796Y-140057971D01*
X83118796Y-140057971D02*
X83190225Y-139915114D01*
X83190225Y-139915114D02*
X83190225Y-139772257D01*
X83190225Y-139772257D02*
X83118796Y-139629400D01*
X83118796Y-139629400D02*
X83047368Y-139557971D01*
X83047368Y-139557971D02*
X82904510Y-139486542D01*
X82904510Y-139486542D02*
X82618796Y-139415114D01*
X82618796Y-139415114D02*
X82475939Y-139343685D01*
X82475939Y-139343685D02*
X82404510Y-139272257D01*
X82404510Y-139272257D02*
X82333082Y-139129400D01*
X82333082Y-139129400D02*
X82333082Y-138986542D01*
X82333082Y-138986542D02*
X82404510Y-138843685D01*
X82404510Y-138843685D02*
X82475939Y-138772257D01*
X82475939Y-138772257D02*
X82618796Y-138700828D01*
X82618796Y-138700828D02*
X82975939Y-138700828D01*
X82975939Y-138700828D02*
X83190225Y-138772257D01*
X74379400Y-129616917D02*
X74450828Y-129402632D01*
X74450828Y-129402632D02*
X74450828Y-129045489D01*
X74450828Y-129045489D02*
X74379400Y-128902632D01*
X74379400Y-128902632D02*
X74307971Y-128831203D01*
X74307971Y-128831203D02*
X74165114Y-128759774D01*
X74165114Y-128759774D02*
X74022257Y-128759774D01*
X74022257Y-128759774D02*
X73879400Y-128831203D01*
X73879400Y-128831203D02*
X73807971Y-128902632D01*
X73807971Y-128902632D02*
X73736542Y-129045489D01*
X73736542Y-129045489D02*
X73665114Y-129331203D01*
X73665114Y-129331203D02*
X73593685Y-129474060D01*
X73593685Y-129474060D02*
X73522257Y-129545489D01*
X73522257Y-129545489D02*
X73379400Y-129616917D01*
X73379400Y-129616917D02*
X73236542Y-129616917D01*
X73236542Y-129616917D02*
X73093685Y-129545489D01*
X73093685Y-129545489D02*
X73022257Y-129474060D01*
X73022257Y-129474060D02*
X72950828Y-129331203D01*
X72950828Y-129331203D02*
X72950828Y-128974060D01*
X72950828Y-128974060D02*
X73022257Y-128759774D01*
X74450828Y-128116918D02*
X73450828Y-128116918D01*
X72950828Y-128116918D02*
X73022257Y-128188346D01*
X73022257Y-128188346D02*
X73093685Y-128116918D01*
X73093685Y-128116918D02*
X73022257Y-128045489D01*
X73022257Y-128045489D02*
X72950828Y-128116918D01*
X72950828Y-128116918D02*
X73093685Y-128116918D01*
X74450828Y-127402632D02*
X72950828Y-127402632D01*
X72950828Y-127402632D02*
X72950828Y-126831203D01*
X72950828Y-126831203D02*
X73022257Y-126688346D01*
X73022257Y-126688346D02*
X73093685Y-126616917D01*
X73093685Y-126616917D02*
X73236542Y-126545489D01*
X73236542Y-126545489D02*
X73450828Y-126545489D01*
X73450828Y-126545489D02*
X73593685Y-126616917D01*
X73593685Y-126616917D02*
X73665114Y-126688346D01*
X73665114Y-126688346D02*
X73736542Y-126831203D01*
X73736542Y-126831203D02*
X73736542Y-127402632D01*
X74450828Y-125902632D02*
X72950828Y-125902632D01*
X72950828Y-125902632D02*
X74022257Y-125402632D01*
X74022257Y-125402632D02*
X72950828Y-124902632D01*
X72950828Y-124902632D02*
X74450828Y-124902632D01*
D12*
X58025312Y-74877180D02*
X57977693Y-74924800D01*
X57977693Y-74924800D02*
X57834836Y-74972419D01*
X57834836Y-74972419D02*
X57739598Y-74972419D01*
X57739598Y-74972419D02*
X57596741Y-74924800D01*
X57596741Y-74924800D02*
X57501503Y-74829561D01*
X57501503Y-74829561D02*
X57453884Y-74734323D01*
X57453884Y-74734323D02*
X57406265Y-74543847D01*
X57406265Y-74543847D02*
X57406265Y-74400990D01*
X57406265Y-74400990D02*
X57453884Y-74210514D01*
X57453884Y-74210514D02*
X57501503Y-74115276D01*
X57501503Y-74115276D02*
X57596741Y-74020038D01*
X57596741Y-74020038D02*
X57739598Y-73972419D01*
X57739598Y-73972419D02*
X57834836Y-73972419D01*
X57834836Y-73972419D02*
X57977693Y-74020038D01*
X57977693Y-74020038D02*
X58025312Y-74067657D01*
X58406265Y-74924800D02*
X58549122Y-74972419D01*
X58549122Y-74972419D02*
X58787217Y-74972419D01*
X58787217Y-74972419D02*
X58882455Y-74924800D01*
X58882455Y-74924800D02*
X58930074Y-74877180D01*
X58930074Y-74877180D02*
X58977693Y-74781942D01*
X58977693Y-74781942D02*
X58977693Y-74686704D01*
X58977693Y-74686704D02*
X58930074Y-74591466D01*
X58930074Y-74591466D02*
X58882455Y-74543847D01*
X58882455Y-74543847D02*
X58787217Y-74496228D01*
X58787217Y-74496228D02*
X58596741Y-74448609D01*
X58596741Y-74448609D02*
X58501503Y-74400990D01*
X58501503Y-74400990D02*
X58453884Y-74353371D01*
X58453884Y-74353371D02*
X58406265Y-74258133D01*
X58406265Y-74258133D02*
X58406265Y-74162895D01*
X58406265Y-74162895D02*
X58453884Y-74067657D01*
X58453884Y-74067657D02*
X58501503Y-74020038D01*
X58501503Y-74020038D02*
X58596741Y-73972419D01*
X58596741Y-73972419D02*
X58834836Y-73972419D01*
X58834836Y-73972419D02*
X58977693Y-74020038D01*
D14*
X57944140Y-62968738D02*
X57848902Y-62921119D01*
X57848902Y-62921119D02*
X57706045Y-62921119D01*
X57706045Y-62921119D02*
X57563188Y-62968738D01*
X57563188Y-62968738D02*
X57467950Y-63063976D01*
X57467950Y-63063976D02*
X57420331Y-63159214D01*
X57420331Y-63159214D02*
X57372712Y-63349690D01*
X57372712Y-63349690D02*
X57372712Y-63492547D01*
X57372712Y-63492547D02*
X57420331Y-63683023D01*
X57420331Y-63683023D02*
X57467950Y-63778261D01*
X57467950Y-63778261D02*
X57563188Y-63873500D01*
X57563188Y-63873500D02*
X57706045Y-63921119D01*
X57706045Y-63921119D02*
X57801283Y-63921119D01*
X57801283Y-63921119D02*
X57944140Y-63873500D01*
X57944140Y-63873500D02*
X57991759Y-63825880D01*
X57991759Y-63825880D02*
X57991759Y-63492547D01*
X57991759Y-63492547D02*
X57801283Y-63492547D01*
X58420331Y-63921119D02*
X58420331Y-62921119D01*
X58420331Y-62921119D02*
X58991759Y-63921119D01*
X58991759Y-63921119D02*
X58991759Y-62921119D01*
X59467950Y-63921119D02*
X59467950Y-62921119D01*
X59467950Y-62921119D02*
X59706045Y-62921119D01*
X59706045Y-62921119D02*
X59848902Y-62968738D01*
X59848902Y-62968738D02*
X59944140Y-63063976D01*
X59944140Y-63063976D02*
X59991759Y-63159214D01*
X59991759Y-63159214D02*
X60039378Y-63349690D01*
X60039378Y-63349690D02*
X60039378Y-63492547D01*
X60039378Y-63492547D02*
X59991759Y-63683023D01*
X59991759Y-63683023D02*
X59944140Y-63778261D01*
X59944140Y-63778261D02*
X59848902Y-63873500D01*
X59848902Y-63873500D02*
X59706045Y-63921119D01*
X59706045Y-63921119D02*
X59467950Y-63921119D01*
D12*
X58375312Y-86172419D02*
X58041979Y-85696228D01*
X57803884Y-86172419D02*
X57803884Y-85172419D01*
X57803884Y-85172419D02*
X58184836Y-85172419D01*
X58184836Y-85172419D02*
X58280074Y-85220038D01*
X58280074Y-85220038D02*
X58327693Y-85267657D01*
X58327693Y-85267657D02*
X58375312Y-85362895D01*
X58375312Y-85362895D02*
X58375312Y-85505752D01*
X58375312Y-85505752D02*
X58327693Y-85600990D01*
X58327693Y-85600990D02*
X58280074Y-85648609D01*
X58280074Y-85648609D02*
X58184836Y-85696228D01*
X58184836Y-85696228D02*
X57803884Y-85696228D01*
X58708646Y-85172419D02*
X59375312Y-86172419D01*
X59375312Y-85172419D02*
X58708646Y-86172419D01*
D13*
G36*
X139409162Y-85161967D02*
G01*
X139591856Y-85161967D01*
X139803859Y-85161967D01*
X141222421Y-85161967D01*
X141222421Y-83832798D01*
X141222421Y-83540195D01*
X141222421Y-83358478D01*
X141410000Y-83358478D01*
X141410000Y-85359316D01*
X139409162Y-85359316D01*
X139409162Y-85161967D01*
G37*
G36*
X139409162Y-81119260D02*
G01*
X139596741Y-81119260D01*
X139596741Y-81300976D01*
X139596741Y-81593579D01*
X139596741Y-82922749D01*
X140315792Y-82922749D01*
X140315792Y-81349825D01*
X140503370Y-81349825D01*
X140503370Y-82922749D01*
X141222421Y-82922749D01*
X141222421Y-81593579D01*
X141222421Y-81300976D01*
X141222421Y-81119260D01*
X141410000Y-81119260D01*
X141410000Y-83120097D01*
X140494089Y-83120097D01*
X140325073Y-83120097D01*
X139409162Y-83120097D01*
X139409162Y-81119260D01*
G37*
G36*
X139409162Y-80880879D02*
G01*
X139409162Y-80683531D01*
X141410000Y-80683531D01*
X141410000Y-80880879D01*
X139409162Y-80880879D01*
G37*
G36*
X139409162Y-78436496D02*
G01*
X139596741Y-78436496D01*
X139596741Y-78618213D01*
X139596741Y-78910816D01*
X139596741Y-80239986D01*
X140315792Y-80239986D01*
X140315792Y-78667062D01*
X140503370Y-78667062D01*
X140503370Y-80239986D01*
X141150614Y-80239986D01*
X141227306Y-80239986D01*
X141410000Y-80239986D01*
X141410000Y-80437334D01*
X140494089Y-80437334D01*
X140325073Y-80437334D01*
X139409162Y-80437334D01*
X139409162Y-78436496D01*
G37*
G36*
X139409162Y-75777180D02*
G01*
X139596741Y-75777180D01*
X139596741Y-76677459D01*
X141410000Y-76677459D01*
X141410000Y-76877739D01*
X139596741Y-76877739D01*
X139596741Y-77778018D01*
X139409162Y-77778018D01*
X139409162Y-75777180D01*
G37*
G36*
X139409162Y-75538799D02*
G01*
X139409162Y-75341451D01*
X141410000Y-75341451D01*
X141410000Y-75538799D01*
X139409162Y-75538799D01*
G37*
G36*
X139409162Y-73094417D02*
G01*
X141410000Y-73094417D01*
X141410000Y-74010327D01*
X141410000Y-74194975D01*
X139596741Y-74194975D01*
X139596741Y-74897906D01*
X141410000Y-74897906D01*
X141410000Y-75095254D01*
X139409162Y-75095254D01*
X139409162Y-73994696D01*
X141222421Y-73994696D01*
X141222421Y-73291765D01*
X139409162Y-73291765D01*
X139409162Y-73094417D01*
G37*
G36*
X139409162Y-70855198D02*
G01*
X141410000Y-70855198D01*
X141410000Y-71771109D01*
X141410000Y-71940125D01*
X141410000Y-72856036D01*
X139409162Y-72856036D01*
X139409162Y-72658688D01*
X139591856Y-72658688D01*
X139885924Y-72658688D01*
X141222421Y-72658688D01*
X141222421Y-71955757D01*
X139409162Y-71955757D01*
X139409162Y-71755478D01*
X141222421Y-71755478D01*
X141222421Y-71052547D01*
X139885924Y-71052547D01*
X139591856Y-71052547D01*
X139409162Y-71052547D01*
X139409162Y-70855198D01*
G37*
G36*
X139409162Y-68615980D02*
G01*
X139596741Y-68615980D01*
X139596741Y-68797697D01*
X139596741Y-69090300D01*
X139596741Y-70419469D01*
X140315792Y-70419469D01*
X140315792Y-68846545D01*
X140503370Y-68846545D01*
X140503370Y-70419469D01*
X141222421Y-70419469D01*
X141222421Y-69090300D01*
X141222421Y-68797697D01*
X141222421Y-68615980D01*
X141410000Y-68615980D01*
X141410000Y-70616817D01*
X140494089Y-70616817D01*
X140325073Y-70616817D01*
X139409162Y-70616817D01*
X139409162Y-68615980D01*
G37*
G36*
X139409162Y-68180251D02*
G01*
X139591856Y-68180251D01*
X139803859Y-68180251D01*
X141222421Y-68180251D01*
X141222421Y-66851081D01*
X141222421Y-66558478D01*
X141222421Y-66376762D01*
X141410000Y-66376762D01*
X141410000Y-68377599D01*
X139409162Y-68377599D01*
X139409162Y-68180251D01*
G37*
G36*
X139409162Y-65941032D02*
G01*
X139591856Y-65941032D01*
X139803859Y-65941032D01*
X141222421Y-65941032D01*
X141222421Y-64611863D01*
X141222421Y-64319260D01*
X141222421Y-64137543D01*
X141410000Y-64137543D01*
X141410000Y-66138381D01*
X139409162Y-66138381D01*
X139409162Y-65941032D01*
G37*
D12*
X57756265Y-71774800D02*
X57899122Y-71822419D01*
X57899122Y-71822419D02*
X58137217Y-71822419D01*
X58137217Y-71822419D02*
X58232455Y-71774800D01*
X58232455Y-71774800D02*
X58280074Y-71727180D01*
X58280074Y-71727180D02*
X58327693Y-71631942D01*
X58327693Y-71631942D02*
X58327693Y-71536704D01*
X58327693Y-71536704D02*
X58280074Y-71441466D01*
X58280074Y-71441466D02*
X58232455Y-71393847D01*
X58232455Y-71393847D02*
X58137217Y-71346228D01*
X58137217Y-71346228D02*
X57946741Y-71298609D01*
X57946741Y-71298609D02*
X57851503Y-71250990D01*
X57851503Y-71250990D02*
X57803884Y-71203371D01*
X57803884Y-71203371D02*
X57756265Y-71108133D01*
X57756265Y-71108133D02*
X57756265Y-71012895D01*
X57756265Y-71012895D02*
X57803884Y-70917657D01*
X57803884Y-70917657D02*
X57851503Y-70870038D01*
X57851503Y-70870038D02*
X57946741Y-70822419D01*
X57946741Y-70822419D02*
X58184836Y-70822419D01*
X58184836Y-70822419D02*
X58327693Y-70870038D01*
X58756265Y-71822419D02*
X58756265Y-70822419D01*
X58756265Y-70822419D02*
X58994360Y-70822419D01*
X58994360Y-70822419D02*
X59137217Y-70870038D01*
X59137217Y-70870038D02*
X59232455Y-70965276D01*
X59232455Y-70965276D02*
X59280074Y-71060514D01*
X59280074Y-71060514D02*
X59327693Y-71250990D01*
X59327693Y-71250990D02*
X59327693Y-71393847D01*
X59327693Y-71393847D02*
X59280074Y-71584323D01*
X59280074Y-71584323D02*
X59232455Y-71679561D01*
X59232455Y-71679561D02*
X59137217Y-71774800D01*
X59137217Y-71774800D02*
X58994360Y-71822419D01*
X58994360Y-71822419D02*
X58756265Y-71822419D01*
X59708646Y-71536704D02*
X60184836Y-71536704D01*
X59613408Y-71822419D02*
X59946741Y-70822419D01*
X59946741Y-70822419D02*
X60280074Y-71822419D01*
G36*
X141110000Y-125082030D02*
G01*
X140531632Y-125350209D01*
X140511432Y-125359709D01*
X140492353Y-125369281D01*
X140474395Y-125378924D01*
X140454325Y-125390590D01*
X140435870Y-125402360D01*
X140421723Y-125412247D01*
X140406055Y-125424159D01*
X140389382Y-125438535D01*
X140374439Y-125453424D01*
X140361226Y-125468828D01*
X140352847Y-125480146D01*
X140340848Y-125498678D01*
X140330743Y-125518126D01*
X140322530Y-125538490D01*
X140316210Y-125559769D01*
X140311832Y-125579090D01*
X140308530Y-125599440D01*
X140306303Y-125620818D01*
X140305151Y-125643224D01*
X140304975Y-125656489D01*
X140304975Y-125771772D01*
X141110000Y-125771772D01*
X141110000Y-126016503D01*
X139328004Y-126016503D01*
X139328004Y-125771772D01*
X139531214Y-125771772D01*
X140109581Y-125771772D01*
X140109581Y-125573935D01*
X140109283Y-125552587D01*
X140108390Y-125531773D01*
X140106902Y-125511493D01*
X140104818Y-125491748D01*
X140101376Y-125467817D01*
X140097004Y-125444721D01*
X140091702Y-125422460D01*
X140090530Y-125418108D01*
X140083971Y-125396933D01*
X140076505Y-125376759D01*
X140068133Y-125357587D01*
X140058855Y-125339416D01*
X140048670Y-125322248D01*
X140037579Y-125306081D01*
X140032889Y-125299895D01*
X140017833Y-125282367D01*
X140001610Y-125266418D01*
X139984219Y-125252050D01*
X139965661Y-125239262D01*
X139945934Y-125228053D01*
X139939099Y-125224668D01*
X139917633Y-125215538D01*
X139898852Y-125209372D01*
X139879260Y-125204518D01*
X139858857Y-125200976D01*
X139837643Y-125198746D01*
X139815618Y-125197828D01*
X139811116Y-125197801D01*
X139785365Y-125198591D01*
X139760867Y-125200961D01*
X139737623Y-125204911D01*
X139715632Y-125210441D01*
X139694896Y-125217551D01*
X139675412Y-125226240D01*
X139657183Y-125236510D01*
X139640207Y-125248360D01*
X139624485Y-125261789D01*
X139610016Y-125276799D01*
X139601067Y-125287683D01*
X139588584Y-125305184D01*
X139577328Y-125323981D01*
X139567300Y-125344076D01*
X139558500Y-125365466D01*
X139550928Y-125388154D01*
X139544584Y-125412138D01*
X139539468Y-125437418D01*
X139535580Y-125463995D01*
X139532919Y-125491869D01*
X139531487Y-125521040D01*
X139531214Y-125541207D01*
X139531214Y-125771772D01*
X139328004Y-125771772D01*
X139328004Y-125535345D01*
X139328300Y-125506422D01*
X139329189Y-125478272D01*
X139330670Y-125450895D01*
X139332744Y-125424291D01*
X139335410Y-125398459D01*
X139338668Y-125373400D01*
X139342519Y-125349115D01*
X139346963Y-125325601D01*
X139351999Y-125302861D01*
X139357628Y-125280893D01*
X139361709Y-125266678D01*
X139368265Y-125245877D01*
X139375293Y-125225788D01*
X139382794Y-125206412D01*
X139390766Y-125187749D01*
X139399211Y-125169799D01*
X139411206Y-125146974D01*
X139424040Y-125125415D01*
X139437714Y-125105124D01*
X139452227Y-125086100D01*
X139455987Y-125081542D01*
X139471519Y-125064071D01*
X139487830Y-125047806D01*
X139504919Y-125032747D01*
X139522787Y-125018893D01*
X139541434Y-125006246D01*
X139560859Y-124994805D01*
X139581062Y-124984570D01*
X139602044Y-124975540D01*
X139623698Y-124967641D01*
X139645916Y-124960794D01*
X139668700Y-124955001D01*
X139692048Y-124950261D01*
X139715961Y-124946575D01*
X139740438Y-124943941D01*
X139765481Y-124942361D01*
X139791088Y-124941835D01*
X139811475Y-124942224D01*
X139831602Y-124943392D01*
X139851470Y-124945338D01*
X139871078Y-124948063D01*
X139890426Y-124951566D01*
X139909515Y-124955848D01*
X139933012Y-124962295D01*
X139946915Y-124966748D01*
X139969491Y-124975117D01*
X139991423Y-124984656D01*
X140012710Y-124995363D01*
X140033354Y-125007238D01*
X140053354Y-125020283D01*
X140072710Y-125034496D01*
X140080272Y-125040509D01*
X140098514Y-125056206D01*
X140115992Y-125073071D01*
X140129426Y-125087405D01*
X140142370Y-125102487D01*
X140154827Y-125118317D01*
X140166795Y-125134895D01*
X140178274Y-125152221D01*
X140183831Y-125161165D01*
X140194356Y-125179567D01*
X140204194Y-125198626D01*
X140213346Y-125218341D01*
X140221810Y-125238712D01*
X140229588Y-125259740D01*
X140236679Y-125281424D01*
X140243082Y-125303765D01*
X140248799Y-125326762D01*
X140256012Y-125308191D01*
X140264461Y-125290339D01*
X140274147Y-125273204D01*
X140285069Y-125256786D01*
X140297228Y-125241086D01*
X140310623Y-125226103D01*
X140325255Y-125211838D01*
X140341123Y-125198290D01*
X140358174Y-125185063D01*
X140376599Y-125171759D01*
X140396398Y-125158379D01*
X140417571Y-125144923D01*
X140434352Y-125134780D01*
X140451906Y-125124595D01*
X140470233Y-125114367D01*
X140489333Y-125104096D01*
X140509205Y-125093782D01*
X140516001Y-125090334D01*
X141110000Y-124806036D01*
X141110000Y-125082030D01*
G37*
G36*
X141110000Y-123415317D02*
G01*
X141110000Y-124436252D01*
X139328004Y-124436252D01*
X139328004Y-123415317D01*
X139531214Y-123415317D01*
X139531214Y-124191521D01*
X140093949Y-124191521D01*
X140093949Y-123445603D01*
X140297159Y-123445603D01*
X140297159Y-124191521D01*
X140898974Y-124191521D01*
X140898974Y-123415317D01*
X141110000Y-123415317D01*
G37*
G36*
X139328004Y-121632833D02*
G01*
X141110000Y-122242951D01*
X141110000Y-122572679D01*
X139328004Y-123169120D01*
X139328004Y-122892637D01*
X140529190Y-122505268D01*
X140880900Y-122395359D01*
X140529190Y-122283007D01*
X139328004Y-121894173D01*
X139328004Y-121632833D01*
G37*
G36*
X141110000Y-118714131D02*
G01*
X141110000Y-119897243D01*
X140897020Y-119897243D01*
X140436866Y-119432693D01*
X140422941Y-119418573D01*
X140402496Y-119398022D01*
X140382583Y-119378227D01*
X140363203Y-119359188D01*
X140344355Y-119340904D01*
X140326040Y-119323375D01*
X140308257Y-119306603D01*
X140291006Y-119290586D01*
X140274288Y-119275324D01*
X140258102Y-119260819D01*
X140242449Y-119247069D01*
X140227186Y-119233975D01*
X140212172Y-119221440D01*
X140192541Y-119205595D01*
X140173353Y-119190742D01*
X140154607Y-119176881D01*
X140136304Y-119164013D01*
X140118444Y-119152136D01*
X140101027Y-119141252D01*
X140092484Y-119136182D01*
X140071456Y-119124309D01*
X140050810Y-119113723D01*
X140030545Y-119104426D01*
X140010662Y-119096417D01*
X139991161Y-119089695D01*
X139972042Y-119084262D01*
X139964501Y-119082449D01*
X139941626Y-119077801D01*
X139922039Y-119074662D01*
X139901974Y-119072191D01*
X139881433Y-119070388D01*
X139860415Y-119069252D01*
X139838920Y-119068785D01*
X139834563Y-119068771D01*
X139814251Y-119069213D01*
X139794225Y-119070536D01*
X139774485Y-119072743D01*
X139755032Y-119075831D01*
X139735864Y-119079803D01*
X139713241Y-119085733D01*
X139709511Y-119086845D01*
X139687678Y-119094127D01*
X139666875Y-119102782D01*
X139647103Y-119112811D01*
X139628361Y-119124214D01*
X139610650Y-119136991D01*
X139604975Y-119141556D01*
X139588626Y-119156250D01*
X139573651Y-119172491D01*
X139560050Y-119190276D01*
X139547822Y-119209608D01*
X139538682Y-119226898D01*
X139533656Y-119237787D01*
X139526198Y-119256690D01*
X139520003Y-119276761D01*
X139515073Y-119298001D01*
X139511407Y-119320410D01*
X139509005Y-119343988D01*
X139507994Y-119363691D01*
X139507766Y-119378960D01*
X139508226Y-119400207D01*
X139509604Y-119421086D01*
X139511901Y-119441595D01*
X139515117Y-119461735D01*
X139519251Y-119481506D01*
X139524304Y-119500908D01*
X139530276Y-119519940D01*
X139537167Y-119538603D01*
X139544977Y-119556897D01*
X139553705Y-119574821D01*
X139560034Y-119586566D01*
X139570105Y-119603927D01*
X139580717Y-119621022D01*
X139591869Y-119637850D01*
X139603563Y-119654412D01*
X139615798Y-119670708D01*
X139628573Y-119686738D01*
X139641890Y-119702502D01*
X139655747Y-119717999D01*
X139670145Y-119733231D01*
X139685085Y-119748196D01*
X139695345Y-119758025D01*
X139535610Y-119889916D01*
X139515659Y-119870594D01*
X139496472Y-119850732D01*
X139478049Y-119830329D01*
X139460391Y-119809384D01*
X139443497Y-119787899D01*
X139427367Y-119765873D01*
X139412001Y-119743306D01*
X139397399Y-119720198D01*
X139383562Y-119696548D01*
X139370489Y-119672358D01*
X139362198Y-119655931D01*
X139350500Y-119630728D01*
X139339953Y-119604760D01*
X139330556Y-119578029D01*
X139322310Y-119550533D01*
X139315214Y-119522273D01*
X139311123Y-119503008D01*
X139307544Y-119483404D01*
X139304475Y-119463460D01*
X139301918Y-119443176D01*
X139299873Y-119422553D01*
X139298339Y-119401590D01*
X139297316Y-119380287D01*
X139296805Y-119358645D01*
X139296741Y-119347697D01*
X139297054Y-119325446D01*
X139297994Y-119303573D01*
X139299561Y-119282077D01*
X139301755Y-119260960D01*
X139304576Y-119240220D01*
X139308023Y-119219858D01*
X139312098Y-119199874D01*
X139316799Y-119180268D01*
X139322127Y-119161040D01*
X139328082Y-119142189D01*
X139332400Y-119129832D01*
X139341803Y-119105705D01*
X139352184Y-119082418D01*
X139363541Y-119059971D01*
X139375875Y-119038363D01*
X139389187Y-119017595D01*
X139403475Y-118997666D01*
X139418740Y-118978577D01*
X139434982Y-118960327D01*
X139452186Y-118942887D01*
X139470336Y-118926469D01*
X139489433Y-118911074D01*
X139509476Y-118896702D01*
X139530466Y-118883353D01*
X139552402Y-118871026D01*
X139575284Y-118859722D01*
X139599113Y-118849441D01*
X139617559Y-118842457D01*
X139636442Y-118836161D01*
X139655764Y-118830551D01*
X139675523Y-118825628D01*
X139695720Y-118821391D01*
X139716356Y-118817842D01*
X139737429Y-118814980D01*
X139758940Y-118812805D01*
X139780889Y-118811316D01*
X139803275Y-118810515D01*
X139818443Y-118810362D01*
X139843860Y-118810790D01*
X139868818Y-118812072D01*
X139893319Y-118814209D01*
X139917362Y-118817201D01*
X139940946Y-118821048D01*
X139964073Y-118825750D01*
X139986742Y-118831306D01*
X140008953Y-118837718D01*
X140030805Y-118844999D01*
X140052642Y-118853166D01*
X140074463Y-118862218D01*
X140096270Y-118872156D01*
X140118061Y-118882979D01*
X140139836Y-118894687D01*
X140161597Y-118907281D01*
X140183342Y-118920760D01*
X140199701Y-118931455D01*
X140216172Y-118942656D01*
X140232754Y-118954364D01*
X140249448Y-118966579D01*
X140266254Y-118979300D01*
X140283171Y-118992527D01*
X140300199Y-119006262D01*
X140317340Y-119020503D01*
X140334592Y-119035250D01*
X140351956Y-119050505D01*
X140363593Y-119060956D01*
X140381155Y-119077071D01*
X140399033Y-119093728D01*
X140417230Y-119110926D01*
X140435744Y-119128664D01*
X140454576Y-119146944D01*
X140473726Y-119165764D01*
X140493193Y-119185126D01*
X140512978Y-119205028D01*
X140533081Y-119225472D01*
X140553502Y-119246456D01*
X140567292Y-119260746D01*
X140883342Y-119586566D01*
X140883342Y-118714131D01*
X141110000Y-118714131D01*
G37*
G36*
X140680132Y-117798709D02*
G01*
X140680997Y-117778449D01*
X140683592Y-117758704D01*
X140687916Y-117739473D01*
X140693970Y-117720757D01*
X140698206Y-117710293D01*
X140706768Y-117692451D01*
X140718156Y-117673377D01*
X140731253Y-117655708D01*
X140746060Y-117639443D01*
X140748032Y-117637508D01*
X140764579Y-117622732D01*
X140782470Y-117609665D01*
X140801704Y-117598307D01*
X140819636Y-117589772D01*
X140822281Y-117588660D01*
X140840965Y-117581617D01*
X140860255Y-117576304D01*
X140880154Y-117572721D01*
X140900660Y-117570868D01*
X140912651Y-117570586D01*
X140933101Y-117571451D01*
X140952990Y-117574045D01*
X140972317Y-117578369D01*
X140991084Y-117584424D01*
X141001556Y-117588660D01*
X141019230Y-117597008D01*
X141038228Y-117608151D01*
X141055943Y-117621005D01*
X141072376Y-117635568D01*
X141074340Y-117637508D01*
X141088934Y-117653598D01*
X141101939Y-117671092D01*
X141113358Y-117689990D01*
X141122047Y-117707678D01*
X141123189Y-117710293D01*
X141130231Y-117728715D01*
X141135544Y-117747652D01*
X141139127Y-117767103D01*
X141140980Y-117787069D01*
X141141263Y-117798709D01*
X141140398Y-117819348D01*
X141137803Y-117839381D01*
X141133479Y-117858805D01*
X141127425Y-117877622D01*
X141123189Y-117888101D01*
X141113358Y-117908007D01*
X141101939Y-117926692D01*
X141088934Y-117944155D01*
X141074340Y-117960397D01*
X141058067Y-117974991D01*
X141040512Y-117987997D01*
X141021675Y-117999415D01*
X141004141Y-118008104D01*
X141001556Y-118009246D01*
X140983110Y-118016098D01*
X140964103Y-118021267D01*
X140944535Y-118024753D01*
X140924405Y-118026557D01*
X140912651Y-118026831D01*
X140891798Y-118025990D01*
X140871552Y-118023465D01*
X140851914Y-118019258D01*
X140832883Y-118013367D01*
X140822281Y-118009246D01*
X140804203Y-118000731D01*
X140787152Y-117991000D01*
X140768926Y-117978391D01*
X140752043Y-117964194D01*
X140748032Y-117960397D01*
X140733011Y-117944155D01*
X140719699Y-117926692D01*
X140708098Y-117908007D01*
X140698206Y-117888101D01*
X140691164Y-117869632D01*
X140685851Y-117850555D01*
X140682268Y-117830870D01*
X140680414Y-117810577D01*
X140680132Y-117798709D01*
G37*
G36*
X140245116Y-115597752D02*
G01*
X140270461Y-115598233D01*
X140295522Y-115599035D01*
X140320301Y-115600157D01*
X140344798Y-115601599D01*
X140369012Y-115603362D01*
X140392944Y-115605446D01*
X140416594Y-115607850D01*
X140439961Y-115610575D01*
X140463046Y-115613620D01*
X140485848Y-115616986D01*
X140508368Y-115620673D01*
X140530606Y-115624680D01*
X140552561Y-115629008D01*
X140574234Y-115633656D01*
X140595624Y-115638625D01*
X140616625Y-115643922D01*
X140637252Y-115649555D01*
X140657505Y-115655523D01*
X140677384Y-115661828D01*
X140696889Y-115668468D01*
X140716021Y-115675444D01*
X140734778Y-115682756D01*
X140753161Y-115690404D01*
X140771170Y-115698388D01*
X140797482Y-115710993D01*
X140822953Y-115724354D01*
X140847583Y-115738470D01*
X140871370Y-115753343D01*
X140886762Y-115763677D01*
X140909000Y-115779700D01*
X140930284Y-115796444D01*
X140950616Y-115813909D01*
X140969995Y-115832096D01*
X140988420Y-115851003D01*
X141005893Y-115870633D01*
X141022412Y-115890983D01*
X141037978Y-115912055D01*
X141052591Y-115933848D01*
X141066251Y-115956362D01*
X141074829Y-115971772D01*
X141086701Y-115995506D01*
X141097406Y-116019995D01*
X141106943Y-116045239D01*
X141115312Y-116071240D01*
X141122513Y-116097996D01*
X141128547Y-116125508D01*
X141133412Y-116153775D01*
X141137110Y-116182798D01*
X141138927Y-116202566D01*
X141140225Y-116222670D01*
X141141003Y-116243111D01*
X141141263Y-116263886D01*
X141140786Y-116290678D01*
X141139356Y-116317015D01*
X141136974Y-116342897D01*
X141133638Y-116368323D01*
X141129349Y-116393295D01*
X141124106Y-116417811D01*
X141117911Y-116441872D01*
X141110763Y-116465478D01*
X141102661Y-116488629D01*
X141093607Y-116511325D01*
X141087041Y-116526203D01*
X141076363Y-116548068D01*
X141064664Y-116569331D01*
X141051943Y-116589994D01*
X141038200Y-116610055D01*
X141023435Y-116629515D01*
X141007648Y-116648374D01*
X140990840Y-116666632D01*
X140973010Y-116684289D01*
X140954158Y-116701345D01*
X140934284Y-116717800D01*
X140920467Y-116728436D01*
X140898769Y-116743764D01*
X140875988Y-116758421D01*
X140852126Y-116772409D01*
X140827182Y-116785727D01*
X140801155Y-116798375D01*
X140783204Y-116806435D01*
X140764771Y-116814197D01*
X140745857Y-116821662D01*
X140726463Y-116828829D01*
X140706588Y-116835698D01*
X140686231Y-116842270D01*
X140665395Y-116848544D01*
X140644077Y-116854520D01*
X140633237Y-116857397D01*
X140611185Y-116862839D01*
X140588625Y-116867930D01*
X140565557Y-116872669D01*
X140541982Y-116877058D01*
X140517900Y-116881096D01*
X140493309Y-116884782D01*
X140468211Y-116888118D01*
X140442606Y-116891102D01*
X140416493Y-116893735D01*
X140389872Y-116896017D01*
X140362744Y-116897949D01*
X140335109Y-116899528D01*
X140306965Y-116900757D01*
X140278314Y-116901635D01*
X140249156Y-116902162D01*
X140219490Y-116902337D01*
X140193921Y-116902175D01*
X140168627Y-116901688D01*
X140143607Y-116900878D01*
X140118862Y-116899742D01*
X140094392Y-116898282D01*
X140070197Y-116896498D01*
X140046276Y-116894390D01*
X140022630Y-116891957D01*
X139999259Y-116889200D01*
X139976163Y-116886118D01*
X139953342Y-116882712D01*
X139930795Y-116878982D01*
X139908523Y-116874927D01*
X139886526Y-116870548D01*
X139864804Y-116865844D01*
X139843356Y-116860816D01*
X139822239Y-116855404D01*
X139801507Y-116849672D01*
X139781160Y-116843620D01*
X139761199Y-116837247D01*
X139741623Y-116830553D01*
X139722433Y-116823538D01*
X139703628Y-116816203D01*
X139685209Y-116808548D01*
X139667175Y-116800572D01*
X139640847Y-116788007D01*
X139615386Y-116774720D01*
X139590792Y-116760713D01*
X139567066Y-116745984D01*
X139551730Y-116735764D01*
X139529409Y-116719824D01*
X139508058Y-116703146D01*
X139487678Y-116685729D01*
X139468268Y-116667574D01*
X139449828Y-116648681D01*
X139432358Y-116629049D01*
X139415859Y-116608678D01*
X139400330Y-116587569D01*
X139385771Y-116565722D01*
X139372183Y-116543136D01*
X139363663Y-116527669D01*
X139351703Y-116503856D01*
X139340920Y-116479314D01*
X139331313Y-116454042D01*
X139322882Y-116428041D01*
X139315628Y-116401309D01*
X139309550Y-116373847D01*
X139304648Y-116345656D01*
X139300923Y-116316734D01*
X139299093Y-116297048D01*
X139297786Y-116277037D01*
X139297002Y-116256702D01*
X139296920Y-116250209D01*
X139499951Y-116250209D01*
X139500668Y-116273267D01*
X139502821Y-116295791D01*
X139506408Y-116317780D01*
X139511430Y-116339235D01*
X139517887Y-116360156D01*
X139525779Y-116380543D01*
X139535106Y-116400395D01*
X139545868Y-116419713D01*
X139557935Y-116438413D01*
X139571422Y-116456411D01*
X139586329Y-116473706D01*
X139602655Y-116490300D01*
X139620401Y-116506191D01*
X139639566Y-116521379D01*
X139660151Y-116535866D01*
X139682156Y-116549651D01*
X139699570Y-116559419D01*
X139717739Y-116568759D01*
X139736664Y-116577669D01*
X139756345Y-116586150D01*
X139776781Y-116594201D01*
X139797973Y-116601823D01*
X139819920Y-116609016D01*
X139842623Y-116615779D01*
X139866082Y-116622113D01*
X139890297Y-116628018D01*
X139906859Y-116631716D01*
X139932329Y-116636867D01*
X139958545Y-116641511D01*
X139985509Y-116645648D01*
X140013219Y-116649279D01*
X140041677Y-116652403D01*
X140070882Y-116655020D01*
X140090766Y-116656484D01*
X140110983Y-116657722D01*
X140131532Y-116658736D01*
X140152413Y-116659524D01*
X140173626Y-116660087D01*
X140195171Y-116660424D01*
X140217048Y-116660537D01*
X140237106Y-116660506D01*
X140257226Y-116660415D01*
X140277406Y-116660262D01*
X140297648Y-116660048D01*
X140317523Y-116659560D01*
X140337093Y-116658583D01*
X140358744Y-116656900D01*
X140375317Y-116655163D01*
X139828213Y-115895568D01*
X139805790Y-115902254D01*
X139784011Y-115909488D01*
X139762876Y-115917271D01*
X139742385Y-115925602D01*
X139722537Y-115934483D01*
X139703334Y-115943911D01*
X139695833Y-115947836D01*
X139677463Y-115957916D01*
X139659903Y-115968616D01*
X139643154Y-115979936D01*
X139627216Y-115991876D01*
X139612090Y-116004437D01*
X139595008Y-116020328D01*
X139592274Y-116023063D01*
X139576492Y-116039996D01*
X139562118Y-116057822D01*
X139549152Y-116076541D01*
X139537595Y-116096153D01*
X139527445Y-116116658D01*
X139524375Y-116123691D01*
X139516074Y-116145255D01*
X139510469Y-116163986D01*
X139506057Y-116183408D01*
X139502837Y-116203523D01*
X139500809Y-116224329D01*
X139499975Y-116245826D01*
X139499951Y-116250209D01*
X139296920Y-116250209D01*
X139296741Y-116236043D01*
X139297217Y-116209251D01*
X139298647Y-116182914D01*
X139301030Y-116157033D01*
X139304366Y-116131606D01*
X139308655Y-116106635D01*
X139313897Y-116082118D01*
X139320092Y-116058057D01*
X139327240Y-116034451D01*
X139335342Y-116011300D01*
X139344397Y-115988604D01*
X139350963Y-115973726D01*
X139361649Y-115951866D01*
X139373374Y-115930615D01*
X139386138Y-115909974D01*
X139399941Y-115889943D01*
X139414783Y-115870521D01*
X139430664Y-115851709D01*
X139432123Y-115850139D01*
X140054870Y-115850139D01*
X140609790Y-116609734D01*
X140631956Y-116603061D01*
X140653573Y-116595862D01*
X140674641Y-116588139D01*
X140695161Y-116579891D01*
X140715132Y-116571118D01*
X140734554Y-116561821D01*
X140742170Y-116557955D01*
X140760681Y-116547722D01*
X140778358Y-116536870D01*
X140795200Y-116525397D01*
X140811207Y-116513304D01*
X140826379Y-116500591D01*
X140840716Y-116487258D01*
X140846217Y-116481751D01*
X140861851Y-116464486D01*
X140876145Y-116446397D01*
X140889099Y-116427483D01*
X140900714Y-116407745D01*
X140910989Y-116387183D01*
X140914117Y-116380146D01*
X140922251Y-116358164D01*
X140927744Y-116339006D01*
X140932069Y-116319085D01*
X140935224Y-116298401D01*
X140937211Y-116276953D01*
X140938029Y-116254743D01*
X140938053Y-116250209D01*
X140937350Y-116227036D01*
X140935244Y-116204413D01*
X140931733Y-116182340D01*
X140926817Y-116160816D01*
X140920498Y-116139842D01*
X140912773Y-116119417D01*
X140903645Y-116099542D01*
X140893112Y-116080216D01*
X140881083Y-116061524D01*
X140867711Y-116043549D01*
X140852995Y-116026292D01*
X140836936Y-116009752D01*
X140819534Y-115993929D01*
X140800788Y-115978825D01*
X140780699Y-115964437D01*
X140759267Y-115950767D01*
X140742219Y-115940911D01*
X140724416Y-115931493D01*
X140705858Y-115922513D01*
X140686543Y-115913970D01*
X140666474Y-115905866D01*
X140645648Y-115898200D01*
X140624067Y-115890971D01*
X140601730Y-115884180D01*
X140578638Y-115877828D01*
X140554790Y-115871913D01*
X140538471Y-115868213D01*
X140513377Y-115863062D01*
X140487552Y-115858419D01*
X140460998Y-115854281D01*
X140433714Y-115850650D01*
X140405700Y-115847526D01*
X140376956Y-115844909D01*
X140357388Y-115843445D01*
X140337496Y-115842207D01*
X140317279Y-115841194D01*
X140296738Y-115840406D01*
X140275872Y-115839843D01*
X140254682Y-115839505D01*
X140233168Y-115839392D01*
X140213316Y-115839556D01*
X140193511Y-115840047D01*
X140173752Y-115840865D01*
X140154041Y-115842010D01*
X140142798Y-115842812D01*
X140123230Y-115844331D01*
X140101095Y-115846125D01*
X140079205Y-115847980D01*
X140057559Y-115849895D01*
X140054870Y-115850139D01*
X139432123Y-115850139D01*
X139447584Y-115833507D01*
X139465543Y-115815915D01*
X139484541Y-115798932D01*
X139504578Y-115782558D01*
X139518513Y-115771981D01*
X139540299Y-115756571D01*
X139563158Y-115741848D01*
X139587090Y-115727812D01*
X139612096Y-115714462D01*
X139638175Y-115701800D01*
X139656158Y-115693740D01*
X139674617Y-115685985D01*
X139693554Y-115678536D01*
X139712967Y-115671391D01*
X139732858Y-115664553D01*
X139753225Y-115658019D01*
X139774070Y-115651791D01*
X139795391Y-115645868D01*
X139806231Y-115643021D01*
X139828282Y-115637520D01*
X139850836Y-115632374D01*
X139873894Y-115627582D01*
X139897456Y-115623146D01*
X139921521Y-115619064D01*
X139946091Y-115615338D01*
X139971164Y-115611966D01*
X139996741Y-115608949D01*
X140022821Y-115606287D01*
X140049405Y-115603980D01*
X140076494Y-115602028D01*
X140104085Y-115600431D01*
X140132181Y-115599189D01*
X140160780Y-115598302D01*
X140189883Y-115597769D01*
X140219490Y-115597592D01*
X140245116Y-115597752D01*
G37*
D11*
X94679819Y-102611904D02*
X95489342Y-102611904D01*
X95489342Y-102611904D02*
X95584580Y-102564285D01*
X95584580Y-102564285D02*
X95632200Y-102516666D01*
X95632200Y-102516666D02*
X95679819Y-102421428D01*
X95679819Y-102421428D02*
X95679819Y-102230952D01*
X95679819Y-102230952D02*
X95632200Y-102135714D01*
X95632200Y-102135714D02*
X95584580Y-102088095D01*
X95584580Y-102088095D02*
X95489342Y-102040476D01*
X95489342Y-102040476D02*
X94679819Y-102040476D01*
X95013152Y-101135714D02*
X95679819Y-101135714D01*
X94632200Y-101373809D02*
X95346485Y-101611904D01*
X95346485Y-101611904D02*
X95346485Y-100992857D01*
X83586905Y-107017319D02*
X83586905Y-106017319D01*
X83586905Y-106017319D02*
X83825000Y-106017319D01*
X83825000Y-106017319D02*
X83967857Y-106064938D01*
X83967857Y-106064938D02*
X84063095Y-106160176D01*
X84063095Y-106160176D02*
X84110714Y-106255414D01*
X84110714Y-106255414D02*
X84158333Y-106445890D01*
X84158333Y-106445890D02*
X84158333Y-106588747D01*
X84158333Y-106588747D02*
X84110714Y-106779223D01*
X84110714Y-106779223D02*
X84063095Y-106874461D01*
X84063095Y-106874461D02*
X83967857Y-106969700D01*
X83967857Y-106969700D02*
X83825000Y-107017319D01*
X83825000Y-107017319D02*
X83586905Y-107017319D01*
X84539286Y-106112557D02*
X84586905Y-106064938D01*
X84586905Y-106064938D02*
X84682143Y-106017319D01*
X84682143Y-106017319D02*
X84920238Y-106017319D01*
X84920238Y-106017319D02*
X85015476Y-106064938D01*
X85015476Y-106064938D02*
X85063095Y-106112557D01*
X85063095Y-106112557D02*
X85110714Y-106207795D01*
X85110714Y-106207795D02*
X85110714Y-106303033D01*
X85110714Y-106303033D02*
X85063095Y-106445890D01*
X85063095Y-106445890D02*
X84491667Y-107017319D01*
X84491667Y-107017319D02*
X85110714Y-107017319D01*
X80538095Y-100454819D02*
X80538095Y-101264342D01*
X80538095Y-101264342D02*
X80585714Y-101359580D01*
X80585714Y-101359580D02*
X80633333Y-101407200D01*
X80633333Y-101407200D02*
X80728571Y-101454819D01*
X80728571Y-101454819D02*
X80919047Y-101454819D01*
X80919047Y-101454819D02*
X81014285Y-101407200D01*
X81014285Y-101407200D02*
X81061904Y-101359580D01*
X81061904Y-101359580D02*
X81109523Y-101264342D01*
X81109523Y-101264342D02*
X81109523Y-100454819D01*
X81490476Y-100454819D02*
X82109523Y-100454819D01*
X82109523Y-100454819D02*
X81776190Y-100835771D01*
X81776190Y-100835771D02*
X81919047Y-100835771D01*
X81919047Y-100835771D02*
X82014285Y-100883390D01*
X82014285Y-100883390D02*
X82061904Y-100931009D01*
X82061904Y-100931009D02*
X82109523Y-101026247D01*
X82109523Y-101026247D02*
X82109523Y-101264342D01*
X82109523Y-101264342D02*
X82061904Y-101359580D01*
X82061904Y-101359580D02*
X82014285Y-101407200D01*
X82014285Y-101407200D02*
X81919047Y-101454819D01*
X81919047Y-101454819D02*
X81633333Y-101454819D01*
X81633333Y-101454819D02*
X81538095Y-101407200D01*
X81538095Y-101407200D02*
X81490476Y-101359580D01*
X119883333Y-95209580D02*
X119835714Y-95257200D01*
X119835714Y-95257200D02*
X119692857Y-95304819D01*
X119692857Y-95304819D02*
X119597619Y-95304819D01*
X119597619Y-95304819D02*
X119454762Y-95257200D01*
X119454762Y-95257200D02*
X119359524Y-95161961D01*
X119359524Y-95161961D02*
X119311905Y-95066723D01*
X119311905Y-95066723D02*
X119264286Y-94876247D01*
X119264286Y-94876247D02*
X119264286Y-94733390D01*
X119264286Y-94733390D02*
X119311905Y-94542914D01*
X119311905Y-94542914D02*
X119359524Y-94447676D01*
X119359524Y-94447676D02*
X119454762Y-94352438D01*
X119454762Y-94352438D02*
X119597619Y-94304819D01*
X119597619Y-94304819D02*
X119692857Y-94304819D01*
X119692857Y-94304819D02*
X119835714Y-94352438D01*
X119835714Y-94352438D02*
X119883333Y-94400057D01*
X120264286Y-94400057D02*
X120311905Y-94352438D01*
X120311905Y-94352438D02*
X120407143Y-94304819D01*
X120407143Y-94304819D02*
X120645238Y-94304819D01*
X120645238Y-94304819D02*
X120740476Y-94352438D01*
X120740476Y-94352438D02*
X120788095Y-94400057D01*
X120788095Y-94400057D02*
X120835714Y-94495295D01*
X120835714Y-94495295D02*
X120835714Y-94590533D01*
X120835714Y-94590533D02*
X120788095Y-94733390D01*
X120788095Y-94733390D02*
X120216667Y-95304819D01*
X120216667Y-95304819D02*
X120835714Y-95304819D01*
X76138095Y-113542319D02*
X76138095Y-114351842D01*
X76138095Y-114351842D02*
X76185714Y-114447080D01*
X76185714Y-114447080D02*
X76233333Y-114494700D01*
X76233333Y-114494700D02*
X76328571Y-114542319D01*
X76328571Y-114542319D02*
X76519047Y-114542319D01*
X76519047Y-114542319D02*
X76614285Y-114494700D01*
X76614285Y-114494700D02*
X76661904Y-114447080D01*
X76661904Y-114447080D02*
X76709523Y-114351842D01*
X76709523Y-114351842D02*
X76709523Y-113542319D01*
X77138095Y-113637557D02*
X77185714Y-113589938D01*
X77185714Y-113589938D02*
X77280952Y-113542319D01*
X77280952Y-113542319D02*
X77519047Y-113542319D01*
X77519047Y-113542319D02*
X77614285Y-113589938D01*
X77614285Y-113589938D02*
X77661904Y-113637557D01*
X77661904Y-113637557D02*
X77709523Y-113732795D01*
X77709523Y-113732795D02*
X77709523Y-113828033D01*
X77709523Y-113828033D02*
X77661904Y-113970890D01*
X77661904Y-113970890D02*
X77090476Y-114542319D01*
X77090476Y-114542319D02*
X77709523Y-114542319D01*
X75316666Y-120304819D02*
X75316666Y-121019104D01*
X75316666Y-121019104D02*
X75269047Y-121161961D01*
X75269047Y-121161961D02*
X75173809Y-121257200D01*
X75173809Y-121257200D02*
X75030952Y-121304819D01*
X75030952Y-121304819D02*
X74935714Y-121304819D01*
X76221428Y-120304819D02*
X76030952Y-120304819D01*
X76030952Y-120304819D02*
X75935714Y-120352438D01*
X75935714Y-120352438D02*
X75888095Y-120400057D01*
X75888095Y-120400057D02*
X75792857Y-120542914D01*
X75792857Y-120542914D02*
X75745238Y-120733390D01*
X75745238Y-120733390D02*
X75745238Y-121114342D01*
X75745238Y-121114342D02*
X75792857Y-121209580D01*
X75792857Y-121209580D02*
X75840476Y-121257200D01*
X75840476Y-121257200D02*
X75935714Y-121304819D01*
X75935714Y-121304819D02*
X76126190Y-121304819D01*
X76126190Y-121304819D02*
X76221428Y-121257200D01*
X76221428Y-121257200D02*
X76269047Y-121209580D01*
X76269047Y-121209580D02*
X76316666Y-121114342D01*
X76316666Y-121114342D02*
X76316666Y-120876247D01*
X76316666Y-120876247D02*
X76269047Y-120781009D01*
X76269047Y-120781009D02*
X76221428Y-120733390D01*
X76221428Y-120733390D02*
X76126190Y-120685771D01*
X76126190Y-120685771D02*
X75935714Y-120685771D01*
X75935714Y-120685771D02*
X75840476Y-120733390D01*
X75840476Y-120733390D02*
X75792857Y-120781009D01*
X75792857Y-120781009D02*
X75745238Y-120876247D01*
X120159580Y-73616666D02*
X120207200Y-73664285D01*
X120207200Y-73664285D02*
X120254819Y-73807142D01*
X120254819Y-73807142D02*
X120254819Y-73902380D01*
X120254819Y-73902380D02*
X120207200Y-74045237D01*
X120207200Y-74045237D02*
X120111961Y-74140475D01*
X120111961Y-74140475D02*
X120016723Y-74188094D01*
X120016723Y-74188094D02*
X119826247Y-74235713D01*
X119826247Y-74235713D02*
X119683390Y-74235713D01*
X119683390Y-74235713D02*
X119492914Y-74188094D01*
X119492914Y-74188094D02*
X119397676Y-74140475D01*
X119397676Y-74140475D02*
X119302438Y-74045237D01*
X119302438Y-74045237D02*
X119254819Y-73902380D01*
X119254819Y-73902380D02*
X119254819Y-73807142D01*
X119254819Y-73807142D02*
X119302438Y-73664285D01*
X119302438Y-73664285D02*
X119350057Y-73616666D01*
X119683390Y-73045237D02*
X119635771Y-73140475D01*
X119635771Y-73140475D02*
X119588152Y-73188094D01*
X119588152Y-73188094D02*
X119492914Y-73235713D01*
X119492914Y-73235713D02*
X119445295Y-73235713D01*
X119445295Y-73235713D02*
X119350057Y-73188094D01*
X119350057Y-73188094D02*
X119302438Y-73140475D01*
X119302438Y-73140475D02*
X119254819Y-73045237D01*
X119254819Y-73045237D02*
X119254819Y-72854761D01*
X119254819Y-72854761D02*
X119302438Y-72759523D01*
X119302438Y-72759523D02*
X119350057Y-72711904D01*
X119350057Y-72711904D02*
X119445295Y-72664285D01*
X119445295Y-72664285D02*
X119492914Y-72664285D01*
X119492914Y-72664285D02*
X119588152Y-72711904D01*
X119588152Y-72711904D02*
X119635771Y-72759523D01*
X119635771Y-72759523D02*
X119683390Y-72854761D01*
X119683390Y-72854761D02*
X119683390Y-73045237D01*
X119683390Y-73045237D02*
X119731009Y-73140475D01*
X119731009Y-73140475D02*
X119778628Y-73188094D01*
X119778628Y-73188094D02*
X119873866Y-73235713D01*
X119873866Y-73235713D02*
X120064342Y-73235713D01*
X120064342Y-73235713D02*
X120159580Y-73188094D01*
X120159580Y-73188094D02*
X120207200Y-73140475D01*
X120207200Y-73140475D02*
X120254819Y-73045237D01*
X120254819Y-73045237D02*
X120254819Y-72854761D01*
X120254819Y-72854761D02*
X120207200Y-72759523D01*
X120207200Y-72759523D02*
X120159580Y-72711904D01*
X120159580Y-72711904D02*
X120064342Y-72664285D01*
X120064342Y-72664285D02*
X119873866Y-72664285D01*
X119873866Y-72664285D02*
X119778628Y-72711904D01*
X119778628Y-72711904D02*
X119731009Y-72759523D01*
X119731009Y-72759523D02*
X119683390Y-72854761D01*
X72354819Y-99716666D02*
X71878628Y-100049999D01*
X72354819Y-100288094D02*
X71354819Y-100288094D01*
X71354819Y-100288094D02*
X71354819Y-99907142D01*
X71354819Y-99907142D02*
X71402438Y-99811904D01*
X71402438Y-99811904D02*
X71450057Y-99764285D01*
X71450057Y-99764285D02*
X71545295Y-99716666D01*
X71545295Y-99716666D02*
X71688152Y-99716666D01*
X71688152Y-99716666D02*
X71783390Y-99764285D01*
X71783390Y-99764285D02*
X71831009Y-99811904D01*
X71831009Y-99811904D02*
X71878628Y-99907142D01*
X71878628Y-99907142D02*
X71878628Y-100288094D01*
X71354819Y-98811904D02*
X71354819Y-99288094D01*
X71354819Y-99288094D02*
X71831009Y-99335713D01*
X71831009Y-99335713D02*
X71783390Y-99288094D01*
X71783390Y-99288094D02*
X71735771Y-99192856D01*
X71735771Y-99192856D02*
X71735771Y-98954761D01*
X71735771Y-98954761D02*
X71783390Y-98859523D01*
X71783390Y-98859523D02*
X71831009Y-98811904D01*
X71831009Y-98811904D02*
X71926247Y-98764285D01*
X71926247Y-98764285D02*
X72164342Y-98764285D01*
X72164342Y-98764285D02*
X72259580Y-98811904D01*
X72259580Y-98811904D02*
X72307200Y-98859523D01*
X72307200Y-98859523D02*
X72354819Y-98954761D01*
X72354819Y-98954761D02*
X72354819Y-99192856D01*
X72354819Y-99192856D02*
X72307200Y-99288094D01*
X72307200Y-99288094D02*
X72259580Y-99335713D01*
X85754819Y-84511904D02*
X86564342Y-84511904D01*
X86564342Y-84511904D02*
X86659580Y-84464285D01*
X86659580Y-84464285D02*
X86707200Y-84416666D01*
X86707200Y-84416666D02*
X86754819Y-84321428D01*
X86754819Y-84321428D02*
X86754819Y-84130952D01*
X86754819Y-84130952D02*
X86707200Y-84035714D01*
X86707200Y-84035714D02*
X86659580Y-83988095D01*
X86659580Y-83988095D02*
X86564342Y-83940476D01*
X86564342Y-83940476D02*
X85754819Y-83940476D01*
X85754819Y-82988095D02*
X85754819Y-83464285D01*
X85754819Y-83464285D02*
X86231009Y-83511904D01*
X86231009Y-83511904D02*
X86183390Y-83464285D01*
X86183390Y-83464285D02*
X86135771Y-83369047D01*
X86135771Y-83369047D02*
X86135771Y-83130952D01*
X86135771Y-83130952D02*
X86183390Y-83035714D01*
X86183390Y-83035714D02*
X86231009Y-82988095D01*
X86231009Y-82988095D02*
X86326247Y-82940476D01*
X86326247Y-82940476D02*
X86564342Y-82940476D01*
X86564342Y-82940476D02*
X86659580Y-82988095D01*
X86659580Y-82988095D02*
X86707200Y-83035714D01*
X86707200Y-83035714D02*
X86754819Y-83130952D01*
X86754819Y-83130952D02*
X86754819Y-83369047D01*
X86754819Y-83369047D02*
X86707200Y-83464285D01*
X86707200Y-83464285D02*
X86659580Y-83511904D01*
X69728931Y-76345198D02*
X69701994Y-76264385D01*
X69701994Y-76264385D02*
X69621181Y-76183573D01*
X69621181Y-76183573D02*
X69513432Y-76129698D01*
X69513432Y-76129698D02*
X69405682Y-76129698D01*
X69405682Y-76129698D02*
X69324870Y-76156636D01*
X69324870Y-76156636D02*
X69190183Y-76237448D01*
X69190183Y-76237448D02*
X69109371Y-76318260D01*
X69109371Y-76318260D02*
X69028558Y-76452947D01*
X69028558Y-76452947D02*
X69001621Y-76533760D01*
X69001621Y-76533760D02*
X69001621Y-76641509D01*
X69001621Y-76641509D02*
X69055496Y-76749259D01*
X69055496Y-76749259D02*
X69109371Y-76803134D01*
X69109371Y-76803134D02*
X69217120Y-76857008D01*
X69217120Y-76857008D02*
X69270995Y-76857008D01*
X69270995Y-76857008D02*
X69459557Y-76668447D01*
X69459557Y-76668447D02*
X69351807Y-76560697D01*
X69459557Y-77153320D02*
X70025242Y-76587634D01*
X70025242Y-76587634D02*
X70240742Y-76803134D01*
X70240742Y-76803134D02*
X70267679Y-76883946D01*
X70267679Y-76883946D02*
X70267679Y-76937821D01*
X70267679Y-76937821D02*
X70240742Y-77018633D01*
X70240742Y-77018633D02*
X70159929Y-77099445D01*
X70159929Y-77099445D02*
X70079117Y-77126382D01*
X70079117Y-77126382D02*
X70025242Y-77126382D01*
X70025242Y-77126382D02*
X69944430Y-77099445D01*
X69944430Y-77099445D02*
X69728931Y-76883946D01*
X70321554Y-78015317D02*
X69998305Y-77692068D01*
X70159929Y-77853692D02*
X70725615Y-77288007D01*
X70725615Y-77288007D02*
X70590928Y-77314944D01*
X70590928Y-77314944D02*
X70483178Y-77314944D01*
X70483178Y-77314944D02*
X70402366Y-77288007D01*
X71075801Y-77638193D02*
X71425987Y-77988379D01*
X71425987Y-77988379D02*
X71021926Y-78015317D01*
X71021926Y-78015317D02*
X71102739Y-78096129D01*
X71102739Y-78096129D02*
X71129676Y-78176941D01*
X71129676Y-78176941D02*
X71129676Y-78230816D01*
X71129676Y-78230816D02*
X71102739Y-78311628D01*
X71102739Y-78311628D02*
X70968052Y-78446315D01*
X70968052Y-78446315D02*
X70887239Y-78473253D01*
X70887239Y-78473253D02*
X70833365Y-78473253D01*
X70833365Y-78473253D02*
X70752552Y-78446315D01*
X70752552Y-78446315D02*
X70590928Y-78284691D01*
X70590928Y-78284691D02*
X70563991Y-78203879D01*
X70563991Y-78203879D02*
X70563991Y-78150004D01*
X74808931Y-76199198D02*
X74781994Y-76118385D01*
X74781994Y-76118385D02*
X74701181Y-76037573D01*
X74701181Y-76037573D02*
X74593432Y-75983698D01*
X74593432Y-75983698D02*
X74485682Y-75983698D01*
X74485682Y-75983698D02*
X74404870Y-76010636D01*
X74404870Y-76010636D02*
X74270183Y-76091448D01*
X74270183Y-76091448D02*
X74189371Y-76172260D01*
X74189371Y-76172260D02*
X74108558Y-76306947D01*
X74108558Y-76306947D02*
X74081621Y-76387760D01*
X74081621Y-76387760D02*
X74081621Y-76495509D01*
X74081621Y-76495509D02*
X74135496Y-76603259D01*
X74135496Y-76603259D02*
X74189371Y-76657134D01*
X74189371Y-76657134D02*
X74297120Y-76711008D01*
X74297120Y-76711008D02*
X74350995Y-76711008D01*
X74350995Y-76711008D02*
X74539557Y-76522447D01*
X74539557Y-76522447D02*
X74431807Y-76414697D01*
X74539557Y-77007320D02*
X75105242Y-76441634D01*
X75105242Y-76441634D02*
X75320742Y-76657134D01*
X75320742Y-76657134D02*
X75347679Y-76737946D01*
X75347679Y-76737946D02*
X75347679Y-76791821D01*
X75347679Y-76791821D02*
X75320742Y-76872633D01*
X75320742Y-76872633D02*
X75239929Y-76953445D01*
X75239929Y-76953445D02*
X75159117Y-76980382D01*
X75159117Y-76980382D02*
X75105242Y-76980382D01*
X75105242Y-76980382D02*
X75024430Y-76953445D01*
X75024430Y-76953445D02*
X74808931Y-76737946D01*
X75401554Y-77869317D02*
X75078305Y-77546068D01*
X75239929Y-77707692D02*
X75805615Y-77142007D01*
X75805615Y-77142007D02*
X75670928Y-77168944D01*
X75670928Y-77168944D02*
X75563178Y-77168944D01*
X75563178Y-77168944D02*
X75482366Y-77142007D01*
X75940302Y-78408065D02*
X75617053Y-78084816D01*
X75778678Y-78246440D02*
X76344363Y-77680755D01*
X76344363Y-77680755D02*
X76209676Y-77707692D01*
X76209676Y-77707692D02*
X76101926Y-77707692D01*
X76101926Y-77707692D02*
X76021114Y-77680755D01*
X107409557Y-89167949D02*
X107032433Y-89922196D01*
X107032433Y-89922196D02*
X107786681Y-89545073D01*
X107409557Y-90245445D02*
X107463432Y-90353195D01*
X107463432Y-90353195D02*
X107598119Y-90487882D01*
X107598119Y-90487882D02*
X107678931Y-90514819D01*
X107678931Y-90514819D02*
X107732806Y-90514819D01*
X107732806Y-90514819D02*
X107813618Y-90487882D01*
X107813618Y-90487882D02*
X107867493Y-90434007D01*
X107867493Y-90434007D02*
X107894430Y-90353195D01*
X107894430Y-90353195D02*
X107894430Y-90299320D01*
X107894430Y-90299320D02*
X107867493Y-90218508D01*
X107867493Y-90218508D02*
X107786681Y-90083821D01*
X107786681Y-90083821D02*
X107759743Y-90003008D01*
X107759743Y-90003008D02*
X107759743Y-89949134D01*
X107759743Y-89949134D02*
X107786681Y-89868321D01*
X107786681Y-89868321D02*
X107840555Y-89814447D01*
X107840555Y-89814447D02*
X107921368Y-89787509D01*
X107921368Y-89787509D02*
X107975242Y-89787509D01*
X107975242Y-89787509D02*
X108056055Y-89814447D01*
X108056055Y-89814447D02*
X108190742Y-89949134D01*
X108190742Y-89949134D02*
X108244616Y-90056883D01*
X108325429Y-90676444D02*
X108056055Y-90945818D01*
X108433178Y-90191570D02*
X108325429Y-90676444D01*
X108325429Y-90676444D02*
X108810302Y-90568694D01*
X108433178Y-91269066D02*
X108487053Y-91376816D01*
X108487053Y-91376816D02*
X108621740Y-91511503D01*
X108621740Y-91511503D02*
X108702552Y-91538440D01*
X108702552Y-91538440D02*
X108756427Y-91538440D01*
X108756427Y-91538440D02*
X108837239Y-91511503D01*
X108837239Y-91511503D02*
X108891114Y-91457628D01*
X108891114Y-91457628D02*
X108918051Y-91376816D01*
X108918051Y-91376816D02*
X108918051Y-91322941D01*
X108918051Y-91322941D02*
X108891114Y-91242129D01*
X108891114Y-91242129D02*
X108810302Y-91107442D01*
X108810302Y-91107442D02*
X108783364Y-91026630D01*
X108783364Y-91026630D02*
X108783364Y-90972755D01*
X108783364Y-90972755D02*
X108810302Y-90891943D01*
X108810302Y-90891943D02*
X108864177Y-90838068D01*
X108864177Y-90838068D02*
X108944989Y-90811130D01*
X108944989Y-90811130D02*
X108998864Y-90811130D01*
X108998864Y-90811130D02*
X109079676Y-90838068D01*
X109079676Y-90838068D02*
X109214363Y-90972755D01*
X109214363Y-90972755D02*
X109268238Y-91080504D01*
X100478305Y-76814697D02*
X100801554Y-77137946D01*
X100074244Y-77542007D02*
X100639930Y-76976322D01*
X100936241Y-77272633D02*
X100747679Y-78215442D01*
X101313365Y-77649757D02*
X100370556Y-77838319D01*
X69578931Y-89345198D02*
X69551994Y-89264385D01*
X69551994Y-89264385D02*
X69471181Y-89183573D01*
X69471181Y-89183573D02*
X69363432Y-89129698D01*
X69363432Y-89129698D02*
X69255682Y-89129698D01*
X69255682Y-89129698D02*
X69174870Y-89156636D01*
X69174870Y-89156636D02*
X69040183Y-89237448D01*
X69040183Y-89237448D02*
X68959371Y-89318260D01*
X68959371Y-89318260D02*
X68878558Y-89452947D01*
X68878558Y-89452947D02*
X68851621Y-89533760D01*
X68851621Y-89533760D02*
X68851621Y-89641509D01*
X68851621Y-89641509D02*
X68905496Y-89749259D01*
X68905496Y-89749259D02*
X68959371Y-89803134D01*
X68959371Y-89803134D02*
X69067120Y-89857008D01*
X69067120Y-89857008D02*
X69120995Y-89857008D01*
X69120995Y-89857008D02*
X69309557Y-89668447D01*
X69309557Y-89668447D02*
X69201807Y-89560697D01*
X69309557Y-90153320D02*
X69875242Y-89587634D01*
X69875242Y-89587634D02*
X70090742Y-89803134D01*
X70090742Y-89803134D02*
X70117679Y-89883946D01*
X70117679Y-89883946D02*
X70117679Y-89937821D01*
X70117679Y-89937821D02*
X70090742Y-90018633D01*
X70090742Y-90018633D02*
X70009929Y-90099445D01*
X70009929Y-90099445D02*
X69929117Y-90126382D01*
X69929117Y-90126382D02*
X69875242Y-90126382D01*
X69875242Y-90126382D02*
X69794430Y-90099445D01*
X69794430Y-90099445D02*
X69578931Y-89883946D01*
X70171554Y-91015317D02*
X69848305Y-90692068D01*
X70009929Y-90853692D02*
X70575615Y-90288007D01*
X70575615Y-90288007D02*
X70440928Y-90314944D01*
X70440928Y-90314944D02*
X70333178Y-90314944D01*
X70333178Y-90314944D02*
X70252366Y-90288007D01*
X70818052Y-91015317D02*
X70791114Y-90934505D01*
X70791114Y-90934505D02*
X70791114Y-90880630D01*
X70791114Y-90880630D02*
X70818052Y-90799818D01*
X70818052Y-90799818D02*
X70844989Y-90772880D01*
X70844989Y-90772880D02*
X70925801Y-90745943D01*
X70925801Y-90745943D02*
X70979676Y-90745943D01*
X70979676Y-90745943D02*
X71060488Y-90772880D01*
X71060488Y-90772880D02*
X71168238Y-90880630D01*
X71168238Y-90880630D02*
X71195175Y-90961442D01*
X71195175Y-90961442D02*
X71195175Y-91015317D01*
X71195175Y-91015317D02*
X71168238Y-91096129D01*
X71168238Y-91096129D02*
X71141300Y-91123066D01*
X71141300Y-91123066D02*
X71060488Y-91150004D01*
X71060488Y-91150004D02*
X71006613Y-91150004D01*
X71006613Y-91150004D02*
X70925801Y-91123066D01*
X70925801Y-91123066D02*
X70818052Y-91015317D01*
X70818052Y-91015317D02*
X70737239Y-90988379D01*
X70737239Y-90988379D02*
X70683365Y-90988379D01*
X70683365Y-90988379D02*
X70602552Y-91015317D01*
X70602552Y-91015317D02*
X70494803Y-91123066D01*
X70494803Y-91123066D02*
X70467865Y-91203879D01*
X70467865Y-91203879D02*
X70467865Y-91257753D01*
X70467865Y-91257753D02*
X70494803Y-91338566D01*
X70494803Y-91338566D02*
X70602552Y-91446315D01*
X70602552Y-91446315D02*
X70683365Y-91473253D01*
X70683365Y-91473253D02*
X70737239Y-91473253D01*
X70737239Y-91473253D02*
X70818052Y-91446315D01*
X70818052Y-91446315D02*
X70925801Y-91338566D01*
X70925801Y-91338566D02*
X70952739Y-91257753D01*
X70952739Y-91257753D02*
X70952739Y-91203879D01*
X70952739Y-91203879D02*
X70925801Y-91123066D01*
X92831368Y-76841635D02*
X92804431Y-76760823D01*
X92804431Y-76760823D02*
X92723619Y-76680011D01*
X92723619Y-76680011D02*
X92615869Y-76626136D01*
X92615869Y-76626136D02*
X92508119Y-76626136D01*
X92508119Y-76626136D02*
X92427307Y-76653073D01*
X92427307Y-76653073D02*
X92292620Y-76733885D01*
X92292620Y-76733885D02*
X92211808Y-76814698D01*
X92211808Y-76814698D02*
X92130996Y-76949385D01*
X92130996Y-76949385D02*
X92104058Y-77030197D01*
X92104058Y-77030197D02*
X92104058Y-77137946D01*
X92104058Y-77137946D02*
X92157933Y-77245696D01*
X92157933Y-77245696D02*
X92211808Y-77299571D01*
X92211808Y-77299571D02*
X92319558Y-77353446D01*
X92319558Y-77353446D02*
X92373432Y-77353446D01*
X92373432Y-77353446D02*
X92561994Y-77164884D01*
X92561994Y-77164884D02*
X92454245Y-77057134D01*
X92561994Y-77649757D02*
X93127680Y-77084072D01*
X93127680Y-77084072D02*
X92885243Y-77973006D01*
X92885243Y-77973006D02*
X93450928Y-77407320D01*
X93154617Y-78242380D02*
X93720302Y-77676694D01*
X93720302Y-77676694D02*
X93854989Y-77811381D01*
X93854989Y-77811381D02*
X93908864Y-77919131D01*
X93908864Y-77919131D02*
X93908864Y-78026880D01*
X93908864Y-78026880D02*
X93881927Y-78107693D01*
X93881927Y-78107693D02*
X93801114Y-78242380D01*
X93801114Y-78242380D02*
X93720302Y-78323192D01*
X93720302Y-78323192D02*
X93585615Y-78404004D01*
X93585615Y-78404004D02*
X93504803Y-78430941D01*
X93504803Y-78430941D02*
X93397053Y-78430941D01*
X93397053Y-78430941D02*
X93289304Y-78377067D01*
X93289304Y-78377067D02*
X93154617Y-78242380D01*
X85238305Y-76814697D02*
X85561554Y-77137946D01*
X84834244Y-77542007D02*
X85399930Y-76976322D01*
X85696241Y-77272633D02*
X85507679Y-78215442D01*
X86073365Y-77649757D02*
X85130556Y-77838319D01*
X62108931Y-76345198D02*
X62081994Y-76264385D01*
X62081994Y-76264385D02*
X62001181Y-76183573D01*
X62001181Y-76183573D02*
X61893432Y-76129698D01*
X61893432Y-76129698D02*
X61785682Y-76129698D01*
X61785682Y-76129698D02*
X61704870Y-76156636D01*
X61704870Y-76156636D02*
X61570183Y-76237448D01*
X61570183Y-76237448D02*
X61489371Y-76318260D01*
X61489371Y-76318260D02*
X61408558Y-76452947D01*
X61408558Y-76452947D02*
X61381621Y-76533760D01*
X61381621Y-76533760D02*
X61381621Y-76641509D01*
X61381621Y-76641509D02*
X61435496Y-76749259D01*
X61435496Y-76749259D02*
X61489371Y-76803134D01*
X61489371Y-76803134D02*
X61597120Y-76857008D01*
X61597120Y-76857008D02*
X61650995Y-76857008D01*
X61650995Y-76857008D02*
X61839557Y-76668447D01*
X61839557Y-76668447D02*
X61731807Y-76560697D01*
X61839557Y-77153320D02*
X62405242Y-76587634D01*
X62405242Y-76587634D02*
X62620742Y-76803134D01*
X62620742Y-76803134D02*
X62647679Y-76883946D01*
X62647679Y-76883946D02*
X62647679Y-76937821D01*
X62647679Y-76937821D02*
X62620742Y-77018633D01*
X62620742Y-77018633D02*
X62539929Y-77099445D01*
X62539929Y-77099445D02*
X62459117Y-77126382D01*
X62459117Y-77126382D02*
X62405242Y-77126382D01*
X62405242Y-77126382D02*
X62324430Y-77099445D01*
X62324430Y-77099445D02*
X62108931Y-76883946D01*
X62701554Y-78015317D02*
X62378305Y-77692068D01*
X62539929Y-77853692D02*
X63105615Y-77288007D01*
X63105615Y-77288007D02*
X62970928Y-77314944D01*
X62970928Y-77314944D02*
X62863178Y-77314944D01*
X62863178Y-77314944D02*
X62782366Y-77288007D01*
X63779050Y-77961442D02*
X63509676Y-77692068D01*
X63509676Y-77692068D02*
X63213365Y-77934505D01*
X63213365Y-77934505D02*
X63267239Y-77934505D01*
X63267239Y-77934505D02*
X63348052Y-77961442D01*
X63348052Y-77961442D02*
X63482739Y-78096129D01*
X63482739Y-78096129D02*
X63509676Y-78176941D01*
X63509676Y-78176941D02*
X63509676Y-78230816D01*
X63509676Y-78230816D02*
X63482739Y-78311628D01*
X63482739Y-78311628D02*
X63348052Y-78446315D01*
X63348052Y-78446315D02*
X63267239Y-78473253D01*
X63267239Y-78473253D02*
X63213365Y-78473253D01*
X63213365Y-78473253D02*
X63132552Y-78446315D01*
X63132552Y-78446315D02*
X62997865Y-78311628D01*
X62997865Y-78311628D02*
X62970928Y-78230816D01*
X62970928Y-78230816D02*
X62970928Y-78176941D01*
X95223212Y-77663225D02*
X95169337Y-77663225D01*
X95169337Y-77663225D02*
X95061588Y-77609351D01*
X95061588Y-77609351D02*
X95007713Y-77555476D01*
X95007713Y-77555476D02*
X94953838Y-77447726D01*
X94953838Y-77447726D02*
X94953838Y-77339977D01*
X94953838Y-77339977D02*
X94980776Y-77259164D01*
X94980776Y-77259164D02*
X95061588Y-77124477D01*
X95061588Y-77124477D02*
X95142400Y-77043665D01*
X95142400Y-77043665D02*
X95277087Y-76962853D01*
X95277087Y-76962853D02*
X95357899Y-76935916D01*
X95357899Y-76935916D02*
X95465649Y-76935916D01*
X95465649Y-76935916D02*
X95573398Y-76989790D01*
X95573398Y-76989790D02*
X95627273Y-77043665D01*
X95627273Y-77043665D02*
X95681148Y-77151415D01*
X95681148Y-77151415D02*
X95681148Y-77205290D01*
X95411774Y-77905662D02*
X95465649Y-78013412D01*
X95465649Y-78013412D02*
X95600336Y-78148099D01*
X95600336Y-78148099D02*
X95681148Y-78175036D01*
X95681148Y-78175036D02*
X95735023Y-78175036D01*
X95735023Y-78175036D02*
X95815835Y-78148099D01*
X95815835Y-78148099D02*
X95869710Y-78094224D01*
X95869710Y-78094224D02*
X95896647Y-78013412D01*
X95896647Y-78013412D02*
X95896647Y-77959537D01*
X95896647Y-77959537D02*
X95869710Y-77878725D01*
X95869710Y-77878725D02*
X95788898Y-77744038D01*
X95788898Y-77744038D02*
X95761960Y-77663225D01*
X95761960Y-77663225D02*
X95761960Y-77609351D01*
X95761960Y-77609351D02*
X95788898Y-77528538D01*
X95788898Y-77528538D02*
X95842772Y-77474664D01*
X95842772Y-77474664D02*
X95923585Y-77447726D01*
X95923585Y-77447726D02*
X95977459Y-77447726D01*
X95977459Y-77447726D02*
X96058272Y-77474664D01*
X96058272Y-77474664D02*
X96192959Y-77609351D01*
X96192959Y-77609351D02*
X96246833Y-77717100D01*
X109843652Y-77097540D02*
X109897527Y-77205290D01*
X109897527Y-77205290D02*
X110032214Y-77339977D01*
X110032214Y-77339977D02*
X110113026Y-77366914D01*
X110113026Y-77366914D02*
X110166901Y-77366914D01*
X110166901Y-77366914D02*
X110247713Y-77339977D01*
X110247713Y-77339977D02*
X110301588Y-77286102D01*
X110301588Y-77286102D02*
X110328525Y-77205290D01*
X110328525Y-77205290D02*
X110328525Y-77151415D01*
X110328525Y-77151415D02*
X110301588Y-77070603D01*
X110301588Y-77070603D02*
X110220776Y-76935916D01*
X110220776Y-76935916D02*
X110193838Y-76855104D01*
X110193838Y-76855104D02*
X110193838Y-76801229D01*
X110193838Y-76801229D02*
X110220776Y-76720417D01*
X110220776Y-76720417D02*
X110274651Y-76666542D01*
X110274651Y-76666542D02*
X110355463Y-76639604D01*
X110355463Y-76639604D02*
X110409338Y-76639604D01*
X110409338Y-76639604D02*
X110490150Y-76666542D01*
X110490150Y-76666542D02*
X110624837Y-76801229D01*
X110624837Y-76801229D02*
X110678712Y-76908978D01*
X110382400Y-77690163D02*
X110948086Y-77124478D01*
X110948086Y-77124478D02*
X111082773Y-77259165D01*
X111082773Y-77259165D02*
X111136648Y-77366914D01*
X111136648Y-77366914D02*
X111136648Y-77474664D01*
X111136648Y-77474664D02*
X111109710Y-77555476D01*
X111109710Y-77555476D02*
X111028898Y-77690163D01*
X111028898Y-77690163D02*
X110948086Y-77770975D01*
X110948086Y-77770975D02*
X110813399Y-77851788D01*
X110813399Y-77851788D02*
X110732587Y-77878725D01*
X110732587Y-77878725D02*
X110624837Y-77878725D01*
X110624837Y-77878725D02*
X110517087Y-77824850D01*
X110517087Y-77824850D02*
X110382400Y-77690163D01*
X111082773Y-78067287D02*
X111352147Y-78336661D01*
X110867274Y-78175036D02*
X111621521Y-77797913D01*
X111621521Y-77797913D02*
X111244397Y-78552160D01*
X61581808Y-90045571D02*
X62147493Y-89479885D01*
X61851182Y-90314945D02*
X62416867Y-89749259D01*
X62416867Y-89749259D02*
X62174431Y-90638193D01*
X62174431Y-90638193D02*
X62740116Y-90072508D01*
X62928678Y-90261070D02*
X63251926Y-90584318D01*
X62524617Y-90988379D02*
X63090302Y-90422694D01*
X87808305Y-76968572D02*
X87781368Y-76887760D01*
X87781368Y-76887760D02*
X87700556Y-76806948D01*
X87700556Y-76806948D02*
X87592806Y-76753073D01*
X87592806Y-76753073D02*
X87485057Y-76753073D01*
X87485057Y-76753073D02*
X87404244Y-76780010D01*
X87404244Y-76780010D02*
X87269557Y-76860823D01*
X87269557Y-76860823D02*
X87188745Y-76941635D01*
X87188745Y-76941635D02*
X87107933Y-77076322D01*
X87107933Y-77076322D02*
X87080996Y-77157134D01*
X87080996Y-77157134D02*
X87080996Y-77264884D01*
X87080996Y-77264884D02*
X87134870Y-77372633D01*
X87134870Y-77372633D02*
X87188745Y-77426508D01*
X87188745Y-77426508D02*
X87296495Y-77480383D01*
X87296495Y-77480383D02*
X87350370Y-77480383D01*
X87350370Y-77480383D02*
X87538931Y-77291821D01*
X87538931Y-77291821D02*
X87431182Y-77184071D01*
X87538931Y-77776694D02*
X88104617Y-77211009D01*
X88104617Y-77211009D02*
X88320116Y-77426508D01*
X88320116Y-77426508D02*
X88347053Y-77507320D01*
X88347053Y-77507320D02*
X88347053Y-77561195D01*
X88347053Y-77561195D02*
X88320116Y-77642007D01*
X88320116Y-77642007D02*
X88239304Y-77722819D01*
X88239304Y-77722819D02*
X88158492Y-77749757D01*
X88158492Y-77749757D02*
X88104617Y-77749757D01*
X88104617Y-77749757D02*
X88023805Y-77722819D01*
X88023805Y-77722819D02*
X87808305Y-77507320D01*
X88616427Y-77722819D02*
X88993551Y-78099943D01*
X88993551Y-78099943D02*
X88185429Y-78423192D01*
X64648931Y-76299198D02*
X64621994Y-76218385D01*
X64621994Y-76218385D02*
X64541181Y-76137573D01*
X64541181Y-76137573D02*
X64433432Y-76083698D01*
X64433432Y-76083698D02*
X64325682Y-76083698D01*
X64325682Y-76083698D02*
X64244870Y-76110636D01*
X64244870Y-76110636D02*
X64110183Y-76191448D01*
X64110183Y-76191448D02*
X64029371Y-76272260D01*
X64029371Y-76272260D02*
X63948558Y-76406947D01*
X63948558Y-76406947D02*
X63921621Y-76487760D01*
X63921621Y-76487760D02*
X63921621Y-76595509D01*
X63921621Y-76595509D02*
X63975496Y-76703259D01*
X63975496Y-76703259D02*
X64029371Y-76757134D01*
X64029371Y-76757134D02*
X64137120Y-76811008D01*
X64137120Y-76811008D02*
X64190995Y-76811008D01*
X64190995Y-76811008D02*
X64379557Y-76622447D01*
X64379557Y-76622447D02*
X64271807Y-76514697D01*
X64379557Y-77107320D02*
X64945242Y-76541634D01*
X64945242Y-76541634D02*
X65160742Y-76757134D01*
X65160742Y-76757134D02*
X65187679Y-76837946D01*
X65187679Y-76837946D02*
X65187679Y-76891821D01*
X65187679Y-76891821D02*
X65160742Y-76972633D01*
X65160742Y-76972633D02*
X65079929Y-77053445D01*
X65079929Y-77053445D02*
X64999117Y-77080382D01*
X64999117Y-77080382D02*
X64945242Y-77080382D01*
X64945242Y-77080382D02*
X64864430Y-77053445D01*
X64864430Y-77053445D02*
X64648931Y-76837946D01*
X65241554Y-77969317D02*
X64918305Y-77646068D01*
X65079929Y-77807692D02*
X65645615Y-77242007D01*
X65645615Y-77242007D02*
X65510928Y-77268944D01*
X65510928Y-77268944D02*
X65403178Y-77268944D01*
X65403178Y-77268944D02*
X65322366Y-77242007D01*
X66103551Y-78077066D02*
X65726427Y-78454190D01*
X66184363Y-77726880D02*
X65645615Y-77996254D01*
X65645615Y-77996254D02*
X65995801Y-78346440D01*
X64498931Y-89345198D02*
X64471994Y-89264385D01*
X64471994Y-89264385D02*
X64391181Y-89183573D01*
X64391181Y-89183573D02*
X64283432Y-89129698D01*
X64283432Y-89129698D02*
X64175682Y-89129698D01*
X64175682Y-89129698D02*
X64094870Y-89156636D01*
X64094870Y-89156636D02*
X63960183Y-89237448D01*
X63960183Y-89237448D02*
X63879371Y-89318260D01*
X63879371Y-89318260D02*
X63798558Y-89452947D01*
X63798558Y-89452947D02*
X63771621Y-89533760D01*
X63771621Y-89533760D02*
X63771621Y-89641509D01*
X63771621Y-89641509D02*
X63825496Y-89749259D01*
X63825496Y-89749259D02*
X63879371Y-89803134D01*
X63879371Y-89803134D02*
X63987120Y-89857008D01*
X63987120Y-89857008D02*
X64040995Y-89857008D01*
X64040995Y-89857008D02*
X64229557Y-89668447D01*
X64229557Y-89668447D02*
X64121807Y-89560697D01*
X64229557Y-90153320D02*
X64795242Y-89587634D01*
X64795242Y-89587634D02*
X65010742Y-89803134D01*
X65010742Y-89803134D02*
X65037679Y-89883946D01*
X65037679Y-89883946D02*
X65037679Y-89937821D01*
X65037679Y-89937821D02*
X65010742Y-90018633D01*
X65010742Y-90018633D02*
X64929929Y-90099445D01*
X64929929Y-90099445D02*
X64849117Y-90126382D01*
X64849117Y-90126382D02*
X64795242Y-90126382D01*
X64795242Y-90126382D02*
X64714430Y-90099445D01*
X64714430Y-90099445D02*
X64498931Y-89883946D01*
X65091554Y-91015317D02*
X64768305Y-90692068D01*
X64929929Y-90853692D02*
X65495615Y-90288007D01*
X65495615Y-90288007D02*
X65360928Y-90314944D01*
X65360928Y-90314944D02*
X65253178Y-90314944D01*
X65253178Y-90314944D02*
X65172366Y-90288007D01*
X65845801Y-90638193D02*
X66222925Y-91015317D01*
X66222925Y-91015317D02*
X65414803Y-91338566D01*
X84536089Y-90085851D02*
X84616901Y-89627916D01*
X84212840Y-89762603D02*
X84778525Y-89196917D01*
X84778525Y-89196917D02*
X84994024Y-89412416D01*
X84994024Y-89412416D02*
X85020962Y-89493229D01*
X85020962Y-89493229D02*
X85020962Y-89547103D01*
X85020962Y-89547103D02*
X84994024Y-89627916D01*
X84994024Y-89627916D02*
X84913212Y-89708728D01*
X84913212Y-89708728D02*
X84832400Y-89735665D01*
X84832400Y-89735665D02*
X84778525Y-89735665D01*
X84778525Y-89735665D02*
X84697713Y-89708728D01*
X84697713Y-89708728D02*
X84482214Y-89493229D01*
X85344211Y-89762603D02*
X84886275Y-90220538D01*
X84886275Y-90220538D02*
X84859337Y-90301351D01*
X84859337Y-90301351D02*
X84859337Y-90355225D01*
X84859337Y-90355225D02*
X84886275Y-90436038D01*
X84886275Y-90436038D02*
X84994024Y-90543787D01*
X84994024Y-90543787D02*
X85074837Y-90570725D01*
X85074837Y-90570725D02*
X85128711Y-90570725D01*
X85128711Y-90570725D02*
X85209524Y-90543787D01*
X85209524Y-90543787D02*
X85667459Y-90085851D01*
X85371148Y-90920911D02*
X85936833Y-90355225D01*
X85936833Y-90355225D02*
X85694397Y-91244159D01*
X85694397Y-91244159D02*
X86260082Y-90678474D01*
X80131368Y-76841635D02*
X80104431Y-76760823D01*
X80104431Y-76760823D02*
X80023619Y-76680011D01*
X80023619Y-76680011D02*
X79915869Y-76626136D01*
X79915869Y-76626136D02*
X79808119Y-76626136D01*
X79808119Y-76626136D02*
X79727307Y-76653073D01*
X79727307Y-76653073D02*
X79592620Y-76733885D01*
X79592620Y-76733885D02*
X79511808Y-76814698D01*
X79511808Y-76814698D02*
X79430996Y-76949385D01*
X79430996Y-76949385D02*
X79404058Y-77030197D01*
X79404058Y-77030197D02*
X79404058Y-77137946D01*
X79404058Y-77137946D02*
X79457933Y-77245696D01*
X79457933Y-77245696D02*
X79511808Y-77299571D01*
X79511808Y-77299571D02*
X79619558Y-77353446D01*
X79619558Y-77353446D02*
X79673432Y-77353446D01*
X79673432Y-77353446D02*
X79861994Y-77164884D01*
X79861994Y-77164884D02*
X79754245Y-77057134D01*
X79861994Y-77649757D02*
X80427680Y-77084072D01*
X80427680Y-77084072D02*
X80185243Y-77973006D01*
X80185243Y-77973006D02*
X80750928Y-77407320D01*
X80454617Y-78242380D02*
X81020302Y-77676694D01*
X81020302Y-77676694D02*
X81154989Y-77811381D01*
X81154989Y-77811381D02*
X81208864Y-77919131D01*
X81208864Y-77919131D02*
X81208864Y-78026880D01*
X81208864Y-78026880D02*
X81181927Y-78107693D01*
X81181927Y-78107693D02*
X81101114Y-78242380D01*
X81101114Y-78242380D02*
X81020302Y-78323192D01*
X81020302Y-78323192D02*
X80885615Y-78404004D01*
X80885615Y-78404004D02*
X80804803Y-78430941D01*
X80804803Y-78430941D02*
X80697053Y-78430941D01*
X80697053Y-78430941D02*
X80589304Y-78377067D01*
X80589304Y-78377067D02*
X80454617Y-78242380D01*
X79981368Y-89333635D02*
X79954431Y-89252823D01*
X79954431Y-89252823D02*
X79873619Y-89172011D01*
X79873619Y-89172011D02*
X79765869Y-89118136D01*
X79765869Y-89118136D02*
X79658119Y-89118136D01*
X79658119Y-89118136D02*
X79577307Y-89145073D01*
X79577307Y-89145073D02*
X79442620Y-89225885D01*
X79442620Y-89225885D02*
X79361808Y-89306698D01*
X79361808Y-89306698D02*
X79280996Y-89441385D01*
X79280996Y-89441385D02*
X79254058Y-89522197D01*
X79254058Y-89522197D02*
X79254058Y-89629946D01*
X79254058Y-89629946D02*
X79307933Y-89737696D01*
X79307933Y-89737696D02*
X79361808Y-89791571D01*
X79361808Y-89791571D02*
X79469558Y-89845446D01*
X79469558Y-89845446D02*
X79523432Y-89845446D01*
X79523432Y-89845446D02*
X79711994Y-89656884D01*
X79711994Y-89656884D02*
X79604245Y-89549134D01*
X79711994Y-90141757D02*
X80277680Y-89576072D01*
X80277680Y-89576072D02*
X80035243Y-90465006D01*
X80035243Y-90465006D02*
X80600928Y-89899320D01*
X80304617Y-90734380D02*
X80870302Y-90168694D01*
X80870302Y-90168694D02*
X81004989Y-90303381D01*
X81004989Y-90303381D02*
X81058864Y-90411131D01*
X81058864Y-90411131D02*
X81058864Y-90518880D01*
X81058864Y-90518880D02*
X81031927Y-90599693D01*
X81031927Y-90599693D02*
X80951114Y-90734380D01*
X80951114Y-90734380D02*
X80870302Y-90815192D01*
X80870302Y-90815192D02*
X80735615Y-90896004D01*
X80735615Y-90896004D02*
X80654803Y-90922941D01*
X80654803Y-90922941D02*
X80547053Y-90922941D01*
X80547053Y-90922941D02*
X80439304Y-90869067D01*
X80439304Y-90869067D02*
X80304617Y-90734380D01*
X105381368Y-89333635D02*
X105354431Y-89252823D01*
X105354431Y-89252823D02*
X105273619Y-89172011D01*
X105273619Y-89172011D02*
X105165869Y-89118136D01*
X105165869Y-89118136D02*
X105058119Y-89118136D01*
X105058119Y-89118136D02*
X104977307Y-89145073D01*
X104977307Y-89145073D02*
X104842620Y-89225885D01*
X104842620Y-89225885D02*
X104761808Y-89306698D01*
X104761808Y-89306698D02*
X104680996Y-89441385D01*
X104680996Y-89441385D02*
X104654058Y-89522197D01*
X104654058Y-89522197D02*
X104654058Y-89629946D01*
X104654058Y-89629946D02*
X104707933Y-89737696D01*
X104707933Y-89737696D02*
X104761808Y-89791571D01*
X104761808Y-89791571D02*
X104869558Y-89845446D01*
X104869558Y-89845446D02*
X104923432Y-89845446D01*
X104923432Y-89845446D02*
X105111994Y-89656884D01*
X105111994Y-89656884D02*
X105004245Y-89549134D01*
X105111994Y-90141757D02*
X105677680Y-89576072D01*
X105677680Y-89576072D02*
X105435243Y-90465006D01*
X105435243Y-90465006D02*
X106000928Y-89899320D01*
X105704617Y-90734380D02*
X106270302Y-90168694D01*
X106270302Y-90168694D02*
X106404989Y-90303381D01*
X106404989Y-90303381D02*
X106458864Y-90411131D01*
X106458864Y-90411131D02*
X106458864Y-90518880D01*
X106458864Y-90518880D02*
X106431927Y-90599693D01*
X106431927Y-90599693D02*
X106351114Y-90734380D01*
X106351114Y-90734380D02*
X106270302Y-90815192D01*
X106270302Y-90815192D02*
X106135615Y-90896004D01*
X106135615Y-90896004D02*
X106054803Y-90922941D01*
X106054803Y-90922941D02*
X105947053Y-90922941D01*
X105947053Y-90922941D02*
X105839304Y-90869067D01*
X105839304Y-90869067D02*
X105704617Y-90734380D01*
X99988931Y-89137323D02*
X100339117Y-89487509D01*
X100339117Y-89487509D02*
X99935056Y-89514447D01*
X99935056Y-89514447D02*
X100015868Y-89595259D01*
X100015868Y-89595259D02*
X100042806Y-89676071D01*
X100042806Y-89676071D02*
X100042806Y-89729946D01*
X100042806Y-89729946D02*
X100015868Y-89810758D01*
X100015868Y-89810758D02*
X99881181Y-89945445D01*
X99881181Y-89945445D02*
X99800369Y-89972382D01*
X99800369Y-89972382D02*
X99746494Y-89972382D01*
X99746494Y-89972382D02*
X99665682Y-89945445D01*
X99665682Y-89945445D02*
X99504058Y-89783821D01*
X99504058Y-89783821D02*
X99477120Y-89703008D01*
X99477120Y-89703008D02*
X99477120Y-89649134D01*
X100500742Y-89649134D02*
X100123618Y-90403381D01*
X100123618Y-90403381D02*
X100877865Y-90026257D01*
X101012552Y-90160944D02*
X101362738Y-90511130D01*
X101362738Y-90511130D02*
X100958677Y-90538068D01*
X100958677Y-90538068D02*
X101039490Y-90618880D01*
X101039490Y-90618880D02*
X101066427Y-90699692D01*
X101066427Y-90699692D02*
X101066427Y-90753567D01*
X101066427Y-90753567D02*
X101039490Y-90834379D01*
X101039490Y-90834379D02*
X100904803Y-90969066D01*
X100904803Y-90969066D02*
X100823990Y-90996004D01*
X100823990Y-90996004D02*
X100770116Y-90996004D01*
X100770116Y-90996004D02*
X100689303Y-90969066D01*
X100689303Y-90969066D02*
X100527679Y-90807442D01*
X100527679Y-90807442D02*
X100500742Y-90726630D01*
X100500742Y-90726630D02*
X100500742Y-90672755D01*
X72118931Y-89345198D02*
X72091994Y-89264385D01*
X72091994Y-89264385D02*
X72011181Y-89183573D01*
X72011181Y-89183573D02*
X71903432Y-89129698D01*
X71903432Y-89129698D02*
X71795682Y-89129698D01*
X71795682Y-89129698D02*
X71714870Y-89156636D01*
X71714870Y-89156636D02*
X71580183Y-89237448D01*
X71580183Y-89237448D02*
X71499371Y-89318260D01*
X71499371Y-89318260D02*
X71418558Y-89452947D01*
X71418558Y-89452947D02*
X71391621Y-89533760D01*
X71391621Y-89533760D02*
X71391621Y-89641509D01*
X71391621Y-89641509D02*
X71445496Y-89749259D01*
X71445496Y-89749259D02*
X71499371Y-89803134D01*
X71499371Y-89803134D02*
X71607120Y-89857008D01*
X71607120Y-89857008D02*
X71660995Y-89857008D01*
X71660995Y-89857008D02*
X71849557Y-89668447D01*
X71849557Y-89668447D02*
X71741807Y-89560697D01*
X71849557Y-90153320D02*
X72415242Y-89587634D01*
X72415242Y-89587634D02*
X72630742Y-89803134D01*
X72630742Y-89803134D02*
X72657679Y-89883946D01*
X72657679Y-89883946D02*
X72657679Y-89937821D01*
X72657679Y-89937821D02*
X72630742Y-90018633D01*
X72630742Y-90018633D02*
X72549929Y-90099445D01*
X72549929Y-90099445D02*
X72469117Y-90126382D01*
X72469117Y-90126382D02*
X72415242Y-90126382D01*
X72415242Y-90126382D02*
X72334430Y-90099445D01*
X72334430Y-90099445D02*
X72118931Y-89883946D01*
X72711554Y-91015317D02*
X72388305Y-90692068D01*
X72549929Y-90853692D02*
X73115615Y-90288007D01*
X73115615Y-90288007D02*
X72980928Y-90314944D01*
X72980928Y-90314944D02*
X72873178Y-90314944D01*
X72873178Y-90314944D02*
X72792366Y-90288007D01*
X72980928Y-91284691D02*
X73088678Y-91392440D01*
X73088678Y-91392440D02*
X73169490Y-91419378D01*
X73169490Y-91419378D02*
X73223365Y-91419378D01*
X73223365Y-91419378D02*
X73358052Y-91392440D01*
X73358052Y-91392440D02*
X73492739Y-91311628D01*
X73492739Y-91311628D02*
X73708238Y-91096129D01*
X73708238Y-91096129D02*
X73735175Y-91015317D01*
X73735175Y-91015317D02*
X73735175Y-90961442D01*
X73735175Y-90961442D02*
X73708238Y-90880630D01*
X73708238Y-90880630D02*
X73600488Y-90772880D01*
X73600488Y-90772880D02*
X73519676Y-90745943D01*
X73519676Y-90745943D02*
X73465801Y-90745943D01*
X73465801Y-90745943D02*
X73384989Y-90772880D01*
X73384989Y-90772880D02*
X73250302Y-90907567D01*
X73250302Y-90907567D02*
X73223365Y-90988379D01*
X73223365Y-90988379D02*
X73223365Y-91042254D01*
X73223365Y-91042254D02*
X73250302Y-91123066D01*
X73250302Y-91123066D02*
X73358052Y-91230816D01*
X73358052Y-91230816D02*
X73438864Y-91257753D01*
X73438864Y-91257753D02*
X73492739Y-91257753D01*
X73492739Y-91257753D02*
X73573551Y-91230816D01*
X77348931Y-76345198D02*
X77321994Y-76264385D01*
X77321994Y-76264385D02*
X77241181Y-76183573D01*
X77241181Y-76183573D02*
X77133432Y-76129698D01*
X77133432Y-76129698D02*
X77025682Y-76129698D01*
X77025682Y-76129698D02*
X76944870Y-76156636D01*
X76944870Y-76156636D02*
X76810183Y-76237448D01*
X76810183Y-76237448D02*
X76729371Y-76318260D01*
X76729371Y-76318260D02*
X76648558Y-76452947D01*
X76648558Y-76452947D02*
X76621621Y-76533760D01*
X76621621Y-76533760D02*
X76621621Y-76641509D01*
X76621621Y-76641509D02*
X76675496Y-76749259D01*
X76675496Y-76749259D02*
X76729371Y-76803134D01*
X76729371Y-76803134D02*
X76837120Y-76857008D01*
X76837120Y-76857008D02*
X76890995Y-76857008D01*
X76890995Y-76857008D02*
X77079557Y-76668447D01*
X77079557Y-76668447D02*
X76971807Y-76560697D01*
X77079557Y-77153320D02*
X77645242Y-76587634D01*
X77645242Y-76587634D02*
X77860742Y-76803134D01*
X77860742Y-76803134D02*
X77887679Y-76883946D01*
X77887679Y-76883946D02*
X77887679Y-76937821D01*
X77887679Y-76937821D02*
X77860742Y-77018633D01*
X77860742Y-77018633D02*
X77779929Y-77099445D01*
X77779929Y-77099445D02*
X77699117Y-77126382D01*
X77699117Y-77126382D02*
X77645242Y-77126382D01*
X77645242Y-77126382D02*
X77564430Y-77099445D01*
X77564430Y-77099445D02*
X77348931Y-76883946D01*
X77941554Y-78015317D02*
X77618305Y-77692068D01*
X77779929Y-77853692D02*
X78345615Y-77288007D01*
X78345615Y-77288007D02*
X78210928Y-77314944D01*
X78210928Y-77314944D02*
X78103178Y-77314944D01*
X78103178Y-77314944D02*
X78022366Y-77288007D01*
X78857426Y-77799818D02*
X78911300Y-77853692D01*
X78911300Y-77853692D02*
X78938238Y-77934505D01*
X78938238Y-77934505D02*
X78938238Y-77988379D01*
X78938238Y-77988379D02*
X78911300Y-78069192D01*
X78911300Y-78069192D02*
X78830488Y-78203879D01*
X78830488Y-78203879D02*
X78695801Y-78338566D01*
X78695801Y-78338566D02*
X78561114Y-78419378D01*
X78561114Y-78419378D02*
X78480302Y-78446315D01*
X78480302Y-78446315D02*
X78426427Y-78446315D01*
X78426427Y-78446315D02*
X78345615Y-78419378D01*
X78345615Y-78419378D02*
X78291740Y-78365503D01*
X78291740Y-78365503D02*
X78264803Y-78284691D01*
X78264803Y-78284691D02*
X78264803Y-78230816D01*
X78264803Y-78230816D02*
X78291740Y-78150004D01*
X78291740Y-78150004D02*
X78372552Y-78015317D01*
X78372552Y-78015317D02*
X78507239Y-77880630D01*
X78507239Y-77880630D02*
X78641926Y-77799818D01*
X78641926Y-77799818D02*
X78722739Y-77772880D01*
X78722739Y-77772880D02*
X78776613Y-77772880D01*
X78776613Y-77772880D02*
X78857426Y-77799818D01*
X89094278Y-89628041D02*
X89659963Y-89062355D01*
X89659963Y-89062355D02*
X89875462Y-89277854D01*
X89875462Y-89277854D02*
X89902400Y-89358666D01*
X89902400Y-89358666D02*
X89902400Y-89412541D01*
X89902400Y-89412541D02*
X89875462Y-89493354D01*
X89875462Y-89493354D02*
X89794650Y-89574166D01*
X89794650Y-89574166D02*
X89713838Y-89601103D01*
X89713838Y-89601103D02*
X89659963Y-89601103D01*
X89659963Y-89601103D02*
X89579151Y-89574166D01*
X89579151Y-89574166D02*
X89363652Y-89358666D01*
X89956275Y-89897415D02*
X90144836Y-90085976D01*
X89929337Y-90463100D02*
X89659963Y-90193726D01*
X89659963Y-90193726D02*
X90225649Y-89628041D01*
X90225649Y-89628041D02*
X90495023Y-89897415D01*
X90306461Y-90516975D02*
X90575835Y-90786349D01*
X90090962Y-90624725D02*
X90845209Y-90247601D01*
X90845209Y-90247601D02*
X90468085Y-91001848D01*
X90656647Y-91190410D02*
X91222333Y-90624724D01*
X90979896Y-91513659D02*
X91060708Y-90947973D01*
X91545581Y-90947973D02*
X90899084Y-90947973D01*
X82469337Y-77717100D02*
X82550150Y-77259164D01*
X82146089Y-77393851D02*
X82711774Y-76828166D01*
X82711774Y-76828166D02*
X82927273Y-77043665D01*
X82927273Y-77043665D02*
X82954211Y-77124477D01*
X82954211Y-77124477D02*
X82954211Y-77178352D01*
X82954211Y-77178352D02*
X82927273Y-77259164D01*
X82927273Y-77259164D02*
X82846461Y-77339977D01*
X82846461Y-77339977D02*
X82765649Y-77366914D01*
X82765649Y-77366914D02*
X82711774Y-77366914D01*
X82711774Y-77366914D02*
X82630962Y-77339977D01*
X82630962Y-77339977D02*
X82415463Y-77124477D01*
X83223585Y-77339977D02*
X83035023Y-78282786D01*
X83600708Y-77717100D02*
X82657899Y-77905662D01*
X72268931Y-76199198D02*
X72241994Y-76118385D01*
X72241994Y-76118385D02*
X72161181Y-76037573D01*
X72161181Y-76037573D02*
X72053432Y-75983698D01*
X72053432Y-75983698D02*
X71945682Y-75983698D01*
X71945682Y-75983698D02*
X71864870Y-76010636D01*
X71864870Y-76010636D02*
X71730183Y-76091448D01*
X71730183Y-76091448D02*
X71649371Y-76172260D01*
X71649371Y-76172260D02*
X71568558Y-76306947D01*
X71568558Y-76306947D02*
X71541621Y-76387760D01*
X71541621Y-76387760D02*
X71541621Y-76495509D01*
X71541621Y-76495509D02*
X71595496Y-76603259D01*
X71595496Y-76603259D02*
X71649371Y-76657134D01*
X71649371Y-76657134D02*
X71757120Y-76711008D01*
X71757120Y-76711008D02*
X71810995Y-76711008D01*
X71810995Y-76711008D02*
X71999557Y-76522447D01*
X71999557Y-76522447D02*
X71891807Y-76414697D01*
X71999557Y-77007320D02*
X72565242Y-76441634D01*
X72565242Y-76441634D02*
X72780742Y-76657134D01*
X72780742Y-76657134D02*
X72807679Y-76737946D01*
X72807679Y-76737946D02*
X72807679Y-76791821D01*
X72807679Y-76791821D02*
X72780742Y-76872633D01*
X72780742Y-76872633D02*
X72699929Y-76953445D01*
X72699929Y-76953445D02*
X72619117Y-76980382D01*
X72619117Y-76980382D02*
X72565242Y-76980382D01*
X72565242Y-76980382D02*
X72484430Y-76953445D01*
X72484430Y-76953445D02*
X72268931Y-76737946D01*
X72861554Y-77869317D02*
X72538305Y-77546068D01*
X72699929Y-77707692D02*
X73265615Y-77142007D01*
X73265615Y-77142007D02*
X73130928Y-77168944D01*
X73130928Y-77168944D02*
X73023178Y-77168944D01*
X73023178Y-77168944D02*
X72942366Y-77142007D01*
X73588864Y-77573005D02*
X73642739Y-77573005D01*
X73642739Y-77573005D02*
X73723551Y-77599943D01*
X73723551Y-77599943D02*
X73858238Y-77734630D01*
X73858238Y-77734630D02*
X73885175Y-77815442D01*
X73885175Y-77815442D02*
X73885175Y-77869317D01*
X73885175Y-77869317D02*
X73858238Y-77950129D01*
X73858238Y-77950129D02*
X73804363Y-78004004D01*
X73804363Y-78004004D02*
X73696613Y-78057879D01*
X73696613Y-78057879D02*
X73050116Y-78057879D01*
X73050116Y-78057879D02*
X73400302Y-78408065D01*
X86941402Y-89951290D02*
X86995277Y-90059039D01*
X86995277Y-90059039D02*
X87129964Y-90193726D01*
X87129964Y-90193726D02*
X87210776Y-90220664D01*
X87210776Y-90220664D02*
X87264651Y-90220664D01*
X87264651Y-90220664D02*
X87345463Y-90193726D01*
X87345463Y-90193726D02*
X87399338Y-90139852D01*
X87399338Y-90139852D02*
X87426275Y-90059039D01*
X87426275Y-90059039D02*
X87426275Y-90005165D01*
X87426275Y-90005165D02*
X87399338Y-89924352D01*
X87399338Y-89924352D02*
X87318525Y-89789665D01*
X87318525Y-89789665D02*
X87291588Y-89708853D01*
X87291588Y-89708853D02*
X87291588Y-89654978D01*
X87291588Y-89654978D02*
X87318525Y-89574166D01*
X87318525Y-89574166D02*
X87372400Y-89520291D01*
X87372400Y-89520291D02*
X87453212Y-89493354D01*
X87453212Y-89493354D02*
X87507087Y-89493354D01*
X87507087Y-89493354D02*
X87587899Y-89520291D01*
X87587899Y-89520291D02*
X87722586Y-89654978D01*
X87722586Y-89654978D02*
X87776461Y-89762728D01*
X87480150Y-90543913D02*
X88045835Y-89978227D01*
X88584583Y-90570850D02*
X88557646Y-90490038D01*
X88557646Y-90490038D02*
X88476834Y-90409226D01*
X88476834Y-90409226D02*
X88369084Y-90355351D01*
X88369084Y-90355351D02*
X88261334Y-90355351D01*
X88261334Y-90355351D02*
X88180522Y-90382288D01*
X88180522Y-90382288D02*
X88045835Y-90463100D01*
X88045835Y-90463100D02*
X87965023Y-90543913D01*
X87965023Y-90543913D02*
X87884211Y-90678600D01*
X87884211Y-90678600D02*
X87857273Y-90759412D01*
X87857273Y-90759412D02*
X87857273Y-90867161D01*
X87857273Y-90867161D02*
X87911148Y-90974911D01*
X87911148Y-90974911D02*
X87965023Y-91028786D01*
X87965023Y-91028786D02*
X88072773Y-91082661D01*
X88072773Y-91082661D02*
X88126647Y-91082661D01*
X88126647Y-91082661D02*
X88315209Y-90894099D01*
X88315209Y-90894099D02*
X88207460Y-90786349D01*
X82103838Y-90247601D02*
X82184650Y-89789665D01*
X81780589Y-89924352D02*
X82346275Y-89358667D01*
X82346275Y-89358667D02*
X82561774Y-89574166D01*
X82561774Y-89574166D02*
X82588711Y-89654978D01*
X82588711Y-89654978D02*
X82588711Y-89708853D01*
X82588711Y-89708853D02*
X82561774Y-89789665D01*
X82561774Y-89789665D02*
X82480962Y-89870477D01*
X82480962Y-89870477D02*
X82400150Y-89897415D01*
X82400150Y-89897415D02*
X82346275Y-89897415D01*
X82346275Y-89897415D02*
X82265463Y-89870477D01*
X82265463Y-89870477D02*
X82049963Y-89654978D01*
X82346275Y-90436163D02*
X82400150Y-90543912D01*
X82400150Y-90543912D02*
X82534837Y-90678599D01*
X82534837Y-90678599D02*
X82615649Y-90705537D01*
X82615649Y-90705537D02*
X82669524Y-90705537D01*
X82669524Y-90705537D02*
X82750336Y-90678599D01*
X82750336Y-90678599D02*
X82804211Y-90624725D01*
X82804211Y-90624725D02*
X82831148Y-90543912D01*
X82831148Y-90543912D02*
X82831148Y-90490038D01*
X82831148Y-90490038D02*
X82804211Y-90409225D01*
X82804211Y-90409225D02*
X82723398Y-90274538D01*
X82723398Y-90274538D02*
X82696461Y-90193726D01*
X82696461Y-90193726D02*
X82696461Y-90139851D01*
X82696461Y-90139851D02*
X82723398Y-90059039D01*
X82723398Y-90059039D02*
X82777273Y-90005164D01*
X82777273Y-90005164D02*
X82858085Y-89978227D01*
X82858085Y-89978227D02*
X82911960Y-89978227D01*
X82911960Y-89978227D02*
X82992772Y-90005164D01*
X82992772Y-90005164D02*
X83127459Y-90139851D01*
X83127459Y-90139851D02*
X83181334Y-90247601D01*
X83369896Y-90382288D02*
X83693145Y-90705537D01*
X82965835Y-91109598D02*
X83531521Y-90543913D01*
X102183246Y-76957134D02*
X102237121Y-77064884D01*
X102237121Y-77064884D02*
X102371808Y-77199571D01*
X102371808Y-77199571D02*
X102452620Y-77226508D01*
X102452620Y-77226508D02*
X102506495Y-77226508D01*
X102506495Y-77226508D02*
X102587307Y-77199571D01*
X102587307Y-77199571D02*
X102641182Y-77145696D01*
X102641182Y-77145696D02*
X102668119Y-77064884D01*
X102668119Y-77064884D02*
X102668119Y-77011009D01*
X102668119Y-77011009D02*
X102641182Y-76930197D01*
X102641182Y-76930197D02*
X102560370Y-76795510D01*
X102560370Y-76795510D02*
X102533432Y-76714697D01*
X102533432Y-76714697D02*
X102533432Y-76660823D01*
X102533432Y-76660823D02*
X102560370Y-76580010D01*
X102560370Y-76580010D02*
X102614244Y-76526136D01*
X102614244Y-76526136D02*
X102695057Y-76499198D01*
X102695057Y-76499198D02*
X102748931Y-76499198D01*
X102748931Y-76499198D02*
X102829744Y-76526136D01*
X102829744Y-76526136D02*
X102964431Y-76660823D01*
X102964431Y-76660823D02*
X103018305Y-76768572D01*
X103099118Y-77819131D02*
X103045243Y-77819131D01*
X103045243Y-77819131D02*
X102937493Y-77765256D01*
X102937493Y-77765256D02*
X102883619Y-77711381D01*
X102883619Y-77711381D02*
X102829744Y-77603632D01*
X102829744Y-77603632D02*
X102829744Y-77495882D01*
X102829744Y-77495882D02*
X102856681Y-77415070D01*
X102856681Y-77415070D02*
X102937493Y-77280383D01*
X102937493Y-77280383D02*
X103018306Y-77199571D01*
X103018306Y-77199571D02*
X103152993Y-77118759D01*
X103152993Y-77118759D02*
X103233805Y-77091821D01*
X103233805Y-77091821D02*
X103341554Y-77091821D01*
X103341554Y-77091821D02*
X103449304Y-77145696D01*
X103449304Y-77145696D02*
X103503179Y-77199571D01*
X103503179Y-77199571D02*
X103557054Y-77307320D01*
X103557054Y-77307320D02*
X103557054Y-77361195D01*
X103287680Y-78115442D02*
X103853365Y-77549757D01*
X103610928Y-78438691D02*
X103691741Y-77873006D01*
X104176614Y-77873006D02*
X103530116Y-77873006D01*
X64674000Y-88296438D02*
X64712095Y-88182152D01*
X64712095Y-88182152D02*
X64712095Y-87991676D01*
X64712095Y-87991676D02*
X64674000Y-87915485D01*
X64674000Y-87915485D02*
X64635904Y-87877390D01*
X64635904Y-87877390D02*
X64559714Y-87839295D01*
X64559714Y-87839295D02*
X64483523Y-87839295D01*
X64483523Y-87839295D02*
X64407333Y-87877390D01*
X64407333Y-87877390D02*
X64369238Y-87915485D01*
X64369238Y-87915485D02*
X64331142Y-87991676D01*
X64331142Y-87991676D02*
X64293047Y-88144057D01*
X64293047Y-88144057D02*
X64254952Y-88220247D01*
X64254952Y-88220247D02*
X64216857Y-88258342D01*
X64216857Y-88258342D02*
X64140666Y-88296438D01*
X64140666Y-88296438D02*
X64064476Y-88296438D01*
X64064476Y-88296438D02*
X63988285Y-88258342D01*
X63988285Y-88258342D02*
X63950190Y-88220247D01*
X63950190Y-88220247D02*
X63912095Y-88144057D01*
X63912095Y-88144057D02*
X63912095Y-87953580D01*
X63912095Y-87953580D02*
X63950190Y-87839295D01*
X63912095Y-87572628D02*
X64712095Y-87382152D01*
X64712095Y-87382152D02*
X64140666Y-87229771D01*
X64140666Y-87229771D02*
X64712095Y-87077390D01*
X64712095Y-87077390D02*
X63912095Y-86886914D01*
X64712095Y-86582151D02*
X63912095Y-86582151D01*
X63912095Y-86582151D02*
X63912095Y-86391675D01*
X63912095Y-86391675D02*
X63950190Y-86277389D01*
X63950190Y-86277389D02*
X64026380Y-86201199D01*
X64026380Y-86201199D02*
X64102571Y-86163104D01*
X64102571Y-86163104D02*
X64254952Y-86125008D01*
X64254952Y-86125008D02*
X64369238Y-86125008D01*
X64369238Y-86125008D02*
X64521619Y-86163104D01*
X64521619Y-86163104D02*
X64597809Y-86201199D01*
X64597809Y-86201199D02*
X64674000Y-86277389D01*
X64674000Y-86277389D02*
X64712095Y-86391675D01*
X64712095Y-86391675D02*
X64712095Y-86582151D01*
X64712095Y-85782151D02*
X63912095Y-85782151D01*
X63912095Y-85248818D02*
X63912095Y-85096437D01*
X63912095Y-85096437D02*
X63950190Y-85020247D01*
X63950190Y-85020247D02*
X64026380Y-84944056D01*
X64026380Y-84944056D02*
X64178761Y-84905961D01*
X64178761Y-84905961D02*
X64445428Y-84905961D01*
X64445428Y-84905961D02*
X64597809Y-84944056D01*
X64597809Y-84944056D02*
X64674000Y-85020247D01*
X64674000Y-85020247D02*
X64712095Y-85096437D01*
X64712095Y-85096437D02*
X64712095Y-85248818D01*
X64712095Y-85248818D02*
X64674000Y-85325009D01*
X64674000Y-85325009D02*
X64597809Y-85401199D01*
X64597809Y-85401199D02*
X64445428Y-85439295D01*
X64445428Y-85439295D02*
X64178761Y-85439295D01*
X64178761Y-85439295D02*
X64026380Y-85401199D01*
X64026380Y-85401199D02*
X63950190Y-85325009D01*
X63950190Y-85325009D02*
X63912095Y-85248818D01*
X105531368Y-76841635D02*
X105504431Y-76760823D01*
X105504431Y-76760823D02*
X105423619Y-76680011D01*
X105423619Y-76680011D02*
X105315869Y-76626136D01*
X105315869Y-76626136D02*
X105208119Y-76626136D01*
X105208119Y-76626136D02*
X105127307Y-76653073D01*
X105127307Y-76653073D02*
X104992620Y-76733885D01*
X104992620Y-76733885D02*
X104911808Y-76814698D01*
X104911808Y-76814698D02*
X104830996Y-76949385D01*
X104830996Y-76949385D02*
X104804058Y-77030197D01*
X104804058Y-77030197D02*
X104804058Y-77137946D01*
X104804058Y-77137946D02*
X104857933Y-77245696D01*
X104857933Y-77245696D02*
X104911808Y-77299571D01*
X104911808Y-77299571D02*
X105019558Y-77353446D01*
X105019558Y-77353446D02*
X105073432Y-77353446D01*
X105073432Y-77353446D02*
X105261994Y-77164884D01*
X105261994Y-77164884D02*
X105154245Y-77057134D01*
X105261994Y-77649757D02*
X105827680Y-77084072D01*
X105827680Y-77084072D02*
X105585243Y-77973006D01*
X105585243Y-77973006D02*
X106150928Y-77407320D01*
X105854617Y-78242380D02*
X106420302Y-77676694D01*
X106420302Y-77676694D02*
X106554989Y-77811381D01*
X106554989Y-77811381D02*
X106608864Y-77919131D01*
X106608864Y-77919131D02*
X106608864Y-78026880D01*
X106608864Y-78026880D02*
X106581927Y-78107693D01*
X106581927Y-78107693D02*
X106501114Y-78242380D01*
X106501114Y-78242380D02*
X106420302Y-78323192D01*
X106420302Y-78323192D02*
X106285615Y-78404004D01*
X106285615Y-78404004D02*
X106204803Y-78430941D01*
X106204803Y-78430941D02*
X106097053Y-78430941D01*
X106097053Y-78430941D02*
X105989304Y-78377067D01*
X105989304Y-78377067D02*
X105854617Y-78242380D01*
X90318305Y-76868572D02*
X90291368Y-76787760D01*
X90291368Y-76787760D02*
X90210556Y-76706948D01*
X90210556Y-76706948D02*
X90102806Y-76653073D01*
X90102806Y-76653073D02*
X89995057Y-76653073D01*
X89995057Y-76653073D02*
X89914244Y-76680010D01*
X89914244Y-76680010D02*
X89779557Y-76760823D01*
X89779557Y-76760823D02*
X89698745Y-76841635D01*
X89698745Y-76841635D02*
X89617933Y-76976322D01*
X89617933Y-76976322D02*
X89590996Y-77057134D01*
X89590996Y-77057134D02*
X89590996Y-77164884D01*
X89590996Y-77164884D02*
X89644870Y-77272633D01*
X89644870Y-77272633D02*
X89698745Y-77326508D01*
X89698745Y-77326508D02*
X89806495Y-77380383D01*
X89806495Y-77380383D02*
X89860370Y-77380383D01*
X89860370Y-77380383D02*
X90048931Y-77191821D01*
X90048931Y-77191821D02*
X89941182Y-77084071D01*
X90048931Y-77676694D02*
X90614617Y-77111009D01*
X90614617Y-77111009D02*
X90830116Y-77326508D01*
X90830116Y-77326508D02*
X90857053Y-77407320D01*
X90857053Y-77407320D02*
X90857053Y-77461195D01*
X90857053Y-77461195D02*
X90830116Y-77542007D01*
X90830116Y-77542007D02*
X90749304Y-77622819D01*
X90749304Y-77622819D02*
X90668492Y-77649757D01*
X90668492Y-77649757D02*
X90614617Y-77649757D01*
X90614617Y-77649757D02*
X90533805Y-77622819D01*
X90533805Y-77622819D02*
X90318305Y-77407320D01*
X91422739Y-77919131D02*
X91314989Y-77811381D01*
X91314989Y-77811381D02*
X91234177Y-77784444D01*
X91234177Y-77784444D02*
X91180302Y-77784444D01*
X91180302Y-77784444D02*
X91045615Y-77811381D01*
X91045615Y-77811381D02*
X90910928Y-77892193D01*
X90910928Y-77892193D02*
X90695429Y-78107693D01*
X90695429Y-78107693D02*
X90668492Y-78188505D01*
X90668492Y-78188505D02*
X90668492Y-78242380D01*
X90668492Y-78242380D02*
X90695429Y-78323192D01*
X90695429Y-78323192D02*
X90803179Y-78430941D01*
X90803179Y-78430941D02*
X90883991Y-78457879D01*
X90883991Y-78457879D02*
X90937866Y-78457879D01*
X90937866Y-78457879D02*
X91018678Y-78430941D01*
X91018678Y-78430941D02*
X91153365Y-78296254D01*
X91153365Y-78296254D02*
X91180302Y-78215442D01*
X91180302Y-78215442D02*
X91180302Y-78161567D01*
X91180302Y-78161567D02*
X91153365Y-78080755D01*
X91153365Y-78080755D02*
X91045615Y-77973006D01*
X91045615Y-77973006D02*
X90964803Y-77946068D01*
X90964803Y-77946068D02*
X90910928Y-77946068D01*
X90910928Y-77946068D02*
X90830116Y-77973006D01*
X74658931Y-89345198D02*
X74631994Y-89264385D01*
X74631994Y-89264385D02*
X74551181Y-89183573D01*
X74551181Y-89183573D02*
X74443432Y-89129698D01*
X74443432Y-89129698D02*
X74335682Y-89129698D01*
X74335682Y-89129698D02*
X74254870Y-89156636D01*
X74254870Y-89156636D02*
X74120183Y-89237448D01*
X74120183Y-89237448D02*
X74039371Y-89318260D01*
X74039371Y-89318260D02*
X73958558Y-89452947D01*
X73958558Y-89452947D02*
X73931621Y-89533760D01*
X73931621Y-89533760D02*
X73931621Y-89641509D01*
X73931621Y-89641509D02*
X73985496Y-89749259D01*
X73985496Y-89749259D02*
X74039371Y-89803134D01*
X74039371Y-89803134D02*
X74147120Y-89857008D01*
X74147120Y-89857008D02*
X74200995Y-89857008D01*
X74200995Y-89857008D02*
X74389557Y-89668447D01*
X74389557Y-89668447D02*
X74281807Y-89560697D01*
X74389557Y-90153320D02*
X74955242Y-89587634D01*
X74955242Y-89587634D02*
X75170742Y-89803134D01*
X75170742Y-89803134D02*
X75197679Y-89883946D01*
X75197679Y-89883946D02*
X75197679Y-89937821D01*
X75197679Y-89937821D02*
X75170742Y-90018633D01*
X75170742Y-90018633D02*
X75089929Y-90099445D01*
X75089929Y-90099445D02*
X75009117Y-90126382D01*
X75009117Y-90126382D02*
X74955242Y-90126382D01*
X74955242Y-90126382D02*
X74874430Y-90099445D01*
X74874430Y-90099445D02*
X74658931Y-89883946D01*
X75440116Y-90180257D02*
X75493990Y-90180257D01*
X75493990Y-90180257D02*
X75574803Y-90207195D01*
X75574803Y-90207195D02*
X75709490Y-90341882D01*
X75709490Y-90341882D02*
X75736427Y-90422694D01*
X75736427Y-90422694D02*
X75736427Y-90476569D01*
X75736427Y-90476569D02*
X75709490Y-90557381D01*
X75709490Y-90557381D02*
X75655615Y-90611256D01*
X75655615Y-90611256D02*
X75547865Y-90665130D01*
X75547865Y-90665130D02*
X74901368Y-90665130D01*
X74901368Y-90665130D02*
X75251554Y-91015317D01*
X76167426Y-90799818D02*
X76221300Y-90853692D01*
X76221300Y-90853692D02*
X76248238Y-90934505D01*
X76248238Y-90934505D02*
X76248238Y-90988379D01*
X76248238Y-90988379D02*
X76221300Y-91069192D01*
X76221300Y-91069192D02*
X76140488Y-91203879D01*
X76140488Y-91203879D02*
X76005801Y-91338566D01*
X76005801Y-91338566D02*
X75871114Y-91419378D01*
X75871114Y-91419378D02*
X75790302Y-91446315D01*
X75790302Y-91446315D02*
X75736427Y-91446315D01*
X75736427Y-91446315D02*
X75655615Y-91419378D01*
X75655615Y-91419378D02*
X75601740Y-91365503D01*
X75601740Y-91365503D02*
X75574803Y-91284691D01*
X75574803Y-91284691D02*
X75574803Y-91230816D01*
X75574803Y-91230816D02*
X75601740Y-91150004D01*
X75601740Y-91150004D02*
X75682552Y-91015317D01*
X75682552Y-91015317D02*
X75817239Y-90880630D01*
X75817239Y-90880630D02*
X75951926Y-90799818D01*
X75951926Y-90799818D02*
X76032739Y-90772880D01*
X76032739Y-90772880D02*
X76086613Y-90772880D01*
X76086613Y-90772880D02*
X76167426Y-90799818D01*
X91738559Y-89399073D02*
X92007933Y-89668447D01*
X91523060Y-89506823D02*
X92277307Y-89129699D01*
X92277307Y-89129699D02*
X91900184Y-89883946D01*
X92923805Y-89830071D02*
X92896867Y-89749259D01*
X92896867Y-89749259D02*
X92816055Y-89668447D01*
X92816055Y-89668447D02*
X92708305Y-89614572D01*
X92708305Y-89614572D02*
X92600556Y-89614572D01*
X92600556Y-89614572D02*
X92519744Y-89641510D01*
X92519744Y-89641510D02*
X92385057Y-89722322D01*
X92385057Y-89722322D02*
X92304244Y-89803134D01*
X92304244Y-89803134D02*
X92223432Y-89937821D01*
X92223432Y-89937821D02*
X92196495Y-90018633D01*
X92196495Y-90018633D02*
X92196495Y-90126383D01*
X92196495Y-90126383D02*
X92250370Y-90234132D01*
X92250370Y-90234132D02*
X92304244Y-90288007D01*
X92304244Y-90288007D02*
X92411994Y-90341882D01*
X92411994Y-90341882D02*
X92465869Y-90341882D01*
X92465869Y-90341882D02*
X92654431Y-90153320D01*
X92654431Y-90153320D02*
X92546681Y-90045571D01*
X92654431Y-90638193D02*
X93220116Y-90072508D01*
X93220116Y-90072508D02*
X92977679Y-90961442D01*
X92977679Y-90961442D02*
X93543365Y-90395757D01*
X93247053Y-91230816D02*
X93812739Y-90665131D01*
X93812739Y-90665131D02*
X93947426Y-90799818D01*
X93947426Y-90799818D02*
X94001301Y-90907567D01*
X94001301Y-90907567D02*
X94001301Y-91015317D01*
X94001301Y-91015317D02*
X93974363Y-91096129D01*
X93974363Y-91096129D02*
X93893551Y-91230816D01*
X93893551Y-91230816D02*
X93812739Y-91311628D01*
X93812739Y-91311628D02*
X93678052Y-91392441D01*
X93678052Y-91392441D02*
X93597239Y-91419378D01*
X93597239Y-91419378D02*
X93489490Y-91419378D01*
X93489490Y-91419378D02*
X93381740Y-91365503D01*
X93381740Y-91365503D02*
X93247053Y-91230816D01*
X101491215Y-88073607D02*
X101841401Y-88423793D01*
X101841401Y-88423793D02*
X101437340Y-88450731D01*
X101437340Y-88450731D02*
X101518153Y-88531543D01*
X101518153Y-88531543D02*
X101545090Y-88612355D01*
X101545090Y-88612355D02*
X101545090Y-88666230D01*
X101545090Y-88666230D02*
X101518153Y-88747042D01*
X101518153Y-88747042D02*
X101383466Y-88881729D01*
X101383466Y-88881729D02*
X101302653Y-88908667D01*
X101302653Y-88908667D02*
X101248779Y-88908667D01*
X101248779Y-88908667D02*
X101167966Y-88881729D01*
X101167966Y-88881729D02*
X101006342Y-88720105D01*
X101006342Y-88720105D02*
X100979405Y-88639293D01*
X100979405Y-88639293D02*
X100979405Y-88585418D01*
X102003026Y-88585418D02*
X101625902Y-89339665D01*
X101625902Y-89339665D02*
X102380150Y-88962542D01*
X102514836Y-89097228D02*
X102865023Y-89447415D01*
X102865023Y-89447415D02*
X102460962Y-89474352D01*
X102460962Y-89474352D02*
X102541774Y-89555164D01*
X102541774Y-89555164D02*
X102568711Y-89635976D01*
X102568711Y-89635976D02*
X102568711Y-89689851D01*
X102568711Y-89689851D02*
X102541774Y-89770664D01*
X102541774Y-89770664D02*
X102407087Y-89905351D01*
X102407087Y-89905351D02*
X102326275Y-89932288D01*
X102326275Y-89932288D02*
X102272400Y-89932288D01*
X102272400Y-89932288D02*
X102191588Y-89905351D01*
X102191588Y-89905351D02*
X102029963Y-89743726D01*
X102029963Y-89743726D02*
X102003026Y-89662914D01*
X102003026Y-89662914D02*
X102003026Y-89609039D01*
X102353212Y-90174725D02*
X102784211Y-90605723D01*
X103269084Y-90390224D02*
X103457646Y-90578786D01*
X103242147Y-90955909D02*
X102972773Y-90686535D01*
X102972773Y-90686535D02*
X103538458Y-90120850D01*
X103538458Y-90120850D02*
X103807832Y-90390224D01*
X103484584Y-91198346D02*
X104050269Y-90632661D01*
X104050269Y-90632661D02*
X103807832Y-91521595D01*
X103807832Y-91521595D02*
X104373518Y-90955910D01*
X97709337Y-77717100D02*
X97790150Y-77259164D01*
X97386089Y-77393851D02*
X97951774Y-76828166D01*
X97951774Y-76828166D02*
X98167273Y-77043665D01*
X98167273Y-77043665D02*
X98194211Y-77124477D01*
X98194211Y-77124477D02*
X98194211Y-77178352D01*
X98194211Y-77178352D02*
X98167273Y-77259164D01*
X98167273Y-77259164D02*
X98086461Y-77339977D01*
X98086461Y-77339977D02*
X98005649Y-77366914D01*
X98005649Y-77366914D02*
X97951774Y-77366914D01*
X97951774Y-77366914D02*
X97870962Y-77339977D01*
X97870962Y-77339977D02*
X97655463Y-77124477D01*
X98463585Y-77339977D02*
X98275023Y-78282786D01*
X98840708Y-77717100D02*
X97897899Y-77905662D01*
X67281368Y-89333635D02*
X67254431Y-89252823D01*
X67254431Y-89252823D02*
X67173619Y-89172011D01*
X67173619Y-89172011D02*
X67065869Y-89118136D01*
X67065869Y-89118136D02*
X66958119Y-89118136D01*
X66958119Y-89118136D02*
X66877307Y-89145073D01*
X66877307Y-89145073D02*
X66742620Y-89225885D01*
X66742620Y-89225885D02*
X66661808Y-89306698D01*
X66661808Y-89306698D02*
X66580996Y-89441385D01*
X66580996Y-89441385D02*
X66554058Y-89522197D01*
X66554058Y-89522197D02*
X66554058Y-89629946D01*
X66554058Y-89629946D02*
X66607933Y-89737696D01*
X66607933Y-89737696D02*
X66661808Y-89791571D01*
X66661808Y-89791571D02*
X66769558Y-89845446D01*
X66769558Y-89845446D02*
X66823432Y-89845446D01*
X66823432Y-89845446D02*
X67011994Y-89656884D01*
X67011994Y-89656884D02*
X66904245Y-89549134D01*
X67011994Y-90141757D02*
X67577680Y-89576072D01*
X67577680Y-89576072D02*
X67335243Y-90465006D01*
X67335243Y-90465006D02*
X67900928Y-89899320D01*
X67604617Y-90734380D02*
X68170302Y-90168694D01*
X68170302Y-90168694D02*
X68304989Y-90303381D01*
X68304989Y-90303381D02*
X68358864Y-90411131D01*
X68358864Y-90411131D02*
X68358864Y-90518880D01*
X68358864Y-90518880D02*
X68331927Y-90599693D01*
X68331927Y-90599693D02*
X68251114Y-90734380D01*
X68251114Y-90734380D02*
X68170302Y-90815192D01*
X68170302Y-90815192D02*
X68035615Y-90896004D01*
X68035615Y-90896004D02*
X67954803Y-90922941D01*
X67954803Y-90922941D02*
X67847053Y-90922941D01*
X67847053Y-90922941D02*
X67739304Y-90869067D01*
X67739304Y-90869067D02*
X67604617Y-90734380D01*
X67431368Y-76841635D02*
X67404431Y-76760823D01*
X67404431Y-76760823D02*
X67323619Y-76680011D01*
X67323619Y-76680011D02*
X67215869Y-76626136D01*
X67215869Y-76626136D02*
X67108119Y-76626136D01*
X67108119Y-76626136D02*
X67027307Y-76653073D01*
X67027307Y-76653073D02*
X66892620Y-76733885D01*
X66892620Y-76733885D02*
X66811808Y-76814698D01*
X66811808Y-76814698D02*
X66730996Y-76949385D01*
X66730996Y-76949385D02*
X66704058Y-77030197D01*
X66704058Y-77030197D02*
X66704058Y-77137946D01*
X66704058Y-77137946D02*
X66757933Y-77245696D01*
X66757933Y-77245696D02*
X66811808Y-77299571D01*
X66811808Y-77299571D02*
X66919558Y-77353446D01*
X66919558Y-77353446D02*
X66973432Y-77353446D01*
X66973432Y-77353446D02*
X67161994Y-77164884D01*
X67161994Y-77164884D02*
X67054245Y-77057134D01*
X67161994Y-77649757D02*
X67727680Y-77084072D01*
X67727680Y-77084072D02*
X67485243Y-77973006D01*
X67485243Y-77973006D02*
X68050928Y-77407320D01*
X67754617Y-78242380D02*
X68320302Y-77676694D01*
X68320302Y-77676694D02*
X68454989Y-77811381D01*
X68454989Y-77811381D02*
X68508864Y-77919131D01*
X68508864Y-77919131D02*
X68508864Y-78026880D01*
X68508864Y-78026880D02*
X68481927Y-78107693D01*
X68481927Y-78107693D02*
X68401114Y-78242380D01*
X68401114Y-78242380D02*
X68320302Y-78323192D01*
X68320302Y-78323192D02*
X68185615Y-78404004D01*
X68185615Y-78404004D02*
X68104803Y-78430941D01*
X68104803Y-78430941D02*
X67997053Y-78430941D01*
X67997053Y-78430941D02*
X67889304Y-78377067D01*
X67889304Y-78377067D02*
X67754617Y-78242380D01*
X77188931Y-89345198D02*
X77161994Y-89264385D01*
X77161994Y-89264385D02*
X77081181Y-89183573D01*
X77081181Y-89183573D02*
X76973432Y-89129698D01*
X76973432Y-89129698D02*
X76865682Y-89129698D01*
X76865682Y-89129698D02*
X76784870Y-89156636D01*
X76784870Y-89156636D02*
X76650183Y-89237448D01*
X76650183Y-89237448D02*
X76569371Y-89318260D01*
X76569371Y-89318260D02*
X76488558Y-89452947D01*
X76488558Y-89452947D02*
X76461621Y-89533760D01*
X76461621Y-89533760D02*
X76461621Y-89641509D01*
X76461621Y-89641509D02*
X76515496Y-89749259D01*
X76515496Y-89749259D02*
X76569371Y-89803134D01*
X76569371Y-89803134D02*
X76677120Y-89857008D01*
X76677120Y-89857008D02*
X76730995Y-89857008D01*
X76730995Y-89857008D02*
X76919557Y-89668447D01*
X76919557Y-89668447D02*
X76811807Y-89560697D01*
X76919557Y-90153320D02*
X77485242Y-89587634D01*
X77485242Y-89587634D02*
X77700742Y-89803134D01*
X77700742Y-89803134D02*
X77727679Y-89883946D01*
X77727679Y-89883946D02*
X77727679Y-89937821D01*
X77727679Y-89937821D02*
X77700742Y-90018633D01*
X77700742Y-90018633D02*
X77619929Y-90099445D01*
X77619929Y-90099445D02*
X77539117Y-90126382D01*
X77539117Y-90126382D02*
X77485242Y-90126382D01*
X77485242Y-90126382D02*
X77404430Y-90099445D01*
X77404430Y-90099445D02*
X77188931Y-89883946D01*
X77970116Y-90180257D02*
X78023990Y-90180257D01*
X78023990Y-90180257D02*
X78104803Y-90207195D01*
X78104803Y-90207195D02*
X78239490Y-90341882D01*
X78239490Y-90341882D02*
X78266427Y-90422694D01*
X78266427Y-90422694D02*
X78266427Y-90476569D01*
X78266427Y-90476569D02*
X78239490Y-90557381D01*
X78239490Y-90557381D02*
X78185615Y-90611256D01*
X78185615Y-90611256D02*
X78077865Y-90665130D01*
X78077865Y-90665130D02*
X77431368Y-90665130D01*
X77431368Y-90665130D02*
X77781554Y-91015317D01*
X78320302Y-91554065D02*
X77997053Y-91230816D01*
X78158678Y-91392440D02*
X78724363Y-90826755D01*
X78724363Y-90826755D02*
X78589676Y-90853692D01*
X78589676Y-90853692D02*
X78481926Y-90853692D01*
X78481926Y-90853692D02*
X78401114Y-90826755D01*
X95475368Y-89587635D02*
X95448431Y-89506823D01*
X95448431Y-89506823D02*
X95367619Y-89426011D01*
X95367619Y-89426011D02*
X95259869Y-89372136D01*
X95259869Y-89372136D02*
X95152119Y-89372136D01*
X95152119Y-89372136D02*
X95071307Y-89399073D01*
X95071307Y-89399073D02*
X94936620Y-89479885D01*
X94936620Y-89479885D02*
X94855808Y-89560698D01*
X94855808Y-89560698D02*
X94774996Y-89695385D01*
X94774996Y-89695385D02*
X94748058Y-89776197D01*
X94748058Y-89776197D02*
X94748058Y-89883946D01*
X94748058Y-89883946D02*
X94801933Y-89991696D01*
X94801933Y-89991696D02*
X94855808Y-90045571D01*
X94855808Y-90045571D02*
X94963558Y-90099446D01*
X94963558Y-90099446D02*
X95017432Y-90099446D01*
X95017432Y-90099446D02*
X95205994Y-89910884D01*
X95205994Y-89910884D02*
X95098245Y-89803134D01*
X95205994Y-90395757D02*
X95771680Y-89830072D01*
X95771680Y-89830072D02*
X95529243Y-90719006D01*
X95529243Y-90719006D02*
X96094928Y-90153320D01*
X95798617Y-90988380D02*
X96364302Y-90422694D01*
X96364302Y-90422694D02*
X96498989Y-90557381D01*
X96498989Y-90557381D02*
X96552864Y-90665131D01*
X96552864Y-90665131D02*
X96552864Y-90772880D01*
X96552864Y-90772880D02*
X96525927Y-90853693D01*
X96525927Y-90853693D02*
X96445114Y-90988380D01*
X96445114Y-90988380D02*
X96364302Y-91069192D01*
X96364302Y-91069192D02*
X96229615Y-91150004D01*
X96229615Y-91150004D02*
X96148803Y-91176941D01*
X96148803Y-91176941D02*
X96041053Y-91176941D01*
X96041053Y-91176941D02*
X95933304Y-91123067D01*
X95933304Y-91123067D02*
X95798617Y-90988380D01*
X95065750Y-87356264D02*
X95335124Y-87625638D01*
X94850250Y-87464013D02*
X95604498Y-87086890D01*
X95604498Y-87086890D02*
X95227374Y-87841137D01*
X95415936Y-88029699D02*
X95981621Y-87464013D01*
X95981621Y-87464013D02*
X96116308Y-87598700D01*
X96116308Y-87598700D02*
X96170183Y-87706450D01*
X96170183Y-87706450D02*
X96170183Y-87814199D01*
X96170183Y-87814199D02*
X96143246Y-87895012D01*
X96143246Y-87895012D02*
X96062433Y-88029699D01*
X96062433Y-88029699D02*
X95981621Y-88110511D01*
X95981621Y-88110511D02*
X95846934Y-88191323D01*
X95846934Y-88191323D02*
X95766122Y-88218260D01*
X95766122Y-88218260D02*
X95658372Y-88218260D01*
X95658372Y-88218260D02*
X95550623Y-88164386D01*
X95550623Y-88164386D02*
X95415936Y-88029699D01*
X96358745Y-88864758D02*
X96304870Y-88864758D01*
X96304870Y-88864758D02*
X96197120Y-88810883D01*
X96197120Y-88810883D02*
X96143246Y-88757008D01*
X96143246Y-88757008D02*
X96089371Y-88649259D01*
X96089371Y-88649259D02*
X96089371Y-88541509D01*
X96089371Y-88541509D02*
X96116308Y-88460697D01*
X96116308Y-88460697D02*
X96197120Y-88326010D01*
X96197120Y-88326010D02*
X96277933Y-88245198D01*
X96277933Y-88245198D02*
X96412620Y-88164386D01*
X96412620Y-88164386D02*
X96493432Y-88137448D01*
X96493432Y-88137448D02*
X96601181Y-88137448D01*
X96601181Y-88137448D02*
X96708931Y-88191323D01*
X96708931Y-88191323D02*
X96762806Y-88245198D01*
X96762806Y-88245198D02*
X96816681Y-88352947D01*
X96816681Y-88352947D02*
X96816681Y-88406822D01*
X96358745Y-89080257D02*
X96789743Y-89511256D01*
X97463178Y-88945570D02*
X97086055Y-89699818D01*
X97086055Y-89699818D02*
X97840302Y-89322694D01*
X97786427Y-90400190D02*
X97867239Y-89942254D01*
X97463178Y-90076941D02*
X98028864Y-89511256D01*
X98028864Y-89511256D02*
X98244363Y-89726755D01*
X98244363Y-89726755D02*
X98271300Y-89807567D01*
X98271300Y-89807567D02*
X98271300Y-89861442D01*
X98271300Y-89861442D02*
X98244363Y-89942254D01*
X98244363Y-89942254D02*
X98163551Y-90023066D01*
X98163551Y-90023066D02*
X98082738Y-90050004D01*
X98082738Y-90050004D02*
X98028864Y-90050004D01*
X98028864Y-90050004D02*
X97948051Y-90023066D01*
X97948051Y-90023066D02*
X97732552Y-89807567D01*
X98325175Y-90346315D02*
X98513737Y-90534877D01*
X98298238Y-90912000D02*
X98028864Y-90642626D01*
X98028864Y-90642626D02*
X98594549Y-90076941D01*
X98594549Y-90076941D02*
X98863923Y-90346315D01*
X99025548Y-91046688D02*
X98836986Y-90858126D01*
X98540674Y-91154437D02*
X99106360Y-90588752D01*
X99106360Y-90588752D02*
X99375734Y-90858126D01*
X109952214Y-89200606D02*
X109575090Y-89954853D01*
X109575090Y-89954853D02*
X110329337Y-89577729D01*
X110437087Y-90224227D02*
X110490961Y-90331976D01*
X110490961Y-90331976D02*
X110490961Y-90385851D01*
X110490961Y-90385851D02*
X110464024Y-90466663D01*
X110464024Y-90466663D02*
X110383212Y-90547476D01*
X110383212Y-90547476D02*
X110302400Y-90574413D01*
X110302400Y-90574413D02*
X110248525Y-90574413D01*
X110248525Y-90574413D02*
X110167713Y-90547476D01*
X110167713Y-90547476D02*
X109952213Y-90331976D01*
X109952213Y-90331976D02*
X110517899Y-89766291D01*
X110517899Y-89766291D02*
X110706461Y-89954853D01*
X110706461Y-89954853D02*
X110733398Y-90035665D01*
X110733398Y-90035665D02*
X110733398Y-90089540D01*
X110733398Y-90089540D02*
X110706461Y-90170352D01*
X110706461Y-90170352D02*
X110652586Y-90224227D01*
X110652586Y-90224227D02*
X110571774Y-90251164D01*
X110571774Y-90251164D02*
X110517899Y-90251164D01*
X110517899Y-90251164D02*
X110437087Y-90224227D01*
X110437087Y-90224227D02*
X110248525Y-90035665D01*
X111083584Y-90331976D02*
X110625648Y-90789912D01*
X110625648Y-90789912D02*
X110598711Y-90870724D01*
X110598711Y-90870724D02*
X110598711Y-90924599D01*
X110598711Y-90924599D02*
X110625648Y-91005411D01*
X110625648Y-91005411D02*
X110733398Y-91113161D01*
X110733398Y-91113161D02*
X110814210Y-91140098D01*
X110814210Y-91140098D02*
X110868085Y-91140098D01*
X110868085Y-91140098D02*
X110948897Y-91113161D01*
X110948897Y-91113161D02*
X111406833Y-90655225D01*
X111110522Y-91436410D02*
X111164396Y-91544159D01*
X111164396Y-91544159D02*
X111299083Y-91678846D01*
X111299083Y-91678846D02*
X111379896Y-91705784D01*
X111379896Y-91705784D02*
X111433770Y-91705784D01*
X111433770Y-91705784D02*
X111514583Y-91678846D01*
X111514583Y-91678846D02*
X111568457Y-91624971D01*
X111568457Y-91624971D02*
X111595395Y-91544159D01*
X111595395Y-91544159D02*
X111595395Y-91490284D01*
X111595395Y-91490284D02*
X111568457Y-91409472D01*
X111568457Y-91409472D02*
X111487645Y-91274785D01*
X111487645Y-91274785D02*
X111460708Y-91193973D01*
X111460708Y-91193973D02*
X111460708Y-91140098D01*
X111460708Y-91140098D02*
X111487645Y-91059286D01*
X111487645Y-91059286D02*
X111541520Y-91005411D01*
X111541520Y-91005411D02*
X111622332Y-90978474D01*
X111622332Y-90978474D02*
X111676207Y-90978474D01*
X111676207Y-90978474D02*
X111757019Y-91005411D01*
X111757019Y-91005411D02*
X111891706Y-91140098D01*
X111891706Y-91140098D02*
X111945581Y-91247848D01*
X107327120Y-77011008D02*
X107380995Y-77118758D01*
X107380995Y-77118758D02*
X107515682Y-77253445D01*
X107515682Y-77253445D02*
X107596494Y-77280382D01*
X107596494Y-77280382D02*
X107650369Y-77280382D01*
X107650369Y-77280382D02*
X107731181Y-77253445D01*
X107731181Y-77253445D02*
X107785056Y-77199570D01*
X107785056Y-77199570D02*
X107811994Y-77118758D01*
X107811994Y-77118758D02*
X107811994Y-77064883D01*
X107811994Y-77064883D02*
X107785056Y-76984071D01*
X107785056Y-76984071D02*
X107704244Y-76849384D01*
X107704244Y-76849384D02*
X107677307Y-76768572D01*
X107677307Y-76768572D02*
X107677307Y-76714697D01*
X107677307Y-76714697D02*
X107704244Y-76633885D01*
X107704244Y-76633885D02*
X107758119Y-76580010D01*
X107758119Y-76580010D02*
X107838931Y-76553073D01*
X107838931Y-76553073D02*
X107892806Y-76553073D01*
X107892806Y-76553073D02*
X107973618Y-76580010D01*
X107973618Y-76580010D02*
X108108305Y-76714697D01*
X108108305Y-76714697D02*
X108162180Y-76822447D01*
X108242992Y-77873005D02*
X108189117Y-77873005D01*
X108189117Y-77873005D02*
X108081368Y-77819131D01*
X108081368Y-77819131D02*
X108027493Y-77765256D01*
X108027493Y-77765256D02*
X107973618Y-77657506D01*
X107973618Y-77657506D02*
X107973618Y-77549757D01*
X107973618Y-77549757D02*
X108000556Y-77468944D01*
X108000556Y-77468944D02*
X108081368Y-77334257D01*
X108081368Y-77334257D02*
X108162180Y-77253445D01*
X108162180Y-77253445D02*
X108296867Y-77172633D01*
X108296867Y-77172633D02*
X108377679Y-77145696D01*
X108377679Y-77145696D02*
X108485429Y-77145696D01*
X108485429Y-77145696D02*
X108593178Y-77199570D01*
X108593178Y-77199570D02*
X108647053Y-77253445D01*
X108647053Y-77253445D02*
X108700928Y-77361195D01*
X108700928Y-77361195D02*
X108700928Y-77415070D01*
X108700928Y-78438691D02*
X108431554Y-78169317D01*
X108431554Y-78169317D02*
X108997239Y-77603631D01*
X64574000Y-83910724D02*
X64612095Y-83796438D01*
X64612095Y-83796438D02*
X64612095Y-83605962D01*
X64612095Y-83605962D02*
X64574000Y-83529771D01*
X64574000Y-83529771D02*
X64535904Y-83491676D01*
X64535904Y-83491676D02*
X64459714Y-83453581D01*
X64459714Y-83453581D02*
X64383523Y-83453581D01*
X64383523Y-83453581D02*
X64307333Y-83491676D01*
X64307333Y-83491676D02*
X64269238Y-83529771D01*
X64269238Y-83529771D02*
X64231142Y-83605962D01*
X64231142Y-83605962D02*
X64193047Y-83758343D01*
X64193047Y-83758343D02*
X64154952Y-83834533D01*
X64154952Y-83834533D02*
X64116857Y-83872628D01*
X64116857Y-83872628D02*
X64040666Y-83910724D01*
X64040666Y-83910724D02*
X63964476Y-83910724D01*
X63964476Y-83910724D02*
X63888285Y-83872628D01*
X63888285Y-83872628D02*
X63850190Y-83834533D01*
X63850190Y-83834533D02*
X63812095Y-83758343D01*
X63812095Y-83758343D02*
X63812095Y-83567866D01*
X63812095Y-83567866D02*
X63850190Y-83453581D01*
X63812095Y-83186914D02*
X64612095Y-82996438D01*
X64612095Y-82996438D02*
X64040666Y-82844057D01*
X64040666Y-82844057D02*
X64612095Y-82691676D01*
X64612095Y-82691676D02*
X63812095Y-82501200D01*
X64535904Y-81739294D02*
X64574000Y-81777390D01*
X64574000Y-81777390D02*
X64612095Y-81891675D01*
X64612095Y-81891675D02*
X64612095Y-81967866D01*
X64612095Y-81967866D02*
X64574000Y-82082152D01*
X64574000Y-82082152D02*
X64497809Y-82158342D01*
X64497809Y-82158342D02*
X64421619Y-82196437D01*
X64421619Y-82196437D02*
X64269238Y-82234533D01*
X64269238Y-82234533D02*
X64154952Y-82234533D01*
X64154952Y-82234533D02*
X64002571Y-82196437D01*
X64002571Y-82196437D02*
X63926380Y-82158342D01*
X63926380Y-82158342D02*
X63850190Y-82082152D01*
X63850190Y-82082152D02*
X63812095Y-81967866D01*
X63812095Y-81967866D02*
X63812095Y-81891675D01*
X63812095Y-81891675D02*
X63850190Y-81777390D01*
X63850190Y-81777390D02*
X63888285Y-81739294D01*
X64612095Y-81015485D02*
X64612095Y-81396437D01*
X64612095Y-81396437D02*
X63812095Y-81396437D01*
X64612095Y-80748818D02*
X63812095Y-80748818D01*
X64612095Y-80291675D02*
X64154952Y-80634533D01*
X63812095Y-80291675D02*
X64269238Y-80748818D01*
X92254819Y-106216666D02*
X91778628Y-106549999D01*
X92254819Y-106788094D02*
X91254819Y-106788094D01*
X91254819Y-106788094D02*
X91254819Y-106407142D01*
X91254819Y-106407142D02*
X91302438Y-106311904D01*
X91302438Y-106311904D02*
X91350057Y-106264285D01*
X91350057Y-106264285D02*
X91445295Y-106216666D01*
X91445295Y-106216666D02*
X91588152Y-106216666D01*
X91588152Y-106216666D02*
X91683390Y-106264285D01*
X91683390Y-106264285D02*
X91731009Y-106311904D01*
X91731009Y-106311904D02*
X91778628Y-106407142D01*
X91778628Y-106407142D02*
X91778628Y-106788094D01*
X91254819Y-105883332D02*
X91254819Y-105216666D01*
X91254819Y-105216666D02*
X92254819Y-105645237D01*
X82133333Y-118392319D02*
X81800000Y-117916128D01*
X81561905Y-118392319D02*
X81561905Y-117392319D01*
X81561905Y-117392319D02*
X81942857Y-117392319D01*
X81942857Y-117392319D02*
X82038095Y-117439938D01*
X82038095Y-117439938D02*
X82085714Y-117487557D01*
X82085714Y-117487557D02*
X82133333Y-117582795D01*
X82133333Y-117582795D02*
X82133333Y-117725652D01*
X82133333Y-117725652D02*
X82085714Y-117820890D01*
X82085714Y-117820890D02*
X82038095Y-117868509D01*
X82038095Y-117868509D02*
X81942857Y-117916128D01*
X81942857Y-117916128D02*
X81561905Y-117916128D01*
X83085714Y-118392319D02*
X82514286Y-118392319D01*
X82800000Y-118392319D02*
X82800000Y-117392319D01*
X82800000Y-117392319D02*
X82704762Y-117535176D01*
X82704762Y-117535176D02*
X82609524Y-117630414D01*
X82609524Y-117630414D02*
X82514286Y-117678033D01*
X90459580Y-98916666D02*
X90507200Y-98964285D01*
X90507200Y-98964285D02*
X90554819Y-99107142D01*
X90554819Y-99107142D02*
X90554819Y-99202380D01*
X90554819Y-99202380D02*
X90507200Y-99345237D01*
X90507200Y-99345237D02*
X90411961Y-99440475D01*
X90411961Y-99440475D02*
X90316723Y-99488094D01*
X90316723Y-99488094D02*
X90126247Y-99535713D01*
X90126247Y-99535713D02*
X89983390Y-99535713D01*
X89983390Y-99535713D02*
X89792914Y-99488094D01*
X89792914Y-99488094D02*
X89697676Y-99440475D01*
X89697676Y-99440475D02*
X89602438Y-99345237D01*
X89602438Y-99345237D02*
X89554819Y-99202380D01*
X89554819Y-99202380D02*
X89554819Y-99107142D01*
X89554819Y-99107142D02*
X89602438Y-98964285D01*
X89602438Y-98964285D02*
X89650057Y-98916666D01*
X89554819Y-98583332D02*
X89554819Y-97916666D01*
X89554819Y-97916666D02*
X90554819Y-98345237D01*
X82983333Y-119904819D02*
X82650000Y-119428628D01*
X82411905Y-119904819D02*
X82411905Y-118904819D01*
X82411905Y-118904819D02*
X82792857Y-118904819D01*
X82792857Y-118904819D02*
X82888095Y-118952438D01*
X82888095Y-118952438D02*
X82935714Y-119000057D01*
X82935714Y-119000057D02*
X82983333Y-119095295D01*
X82983333Y-119095295D02*
X82983333Y-119238152D01*
X82983333Y-119238152D02*
X82935714Y-119333390D01*
X82935714Y-119333390D02*
X82888095Y-119381009D01*
X82888095Y-119381009D02*
X82792857Y-119428628D01*
X82792857Y-119428628D02*
X82411905Y-119428628D01*
X83316667Y-118904819D02*
X83935714Y-118904819D01*
X83935714Y-118904819D02*
X83602381Y-119285771D01*
X83602381Y-119285771D02*
X83745238Y-119285771D01*
X83745238Y-119285771D02*
X83840476Y-119333390D01*
X83840476Y-119333390D02*
X83888095Y-119381009D01*
X83888095Y-119381009D02*
X83935714Y-119476247D01*
X83935714Y-119476247D02*
X83935714Y-119714342D01*
X83935714Y-119714342D02*
X83888095Y-119809580D01*
X83888095Y-119809580D02*
X83840476Y-119857200D01*
X83840476Y-119857200D02*
X83745238Y-119904819D01*
X83745238Y-119904819D02*
X83459524Y-119904819D01*
X83459524Y-119904819D02*
X83364286Y-119857200D01*
X83364286Y-119857200D02*
X83316667Y-119809580D01*
X55516666Y-71124819D02*
X55516666Y-71839104D01*
X55516666Y-71839104D02*
X55469047Y-71981961D01*
X55469047Y-71981961D02*
X55373809Y-72077200D01*
X55373809Y-72077200D02*
X55230952Y-72124819D01*
X55230952Y-72124819D02*
X55135714Y-72124819D01*
X56516666Y-72124819D02*
X55945238Y-72124819D01*
X56230952Y-72124819D02*
X56230952Y-71124819D01*
X56230952Y-71124819D02*
X56135714Y-71267676D01*
X56135714Y-71267676D02*
X56040476Y-71362914D01*
X56040476Y-71362914D02*
X55945238Y-71410533D01*
X65384761Y-110904819D02*
X65051428Y-110428628D01*
X64813333Y-110904819D02*
X64813333Y-109904819D01*
X64813333Y-109904819D02*
X65194285Y-109904819D01*
X65194285Y-109904819D02*
X65289523Y-109952438D01*
X65289523Y-109952438D02*
X65337142Y-110000057D01*
X65337142Y-110000057D02*
X65384761Y-110095295D01*
X65384761Y-110095295D02*
X65384761Y-110238152D01*
X65384761Y-110238152D02*
X65337142Y-110333390D01*
X65337142Y-110333390D02*
X65289523Y-110381009D01*
X65289523Y-110381009D02*
X65194285Y-110428628D01*
X65194285Y-110428628D02*
X64813333Y-110428628D01*
X65670476Y-109904819D02*
X66003809Y-110904819D01*
X66003809Y-110904819D02*
X66337142Y-109904819D01*
X67194285Y-110904819D02*
X66622857Y-110904819D01*
X66908571Y-110904819D02*
X66908571Y-109904819D01*
X66908571Y-109904819D02*
X66813333Y-110047676D01*
X66813333Y-110047676D02*
X66718095Y-110142914D01*
X66718095Y-110142914D02*
X66622857Y-110190533D01*
X72307142Y-113242319D02*
X71973809Y-112766128D01*
X71735714Y-113242319D02*
X71735714Y-112242319D01*
X71735714Y-112242319D02*
X72116666Y-112242319D01*
X72116666Y-112242319D02*
X72211904Y-112289938D01*
X72211904Y-112289938D02*
X72259523Y-112337557D01*
X72259523Y-112337557D02*
X72307142Y-112432795D01*
X72307142Y-112432795D02*
X72307142Y-112575652D01*
X72307142Y-112575652D02*
X72259523Y-112670890D01*
X72259523Y-112670890D02*
X72211904Y-112718509D01*
X72211904Y-112718509D02*
X72116666Y-112766128D01*
X72116666Y-112766128D02*
X71735714Y-112766128D01*
X73259523Y-113242319D02*
X72688095Y-113242319D01*
X72973809Y-113242319D02*
X72973809Y-112242319D01*
X72973809Y-112242319D02*
X72878571Y-112385176D01*
X72878571Y-112385176D02*
X72783333Y-112480414D01*
X72783333Y-112480414D02*
X72688095Y-112528033D01*
X73878571Y-112242319D02*
X73973809Y-112242319D01*
X73973809Y-112242319D02*
X74069047Y-112289938D01*
X74069047Y-112289938D02*
X74116666Y-112337557D01*
X74116666Y-112337557D02*
X74164285Y-112432795D01*
X74164285Y-112432795D02*
X74211904Y-112623271D01*
X74211904Y-112623271D02*
X74211904Y-112861366D01*
X74211904Y-112861366D02*
X74164285Y-113051842D01*
X74164285Y-113051842D02*
X74116666Y-113147080D01*
X74116666Y-113147080D02*
X74069047Y-113194700D01*
X74069047Y-113194700D02*
X73973809Y-113242319D01*
X73973809Y-113242319D02*
X73878571Y-113242319D01*
X73878571Y-113242319D02*
X73783333Y-113194700D01*
X73783333Y-113194700D02*
X73735714Y-113147080D01*
X73735714Y-113147080D02*
X73688095Y-113051842D01*
X73688095Y-113051842D02*
X73640476Y-112861366D01*
X73640476Y-112861366D02*
X73640476Y-112623271D01*
X73640476Y-112623271D02*
X73688095Y-112432795D01*
X73688095Y-112432795D02*
X73735714Y-112337557D01*
X73735714Y-112337557D02*
X73783333Y-112289938D01*
X73783333Y-112289938D02*
X73878571Y-112242319D01*
X77733333Y-109447080D02*
X77685714Y-109494700D01*
X77685714Y-109494700D02*
X77542857Y-109542319D01*
X77542857Y-109542319D02*
X77447619Y-109542319D01*
X77447619Y-109542319D02*
X77304762Y-109494700D01*
X77304762Y-109494700D02*
X77209524Y-109399461D01*
X77209524Y-109399461D02*
X77161905Y-109304223D01*
X77161905Y-109304223D02*
X77114286Y-109113747D01*
X77114286Y-109113747D02*
X77114286Y-108970890D01*
X77114286Y-108970890D02*
X77161905Y-108780414D01*
X77161905Y-108780414D02*
X77209524Y-108685176D01*
X77209524Y-108685176D02*
X77304762Y-108589938D01*
X77304762Y-108589938D02*
X77447619Y-108542319D01*
X77447619Y-108542319D02*
X77542857Y-108542319D01*
X77542857Y-108542319D02*
X77685714Y-108589938D01*
X77685714Y-108589938D02*
X77733333Y-108637557D01*
X78066667Y-108542319D02*
X78685714Y-108542319D01*
X78685714Y-108542319D02*
X78352381Y-108923271D01*
X78352381Y-108923271D02*
X78495238Y-108923271D01*
X78495238Y-108923271D02*
X78590476Y-108970890D01*
X78590476Y-108970890D02*
X78638095Y-109018509D01*
X78638095Y-109018509D02*
X78685714Y-109113747D01*
X78685714Y-109113747D02*
X78685714Y-109351842D01*
X78685714Y-109351842D02*
X78638095Y-109447080D01*
X78638095Y-109447080D02*
X78590476Y-109494700D01*
X78590476Y-109494700D02*
X78495238Y-109542319D01*
X78495238Y-109542319D02*
X78209524Y-109542319D01*
X78209524Y-109542319D02*
X78114286Y-109494700D01*
X78114286Y-109494700D02*
X78066667Y-109447080D01*
X123609580Y-73692857D02*
X123657200Y-73740476D01*
X123657200Y-73740476D02*
X123704819Y-73883333D01*
X123704819Y-73883333D02*
X123704819Y-73978571D01*
X123704819Y-73978571D02*
X123657200Y-74121428D01*
X123657200Y-74121428D02*
X123561961Y-74216666D01*
X123561961Y-74216666D02*
X123466723Y-74264285D01*
X123466723Y-74264285D02*
X123276247Y-74311904D01*
X123276247Y-74311904D02*
X123133390Y-74311904D01*
X123133390Y-74311904D02*
X122942914Y-74264285D01*
X122942914Y-74264285D02*
X122847676Y-74216666D01*
X122847676Y-74216666D02*
X122752438Y-74121428D01*
X122752438Y-74121428D02*
X122704819Y-73978571D01*
X122704819Y-73978571D02*
X122704819Y-73883333D01*
X122704819Y-73883333D02*
X122752438Y-73740476D01*
X122752438Y-73740476D02*
X122800057Y-73692857D01*
X123704819Y-72740476D02*
X123704819Y-73311904D01*
X123704819Y-73026190D02*
X122704819Y-73026190D01*
X122704819Y-73026190D02*
X122847676Y-73121428D01*
X122847676Y-73121428D02*
X122942914Y-73216666D01*
X122942914Y-73216666D02*
X122990533Y-73311904D01*
X122704819Y-72121428D02*
X122704819Y-72026190D01*
X122704819Y-72026190D02*
X122752438Y-71930952D01*
X122752438Y-71930952D02*
X122800057Y-71883333D01*
X122800057Y-71883333D02*
X122895295Y-71835714D01*
X122895295Y-71835714D02*
X123085771Y-71788095D01*
X123085771Y-71788095D02*
X123323866Y-71788095D01*
X123323866Y-71788095D02*
X123514342Y-71835714D01*
X123514342Y-71835714D02*
X123609580Y-71883333D01*
X123609580Y-71883333D02*
X123657200Y-71930952D01*
X123657200Y-71930952D02*
X123704819Y-72026190D01*
X123704819Y-72026190D02*
X123704819Y-72121428D01*
X123704819Y-72121428D02*
X123657200Y-72216666D01*
X123657200Y-72216666D02*
X123609580Y-72264285D01*
X123609580Y-72264285D02*
X123514342Y-72311904D01*
X123514342Y-72311904D02*
X123323866Y-72359523D01*
X123323866Y-72359523D02*
X123085771Y-72359523D01*
X123085771Y-72359523D02*
X122895295Y-72311904D01*
X122895295Y-72311904D02*
X122800057Y-72264285D01*
X122800057Y-72264285D02*
X122752438Y-72216666D01*
X122752438Y-72216666D02*
X122704819Y-72121428D01*
X82259580Y-106992857D02*
X82307200Y-107040476D01*
X82307200Y-107040476D02*
X82354819Y-107183333D01*
X82354819Y-107183333D02*
X82354819Y-107278571D01*
X82354819Y-107278571D02*
X82307200Y-107421428D01*
X82307200Y-107421428D02*
X82211961Y-107516666D01*
X82211961Y-107516666D02*
X82116723Y-107564285D01*
X82116723Y-107564285D02*
X81926247Y-107611904D01*
X81926247Y-107611904D02*
X81783390Y-107611904D01*
X81783390Y-107611904D02*
X81592914Y-107564285D01*
X81592914Y-107564285D02*
X81497676Y-107516666D01*
X81497676Y-107516666D02*
X81402438Y-107421428D01*
X81402438Y-107421428D02*
X81354819Y-107278571D01*
X81354819Y-107278571D02*
X81354819Y-107183333D01*
X81354819Y-107183333D02*
X81402438Y-107040476D01*
X81402438Y-107040476D02*
X81450057Y-106992857D01*
X82354819Y-106040476D02*
X82354819Y-106611904D01*
X82354819Y-106326190D02*
X81354819Y-106326190D01*
X81354819Y-106326190D02*
X81497676Y-106421428D01*
X81497676Y-106421428D02*
X81592914Y-106516666D01*
X81592914Y-106516666D02*
X81640533Y-106611904D01*
X82354819Y-105088095D02*
X82354819Y-105659523D01*
X82354819Y-105373809D02*
X81354819Y-105373809D01*
X81354819Y-105373809D02*
X81497676Y-105469047D01*
X81497676Y-105469047D02*
X81592914Y-105564285D01*
X81592914Y-105564285D02*
X81640533Y-105659523D01*
X88954819Y-97116666D02*
X88478628Y-97449999D01*
X88954819Y-97688094D02*
X87954819Y-97688094D01*
X87954819Y-97688094D02*
X87954819Y-97307142D01*
X87954819Y-97307142D02*
X88002438Y-97211904D01*
X88002438Y-97211904D02*
X88050057Y-97164285D01*
X88050057Y-97164285D02*
X88145295Y-97116666D01*
X88145295Y-97116666D02*
X88288152Y-97116666D01*
X88288152Y-97116666D02*
X88383390Y-97164285D01*
X88383390Y-97164285D02*
X88431009Y-97211904D01*
X88431009Y-97211904D02*
X88478628Y-97307142D01*
X88478628Y-97307142D02*
X88478628Y-97688094D01*
X87954819Y-96259523D02*
X87954819Y-96449999D01*
X87954819Y-96449999D02*
X88002438Y-96545237D01*
X88002438Y-96545237D02*
X88050057Y-96592856D01*
X88050057Y-96592856D02*
X88192914Y-96688094D01*
X88192914Y-96688094D02*
X88383390Y-96735713D01*
X88383390Y-96735713D02*
X88764342Y-96735713D01*
X88764342Y-96735713D02*
X88859580Y-96688094D01*
X88859580Y-96688094D02*
X88907200Y-96640475D01*
X88907200Y-96640475D02*
X88954819Y-96545237D01*
X88954819Y-96545237D02*
X88954819Y-96354761D01*
X88954819Y-96354761D02*
X88907200Y-96259523D01*
X88907200Y-96259523D02*
X88859580Y-96211904D01*
X88859580Y-96211904D02*
X88764342Y-96164285D01*
X88764342Y-96164285D02*
X88526247Y-96164285D01*
X88526247Y-96164285D02*
X88431009Y-96211904D01*
X88431009Y-96211904D02*
X88383390Y-96259523D01*
X88383390Y-96259523D02*
X88335771Y-96354761D01*
X88335771Y-96354761D02*
X88335771Y-96545237D01*
X88335771Y-96545237D02*
X88383390Y-96640475D01*
X88383390Y-96640475D02*
X88431009Y-96688094D01*
X88431009Y-96688094D02*
X88526247Y-96735713D01*
X86154819Y-115725594D02*
X85154819Y-115725594D01*
X85154819Y-115725594D02*
X85154819Y-115487499D01*
X85154819Y-115487499D02*
X85202438Y-115344642D01*
X85202438Y-115344642D02*
X85297676Y-115249404D01*
X85297676Y-115249404D02*
X85392914Y-115201785D01*
X85392914Y-115201785D02*
X85583390Y-115154166D01*
X85583390Y-115154166D02*
X85726247Y-115154166D01*
X85726247Y-115154166D02*
X85916723Y-115201785D01*
X85916723Y-115201785D02*
X86011961Y-115249404D01*
X86011961Y-115249404D02*
X86107200Y-115344642D01*
X86107200Y-115344642D02*
X86154819Y-115487499D01*
X86154819Y-115487499D02*
X86154819Y-115725594D01*
X86154819Y-114201785D02*
X86154819Y-114773213D01*
X86154819Y-114487499D02*
X85154819Y-114487499D01*
X85154819Y-114487499D02*
X85297676Y-114582737D01*
X85297676Y-114582737D02*
X85392914Y-114677975D01*
X85392914Y-114677975D02*
X85440533Y-114773213D01*
X75016666Y-138654819D02*
X75016666Y-139369104D01*
X75016666Y-139369104D02*
X74969047Y-139511961D01*
X74969047Y-139511961D02*
X74873809Y-139607200D01*
X74873809Y-139607200D02*
X74730952Y-139654819D01*
X74730952Y-139654819D02*
X74635714Y-139654819D01*
X75921428Y-138988152D02*
X75921428Y-139654819D01*
X75683333Y-138607200D02*
X75445238Y-139321485D01*
X75445238Y-139321485D02*
X76064285Y-139321485D01*
X125604819Y-73716666D02*
X125604819Y-74192856D01*
X125604819Y-74192856D02*
X124604819Y-74192856D01*
X125604819Y-72859523D02*
X125604819Y-73430951D01*
X125604819Y-73145237D02*
X124604819Y-73145237D01*
X124604819Y-73145237D02*
X124747676Y-73240475D01*
X124747676Y-73240475D02*
X124842914Y-73335713D01*
X124842914Y-73335713D02*
X124890533Y-73430951D01*
X69839580Y-98966666D02*
X69887200Y-99014285D01*
X69887200Y-99014285D02*
X69934819Y-99157142D01*
X69934819Y-99157142D02*
X69934819Y-99252380D01*
X69934819Y-99252380D02*
X69887200Y-99395237D01*
X69887200Y-99395237D02*
X69791961Y-99490475D01*
X69791961Y-99490475D02*
X69696723Y-99538094D01*
X69696723Y-99538094D02*
X69506247Y-99585713D01*
X69506247Y-99585713D02*
X69363390Y-99585713D01*
X69363390Y-99585713D02*
X69172914Y-99538094D01*
X69172914Y-99538094D02*
X69077676Y-99490475D01*
X69077676Y-99490475D02*
X68982438Y-99395237D01*
X68982438Y-99395237D02*
X68934819Y-99252380D01*
X68934819Y-99252380D02*
X68934819Y-99157142D01*
X68934819Y-99157142D02*
X68982438Y-99014285D01*
X68982438Y-99014285D02*
X69030057Y-98966666D01*
X69934819Y-98014285D02*
X69934819Y-98585713D01*
X69934819Y-98299999D02*
X68934819Y-98299999D01*
X68934819Y-98299999D02*
X69077676Y-98395237D01*
X69077676Y-98395237D02*
X69172914Y-98490475D01*
X69172914Y-98490475D02*
X69220533Y-98585713D01*
X119024819Y-97842857D02*
X118548628Y-98176190D01*
X119024819Y-98414285D02*
X118024819Y-98414285D01*
X118024819Y-98414285D02*
X118024819Y-98033333D01*
X118024819Y-98033333D02*
X118072438Y-97938095D01*
X118072438Y-97938095D02*
X118120057Y-97890476D01*
X118120057Y-97890476D02*
X118215295Y-97842857D01*
X118215295Y-97842857D02*
X118358152Y-97842857D01*
X118358152Y-97842857D02*
X118453390Y-97890476D01*
X118453390Y-97890476D02*
X118501009Y-97938095D01*
X118501009Y-97938095D02*
X118548628Y-98033333D01*
X118548628Y-98033333D02*
X118548628Y-98414285D01*
X119024819Y-96890476D02*
X119024819Y-97461904D01*
X119024819Y-97176190D02*
X118024819Y-97176190D01*
X118024819Y-97176190D02*
X118167676Y-97271428D01*
X118167676Y-97271428D02*
X118262914Y-97366666D01*
X118262914Y-97366666D02*
X118310533Y-97461904D01*
X118024819Y-96557142D02*
X118024819Y-95890476D01*
X118024819Y-95890476D02*
X119024819Y-96319047D01*
X62889580Y-101566666D02*
X62937200Y-101614285D01*
X62937200Y-101614285D02*
X62984819Y-101757142D01*
X62984819Y-101757142D02*
X62984819Y-101852380D01*
X62984819Y-101852380D02*
X62937200Y-101995237D01*
X62937200Y-101995237D02*
X62841961Y-102090475D01*
X62841961Y-102090475D02*
X62746723Y-102138094D01*
X62746723Y-102138094D02*
X62556247Y-102185713D01*
X62556247Y-102185713D02*
X62413390Y-102185713D01*
X62413390Y-102185713D02*
X62222914Y-102138094D01*
X62222914Y-102138094D02*
X62127676Y-102090475D01*
X62127676Y-102090475D02*
X62032438Y-101995237D01*
X62032438Y-101995237D02*
X61984819Y-101852380D01*
X61984819Y-101852380D02*
X61984819Y-101757142D01*
X61984819Y-101757142D02*
X62032438Y-101614285D01*
X62032438Y-101614285D02*
X62080057Y-101566666D01*
X62318152Y-100709523D02*
X62984819Y-100709523D01*
X61937200Y-100947618D02*
X62651485Y-101185713D01*
X62651485Y-101185713D02*
X62651485Y-100566666D01*
X80454761Y-98350057D02*
X80359523Y-98302438D01*
X80359523Y-98302438D02*
X80264285Y-98207200D01*
X80264285Y-98207200D02*
X80121428Y-98064342D01*
X80121428Y-98064342D02*
X80026190Y-98016723D01*
X80026190Y-98016723D02*
X79930952Y-98016723D01*
X79978571Y-98254819D02*
X79883333Y-98207200D01*
X79883333Y-98207200D02*
X79788095Y-98111961D01*
X79788095Y-98111961D02*
X79740476Y-97921485D01*
X79740476Y-97921485D02*
X79740476Y-97588152D01*
X79740476Y-97588152D02*
X79788095Y-97397676D01*
X79788095Y-97397676D02*
X79883333Y-97302438D01*
X79883333Y-97302438D02*
X79978571Y-97254819D01*
X79978571Y-97254819D02*
X80169047Y-97254819D01*
X80169047Y-97254819D02*
X80264285Y-97302438D01*
X80264285Y-97302438D02*
X80359523Y-97397676D01*
X80359523Y-97397676D02*
X80407142Y-97588152D01*
X80407142Y-97588152D02*
X80407142Y-97921485D01*
X80407142Y-97921485D02*
X80359523Y-98111961D01*
X80359523Y-98111961D02*
X80264285Y-98207200D01*
X80264285Y-98207200D02*
X80169047Y-98254819D01*
X80169047Y-98254819D02*
X79978571Y-98254819D01*
X81359523Y-98254819D02*
X80788095Y-98254819D01*
X81073809Y-98254819D02*
X81073809Y-97254819D01*
X81073809Y-97254819D02*
X80978571Y-97397676D01*
X80978571Y-97397676D02*
X80883333Y-97492914D01*
X80883333Y-97492914D02*
X80788095Y-97540533D01*
X114607880Y-72154676D02*
X114607880Y-72672771D01*
X114607880Y-72672771D02*
X114638357Y-72733723D01*
X114638357Y-72733723D02*
X114668833Y-72764200D01*
X114668833Y-72764200D02*
X114729785Y-72794676D01*
X114729785Y-72794676D02*
X114851690Y-72794676D01*
X114851690Y-72794676D02*
X114912642Y-72764200D01*
X114912642Y-72764200D02*
X114943119Y-72733723D01*
X114943119Y-72733723D02*
X114973595Y-72672771D01*
X114973595Y-72672771D02*
X114973595Y-72154676D01*
X115552642Y-72154676D02*
X115430737Y-72154676D01*
X115430737Y-72154676D02*
X115369785Y-72185152D01*
X115369785Y-72185152D02*
X115339309Y-72215628D01*
X115339309Y-72215628D02*
X115278356Y-72307057D01*
X115278356Y-72307057D02*
X115247880Y-72428961D01*
X115247880Y-72428961D02*
X115247880Y-72672771D01*
X115247880Y-72672771D02*
X115278356Y-72733723D01*
X115278356Y-72733723D02*
X115308833Y-72764200D01*
X115308833Y-72764200D02*
X115369785Y-72794676D01*
X115369785Y-72794676D02*
X115491690Y-72794676D01*
X115491690Y-72794676D02*
X115552642Y-72764200D01*
X115552642Y-72764200D02*
X115583118Y-72733723D01*
X115583118Y-72733723D02*
X115613595Y-72672771D01*
X115613595Y-72672771D02*
X115613595Y-72520390D01*
X115613595Y-72520390D02*
X115583118Y-72459438D01*
X115583118Y-72459438D02*
X115552642Y-72428961D01*
X115552642Y-72428961D02*
X115491690Y-72398485D01*
X115491690Y-72398485D02*
X115369785Y-72398485D01*
X115369785Y-72398485D02*
X115308833Y-72428961D01*
X115308833Y-72428961D02*
X115278356Y-72459438D01*
X115278356Y-72459438D02*
X115247880Y-72520390D01*
X118504819Y-73616666D02*
X118028628Y-73949999D01*
X118504819Y-74188094D02*
X117504819Y-74188094D01*
X117504819Y-74188094D02*
X117504819Y-73807142D01*
X117504819Y-73807142D02*
X117552438Y-73711904D01*
X117552438Y-73711904D02*
X117600057Y-73664285D01*
X117600057Y-73664285D02*
X117695295Y-73616666D01*
X117695295Y-73616666D02*
X117838152Y-73616666D01*
X117838152Y-73616666D02*
X117933390Y-73664285D01*
X117933390Y-73664285D02*
X117981009Y-73711904D01*
X117981009Y-73711904D02*
X118028628Y-73807142D01*
X118028628Y-73807142D02*
X118028628Y-74188094D01*
X118504819Y-73140475D02*
X118504819Y-72949999D01*
X118504819Y-72949999D02*
X118457200Y-72854761D01*
X118457200Y-72854761D02*
X118409580Y-72807142D01*
X118409580Y-72807142D02*
X118266723Y-72711904D01*
X118266723Y-72711904D02*
X118076247Y-72664285D01*
X118076247Y-72664285D02*
X117695295Y-72664285D01*
X117695295Y-72664285D02*
X117600057Y-72711904D01*
X117600057Y-72711904D02*
X117552438Y-72759523D01*
X117552438Y-72759523D02*
X117504819Y-72854761D01*
X117504819Y-72854761D02*
X117504819Y-73045237D01*
X117504819Y-73045237D02*
X117552438Y-73140475D01*
X117552438Y-73140475D02*
X117600057Y-73188094D01*
X117600057Y-73188094D02*
X117695295Y-73235713D01*
X117695295Y-73235713D02*
X117933390Y-73235713D01*
X117933390Y-73235713D02*
X118028628Y-73188094D01*
X118028628Y-73188094D02*
X118076247Y-73140475D01*
X118076247Y-73140475D02*
X118123866Y-73045237D01*
X118123866Y-73045237D02*
X118123866Y-72854761D01*
X118123866Y-72854761D02*
X118076247Y-72759523D01*
X118076247Y-72759523D02*
X118028628Y-72711904D01*
X118028628Y-72711904D02*
X117933390Y-72664285D01*
X124957142Y-103884819D02*
X124623809Y-103408628D01*
X124385714Y-103884819D02*
X124385714Y-102884819D01*
X124385714Y-102884819D02*
X124766666Y-102884819D01*
X124766666Y-102884819D02*
X124861904Y-102932438D01*
X124861904Y-102932438D02*
X124909523Y-102980057D01*
X124909523Y-102980057D02*
X124957142Y-103075295D01*
X124957142Y-103075295D02*
X124957142Y-103218152D01*
X124957142Y-103218152D02*
X124909523Y-103313390D01*
X124909523Y-103313390D02*
X124861904Y-103361009D01*
X124861904Y-103361009D02*
X124766666Y-103408628D01*
X124766666Y-103408628D02*
X124385714Y-103408628D01*
X125909523Y-103884819D02*
X125338095Y-103884819D01*
X125623809Y-103884819D02*
X125623809Y-102884819D01*
X125623809Y-102884819D02*
X125528571Y-103027676D01*
X125528571Y-103027676D02*
X125433333Y-103122914D01*
X125433333Y-103122914D02*
X125338095Y-103170533D01*
X126814285Y-102884819D02*
X126338095Y-102884819D01*
X126338095Y-102884819D02*
X126290476Y-103361009D01*
X126290476Y-103361009D02*
X126338095Y-103313390D01*
X126338095Y-103313390D02*
X126433333Y-103265771D01*
X126433333Y-103265771D02*
X126671428Y-103265771D01*
X126671428Y-103265771D02*
X126766666Y-103313390D01*
X126766666Y-103313390D02*
X126814285Y-103361009D01*
X126814285Y-103361009D02*
X126861904Y-103456247D01*
X126861904Y-103456247D02*
X126861904Y-103694342D01*
X126861904Y-103694342D02*
X126814285Y-103789580D01*
X126814285Y-103789580D02*
X126766666Y-103837200D01*
X126766666Y-103837200D02*
X126671428Y-103884819D01*
X126671428Y-103884819D02*
X126433333Y-103884819D01*
X126433333Y-103884819D02*
X126338095Y-103837200D01*
X126338095Y-103837200D02*
X126290476Y-103789580D01*
X119633333Y-101659580D02*
X119585714Y-101707200D01*
X119585714Y-101707200D02*
X119442857Y-101754819D01*
X119442857Y-101754819D02*
X119347619Y-101754819D01*
X119347619Y-101754819D02*
X119204762Y-101707200D01*
X119204762Y-101707200D02*
X119109524Y-101611961D01*
X119109524Y-101611961D02*
X119061905Y-101516723D01*
X119061905Y-101516723D02*
X119014286Y-101326247D01*
X119014286Y-101326247D02*
X119014286Y-101183390D01*
X119014286Y-101183390D02*
X119061905Y-100992914D01*
X119061905Y-100992914D02*
X119109524Y-100897676D01*
X119109524Y-100897676D02*
X119204762Y-100802438D01*
X119204762Y-100802438D02*
X119347619Y-100754819D01*
X119347619Y-100754819D02*
X119442857Y-100754819D01*
X119442857Y-100754819D02*
X119585714Y-100802438D01*
X119585714Y-100802438D02*
X119633333Y-100850057D01*
X120490476Y-100754819D02*
X120300000Y-100754819D01*
X120300000Y-100754819D02*
X120204762Y-100802438D01*
X120204762Y-100802438D02*
X120157143Y-100850057D01*
X120157143Y-100850057D02*
X120061905Y-100992914D01*
X120061905Y-100992914D02*
X120014286Y-101183390D01*
X120014286Y-101183390D02*
X120014286Y-101564342D01*
X120014286Y-101564342D02*
X120061905Y-101659580D01*
X120061905Y-101659580D02*
X120109524Y-101707200D01*
X120109524Y-101707200D02*
X120204762Y-101754819D01*
X120204762Y-101754819D02*
X120395238Y-101754819D01*
X120395238Y-101754819D02*
X120490476Y-101707200D01*
X120490476Y-101707200D02*
X120538095Y-101659580D01*
X120538095Y-101659580D02*
X120585714Y-101564342D01*
X120585714Y-101564342D02*
X120585714Y-101326247D01*
X120585714Y-101326247D02*
X120538095Y-101231009D01*
X120538095Y-101231009D02*
X120490476Y-101183390D01*
X120490476Y-101183390D02*
X120395238Y-101135771D01*
X120395238Y-101135771D02*
X120204762Y-101135771D01*
X120204762Y-101135771D02*
X120109524Y-101183390D01*
X120109524Y-101183390D02*
X120061905Y-101231009D01*
X120061905Y-101231009D02*
X120014286Y-101326247D01*
X96209580Y-106292857D02*
X96257200Y-106340476D01*
X96257200Y-106340476D02*
X96304819Y-106483333D01*
X96304819Y-106483333D02*
X96304819Y-106578571D01*
X96304819Y-106578571D02*
X96257200Y-106721428D01*
X96257200Y-106721428D02*
X96161961Y-106816666D01*
X96161961Y-106816666D02*
X96066723Y-106864285D01*
X96066723Y-106864285D02*
X95876247Y-106911904D01*
X95876247Y-106911904D02*
X95733390Y-106911904D01*
X95733390Y-106911904D02*
X95542914Y-106864285D01*
X95542914Y-106864285D02*
X95447676Y-106816666D01*
X95447676Y-106816666D02*
X95352438Y-106721428D01*
X95352438Y-106721428D02*
X95304819Y-106578571D01*
X95304819Y-106578571D02*
X95304819Y-106483333D01*
X95304819Y-106483333D02*
X95352438Y-106340476D01*
X95352438Y-106340476D02*
X95400057Y-106292857D01*
X96304819Y-105340476D02*
X96304819Y-105911904D01*
X96304819Y-105626190D02*
X95304819Y-105626190D01*
X95304819Y-105626190D02*
X95447676Y-105721428D01*
X95447676Y-105721428D02*
X95542914Y-105816666D01*
X95542914Y-105816666D02*
X95590533Y-105911904D01*
X95400057Y-104959523D02*
X95352438Y-104911904D01*
X95352438Y-104911904D02*
X95304819Y-104816666D01*
X95304819Y-104816666D02*
X95304819Y-104578571D01*
X95304819Y-104578571D02*
X95352438Y-104483333D01*
X95352438Y-104483333D02*
X95400057Y-104435714D01*
X95400057Y-104435714D02*
X95495295Y-104388095D01*
X95495295Y-104388095D02*
X95590533Y-104388095D01*
X95590533Y-104388095D02*
X95733390Y-104435714D01*
X95733390Y-104435714D02*
X96304819Y-105007142D01*
X96304819Y-105007142D02*
X96304819Y-104388095D01*
X86583333Y-97704819D02*
X86250000Y-97228628D01*
X86011905Y-97704819D02*
X86011905Y-96704819D01*
X86011905Y-96704819D02*
X86392857Y-96704819D01*
X86392857Y-96704819D02*
X86488095Y-96752438D01*
X86488095Y-96752438D02*
X86535714Y-96800057D01*
X86535714Y-96800057D02*
X86583333Y-96895295D01*
X86583333Y-96895295D02*
X86583333Y-97038152D01*
X86583333Y-97038152D02*
X86535714Y-97133390D01*
X86535714Y-97133390D02*
X86488095Y-97181009D01*
X86488095Y-97181009D02*
X86392857Y-97228628D01*
X86392857Y-97228628D02*
X86011905Y-97228628D01*
X87154762Y-97133390D02*
X87059524Y-97085771D01*
X87059524Y-97085771D02*
X87011905Y-97038152D01*
X87011905Y-97038152D02*
X86964286Y-96942914D01*
X86964286Y-96942914D02*
X86964286Y-96895295D01*
X86964286Y-96895295D02*
X87011905Y-96800057D01*
X87011905Y-96800057D02*
X87059524Y-96752438D01*
X87059524Y-96752438D02*
X87154762Y-96704819D01*
X87154762Y-96704819D02*
X87345238Y-96704819D01*
X87345238Y-96704819D02*
X87440476Y-96752438D01*
X87440476Y-96752438D02*
X87488095Y-96800057D01*
X87488095Y-96800057D02*
X87535714Y-96895295D01*
X87535714Y-96895295D02*
X87535714Y-96942914D01*
X87535714Y-96942914D02*
X87488095Y-97038152D01*
X87488095Y-97038152D02*
X87440476Y-97085771D01*
X87440476Y-97085771D02*
X87345238Y-97133390D01*
X87345238Y-97133390D02*
X87154762Y-97133390D01*
X87154762Y-97133390D02*
X87059524Y-97181009D01*
X87059524Y-97181009D02*
X87011905Y-97228628D01*
X87011905Y-97228628D02*
X86964286Y-97323866D01*
X86964286Y-97323866D02*
X86964286Y-97514342D01*
X86964286Y-97514342D02*
X87011905Y-97609580D01*
X87011905Y-97609580D02*
X87059524Y-97657200D01*
X87059524Y-97657200D02*
X87154762Y-97704819D01*
X87154762Y-97704819D02*
X87345238Y-97704819D01*
X87345238Y-97704819D02*
X87440476Y-97657200D01*
X87440476Y-97657200D02*
X87488095Y-97609580D01*
X87488095Y-97609580D02*
X87535714Y-97514342D01*
X87535714Y-97514342D02*
X87535714Y-97323866D01*
X87535714Y-97323866D02*
X87488095Y-97228628D01*
X87488095Y-97228628D02*
X87440476Y-97181009D01*
X87440476Y-97181009D02*
X87345238Y-97133390D01*
X120457142Y-93604819D02*
X120123809Y-93128628D01*
X119885714Y-93604819D02*
X119885714Y-92604819D01*
X119885714Y-92604819D02*
X120266666Y-92604819D01*
X120266666Y-92604819D02*
X120361904Y-92652438D01*
X120361904Y-92652438D02*
X120409523Y-92700057D01*
X120409523Y-92700057D02*
X120457142Y-92795295D01*
X120457142Y-92795295D02*
X120457142Y-92938152D01*
X120457142Y-92938152D02*
X120409523Y-93033390D01*
X120409523Y-93033390D02*
X120361904Y-93081009D01*
X120361904Y-93081009D02*
X120266666Y-93128628D01*
X120266666Y-93128628D02*
X119885714Y-93128628D01*
X121409523Y-93604819D02*
X120838095Y-93604819D01*
X121123809Y-93604819D02*
X121123809Y-92604819D01*
X121123809Y-92604819D02*
X121028571Y-92747676D01*
X121028571Y-92747676D02*
X120933333Y-92842914D01*
X120933333Y-92842914D02*
X120838095Y-92890533D01*
X122266666Y-92938152D02*
X122266666Y-93604819D01*
X122028571Y-92557200D02*
X121790476Y-93271485D01*
X121790476Y-93271485D02*
X122409523Y-93271485D01*
X55516666Y-82324819D02*
X55516666Y-83039104D01*
X55516666Y-83039104D02*
X55469047Y-83181961D01*
X55469047Y-83181961D02*
X55373809Y-83277200D01*
X55373809Y-83277200D02*
X55230952Y-83324819D01*
X55230952Y-83324819D02*
X55135714Y-83324819D01*
X55945238Y-82420057D02*
X55992857Y-82372438D01*
X55992857Y-82372438D02*
X56088095Y-82324819D01*
X56088095Y-82324819D02*
X56326190Y-82324819D01*
X56326190Y-82324819D02*
X56421428Y-82372438D01*
X56421428Y-82372438D02*
X56469047Y-82420057D01*
X56469047Y-82420057D02*
X56516666Y-82515295D01*
X56516666Y-82515295D02*
X56516666Y-82610533D01*
X56516666Y-82610533D02*
X56469047Y-82753390D01*
X56469047Y-82753390D02*
X55897619Y-83324819D01*
X55897619Y-83324819D02*
X56516666Y-83324819D01*
X55516666Y-59924819D02*
X55516666Y-60639104D01*
X55516666Y-60639104D02*
X55469047Y-60781961D01*
X55469047Y-60781961D02*
X55373809Y-60877200D01*
X55373809Y-60877200D02*
X55230952Y-60924819D01*
X55230952Y-60924819D02*
X55135714Y-60924819D01*
X55897619Y-59924819D02*
X56516666Y-59924819D01*
X56516666Y-59924819D02*
X56183333Y-60305771D01*
X56183333Y-60305771D02*
X56326190Y-60305771D01*
X56326190Y-60305771D02*
X56421428Y-60353390D01*
X56421428Y-60353390D02*
X56469047Y-60401009D01*
X56469047Y-60401009D02*
X56516666Y-60496247D01*
X56516666Y-60496247D02*
X56516666Y-60734342D01*
X56516666Y-60734342D02*
X56469047Y-60829580D01*
X56469047Y-60829580D02*
X56421428Y-60877200D01*
X56421428Y-60877200D02*
X56326190Y-60924819D01*
X56326190Y-60924819D02*
X56040476Y-60924819D01*
X56040476Y-60924819D02*
X55945238Y-60877200D01*
X55945238Y-60877200D02*
X55897619Y-60829580D01*
D15*
X127124318Y-95439762D02*
X125854318Y-95439762D01*
X127003365Y-94109285D02*
X127063842Y-94169761D01*
X127063842Y-94169761D02*
X127124318Y-94351190D01*
X127124318Y-94351190D02*
X127124318Y-94472142D01*
X127124318Y-94472142D02*
X127063842Y-94653571D01*
X127063842Y-94653571D02*
X126942889Y-94774523D01*
X126942889Y-94774523D02*
X126821937Y-94835000D01*
X126821937Y-94835000D02*
X126580032Y-94895476D01*
X126580032Y-94895476D02*
X126398603Y-94895476D01*
X126398603Y-94895476D02*
X126156699Y-94835000D01*
X126156699Y-94835000D02*
X126035746Y-94774523D01*
X126035746Y-94774523D02*
X125914794Y-94653571D01*
X125914794Y-94653571D02*
X125854318Y-94472142D01*
X125854318Y-94472142D02*
X125854318Y-94351190D01*
X125854318Y-94351190D02*
X125914794Y-94169761D01*
X125914794Y-94169761D02*
X125975270Y-94109285D01*
X127124318Y-92899761D02*
X127124318Y-93625476D01*
X127124318Y-93262619D02*
X125854318Y-93262619D01*
X125854318Y-93262619D02*
X126035746Y-93383571D01*
X126035746Y-93383571D02*
X126156699Y-93504523D01*
X126156699Y-93504523D02*
X126217175Y-93625476D01*
D11*
X135854819Y-97616666D02*
X135854819Y-98092856D01*
X135854819Y-98092856D02*
X134854819Y-98092856D01*
X134950057Y-97330951D02*
X134902438Y-97283332D01*
X134902438Y-97283332D02*
X134854819Y-97188094D01*
X134854819Y-97188094D02*
X134854819Y-96949999D01*
X134854819Y-96949999D02*
X134902438Y-96854761D01*
X134902438Y-96854761D02*
X134950057Y-96807142D01*
X134950057Y-96807142D02*
X135045295Y-96759523D01*
X135045295Y-96759523D02*
X135140533Y-96759523D01*
X135140533Y-96759523D02*
X135283390Y-96807142D01*
X135283390Y-96807142D02*
X135854819Y-97378570D01*
X135854819Y-97378570D02*
X135854819Y-96759523D01*
X121657142Y-104934819D02*
X121323809Y-104458628D01*
X121085714Y-104934819D02*
X121085714Y-103934819D01*
X121085714Y-103934819D02*
X121466666Y-103934819D01*
X121466666Y-103934819D02*
X121561904Y-103982438D01*
X121561904Y-103982438D02*
X121609523Y-104030057D01*
X121609523Y-104030057D02*
X121657142Y-104125295D01*
X121657142Y-104125295D02*
X121657142Y-104268152D01*
X121657142Y-104268152D02*
X121609523Y-104363390D01*
X121609523Y-104363390D02*
X121561904Y-104411009D01*
X121561904Y-104411009D02*
X121466666Y-104458628D01*
X121466666Y-104458628D02*
X121085714Y-104458628D01*
X122609523Y-104934819D02*
X122038095Y-104934819D01*
X122323809Y-104934819D02*
X122323809Y-103934819D01*
X122323809Y-103934819D02*
X122228571Y-104077676D01*
X122228571Y-104077676D02*
X122133333Y-104172914D01*
X122133333Y-104172914D02*
X122038095Y-104220533D01*
X123466666Y-103934819D02*
X123276190Y-103934819D01*
X123276190Y-103934819D02*
X123180952Y-103982438D01*
X123180952Y-103982438D02*
X123133333Y-104030057D01*
X123133333Y-104030057D02*
X123038095Y-104172914D01*
X123038095Y-104172914D02*
X122990476Y-104363390D01*
X122990476Y-104363390D02*
X122990476Y-104744342D01*
X122990476Y-104744342D02*
X123038095Y-104839580D01*
X123038095Y-104839580D02*
X123085714Y-104887200D01*
X123085714Y-104887200D02*
X123180952Y-104934819D01*
X123180952Y-104934819D02*
X123371428Y-104934819D01*
X123371428Y-104934819D02*
X123466666Y-104887200D01*
X123466666Y-104887200D02*
X123514285Y-104839580D01*
X123514285Y-104839580D02*
X123561904Y-104744342D01*
X123561904Y-104744342D02*
X123561904Y-104506247D01*
X123561904Y-104506247D02*
X123514285Y-104411009D01*
X123514285Y-104411009D02*
X123466666Y-104363390D01*
X123466666Y-104363390D02*
X123371428Y-104315771D01*
X123371428Y-104315771D02*
X123180952Y-104315771D01*
X123180952Y-104315771D02*
X123085714Y-104363390D01*
X123085714Y-104363390D02*
X123038095Y-104411009D01*
X123038095Y-104411009D02*
X122990476Y-104506247D01*
X68850295Y-101944523D02*
X69497914Y-101944523D01*
X69497914Y-101944523D02*
X69574104Y-101906428D01*
X69574104Y-101906428D02*
X69612200Y-101868333D01*
X69612200Y-101868333D02*
X69650295Y-101792142D01*
X69650295Y-101792142D02*
X69650295Y-101639761D01*
X69650295Y-101639761D02*
X69612200Y-101563571D01*
X69612200Y-101563571D02*
X69574104Y-101525476D01*
X69574104Y-101525476D02*
X69497914Y-101487380D01*
X69497914Y-101487380D02*
X68850295Y-101487380D01*
X69650295Y-100687381D02*
X69650295Y-101144524D01*
X69650295Y-100915952D02*
X68850295Y-100915952D01*
X68850295Y-100915952D02*
X68964580Y-100992143D01*
X68964580Y-100992143D02*
X69040771Y-101068333D01*
X69040771Y-101068333D02*
X69078866Y-101144524D01*
X81233333Y-109542319D02*
X80900000Y-109066128D01*
X80661905Y-109542319D02*
X80661905Y-108542319D01*
X80661905Y-108542319D02*
X81042857Y-108542319D01*
X81042857Y-108542319D02*
X81138095Y-108589938D01*
X81138095Y-108589938D02*
X81185714Y-108637557D01*
X81185714Y-108637557D02*
X81233333Y-108732795D01*
X81233333Y-108732795D02*
X81233333Y-108875652D01*
X81233333Y-108875652D02*
X81185714Y-108970890D01*
X81185714Y-108970890D02*
X81138095Y-109018509D01*
X81138095Y-109018509D02*
X81042857Y-109066128D01*
X81042857Y-109066128D02*
X80661905Y-109066128D01*
X82090476Y-108875652D02*
X82090476Y-109542319D01*
X81852381Y-108494700D02*
X81614286Y-109208985D01*
X81614286Y-109208985D02*
X82233333Y-109208985D01*
X121959580Y-73541666D02*
X122007200Y-73589285D01*
X122007200Y-73589285D02*
X122054819Y-73732142D01*
X122054819Y-73732142D02*
X122054819Y-73827380D01*
X122054819Y-73827380D02*
X122007200Y-73970237D01*
X122007200Y-73970237D02*
X121911961Y-74065475D01*
X121911961Y-74065475D02*
X121816723Y-74113094D01*
X121816723Y-74113094D02*
X121626247Y-74160713D01*
X121626247Y-74160713D02*
X121483390Y-74160713D01*
X121483390Y-74160713D02*
X121292914Y-74113094D01*
X121292914Y-74113094D02*
X121197676Y-74065475D01*
X121197676Y-74065475D02*
X121102438Y-73970237D01*
X121102438Y-73970237D02*
X121054819Y-73827380D01*
X121054819Y-73827380D02*
X121054819Y-73732142D01*
X121054819Y-73732142D02*
X121102438Y-73589285D01*
X121102438Y-73589285D02*
X121150057Y-73541666D01*
X122054819Y-73065475D02*
X122054819Y-72874999D01*
X122054819Y-72874999D02*
X122007200Y-72779761D01*
X122007200Y-72779761D02*
X121959580Y-72732142D01*
X121959580Y-72732142D02*
X121816723Y-72636904D01*
X121816723Y-72636904D02*
X121626247Y-72589285D01*
X121626247Y-72589285D02*
X121245295Y-72589285D01*
X121245295Y-72589285D02*
X121150057Y-72636904D01*
X121150057Y-72636904D02*
X121102438Y-72684523D01*
X121102438Y-72684523D02*
X121054819Y-72779761D01*
X121054819Y-72779761D02*
X121054819Y-72970237D01*
X121054819Y-72970237D02*
X121102438Y-73065475D01*
X121102438Y-73065475D02*
X121150057Y-73113094D01*
X121150057Y-73113094D02*
X121245295Y-73160713D01*
X121245295Y-73160713D02*
X121483390Y-73160713D01*
X121483390Y-73160713D02*
X121578628Y-73113094D01*
X121578628Y-73113094D02*
X121626247Y-73065475D01*
X121626247Y-73065475D02*
X121673866Y-72970237D01*
X121673866Y-72970237D02*
X121673866Y-72779761D01*
X121673866Y-72779761D02*
X121626247Y-72684523D01*
X121626247Y-72684523D02*
X121578628Y-72636904D01*
X121578628Y-72636904D02*
X121483390Y-72589285D01*
X98854676Y-98542119D02*
X99372771Y-98542119D01*
X99372771Y-98542119D02*
X99433723Y-98511642D01*
X99433723Y-98511642D02*
X99464200Y-98481166D01*
X99464200Y-98481166D02*
X99494676Y-98420214D01*
X99494676Y-98420214D02*
X99494676Y-98298309D01*
X99494676Y-98298309D02*
X99464200Y-98237357D01*
X99464200Y-98237357D02*
X99433723Y-98206880D01*
X99433723Y-98206880D02*
X99372771Y-98176404D01*
X99372771Y-98176404D02*
X98854676Y-98176404D01*
X98854676Y-97932595D02*
X98854676Y-97505928D01*
X98854676Y-97505928D02*
X99494676Y-97780214D01*
X72507142Y-115742319D02*
X72173809Y-115266128D01*
X71935714Y-115742319D02*
X71935714Y-114742319D01*
X71935714Y-114742319D02*
X72316666Y-114742319D01*
X72316666Y-114742319D02*
X72411904Y-114789938D01*
X72411904Y-114789938D02*
X72459523Y-114837557D01*
X72459523Y-114837557D02*
X72507142Y-114932795D01*
X72507142Y-114932795D02*
X72507142Y-115075652D01*
X72507142Y-115075652D02*
X72459523Y-115170890D01*
X72459523Y-115170890D02*
X72411904Y-115218509D01*
X72411904Y-115218509D02*
X72316666Y-115266128D01*
X72316666Y-115266128D02*
X71935714Y-115266128D01*
X73459523Y-115742319D02*
X72888095Y-115742319D01*
X73173809Y-115742319D02*
X73173809Y-114742319D01*
X73173809Y-114742319D02*
X73078571Y-114885176D01*
X73078571Y-114885176D02*
X72983333Y-114980414D01*
X72983333Y-114980414D02*
X72888095Y-115028033D01*
X74411904Y-115742319D02*
X73840476Y-115742319D01*
X74126190Y-115742319D02*
X74126190Y-114742319D01*
X74126190Y-114742319D02*
X74030952Y-114885176D01*
X74030952Y-114885176D02*
X73935714Y-114980414D01*
X73935714Y-114980414D02*
X73840476Y-115028033D01*
D16*
%TO.C,U4*%
X91265000Y-101850000D02*
X91265000Y-102650000D01*
X91265000Y-101850000D02*
X91265000Y-101050000D01*
X94385000Y-101850000D02*
X94385000Y-102650000D01*
X94385000Y-101850000D02*
X94385000Y-100050000D01*
%TO.C,D2*%
X87225000Y-107022500D02*
X87875000Y-107022500D01*
X87225000Y-107022500D02*
X86575000Y-107022500D01*
X87225000Y-103902500D02*
X87875000Y-103902500D01*
X87225000Y-103902500D02*
X85550000Y-103902500D01*
%TO.C,U3*%
X84987500Y-100102500D02*
X84187500Y-100102500D01*
X84987500Y-100102500D02*
X85787500Y-100102500D01*
X84987500Y-103222500D02*
X84187500Y-103222500D01*
X84987500Y-103222500D02*
X86787500Y-103222500D01*
%TO.C,C2*%
X122690580Y-94490000D02*
X122409420Y-94490000D01*
X122690580Y-95510000D02*
X122409420Y-95510000D01*
%TO.C,U2*%
X81160000Y-114100000D02*
X81160000Y-113300000D01*
X81160000Y-114100000D02*
X81160000Y-114900000D01*
X78040000Y-114100000D02*
X78040000Y-113300000D01*
X78040000Y-114100000D02*
X78040000Y-115900000D01*
%TO.C,J6*%
X75320000Y-127450000D02*
X75320000Y-123850000D01*
X80800000Y-121970000D02*
X77200000Y-121970000D01*
X80800000Y-129330000D02*
X77200000Y-129330000D01*
X82680000Y-127450000D02*
X82680000Y-123850000D01*
%TO.C,C8*%
X119290000Y-69909420D02*
X119290000Y-70190580D01*
X120310000Y-69909420D02*
X120310000Y-70190580D01*
%TO.C,R5*%
X71952500Y-102237258D02*
X71952500Y-101762742D01*
X70907500Y-102237258D02*
X70907500Y-101762742D01*
%TO.C,U5*%
X60800000Y-94250000D02*
X60800000Y-87450000D01*
X63600000Y-94250000D02*
X63200000Y-94250000D01*
X66200000Y-94250000D02*
X65800000Y-94250000D01*
X68700000Y-94250000D02*
X68300000Y-94250000D01*
X71200000Y-94250000D02*
X70800000Y-94250000D01*
X73800000Y-94250000D02*
X73400000Y-94250000D01*
X76300000Y-94250000D02*
X75900000Y-94250000D01*
X78900000Y-94250000D02*
X78500000Y-94250000D01*
X81400000Y-94250000D02*
X81000000Y-94250000D01*
X84000000Y-94250000D02*
X83600000Y-94250000D01*
X86500000Y-94250000D02*
X86100000Y-94250000D01*
X89000000Y-94250000D02*
X88600000Y-94250000D01*
X91600000Y-94250000D02*
X91200000Y-94250000D01*
X94100000Y-94250000D02*
X93700000Y-94250000D01*
X96700000Y-94250000D02*
X96300000Y-94250000D01*
X99200000Y-94250000D02*
X98800000Y-94250000D01*
X101700000Y-94250000D02*
X101300000Y-94250000D01*
X104300000Y-94250000D02*
X103900000Y-94250000D01*
X106800000Y-94250000D02*
X106400000Y-94250000D01*
X109400000Y-94250000D02*
X109000000Y-94250000D01*
X111800000Y-94250000D02*
X111500000Y-94250000D01*
X60800000Y-84850000D02*
X60800000Y-85250000D01*
X60800000Y-82250000D02*
X60800000Y-82650000D01*
X60800000Y-80050000D02*
X60800000Y-73250000D01*
X109133000Y-76257000D02*
X111800000Y-76257000D01*
X63600000Y-73250000D02*
X63200000Y-73250000D01*
X66200000Y-73250000D02*
X65800000Y-73250000D01*
X68700000Y-73250000D02*
X68300000Y-73250000D01*
X71200000Y-73250000D02*
X70800000Y-73250000D01*
X73800000Y-73250000D02*
X73400000Y-73250000D01*
X76300000Y-73250000D02*
X75900000Y-73250000D01*
X78900000Y-73250000D02*
X78500000Y-73250000D01*
X81400000Y-73250000D02*
X81000000Y-73250000D01*
X84000000Y-73250000D02*
X83600000Y-73250000D01*
X86500000Y-73250000D02*
X86100000Y-73250000D01*
X89000000Y-73250000D02*
X88600000Y-73250000D01*
X91600000Y-73250000D02*
X91200000Y-73250000D01*
X94100000Y-73250000D02*
X93700000Y-73250000D01*
X96700000Y-73250000D02*
X96300000Y-73250000D01*
X99200000Y-73250000D02*
X98800000Y-73250000D01*
X101700000Y-73250000D02*
X101300000Y-73250000D01*
X104300000Y-73250000D02*
X103900000Y-73250000D01*
X106800000Y-73250000D02*
X106400000Y-73250000D01*
X109133000Y-73250000D02*
X109133000Y-76257000D01*
X109400000Y-73250000D02*
X109000000Y-73250000D01*
X111800000Y-73250000D02*
X111800000Y-94250000D01*
X111800000Y-73250000D02*
X111500000Y-73250000D01*
%TO.C,R7*%
X90747500Y-105924758D02*
X90747500Y-105450242D01*
X89702500Y-105924758D02*
X89702500Y-105450242D01*
%TO.C,R1*%
X79637742Y-118360000D02*
X80112258Y-118360000D01*
X79637742Y-117315000D02*
X80112258Y-117315000D01*
%TO.C,C7*%
X89540000Y-101084420D02*
X89540000Y-101365580D01*
X90560000Y-101084420D02*
X90560000Y-101365580D01*
%TO.C,R3*%
X79587742Y-119960000D02*
X80062258Y-119960000D01*
X79587742Y-118915000D02*
X80062258Y-118915000D01*
%TO.C,J1*%
X57180000Y-75270000D02*
X57180000Y-82950000D01*
X54520000Y-82950000D02*
X57180000Y-82950000D01*
X54520000Y-75270000D02*
X57180000Y-75270000D01*
X54520000Y-75270000D02*
X54520000Y-82950000D01*
X54520000Y-74000000D02*
X54520000Y-72670000D01*
X54520000Y-72670000D02*
X55850000Y-72670000D01*
%TO.C,RV1*%
X71325000Y-104320000D02*
X71325000Y-109390000D01*
X61555000Y-109390000D02*
X71325000Y-109390000D01*
X61555000Y-104320000D02*
X71325000Y-104320000D01*
X61555000Y-104320000D02*
X61555000Y-109390000D01*
X61554000Y-106785000D02*
X61554000Y-109215000D01*
X60035000Y-109215000D02*
X61554000Y-109215000D01*
X60035000Y-108000000D02*
X60794000Y-108000000D01*
X60035000Y-106785000D02*
X61554000Y-106785000D01*
X60035000Y-106785000D02*
X60035000Y-109215000D01*
%TO.C,R10*%
X75687742Y-113300000D02*
X76162258Y-113300000D01*
X75687742Y-112255000D02*
X76162258Y-112255000D01*
%TO.C,C3*%
X77915580Y-109927500D02*
X77634420Y-109927500D01*
X77915580Y-110947500D02*
X77634420Y-110947500D01*
%TO.C,C10*%
X122690000Y-69909420D02*
X122690000Y-70190580D01*
X123710000Y-69909420D02*
X123710000Y-70190580D01*
%TO.C,C11*%
X81315000Y-103271920D02*
X81315000Y-103553080D01*
X82335000Y-103271920D02*
X82335000Y-103553080D01*
%TO.C,R6*%
X88797500Y-101474758D02*
X88797500Y-101000242D01*
X87752500Y-101474758D02*
X87752500Y-101000242D01*
%TO.C,D1*%
X81740000Y-114987500D02*
X81740000Y-115637500D01*
X81740000Y-114987500D02*
X81740000Y-114337500D01*
X84860000Y-114987500D02*
X84860000Y-115637500D01*
X84860000Y-114987500D02*
X84860000Y-113312500D01*
%TO.C,J4*%
X75330000Y-136090000D02*
X75330000Y-132490000D01*
X80810000Y-130610000D02*
X77210000Y-130610000D01*
X80810000Y-137970000D02*
X77210000Y-137970000D01*
X82690000Y-136090000D02*
X82690000Y-132490000D01*
%TO.C,L1*%
X124640000Y-69937221D02*
X124640000Y-70262779D01*
X125660000Y-69937221D02*
X125660000Y-70262779D01*
%TO.C,C1*%
X69990000Y-102165580D02*
X69990000Y-101884420D01*
X68970000Y-102165580D02*
X68970000Y-101884420D01*
D13*
%TO.C,U8*%
X65460000Y-57600000D02*
X131500000Y-57600000D01*
X65460000Y-67760000D02*
X65460000Y-57600000D01*
X131500000Y-57600000D02*
X131500000Y-67760000D01*
X131500000Y-62680000D02*
X65460000Y-62680000D01*
X131500000Y-67760000D02*
X65460000Y-67760000D01*
D16*
X61340000Y-144600000D02*
G75*
G03*
X61340000Y-144600000I-3500000J0D01*
G01*
X65150000Y-58870000D02*
G75*
G03*
X65150000Y-58870000I-3500000J0D01*
G01*
X138810000Y-58870000D02*
G75*
G03*
X138810000Y-58870000I-3500000J0D01*
G01*
X141350000Y-144600000D02*
G75*
G03*
X141350000Y-144600000I-3500000J0D01*
G01*
%TO.C,R17*%
X120522500Y-97437258D02*
X120522500Y-96962742D01*
X119477500Y-97437258D02*
X119477500Y-96962742D01*
%TO.C,C4*%
X63520000Y-101909420D02*
X63520000Y-102190580D01*
X64540000Y-101909420D02*
X64540000Y-102190580D01*
%TO.C,Q1*%
X83487500Y-99297500D02*
X84137500Y-99297500D01*
X83487500Y-99297500D02*
X82837500Y-99297500D01*
X83487500Y-96177500D02*
X84137500Y-96177500D01*
X83487500Y-96177500D02*
X81812500Y-96177500D01*
D13*
%TO.C,U6*%
X117027500Y-71100000D02*
G75*
G03*
X117027500Y-71100000I-100000J0D01*
G01*
D17*
X114127500Y-69480000D02*
X114127500Y-68540000D01*
X114127500Y-71660000D02*
X114127500Y-70720000D01*
X115527500Y-68540000D02*
X114127500Y-68540000D01*
X115527500Y-71660000D02*
X114127500Y-71660000D01*
D16*
%TO.C,R9*%
X117527500Y-69812742D02*
X117527500Y-70287258D01*
X118572500Y-69812742D02*
X118572500Y-70287258D01*
%TO.C,R15*%
X125837258Y-101477500D02*
X125362742Y-101477500D01*
X125837258Y-102522500D02*
X125362742Y-102522500D01*
%TO.C,G\u002A\u002A\u002A*%
G36*
X139263666Y-127987726D02*
G01*
X139324085Y-128093108D01*
X139380303Y-128191410D01*
X139431033Y-128280361D01*
X139474985Y-128357688D01*
X139510869Y-128421120D01*
X139537397Y-128468385D01*
X139553278Y-128497210D01*
X139557453Y-128505496D01*
X139551049Y-128517461D01*
X139532933Y-128549723D01*
X139504404Y-128600006D01*
X139466759Y-128666037D01*
X139421297Y-128745542D01*
X139369316Y-128836246D01*
X139312115Y-128935875D01*
X139262724Y-129021769D01*
X138968541Y-129533026D01*
X138901880Y-129533020D01*
X138380783Y-129532977D01*
X137823812Y-129532932D01*
X137793025Y-129532929D01*
X137721297Y-129408619D01*
X137929795Y-129408619D01*
X137942344Y-129410238D01*
X137978090Y-129411729D01*
X138034178Y-129413050D01*
X138107752Y-129414159D01*
X138195959Y-129415014D01*
X138295942Y-129415573D01*
X138404848Y-129415793D01*
X138415837Y-129415795D01*
X138901880Y-129415795D01*
X139144180Y-128995718D01*
X139199026Y-128900427D01*
X139249583Y-128812193D01*
X139294408Y-128733565D01*
X139332058Y-128667094D01*
X139361088Y-128615328D01*
X139380056Y-128580815D01*
X139387518Y-128566105D01*
X139387573Y-128565872D01*
X139375281Y-128563656D01*
X139339801Y-128561615D01*
X139284000Y-128559810D01*
X139210739Y-128558298D01*
X139122884Y-128557137D01*
X139023300Y-128556386D01*
X138914849Y-128556103D01*
X138908736Y-128556103D01*
X138898921Y-128556109D01*
X138783583Y-128556182D01*
X138681921Y-128556499D01*
X138601193Y-128557170D01*
X138538838Y-128558311D01*
X138492298Y-128560040D01*
X138459014Y-128562474D01*
X138436427Y-128565728D01*
X138421978Y-128569921D01*
X138413107Y-128575168D01*
X138409376Y-128578898D01*
X138399000Y-128594575D01*
X138377832Y-128629263D01*
X138347654Y-128679876D01*
X138310251Y-128743330D01*
X138267404Y-128816538D01*
X138220897Y-128896417D01*
X138172514Y-128979880D01*
X138124037Y-129063843D01*
X138077251Y-129145221D01*
X138033937Y-129220928D01*
X137995879Y-129287880D01*
X137964861Y-129342991D01*
X137942665Y-129383176D01*
X137931075Y-129405350D01*
X137929795Y-129408619D01*
X137721297Y-129408619D01*
X137495910Y-129018010D01*
X137198961Y-128503379D01*
X137332835Y-128503379D01*
X137578323Y-128928400D01*
X137823812Y-129353421D01*
X137863544Y-129283660D01*
X137880190Y-129254687D01*
X137907923Y-129206712D01*
X137944713Y-129143238D01*
X137988524Y-129067768D01*
X138037326Y-128983805D01*
X138089085Y-128894852D01*
X138104303Y-128868718D01*
X138154354Y-128782349D01*
X138199929Y-128702883D01*
X138239417Y-128633196D01*
X138271204Y-128576164D01*
X138293679Y-128534664D01*
X138305230Y-128511572D01*
X138306434Y-128508095D01*
X138300383Y-128493620D01*
X138282676Y-128459263D01*
X138254771Y-128407658D01*
X138218122Y-128341434D01*
X138174184Y-128263224D01*
X138124415Y-128175658D01*
X138072228Y-128084762D01*
X138017954Y-127990867D01*
X137967609Y-127904124D01*
X137922712Y-127827119D01*
X137884779Y-127762441D01*
X137855327Y-127712676D01*
X137835873Y-127680411D01*
X137827997Y-127668287D01*
X137819730Y-127677213D01*
X137800051Y-127706365D01*
X137770435Y-127753326D01*
X137732355Y-127815681D01*
X137687284Y-127891014D01*
X137636696Y-127976909D01*
X137582064Y-128070949D01*
X137575956Y-128081541D01*
X137332835Y-128503379D01*
X137198961Y-128503379D01*
X137198795Y-128503091D01*
X137495753Y-127989033D01*
X137721013Y-127599090D01*
X137929795Y-127599090D01*
X137936070Y-127611812D01*
X137953705Y-127643925D01*
X137980909Y-127692331D01*
X138015894Y-127753933D01*
X138056871Y-127825632D01*
X138102052Y-127904330D01*
X138149646Y-127986928D01*
X138197866Y-128070327D01*
X138244923Y-128151431D01*
X138289027Y-128227140D01*
X138328389Y-128294355D01*
X138361222Y-128349980D01*
X138385735Y-128390915D01*
X138400140Y-128414061D01*
X138401505Y-128416077D01*
X138426543Y-128451898D01*
X138898921Y-128451898D01*
X139007384Y-128451665D01*
X139107551Y-128451003D01*
X139196452Y-128449965D01*
X139271122Y-128448605D01*
X139328591Y-128446977D01*
X139365893Y-128445135D01*
X139380028Y-128443168D01*
X139380548Y-128426996D01*
X139371385Y-128407348D01*
X139360979Y-128389938D01*
X139339264Y-128352717D01*
X139307860Y-128298489D01*
X139268384Y-128230060D01*
X139222456Y-128150235D01*
X139171694Y-128061819D01*
X139128375Y-127986231D01*
X138902739Y-127592205D01*
X138416267Y-127592205D01*
X138306594Y-127592383D01*
X138205563Y-127592889D01*
X138116029Y-127593683D01*
X138040845Y-127594724D01*
X137982864Y-127595973D01*
X137944940Y-127597388D01*
X137929926Y-127598930D01*
X137929795Y-127599090D01*
X137721013Y-127599090D01*
X137792712Y-127474974D01*
X138381022Y-127474974D01*
X138969332Y-127474974D01*
X139263666Y-127987726D01*
G37*
G36*
X140258138Y-129519316D02*
G01*
X140372207Y-129520413D01*
X140478768Y-129522142D01*
X140574468Y-129524503D01*
X140655950Y-129527495D01*
X140719860Y-129531119D01*
X140762842Y-129535375D01*
X140775897Y-129537861D01*
X140887673Y-129580035D01*
X140991031Y-129642367D01*
X141080999Y-129720998D01*
X141152605Y-129812072D01*
X141171774Y-129844976D01*
X141186782Y-129873720D01*
X141199762Y-129901005D01*
X141210861Y-129928878D01*
X141220227Y-129959385D01*
X141228007Y-129994571D01*
X141234350Y-130036481D01*
X141239403Y-130087163D01*
X141243315Y-130148660D01*
X141246232Y-130223021D01*
X141248302Y-130312289D01*
X141249674Y-130418511D01*
X141250496Y-130543732D01*
X141250914Y-130689999D01*
X141251077Y-130859357D01*
X141251107Y-130943051D01*
X141251333Y-131786462D01*
X140111589Y-131786462D01*
X139167230Y-131786462D01*
X138971846Y-131786462D01*
X138971895Y-131604103D01*
X139167230Y-131604103D01*
X140111589Y-131604103D01*
X141055948Y-131604103D01*
X141055948Y-130829566D01*
X141055921Y-130667885D01*
X141055796Y-130530118D01*
X141055503Y-130414129D01*
X141054977Y-130317780D01*
X141054149Y-130238934D01*
X141052952Y-130175453D01*
X141051318Y-130125202D01*
X141049180Y-130086043D01*
X141046469Y-130055838D01*
X141043120Y-130032451D01*
X141039063Y-130013745D01*
X141034232Y-129997582D01*
X141029197Y-129983529D01*
X140986567Y-129902619D01*
X140924225Y-129828402D01*
X140848509Y-129767797D01*
X140812956Y-129747412D01*
X140736820Y-129708872D01*
X140111589Y-129708872D01*
X139486359Y-129708872D01*
X139410223Y-129747412D01*
X139330663Y-129799924D01*
X139261716Y-129869062D01*
X139209721Y-129947908D01*
X139193982Y-129983529D01*
X139188400Y-129999227D01*
X139183653Y-130015557D01*
X139179674Y-130034655D01*
X139176395Y-130058659D01*
X139173748Y-130089705D01*
X139171666Y-130129931D01*
X139170082Y-130181474D01*
X139168926Y-130246471D01*
X139168133Y-130327059D01*
X139167635Y-130425374D01*
X139167363Y-130543555D01*
X139167251Y-130683738D01*
X139167230Y-130829566D01*
X139167230Y-131604103D01*
X138971895Y-131604103D01*
X138972072Y-130943051D01*
X138972218Y-130765837D01*
X138972580Y-130612768D01*
X138973196Y-130481937D01*
X138974106Y-130371439D01*
X138975348Y-130279367D01*
X138976960Y-130203817D01*
X138978982Y-130142881D01*
X138981452Y-130094654D01*
X138984409Y-130057230D01*
X138987891Y-130028703D01*
X138990984Y-130011460D01*
X139028725Y-129894181D01*
X139088573Y-129787923D01*
X139167962Y-129695350D01*
X139264325Y-129619127D01*
X139375093Y-129561919D01*
X139447282Y-129537861D01*
X139477937Y-129533274D01*
X139531280Y-129529319D01*
X139603957Y-129525995D01*
X139692613Y-129523303D01*
X139793892Y-129521242D01*
X139904439Y-129519813D01*
X140020899Y-129519016D01*
X140139917Y-129518850D01*
X140258138Y-129519316D01*
G37*
G36*
X139131410Y-134736035D02*
G01*
X139214813Y-134741596D01*
X139309180Y-134749502D01*
X139400270Y-134758498D01*
X139447282Y-134763878D01*
X139665292Y-134799493D01*
X139862133Y-134850213D01*
X140037790Y-134916026D01*
X140192248Y-134996922D01*
X140325493Y-135092890D01*
X140437510Y-135203918D01*
X140528286Y-135329996D01*
X140597804Y-135471112D01*
X140646052Y-135627256D01*
X140658786Y-135690415D01*
X140667517Y-135741000D01*
X140674213Y-135780778D01*
X140677843Y-135803577D01*
X140678205Y-135806578D01*
X140690252Y-135808712D01*
X140722485Y-135810360D01*
X140769038Y-135811276D01*
X140793347Y-135811385D01*
X140845773Y-135811884D01*
X140917014Y-135813265D01*
X140999855Y-135815351D01*
X141087080Y-135817967D01*
X141145040Y-135819953D01*
X141381589Y-135828521D01*
X141381589Y-135928169D01*
X141381589Y-136027816D01*
X140861762Y-136022146D01*
X140629396Y-136020764D01*
X140421098Y-136022198D01*
X140235002Y-136026802D01*
X140069243Y-136034928D01*
X139921954Y-136046927D01*
X139791270Y-136063154D01*
X139675323Y-136083960D01*
X139572248Y-136109697D01*
X139480180Y-136140720D01*
X139397251Y-136177379D01*
X139321596Y-136220027D01*
X139251349Y-136269017D01*
X139184644Y-136324702D01*
X139165149Y-136342667D01*
X139117477Y-136387506D01*
X139030673Y-136325563D01*
X138943868Y-136263620D01*
X139006703Y-136199156D01*
X139126211Y-136094658D01*
X139263147Y-136007292D01*
X139413571Y-135939288D01*
X139529070Y-135903299D01*
X139620769Y-135882367D01*
X139719858Y-135864877D01*
X139830447Y-135850333D01*
X139956647Y-135838236D01*
X140102571Y-135828088D01*
X140189743Y-135823308D01*
X140273296Y-135818888D01*
X140347682Y-135814600D01*
X140409107Y-135810691D01*
X140453777Y-135807409D01*
X140477898Y-135805001D01*
X140481028Y-135804279D01*
X140480672Y-135790355D01*
X140475420Y-135757646D01*
X140466360Y-135712725D01*
X140464457Y-135704066D01*
X140420813Y-135564339D01*
X140355183Y-135438542D01*
X140267624Y-135326719D01*
X140158192Y-135228913D01*
X140026942Y-135145167D01*
X139873929Y-135075524D01*
X139699211Y-135020029D01*
X139535358Y-134984313D01*
X139482210Y-134976343D01*
X139410610Y-134967773D01*
X139328118Y-134959398D01*
X139242296Y-134952015D01*
X139196538Y-134948673D01*
X138971846Y-134933448D01*
X138971846Y-134830413D01*
X138971846Y-134727378D01*
X139131410Y-134736035D01*
G37*
G36*
X141251333Y-132255507D02*
G01*
X141251333Y-132392276D01*
X140730307Y-132913180D01*
X140209282Y-133434083D01*
X140209282Y-133821657D01*
X140209282Y-134209231D01*
X140730307Y-134209231D01*
X141251333Y-134209231D01*
X141251333Y-134300410D01*
X141251333Y-134391590D01*
X140111589Y-134391590D01*
X139167230Y-134391590D01*
X138971846Y-134391590D01*
X138971846Y-133258359D01*
X138971846Y-132307487D01*
X139167230Y-132307487D01*
X139167230Y-133258359D01*
X139167230Y-134209231D01*
X139590564Y-134209231D01*
X140013897Y-134209231D01*
X140013897Y-133258359D01*
X140013897Y-132307487D01*
X139590564Y-132307487D01*
X139167230Y-132307487D01*
X138971846Y-132307487D01*
X138971846Y-132125128D01*
X139590564Y-132125128D01*
X140209282Y-132125128D01*
X140209282Y-132642836D01*
X140209282Y-133160545D01*
X140730307Y-132639641D01*
X141251333Y-132118738D01*
X141251333Y-132255507D01*
G37*
%TO.C,C6*%
X122440580Y-100740000D02*
X122159420Y-100740000D01*
X122440580Y-101760000D02*
X122159420Y-101760000D01*
%TO.C,C12*%
X93290000Y-105509420D02*
X93290000Y-105790580D01*
X94310000Y-105509420D02*
X94310000Y-105790580D01*
%TO.C,R8*%
X87712258Y-98065000D02*
X87237742Y-98065000D01*
X87712258Y-99110000D02*
X87237742Y-99110000D01*
%TO.C,R14*%
X124387258Y-92727500D02*
X123912742Y-92727500D01*
X124387258Y-93772500D02*
X123912742Y-93772500D01*
%TO.C,J2*%
X57180000Y-86470000D02*
X57180000Y-89070000D01*
X54520000Y-89070000D02*
X57180000Y-89070000D01*
X54520000Y-86470000D02*
X57180000Y-86470000D01*
X54520000Y-86470000D02*
X54520000Y-89070000D01*
X54520000Y-85200000D02*
X54520000Y-83870000D01*
X54520000Y-83870000D02*
X55850000Y-83870000D01*
%TO.C,J3*%
X57180000Y-64070000D02*
X57180000Y-71750000D01*
X54520000Y-71750000D02*
X57180000Y-71750000D01*
X54520000Y-64070000D02*
X57180000Y-64070000D01*
X54520000Y-64070000D02*
X54520000Y-71750000D01*
X54520000Y-62800000D02*
X54520000Y-61470000D01*
X54520000Y-61470000D02*
X55850000Y-61470000D01*
D18*
%TO.C,IC1*%
X123275000Y-99925000D02*
G75*
G03*
X123275000Y-99925000I-125000J0D01*
G01*
D16*
%TO.C,L2*%
X127790000Y-100300000D02*
G75*
G03*
X128400000Y-100910000I610000J0D01*
G01*
X134000000Y-100910000D02*
G75*
G03*
X134610000Y-100300000I0J610000D01*
G01*
X128450000Y-93990000D02*
G75*
G03*
X127790000Y-94650000I2J-660002D01*
G01*
X134610000Y-94600000D02*
G75*
G03*
X134000000Y-93990000I-610000J0D01*
G01*
X129250000Y-100910000D02*
X128400000Y-100910000D01*
X134000000Y-100910000D02*
X133150000Y-100910000D01*
X127790000Y-100300000D02*
X127790000Y-94650000D01*
X134610000Y-94600000D02*
X134610000Y-100300000D01*
X128450000Y-93990000D02*
X129250000Y-93990000D01*
X133150000Y-93990000D02*
X134000000Y-93990000D01*
%TO.C,R16*%
X122537258Y-102527500D02*
X122062742Y-102527500D01*
X122537258Y-103572500D02*
X122062742Y-103572500D01*
D13*
%TO.C,U1*%
X67930000Y-98985000D02*
G75*
G03*
X67930000Y-98985000I-100000J0D01*
G01*
D17*
X67115000Y-102195000D02*
X66445000Y-102195000D01*
X65330000Y-101725000D02*
X65330000Y-101065000D01*
X68230000Y-101065000D02*
X68230000Y-101725000D01*
D16*
%TO.C,R4*%
X81637258Y-109915000D02*
X81162742Y-109915000D01*
X81637258Y-110960000D02*
X81162742Y-110960000D01*
%TO.C,C9*%
X120990000Y-69909420D02*
X120990000Y-70190580D01*
X122010000Y-69909420D02*
X122010000Y-70190580D01*
D13*
%TO.C,U7*%
X97900000Y-96222500D02*
G75*
G03*
X97900000Y-96222500I-100000J0D01*
G01*
D17*
X96180000Y-99022500D02*
X95240000Y-99022500D01*
X98360000Y-99022500D02*
X97420000Y-99022500D01*
X95240000Y-97622500D02*
X95240000Y-99022500D01*
X98360000Y-97622500D02*
X98360000Y-99022500D01*
D16*
%TO.C,R11*%
X75687742Y-115810000D02*
X76162258Y-115810000D01*
X75687742Y-114765000D02*
X76162258Y-114765000D01*
%TD*%
M02*
