%TF.GenerationSoftware,KiCad,Pcbnew,7.0.6*%
%TF.CreationDate,2023-08-29T11:28:15+01:00*%
%TF.ProjectId,SiPM_output,5369504d-5f6f-4757-9470-75742e6b6963,2.2*%
%TF.SameCoordinates,Original*%
%TF.FileFunction,Copper,L1,Top*%
%TF.FilePolarity,Positive*%
%FSLAX46Y46*%
G04 Gerber Fmt 4.6, Leading zero omitted, Abs format (unit mm)*
G04 Created by KiCad (PCBNEW 7.0.6) date 2023-08-29 11:28:15*
%MOMM*%
%LPD*%
G01*
G04 APERTURE LIST*
G04 Aperture macros list*
%AMRoundRect*
0 Rectangle with rounded corners*
0 $1 Rounding radius*
0 $2 $3 $4 $5 $6 $7 $8 $9 X,Y pos of 4 corners*
0 Add a 4 corners polygon primitive as box body*
4,1,4,$2,$3,$4,$5,$6,$7,$8,$9,$2,$3,0*
0 Add four circle primitives for the rounded corners*
1,1,$1+$1,$2,$3*
1,1,$1+$1,$4,$5*
1,1,$1+$1,$6,$7*
1,1,$1+$1,$8,$9*
0 Add four rect primitives between the rounded corners*
20,1,$1+$1,$2,$3,$4,$5,0*
20,1,$1+$1,$4,$5,$6,$7,0*
20,1,$1+$1,$6,$7,$8,$9,0*
20,1,$1+$1,$8,$9,$2,$3,0*%
G04 Aperture macros list end*
%TA.AperFunction,SMDPad,CuDef*%
%ADD10RoundRect,0.150000X-0.150000X0.512500X-0.150000X-0.512500X0.150000X-0.512500X0.150000X0.512500X0*%
%TD*%
%TA.AperFunction,SMDPad,CuDef*%
%ADD11RoundRect,0.150000X-0.587500X-0.150000X0.587500X-0.150000X0.587500X0.150000X-0.587500X0.150000X0*%
%TD*%
%TA.AperFunction,SMDPad,CuDef*%
%ADD12RoundRect,0.150000X0.512500X0.150000X-0.512500X0.150000X-0.512500X-0.150000X0.512500X-0.150000X0*%
%TD*%
%TA.AperFunction,SMDPad,CuDef*%
%ADD13RoundRect,0.225000X0.225000X0.250000X-0.225000X0.250000X-0.225000X-0.250000X0.225000X-0.250000X0*%
%TD*%
%TA.AperFunction,SMDPad,CuDef*%
%ADD14RoundRect,0.150000X0.150000X-0.512500X0.150000X0.512500X-0.150000X0.512500X-0.150000X-0.512500X0*%
%TD*%
%TA.AperFunction,ComponentPad*%
%ADD15C,2.250000*%
%TD*%
%TA.AperFunction,ComponentPad*%
%ADD16C,1.440000*%
%TD*%
%TA.AperFunction,SMDPad,CuDef*%
%ADD17RoundRect,0.225000X-0.250000X0.225000X-0.250000X-0.225000X0.250000X-0.225000X0.250000X0.225000X0*%
%TD*%
%TA.AperFunction,SMDPad,CuDef*%
%ADD18RoundRect,0.200000X0.275000X-0.200000X0.275000X0.200000X-0.275000X0.200000X-0.275000X-0.200000X0*%
%TD*%
%TA.AperFunction,SMDPad,CuDef*%
%ADD19R,3.500000X1.700000*%
%TD*%
%TA.AperFunction,ComponentPad*%
%ADD20O,1.700000X1.700000*%
%TD*%
%TA.AperFunction,ComponentPad*%
%ADD21R,1.700000X1.700000*%
%TD*%
%TA.AperFunction,SMDPad,CuDef*%
%ADD22R,1.700000X3.500000*%
%TD*%
%TA.AperFunction,SMDPad,CuDef*%
%ADD23RoundRect,0.200000X-0.200000X-0.275000X0.200000X-0.275000X0.200000X0.275000X-0.200000X0.275000X0*%
%TD*%
%TA.AperFunction,SMDPad,CuDef*%
%ADD24RoundRect,0.150000X-0.150000X0.587500X-0.150000X-0.587500X0.150000X-0.587500X0.150000X0.587500X0*%
%TD*%
%TA.AperFunction,SMDPad,CuDef*%
%ADD25RoundRect,0.218750X-0.256250X0.218750X-0.256250X-0.218750X0.256250X-0.218750X0.256250X0.218750X0*%
%TD*%
%TA.AperFunction,SMDPad,CuDef*%
%ADD26RoundRect,0.225000X0.250000X-0.225000X0.250000X0.225000X-0.250000X0.225000X-0.250000X-0.225000X0*%
%TD*%
%TA.AperFunction,ComponentPad*%
%ADD27C,6.350000*%
%TD*%
%TA.AperFunction,ComponentPad*%
%ADD28R,1.600000X1.600000*%
%TD*%
%TA.AperFunction,ComponentPad*%
%ADD29C,1.600000*%
%TD*%
%TA.AperFunction,ComponentPad*%
%ADD30C,3.800000*%
%TD*%
%TA.AperFunction,SMDPad,CuDef*%
%ADD31RoundRect,0.088500X0.526500X0.206500X-0.526500X0.206500X-0.526500X-0.206500X0.526500X-0.206500X0*%
%TD*%
%TA.AperFunction,SMDPad,CuDef*%
%ADD32RoundRect,0.200000X-0.275000X0.200000X-0.275000X-0.200000X0.275000X-0.200000X0.275000X0.200000X0*%
%TD*%
%TA.AperFunction,SMDPad,CuDef*%
%ADD33RoundRect,0.200000X0.200000X0.275000X-0.200000X0.275000X-0.200000X-0.275000X0.200000X-0.275000X0*%
%TD*%
%TA.AperFunction,SMDPad,CuDef*%
%ADD34R,1.550000X1.550000*%
%TD*%
%TA.AperFunction,SMDPad,CuDef*%
%ADD35R,0.850000X0.300000*%
%TD*%
%TA.AperFunction,SMDPad,CuDef*%
%ADD36R,0.300000X0.850000*%
%TD*%
%TA.AperFunction,SMDPad,CuDef*%
%ADD37R,3.500000X2.950000*%
%TD*%
%TA.AperFunction,SMDPad,CuDef*%
%ADD38RoundRect,0.088500X-0.206500X0.516500X-0.206500X-0.516500X0.206500X-0.516500X0.206500X0.516500X0*%
%TD*%
%TA.AperFunction,SMDPad,CuDef*%
%ADD39RoundRect,0.088500X-0.206500X0.526500X-0.206500X-0.526500X0.206500X-0.526500X0.206500X0.526500X0*%
%TD*%
%TA.AperFunction,ViaPad*%
%ADD40C,0.600000*%
%TD*%
%TA.AperFunction,ViaPad*%
%ADD41C,0.300000*%
%TD*%
%TA.AperFunction,Conductor*%
%ADD42C,0.200000*%
%TD*%
%TA.AperFunction,Conductor*%
%ADD43C,0.300000*%
%TD*%
%TA.AperFunction,Conductor*%
%ADD44C,0.500000*%
%TD*%
G04 APERTURE END LIST*
D10*
%TO.P,U4,6,V+*%
%TO.N,VCC*%
X93775000Y-102987500D03*
%TO.P,U4,5,ENABLE*%
X92825000Y-102987500D03*
%TO.P,U4,4,-*%
%TO.N,PEAK*%
X91875000Y-102987500D03*
%TO.P,U4,3,+*%
%TO.N,Net-(U3--)*%
X91875000Y-100712500D03*
%TO.P,U4,2,V-*%
%TO.N,GND*%
X92825000Y-100712500D03*
%TO.P,U4,1*%
%TO.N,PEAK*%
X93775000Y-100712500D03*
%TD*%
D11*
%TO.P,D2,3,COM*%
%TO.N,Net-(D2-COM)*%
X88162500Y-105462500D03*
%TO.P,D2,2,K*%
%TO.N,Net-(D2-K)*%
X86287500Y-106412500D03*
%TO.P,D2,1,A*%
%TO.N,Net-(D2-A)*%
X86287500Y-104512500D03*
%TD*%
D12*
%TO.P,U3,6,V+*%
%TO.N,VCC*%
X83850000Y-102612500D03*
%TO.P,U3,5,ENABLE*%
X83850000Y-101662500D03*
%TO.P,U3,4,-*%
%TO.N,Net-(U3--)*%
X83850000Y-100712500D03*
%TO.P,U3,3,+*%
%TO.N,SIG*%
X86125000Y-100712500D03*
%TO.P,U3,2,V-*%
%TO.N,GND*%
X86125000Y-101662500D03*
%TO.P,U3,1*%
%TO.N,Net-(D2-A)*%
X86125000Y-102612500D03*
%TD*%
D13*
%TO.P,C2,2*%
%TO.N,GND*%
X121775000Y-95000000D03*
%TO.P,C2,1*%
%TO.N,Net-(IC1-~{SHDN})*%
X123325000Y-95000000D03*
%TD*%
D14*
%TO.P,U2,6,V+*%
%TO.N,VCC*%
X78650000Y-112962500D03*
%TO.P,U2,5,ENABLE*%
X79600000Y-112962500D03*
%TO.P,U2,4,-*%
%TO.N,Net-(U2--)*%
X80550000Y-112962500D03*
%TO.P,U2,3,+*%
%TO.N,Net-(D1-COM)*%
X80550000Y-115237500D03*
%TO.P,U2,2,V-*%
%TO.N,GND*%
X79600000Y-115237500D03*
%TO.P,U2,1*%
%TO.N,SIG*%
X78650000Y-115237500D03*
%TD*%
D15*
%TO.P,J6,2,Ext*%
%TO.N,GND*%
X76460000Y-123110000D03*
X76460000Y-128190000D03*
X81540000Y-123110000D03*
X81540000Y-128190000D03*
D16*
%TO.P,J6,1,In*%
%TO.N,SiPM*%
X79000000Y-125650000D03*
%TD*%
D17*
%TO.P,C8,2*%
%TO.N,GND*%
X119800000Y-70825000D03*
%TO.P,C8,1*%
%TO.N,VCC*%
X119800000Y-69275000D03*
%TD*%
D18*
%TO.P,R5,2*%
%TO.N,STB_VREF*%
X71430000Y-101175000D03*
%TO.P,R5,1*%
%TO.N,Net-(C4-Pad2)*%
X71430000Y-102825000D03*
%TD*%
D19*
%TO.P,U5,43,SWDIO*%
%TO.N,unconnected-(U5-SWDIO-Pad43)*%
X61500000Y-86290000D03*
D20*
X62400000Y-86290000D03*
D19*
%TO.P,U5,42,GND*%
%TO.N,unconnected-(U5-GND-Pad42)*%
X61500000Y-83750000D03*
D21*
X62400000Y-83750000D03*
D19*
%TO.P,U5,41,SWCLK*%
%TO.N,unconnected-(U5-SWCLK-Pad41)*%
X61500000Y-81210000D03*
D20*
X62400000Y-81210000D03*
D22*
%TO.P,U5,40,VBUS*%
%TO.N,VBUS*%
X110430000Y-93540000D03*
D20*
X110430000Y-92640000D03*
D22*
%TO.P,U5,39,VSYS*%
%TO.N,VSYS*%
X107890000Y-93540000D03*
D20*
X107890000Y-92640000D03*
D22*
%TO.P,U5,38,GND*%
%TO.N,GND*%
X105350000Y-93540000D03*
D21*
X105350000Y-92640000D03*
D22*
%TO.P,U5,37,3V3_EN*%
%TO.N,unconnected-(U5-3V3_EN-Pad37)*%
X102810000Y-93540000D03*
D20*
X102810000Y-92640000D03*
D22*
%TO.P,U5,36,3V3*%
%TO.N,unconnected-(U5-3V3-Pad36)*%
X100270000Y-93540000D03*
D20*
X100270000Y-92640000D03*
D22*
%TO.P,U5,35,ADC_VREF*%
%TO.N,VREF*%
X97730000Y-93540000D03*
D20*
X97730000Y-92640000D03*
D22*
%TO.P,U5,34,GPIO28_ADC2*%
%TO.N,GND*%
X95190000Y-93540000D03*
D20*
X95190000Y-92640000D03*
D22*
%TO.P,U5,33,AGND*%
X92650000Y-93540000D03*
D21*
X92650000Y-92640000D03*
D22*
%TO.P,U5,32,GPIO27_ADC1*%
%TO.N,PEAK*%
X90110000Y-93540000D03*
D20*
X90110000Y-92640000D03*
D22*
%TO.P,U5,31,GPIO26_ADC0*%
%TO.N,SIG*%
X87570000Y-93540000D03*
D20*
X87570000Y-92640000D03*
D22*
%TO.P,U5,30,RUN*%
%TO.N,unconnected-(U5-RUN-Pad30)*%
X85030000Y-93540000D03*
D20*
X85030000Y-92640000D03*
D22*
%TO.P,U5,29,GPIO22*%
%TO.N,RST*%
X82490000Y-93540000D03*
D20*
X82490000Y-92640000D03*
D22*
%TO.P,U5,28,GND*%
%TO.N,GND*%
X79950000Y-93540000D03*
D21*
X79950000Y-92640000D03*
D22*
%TO.P,U5,27,GPIO21*%
%TO.N,unconnected-(U5-GPIO21-Pad27)*%
X77410000Y-93540000D03*
D20*
X77410000Y-92640000D03*
D22*
%TO.P,U5,26,GPIO20*%
%TO.N,unconnected-(U5-GPIO20-Pad26)*%
X74870000Y-93540000D03*
D20*
X74870000Y-92640000D03*
D22*
%TO.P,U5,25,GPIO19*%
%TO.N,unconnected-(U5-GPIO19-Pad25)*%
X72330000Y-93540000D03*
D20*
X72330000Y-92640000D03*
D22*
%TO.P,U5,24,GPIO18*%
%TO.N,unconnected-(U5-GPIO18-Pad24)*%
X69790000Y-93540000D03*
D20*
X69790000Y-92640000D03*
D22*
%TO.P,U5,23,GND*%
%TO.N,GND*%
X67250000Y-93540000D03*
D21*
X67250000Y-92640000D03*
D22*
%TO.P,U5,22,GPIO17*%
%TO.N,unconnected-(U5-GPIO17-Pad22)*%
X64710000Y-93540000D03*
D20*
X64710000Y-92640000D03*
D22*
%TO.P,U5,21,GPIO16*%
%TO.N,INT*%
X62170000Y-93540000D03*
D20*
X62170000Y-92640000D03*
D22*
%TO.P,U5,20,GPIO15*%
%TO.N,unconnected-(U5-GPIO15-Pad20)*%
X62170000Y-73960000D03*
D20*
X62170000Y-74860000D03*
D22*
%TO.P,U5,19,GPIO14*%
%TO.N,unconnected-(U5-GPIO14-Pad19)*%
X64710000Y-73960000D03*
D20*
X64710000Y-74860000D03*
D22*
%TO.P,U5,18,GND*%
%TO.N,GND*%
X67250000Y-73960000D03*
D21*
X67250000Y-74860000D03*
D22*
%TO.P,U5,17,GPIO13*%
%TO.N,unconnected-(U5-GPIO13-Pad17)*%
X69790000Y-73960000D03*
D20*
X69790000Y-74860000D03*
D22*
%TO.P,U5,16,GPIO12*%
%TO.N,unconnected-(U5-GPIO12-Pad16)*%
X72330000Y-73960000D03*
D20*
X72330000Y-74860000D03*
D22*
%TO.P,U5,15,GPIO11*%
%TO.N,unconnected-(U5-GPIO11-Pad15)*%
X74870000Y-73960000D03*
D20*
X74870000Y-74860000D03*
D22*
%TO.P,U5,14,GPIO10*%
%TO.N,unconnected-(U5-GPIO10-Pad14)*%
X77410000Y-73960000D03*
D20*
X77410000Y-74860000D03*
D22*
%TO.P,U5,13,GND*%
%TO.N,GND*%
X79950000Y-73960000D03*
D21*
X79950000Y-74860000D03*
D22*
%TO.P,U5,12,GPIO9*%
%TO.N,UART1RX*%
X82490000Y-73960000D03*
D20*
X82490000Y-74860000D03*
D22*
%TO.P,U5,11,GPIO8*%
%TO.N,UART1TX*%
X85030000Y-73960000D03*
D20*
X85030000Y-74860000D03*
D22*
%TO.P,U5,10,GPIO7*%
%TO.N,unconnected-(U5-GPIO7-Pad10)*%
X87570000Y-73960000D03*
D20*
X87570000Y-74860000D03*
D22*
%TO.P,U5,9,GPIO6*%
%TO.N,unconnected-(U5-GPIO6-Pad9)*%
X90110000Y-73960000D03*
D20*
X90110000Y-74860000D03*
D22*
%TO.P,U5,8,GND*%
%TO.N,GND*%
X92650000Y-73960000D03*
D21*
X92650000Y-74860000D03*
D22*
%TO.P,U5,7,GPIO5*%
%TO.N,CS*%
X95190000Y-73960000D03*
D20*
X95190000Y-74860000D03*
D22*
%TO.P,U5,6,GPIO4*%
%TO.N,RX*%
X97730000Y-73960000D03*
D20*
X97730000Y-74860000D03*
D22*
%TO.P,U5,5,GPIO3*%
%TO.N,TX*%
X100270000Y-73960000D03*
D20*
X100270000Y-74860000D03*
D22*
%TO.P,U5,4,GPIO2*%
%TO.N,SCK*%
X102810000Y-73960000D03*
D20*
X102810000Y-74860000D03*
D22*
%TO.P,U5,3,GND*%
%TO.N,GND*%
X105350000Y-73960000D03*
D21*
X105350000Y-74860000D03*
D22*
%TO.P,U5,2,GPIO1*%
%TO.N,SCL*%
X107890000Y-73960000D03*
D20*
X107890000Y-74860000D03*
D22*
%TO.P,U5,1,GPIO0*%
%TO.N,SDA*%
X110430000Y-73960000D03*
D20*
X110430000Y-74860000D03*
%TD*%
D18*
%TO.P,R7,2*%
%TO.N,PEAK*%
X90225000Y-104862500D03*
%TO.P,R7,1*%
%TO.N,Net-(D2-COM)*%
X90225000Y-106512500D03*
%TD*%
D23*
%TO.P,R1,2*%
%TO.N,Net-(D1-COM)*%
X80700000Y-117837500D03*
%TO.P,R1,1*%
%TO.N,SiPM*%
X79050000Y-117837500D03*
%TD*%
D17*
%TO.P,C7,2*%
%TO.N,GND*%
X90050000Y-102000000D03*
%TO.P,C7,1*%
%TO.N,Net-(U3--)*%
X90050000Y-100450000D03*
%TD*%
D23*
%TO.P,R3,2*%
%TO.N,GND*%
X80650000Y-119437500D03*
%TO.P,R3,1*%
%TO.N,SiPM*%
X79000000Y-119437500D03*
%TD*%
D20*
%TO.P,J1,4,Pin_4*%
%TO.N,SCK*%
X55850000Y-81620000D03*
%TO.P,J1,3,Pin_3*%
%TO.N,TX*%
X55850000Y-79080000D03*
%TO.P,J1,2,Pin_2*%
%TO.N,RX*%
X55850000Y-76540000D03*
D21*
%TO.P,J1,1,Pin_1*%
%TO.N,CS*%
X55850000Y-74000000D03*
%TD*%
D16*
%TO.P,RV1,3,3*%
%TO.N,GND*%
X63900000Y-106850000D03*
%TO.P,RV1,2,2*%
%TO.N,Net-(C4-Pad2)*%
X66440000Y-106850000D03*
%TO.P,RV1,1,1*%
X68980000Y-106850000D03*
%TD*%
D23*
%TO.P,R10,2*%
%TO.N,SiPM*%
X76750000Y-112777500D03*
%TO.P,R10,1*%
%TO.N,STB_VREF*%
X75100000Y-112777500D03*
%TD*%
D13*
%TO.P,C3,2*%
%TO.N,GND*%
X77000000Y-110437500D03*
%TO.P,C3,1*%
%TO.N,VCC*%
X78550000Y-110437500D03*
%TD*%
D17*
%TO.P,C10,2*%
%TO.N,GND*%
X123200000Y-70825000D03*
%TO.P,C10,1*%
%TO.N,VCC*%
X123200000Y-69275000D03*
%TD*%
%TO.P,C11,2*%
%TO.N,GND*%
X81825000Y-104187500D03*
%TO.P,C11,1*%
%TO.N,VCC*%
X81825000Y-102637500D03*
%TD*%
D18*
%TO.P,R6,2*%
%TO.N,Net-(U3--)*%
X88275000Y-100412500D03*
%TO.P,R6,1*%
%TO.N,Net-(D2-K)*%
X88275000Y-102062500D03*
%TD*%
D24*
%TO.P,D1,3,COM*%
%TO.N,Net-(D1-COM)*%
X83300000Y-115925000D03*
%TO.P,D1,2,K*%
%TO.N,VCC*%
X82350000Y-114050000D03*
%TO.P,D1,1,A*%
%TO.N,GND*%
X84250000Y-114050000D03*
%TD*%
D15*
%TO.P,J4,2,Ext*%
%TO.N,GND*%
X76470000Y-131750000D03*
X76470000Y-136830000D03*
X81550000Y-131750000D03*
X81550000Y-136830000D03*
D16*
%TO.P,J4,1,In*%
%TO.N,BIAS*%
X79010000Y-134290000D03*
%TD*%
D25*
%TO.P,L1,2,2*%
%TO.N,VCC*%
X125150000Y-70887500D03*
%TO.P,L1,1,1*%
%TO.N,Net-(U8-47-OUT1_3V3)*%
X125150000Y-69312500D03*
%TD*%
D26*
%TO.P,C1,2*%
%TO.N,GND*%
X69480000Y-101250000D03*
%TO.P,C1,1*%
%TO.N,VCC*%
X69480000Y-102800000D03*
%TD*%
D27*
%TO.P,U8,*%
%TO.N,*%
X57840000Y-144600000D03*
X61650000Y-58870000D03*
X135310000Y-58870000D03*
X137850000Y-144600000D03*
D28*
%TO.P,U8,1,01-CAN-L*%
%TO.N,unconnected-(U8-01-CAN-L-Pad1)*%
X66730000Y-66490000D03*
D29*
%TO.P,U8,2,02*%
%TO.N,unconnected-(U8-02-Pad2)*%
X66730000Y-63950000D03*
%TO.P,U8,3,03-CAN-H*%
%TO.N,unconnected-(U8-03-CAN-H-Pad3)*%
X69270000Y-66490000D03*
%TO.P,U8,4,04*%
%TO.N,unconnected-(U8-04-Pad4)*%
X69270000Y-63950000D03*
%TO.P,U8,5,05*%
%TO.N,unconnected-(U8-05-Pad5)*%
X71810000Y-66490000D03*
%TO.P,U8,6,06*%
%TO.N,unconnected-(U8-06-Pad6)*%
X71810000Y-63950000D03*
%TO.P,U8,7,07*%
%TO.N,unconnected-(U8-07-Pad7)*%
X74350000Y-66490000D03*
%TO.P,U8,8,08*%
%TO.N,unconnected-(U8-08-Pad8)*%
X74350000Y-63950000D03*
%TO.P,U8,9,09-I2C2_SDA*%
%TO.N,unconnected-(U8-09-I2C2_SDA-Pad9)*%
X76890000Y-66490000D03*
%TO.P,U8,10,10*%
%TO.N,unconnected-(U8-Pad10)*%
X76890000Y-63950000D03*
%TO.P,U8,11,11-I2C2_SCL*%
%TO.N,unconnected-(U8-11-I2C2_SCL-Pad11)*%
X79430000Y-66490000D03*
%TO.P,U8,12,12*%
%TO.N,unconnected-(U8-Pad12)*%
X79430000Y-63950000D03*
%TO.P,U8,13,13*%
%TO.N,unconnected-(U8-Pad13)*%
X81970000Y-66490000D03*
%TO.P,U8,14,14*%
%TO.N,unconnected-(U8-Pad14)*%
X81970000Y-63950000D03*
%TO.P,U8,15,15*%
%TO.N,unconnected-(U8-Pad15)*%
X84510000Y-66490000D03*
%TO.P,U8,16,16*%
%TO.N,unconnected-(U8-Pad16)*%
X84510000Y-63950000D03*
%TO.P,U8,17,17*%
%TO.N,unconnected-(U8-Pad17)*%
X87050000Y-66490000D03*
%TO.P,U8,18,18*%
%TO.N,unconnected-(U8-Pad18)*%
X87050000Y-63950000D03*
%TO.P,U8,19,19-RX*%
%TO.N,unconnected-(U8-19-RX-Pad19)*%
X89590000Y-66490000D03*
%TO.P,U8,20,TX-20*%
%TO.N,unconnected-(U8-TX-20-Pad20)*%
X89590000Y-63950000D03*
%TO.P,U8,21,21*%
%TO.N,unconnected-(U8-Pad21)*%
X92130000Y-66490000D03*
%TO.P,U8,22,22*%
%TO.N,unconnected-(U8-Pad22)*%
X92130000Y-63950000D03*
%TO.P,U8,23,23*%
%TO.N,unconnected-(U8-Pad23)*%
X94670000Y-66490000D03*
%TO.P,U8,24,24*%
%TO.N,unconnected-(U8-Pad24)*%
X94670000Y-63950000D03*
%TO.P,U8,25,25*%
%TO.N,unconnected-(U8-Pad25)*%
X97210000Y-66490000D03*
%TO.P,U8,26,26*%
%TO.N,unconnected-(U8-Pad26)*%
X97210000Y-63950000D03*
%TO.P,U8,27,27*%
%TO.N,unconnected-(U8-Pad27)*%
X99750000Y-66490000D03*
%TO.P,U8,28,28*%
%TO.N,unconnected-(U8-Pad28)*%
X99750000Y-63950000D03*
%TO.P,U8,29,29*%
%TO.N,unconnected-(U8-Pad29)*%
X102290000Y-66490000D03*
%TO.P,U8,30,30*%
%TO.N,unconnected-(U8-Pad30)*%
X102290000Y-63950000D03*
%TO.P,U8,31,31*%
%TO.N,unconnected-(U8-Pad31)*%
X104830000Y-66490000D03*
%TO.P,U8,32,5V0_IN-32*%
%TO.N,unconnected-(U8-5V0_IN-32-Pad32)*%
X104830000Y-63950000D03*
%TO.P,U8,33,33*%
%TO.N,unconnected-(U8-Pad33)*%
X107370000Y-66490000D03*
%TO.P,U8,34,34*%
%TO.N,unconnected-(U8-Pad34)*%
X107370000Y-63950000D03*
%TO.P,U8,35,35*%
%TO.N,unconnected-(U8-Pad35)*%
X109910000Y-66490000D03*
%TO.P,U8,36,36*%
%TO.N,unconnected-(U8-Pad36)*%
X109910000Y-63950000D03*
%TO.P,U8,37,37*%
%TO.N,unconnected-(U8-Pad37)*%
X112450000Y-66490000D03*
%TO.P,U8,38,38*%
%TO.N,unconnected-(U8-Pad38)*%
X112450000Y-63950000D03*
%TO.P,U8,39,39-TXD*%
%TO.N,unconnected-(U8-39-TXD-Pad39)*%
X114990000Y-66490000D03*
%TO.P,U8,40,RXD-40*%
%TO.N,unconnected-(U8-RXD-40-Pad40)*%
X114990000Y-63950000D03*
%TO.P,U8,41,41-I2C-SDA*%
%TO.N,SDA*%
X117530000Y-66490000D03*
%TO.P,U8,42,42*%
%TO.N,unconnected-(U8-Pad42)*%
X117530000Y-63950000D03*
%TO.P,U8,43,43-I2C-SCL*%
%TO.N,SCL*%
X120070000Y-66490000D03*
%TO.P,U8,44,44*%
%TO.N,unconnected-(U8-Pad44)*%
X120070000Y-63950000D03*
%TO.P,U8,45,45*%
%TO.N,unconnected-(U8-Pad45)*%
X122610000Y-66490000D03*
%TO.P,U8,46,46*%
%TO.N,unconnected-(U8-Pad46)*%
X122610000Y-63950000D03*
%TO.P,U8,47,47-OUT1_3V3*%
%TO.N,Net-(U8-47-OUT1_3V3)*%
X125150000Y-66490000D03*
%TO.P,U8,48,OUT4_5V0-48*%
%TO.N,+5V*%
X125150000Y-63950000D03*
%TO.P,U8,49,49-OUT2_3V3*%
%TO.N,unconnected-(U8-49-OUT2_3V3-Pad49)*%
X127690000Y-66490000D03*
%TO.P,U8,50,OUT5_5V0-50*%
%TO.N,unconnected-(U8-OUT5_5V0-50-Pad50)*%
X127690000Y-63950000D03*
%TO.P,U8,51,51-OUT3_3V3*%
%TO.N,unconnected-(U8-51-OUT3_3V3-Pad51)*%
X130230000Y-66490000D03*
%TO.P,U8,52,OUT6_5V0-52*%
%TO.N,unconnected-(U8-OUT6_5V0-52-Pad52)*%
X130230000Y-63950000D03*
%TO.P,U8,53,01*%
%TO.N,unconnected-(U8-01-Pad53)*%
X66730000Y-61410000D03*
%TO.P,U8,54,02*%
%TO.N,unconnected-(U8-02-Pad54)*%
X66730000Y-58870000D03*
%TO.P,U8,55,03*%
%TO.N,unconnected-(U8-03-Pad55)*%
X69270000Y-61410000D03*
%TO.P,U8,56,04*%
%TO.N,unconnected-(U8-04-Pad56)*%
X69270000Y-58870000D03*
%TO.P,U8,57,05*%
%TO.N,unconnected-(U8-05-Pad57)*%
X71810000Y-61410000D03*
%TO.P,U8,58,06*%
%TO.N,unconnected-(U8-06-Pad58)*%
X71810000Y-58870000D03*
%TO.P,U8,59,07*%
%TO.N,unconnected-(U8-07-Pad59)*%
X74350000Y-61410000D03*
%TO.P,U8,60,08*%
%TO.N,unconnected-(U8-08-Pad60)*%
X74350000Y-58870000D03*
%TO.P,U8,61,09*%
%TO.N,unconnected-(U8-09-Pad61)*%
X76890000Y-61410000D03*
%TO.P,U8,62,10*%
%TO.N,unconnected-(U8-10-Pad62)*%
X76890000Y-58870000D03*
%TO.P,U8,63,11*%
%TO.N,unconnected-(U8-11-Pad63)*%
X79430000Y-61410000D03*
%TO.P,U8,64,12*%
%TO.N,unconnected-(U8-12-Pad64)*%
X79430000Y-58870000D03*
%TO.P,U8,65,13*%
%TO.N,unconnected-(U8-13-Pad65)*%
X81970000Y-61410000D03*
%TO.P,U8,66,14*%
%TO.N,unconnected-(U8-14-Pad66)*%
X81970000Y-58870000D03*
%TO.P,U8,67,15*%
%TO.N,unconnected-(U8-15-Pad67)*%
X84510000Y-61410000D03*
%TO.P,U8,68,16*%
%TO.N,unconnected-(U8-16-Pad68)*%
X84510000Y-58870000D03*
%TO.P,U8,69,17*%
%TO.N,unconnected-(U8-17-Pad69)*%
X87050000Y-61410000D03*
%TO.P,U8,70,18*%
%TO.N,unconnected-(U8-18-Pad70)*%
X87050000Y-58870000D03*
%TO.P,U8,71,19*%
%TO.N,unconnected-(U8-19-Pad71)*%
X89590000Y-61410000D03*
%TO.P,U8,72,20*%
%TO.N,unconnected-(U8-20-Pad72)*%
X89590000Y-58870000D03*
%TO.P,U8,73,21*%
%TO.N,unconnected-(U8-21-Pad73)*%
X92130000Y-61410000D03*
%TO.P,U8,74,22*%
%TO.N,unconnected-(U8-22-Pad74)*%
X92130000Y-58870000D03*
%TO.P,U8,75,23*%
%TO.N,unconnected-(U8-23-Pad75)*%
X94670000Y-61410000D03*
%TO.P,U8,76,24*%
%TO.N,unconnected-(U8-24-Pad76)*%
X94670000Y-58870000D03*
%TO.P,U8,77,25-5V0*%
%TO.N,unconnected-(U8-25-5V0-Pad77)*%
X97210000Y-61410000D03*
%TO.P,U8,78,5V0-26*%
%TO.N,unconnected-(U8-5V0-26-Pad78)*%
X97210000Y-58870000D03*
%TO.P,U8,79,27-3V3*%
%TO.N,unconnected-(U8-27-3V3-Pad79)*%
X99750000Y-61410000D03*
%TO.P,U8,80,3V3-28*%
%TO.N,unconnected-(U8-3V3-28-Pad80)*%
X99750000Y-58870000D03*
%TO.P,U8,81,29-GND*%
%TO.N,unconnected-(U8-29-GND-Pad81)*%
X102290000Y-61410000D03*
%TO.P,U8,82,GND-30*%
%TO.N,unconnected-(U8-GND-30-Pad82)*%
X102290000Y-58870000D03*
%TO.P,U8,83,31-AGND*%
%TO.N,GND*%
X104830000Y-61410000D03*
%TO.P,U8,84,GND-32*%
%TO.N,unconnected-(U8-GND-32-Pad84)*%
X104830000Y-58870000D03*
%TO.P,U8,85,33*%
%TO.N,unconnected-(U8-33-Pad85)*%
X107370000Y-61410000D03*
%TO.P,U8,86,34*%
%TO.N,unconnected-(U8-34-Pad86)*%
X107370000Y-58870000D03*
%TO.P,U8,87,35-RX2*%
%TO.N,unconnected-(U8-35-RX2-Pad87)*%
X109910000Y-61410000D03*
%TO.P,U8,88,EPS_RX-36*%
%TO.N,unconnected-(U8-EPS_RX-36-Pad88)*%
X109910000Y-58870000D03*
%TO.P,U8,89,37-TX2*%
%TO.N,unconnected-(U8-37-TX2-Pad89)*%
X112450000Y-61410000D03*
%TO.P,U8,90,EPS_TX-38*%
%TO.N,unconnected-(U8-EPS_TX-38-Pad90)*%
X112450000Y-58870000D03*
%TO.P,U8,91,39*%
%TO.N,unconnected-(U8-39-Pad91)*%
X114990000Y-61410000D03*
%TO.P,U8,92,40*%
%TO.N,unconnected-(U8-40-Pad92)*%
X114990000Y-58870000D03*
%TO.P,U8,93,41*%
%TO.N,unconnected-(U8-41-Pad93)*%
X117530000Y-61410000D03*
%TO.P,U8,94,42*%
%TO.N,unconnected-(U8-42-Pad94)*%
X117530000Y-58870000D03*
%TO.P,U8,95,43*%
%TO.N,unconnected-(U8-43-Pad95)*%
X120070000Y-61410000D03*
%TO.P,U8,96,44*%
%TO.N,unconnected-(U8-44-Pad96)*%
X120070000Y-58870000D03*
%TO.P,U8,97,45-V_BAT*%
%TO.N,unconnected-(U8-45-V_BAT-Pad97)*%
X122610000Y-61410000D03*
%TO.P,U8,98,V_BAT-46*%
%TO.N,unconnected-(U8-V_BAT-46-Pad98)*%
X122610000Y-58870000D03*
%TO.P,U8,99,47*%
%TO.N,unconnected-(U8-47-Pad99)*%
X125150000Y-61410000D03*
%TO.P,U8,100,48*%
%TO.N,unconnected-(U8-48-Pad100)*%
X125150000Y-58870000D03*
%TO.P,U8,101,49*%
%TO.N,unconnected-(U8-49-Pad101)*%
X127690000Y-61410000D03*
%TO.P,U8,102,50*%
%TO.N,unconnected-(U8-50-Pad102)*%
X127690000Y-58870000D03*
%TO.P,U8,103,51*%
%TO.N,unconnected-(U8-51-Pad103)*%
X130230000Y-61410000D03*
%TO.P,U8,104,52*%
%TO.N,unconnected-(U8-52-Pad104)*%
X130230000Y-58870000D03*
%TD*%
D30*
%TO.P,REF\u002A\u002A,1*%
%TO.N,GND*%
X130150000Y-144750000D03*
%TD*%
D18*
%TO.P,R17,2*%
%TO.N,GND*%
X120000000Y-96375000D03*
%TO.P,R17,1*%
%TO.N,Net-(IC1-FB)*%
X120000000Y-98025000D03*
%TD*%
D30*
%TO.P,REF\u002A\u002A,1*%
%TO.N,GND*%
X95150000Y-144750000D03*
%TD*%
D17*
%TO.P,C4,2*%
%TO.N,Net-(C4-Pad2)*%
X64030000Y-102825000D03*
%TO.P,C4,1*%
%TO.N,GND*%
X64030000Y-101275000D03*
%TD*%
D11*
%TO.P,Q1,3,D*%
%TO.N,Net-(Q1-D)*%
X84425000Y-97737500D03*
%TO.P,Q1,2,S*%
%TO.N,GND*%
X82550000Y-98687500D03*
%TO.P,Q1,1,G*%
%TO.N,RST*%
X82550000Y-96787500D03*
%TD*%
D31*
%TO.P,U6,3,NC*%
%TO.N,unconnected-(U6-NC-Pad3)*%
X113767500Y-70100000D03*
%TO.P,U6,2,-*%
%TO.N,GND*%
X115887500Y-69150000D03*
%TO.P,U6,1,+*%
%TO.N,STB_VREF*%
X115887500Y-71050000D03*
%TD*%
D30*
%TO.P,REF\u002A\u002A,1*%
%TO.N,GND*%
X130150000Y-109750000D03*
%TD*%
D32*
%TO.P,R9,2*%
%TO.N,STB_VREF*%
X118050000Y-70875000D03*
%TO.P,R9,1*%
%TO.N,VCC*%
X118050000Y-69225000D03*
%TD*%
D33*
%TO.P,R15,2*%
%TO.N,Net-(IC1-MONIN)*%
X124775000Y-102000000D03*
%TO.P,R15,1*%
%TO.N,BIAS*%
X126425000Y-102000000D03*
%TD*%
D13*
%TO.P,C6,2*%
%TO.N,Net-(IC1-FB)*%
X121525000Y-101250000D03*
%TO.P,C6,1*%
%TO.N,Net-(IC1-MONIN)*%
X123075000Y-101250000D03*
%TD*%
D17*
%TO.P,C12,2*%
%TO.N,GND*%
X93800000Y-106425000D03*
%TO.P,C12,1*%
%TO.N,VCC*%
X93800000Y-104875000D03*
%TD*%
D33*
%TO.P,R8,2*%
%TO.N,Net-(Q1-D)*%
X86650000Y-98587500D03*
%TO.P,R8,1*%
%TO.N,Net-(U3--)*%
X88300000Y-98587500D03*
%TD*%
%TO.P,R14,2*%
%TO.N,Net-(IC1-~{SHDN})*%
X123325000Y-93250000D03*
%TO.P,R14,1*%
%TO.N,+5V*%
X124975000Y-93250000D03*
%TD*%
D30*
%TO.P,REF\u002A\u002A,1*%
%TO.N,GND*%
X95150000Y-109750000D03*
%TD*%
D20*
%TO.P,J2,2,Pin_2*%
%TO.N,UART1TX*%
X55850000Y-87740000D03*
D21*
%TO.P,J2,1,Pin_1*%
%TO.N,UART1RX*%
X55850000Y-85200000D03*
%TD*%
D20*
%TO.P,J3,4,Pin_4*%
%TO.N,SDA*%
X55850000Y-70420000D03*
%TO.P,J3,3,Pin_3*%
%TO.N,SCL*%
X55850000Y-67880000D03*
%TO.P,J3,2,Pin_2*%
%TO.N,VCC*%
X55850000Y-65340000D03*
D21*
%TO.P,J3,1,Pin_1*%
%TO.N,GND*%
X55850000Y-62800000D03*
%TD*%
D34*
%TO.P,IC1,17,EP*%
%TO.N,GND*%
X124650000Y-98050000D03*
D35*
%TO.P,IC1,16,MON*%
%TO.N,Net-(IC1-MON)*%
X123200000Y-98800000D03*
%TO.P,IC1,15,FB*%
%TO.N,Net-(IC1-FB)*%
X123200000Y-98300000D03*
%TO.P,IC1,14,CTRL*%
%TO.N,Net-(IC1-CTRL)*%
X123200000Y-97800000D03*
%TO.P,IC1,13,VREF*%
X123200000Y-97300000D03*
D36*
%TO.P,IC1,12,~{SHDN}*%
%TO.N,Net-(IC1-~{SHDN})*%
X123900000Y-96600000D03*
%TO.P,IC1,11,VIN*%
%TO.N,+5V*%
X124400000Y-96600000D03*
%TO.P,IC1,10,GND_2*%
%TO.N,GND*%
X124900000Y-96600000D03*
%TO.P,IC1,9,RT*%
%TO.N,Net-(IC1-RT)*%
X125400000Y-96600000D03*
D35*
%TO.P,IC1,8,SYNC*%
%TO.N,GND*%
X126100000Y-97300000D03*
%TO.P,IC1,7,GND_1*%
X126100000Y-97800000D03*
%TO.P,IC1,6,SW_2*%
%TO.N,Net-(IC1-SW_1)*%
X126100000Y-98300000D03*
%TO.P,IC1,5,SW_1*%
X126100000Y-98800000D03*
D36*
%TO.P,IC1,4,VOUT*%
%TO.N,BIAS*%
X125400000Y-99500000D03*
%TO.P,IC1,3,MONIN*%
%TO.N,Net-(IC1-MONIN)*%
X124900000Y-99500000D03*
%TO.P,IC1,2,APD*%
%TO.N,unconnected-(IC1-APD-Pad2)*%
X124400000Y-99500000D03*
%TO.P,IC1,1*%
%TO.N,N/C*%
X123900000Y-99500000D03*
%TD*%
D37*
%TO.P,L2,2,2*%
%TO.N,Net-(IC1-SW_1)*%
X131200000Y-100175000D03*
%TO.P,L2,1,1*%
%TO.N,+5V*%
X131200000Y-94725000D03*
%TD*%
D33*
%TO.P,R16,2*%
%TO.N,Net-(IC1-FB)*%
X121475000Y-103050000D03*
%TO.P,R16,1*%
%TO.N,Net-(IC1-MONIN)*%
X123125000Y-103050000D03*
%TD*%
D38*
%TO.P,U1,5*%
%TO.N,VCC*%
X67730000Y-102650000D03*
%TO.P,U1,4*%
%TO.N,Net-(C4-Pad2)*%
X65830000Y-102650000D03*
%TO.P,U1,3*%
%TO.N,SIG*%
X65830000Y-100140000D03*
%TO.P,U1,2*%
%TO.N,GND*%
X66780000Y-100140000D03*
%TO.P,U1,1*%
%TO.N,INT*%
X67730000Y-100140000D03*
%TD*%
D33*
%TO.P,R4,2*%
%TO.N,Net-(U2--)*%
X80575000Y-110437500D03*
%TO.P,R4,1*%
%TO.N,GND*%
X82225000Y-110437500D03*
%TD*%
D17*
%TO.P,C9,2*%
%TO.N,GND*%
X121500000Y-70825000D03*
%TO.P,C9,1*%
%TO.N,VCC*%
X121500000Y-69275000D03*
%TD*%
D39*
%TO.P,U7,3,NC*%
%TO.N,unconnected-(U7-NC-Pad3)*%
X96800000Y-99382500D03*
%TO.P,U7,2,-*%
%TO.N,GND*%
X95850000Y-97262500D03*
%TO.P,U7,1,+*%
%TO.N,VREF*%
X97750000Y-97262500D03*
%TD*%
D23*
%TO.P,R11,2*%
%TO.N,SiPM*%
X76750000Y-115287500D03*
%TO.P,R11,1*%
%TO.N,STB_VREF*%
X75100000Y-115287500D03*
%TD*%
D40*
%TO.N,GND*%
X105750000Y-68550000D03*
X94700000Y-96750000D03*
X94900000Y-106200000D03*
X84250000Y-112800000D03*
X119050000Y-95600000D03*
X121750000Y-93850000D03*
X115900000Y-70050000D03*
X123150000Y-72200000D03*
X121500000Y-71950000D03*
X119800000Y-72000000D03*
%TO.N,VCC*%
X125500000Y-72000000D03*
%TO.N,SCL*%
X108600000Y-68700000D03*
%TO.N,SCK*%
X74076089Y-82426089D03*
D41*
%TO.N,*%
X78550000Y-122150000D03*
X77705026Y-116755026D03*
X78550000Y-120750000D03*
X78058579Y-118381371D03*
X78550000Y-121450000D03*
X79450000Y-122150000D03*
X79450000Y-122850000D03*
X79450000Y-124250000D03*
X78200000Y-117250000D03*
X78550000Y-123550000D03*
X76250000Y-116250000D03*
X79450000Y-123550000D03*
X79450000Y-120750000D03*
X77563604Y-117886396D03*
X79700000Y-120250000D03*
X77210051Y-116260051D03*
X78550000Y-124250000D03*
X78200000Y-119600000D03*
X76573655Y-116896447D03*
X77068630Y-117391422D03*
X78550000Y-122850000D03*
X78250000Y-118850000D03*
X78200000Y-120300000D03*
X79450000Y-121450000D03*
D40*
%TO.N,VCC*%
X117050000Y-75700000D03*
X117050000Y-68050000D03*
X70400000Y-103900000D03*
X117050000Y-84800000D03*
%TO.N,GND*%
X66780000Y-98600000D03*
X75600000Y-110437500D03*
X111750000Y-105500000D03*
X67700000Y-101400000D03*
X65500000Y-101400000D03*
X65750000Y-104900000D03*
X121300000Y-82700000D03*
X124200000Y-98450000D03*
X64030000Y-100100000D03*
X85025000Y-101287500D03*
X90050000Y-103450000D03*
X62230000Y-103500000D03*
X125050000Y-97600000D03*
X81800000Y-119437500D03*
X69480000Y-100075000D03*
X129450000Y-88450000D03*
X79600000Y-116687500D03*
X91950000Y-98950000D03*
X83475000Y-110437500D03*
%TO.N,Net-(U3--)*%
X82575000Y-100687500D03*
X87325000Y-99787500D03*
%TO.N,Net-(U2--)*%
X79600000Y-111587500D03*
%TO.N,SIG*%
X85650000Y-99700000D03*
X64350000Y-99200000D03*
X87400000Y-96200000D03*
X78050000Y-114187500D03*
%TO.N,STB_VREF*%
X115900000Y-74050000D03*
X115900000Y-75750000D03*
%TO.N,+5V*%
X127450000Y-75350000D03*
X127450000Y-68450000D03*
%TO.N,Net-(IC1-MON)*%
X121600000Y-99550000D03*
%TO.N,BIAS*%
X126250000Y-100350000D03*
%TO.N,Net-(IC1-RT)*%
X126450000Y-95700000D03*
%TD*%
D42*
%TO.N,GND*%
X105930000Y-68370000D02*
X105750000Y-68550000D01*
X105930000Y-62510000D02*
X105930000Y-68370000D01*
X104830000Y-61410000D02*
X105930000Y-62510000D01*
X95212500Y-97262500D02*
X94700000Y-96750000D01*
X95850000Y-97262500D02*
X95212500Y-97262500D01*
X94675000Y-106425000D02*
X94900000Y-106200000D01*
X93800000Y-106425000D02*
X94675000Y-106425000D01*
X84250000Y-114050000D02*
X84250000Y-112800000D01*
X119825000Y-96375000D02*
X119050000Y-95600000D01*
X120000000Y-96375000D02*
X119825000Y-96375000D01*
X121775000Y-93875000D02*
X121750000Y-93850000D01*
X121775000Y-95000000D02*
X121775000Y-93875000D01*
X115887500Y-70037500D02*
X115900000Y-70050000D01*
X115887500Y-69150000D02*
X115887500Y-70037500D01*
%TO.N,VCC*%
X125150000Y-71650000D02*
X125150000Y-70887500D01*
X125500000Y-72000000D02*
X125150000Y-71650000D01*
%TO.N,GND*%
X123200000Y-72150000D02*
X123150000Y-72200000D01*
X123200000Y-70825000D02*
X123200000Y-72150000D01*
X121500000Y-70825000D02*
X121500000Y-71950000D01*
X119800000Y-70825000D02*
X119800000Y-72000000D01*
D43*
%TO.N,+5V*%
X126540000Y-65340000D02*
X125150000Y-63950000D01*
X126540000Y-67540000D02*
X126540000Y-65340000D01*
X127450000Y-68450000D02*
X126540000Y-67540000D01*
X127450000Y-75350000D02*
X124975000Y-77825000D01*
X124975000Y-77825000D02*
X124975000Y-93250000D01*
D42*
%TO.N,SCL*%
X108600000Y-69550000D02*
X108600000Y-68700000D01*
X107050000Y-71100000D02*
X108600000Y-69550000D01*
%TO.N,SDA*%
X116390000Y-65350000D02*
X117530000Y-66490000D01*
X111694365Y-65350000D02*
X116390000Y-65350000D01*
X111350000Y-65694365D02*
X111694365Y-65350000D01*
X110430000Y-74860000D02*
X111350000Y-73940000D01*
X111350000Y-73940000D02*
X111350000Y-65694365D01*
%TO.N,SCL*%
X107050000Y-71100000D02*
X107890000Y-71940000D01*
X107890000Y-71940000D02*
X107890000Y-74860000D01*
X61050000Y-71100000D02*
X107050000Y-71100000D01*
X57830000Y-67880000D02*
X61050000Y-71100000D01*
X55850000Y-67880000D02*
X57830000Y-67880000D01*
%TO.N,SCK*%
X102810000Y-77340000D02*
X102810000Y-74860000D01*
X100670000Y-79480000D02*
X102810000Y-77340000D01*
X74076089Y-82426089D02*
X77022178Y-79480000D01*
X77022178Y-79480000D02*
X100670000Y-79480000D01*
%TO.N,RX*%
X97730000Y-77120000D02*
X97730000Y-74860000D01*
X96170000Y-78680000D02*
X97730000Y-77120000D01*
X57990000Y-78680000D02*
X96170000Y-78680000D01*
X55850000Y-76540000D02*
X57990000Y-78680000D01*
%TO.N,TX*%
X100270000Y-76730000D02*
X100270000Y-74860000D01*
X55850000Y-79080000D02*
X97920000Y-79080000D01*
X97920000Y-79080000D02*
X100270000Y-76730000D01*
%TO.N,CS*%
X95190000Y-76834314D02*
X95190000Y-74860000D01*
X93744314Y-78280000D02*
X95190000Y-76834314D01*
X60130000Y-78280000D02*
X93744314Y-78280000D01*
X55850000Y-74000000D02*
X60130000Y-78280000D01*
%TO.N,VCC*%
X81975000Y-102612500D02*
X81925000Y-102662500D01*
D43*
X92500000Y-105700000D02*
X93325000Y-104875000D01*
X80550000Y-103000000D02*
X80550000Y-106000000D01*
D42*
X78600000Y-110587500D02*
X78600000Y-112912500D01*
X118100000Y-69275000D02*
X118050000Y-69225000D01*
X124812500Y-70887500D02*
X123200000Y-69275000D01*
D43*
X92825000Y-104175000D02*
X92825000Y-102987500D01*
D42*
X83850000Y-102612500D02*
X83850000Y-101662500D01*
X121500000Y-69275000D02*
X119800000Y-69275000D01*
X118050000Y-69050000D02*
X117050000Y-68050000D01*
D43*
X105412500Y-102987500D02*
X107625000Y-100775000D01*
X79950000Y-107550000D02*
X78550000Y-108950000D01*
D42*
X123200000Y-69275000D02*
X121500000Y-69275000D01*
X118050000Y-69225000D02*
X118050000Y-69050000D01*
X83850000Y-102612500D02*
X81850000Y-102612500D01*
D43*
X78550000Y-108950000D02*
X78550000Y-110437500D01*
D42*
X125150000Y-70887500D02*
X124812500Y-70887500D01*
D43*
X117050000Y-91350000D02*
X107625000Y-100775000D01*
X92500000Y-106950000D02*
X92500000Y-105700000D01*
X93800000Y-104875000D02*
X93525000Y-104875000D01*
X92825000Y-102987500D02*
X93775000Y-102987500D01*
X81825000Y-102637500D02*
X80912500Y-102637500D01*
X80550000Y-106000000D02*
X82100000Y-107550000D01*
X91900000Y-107550000D02*
X92500000Y-106950000D01*
X79600000Y-112962500D02*
X79600000Y-113661396D01*
D42*
X81850000Y-102612500D02*
X81825000Y-102637500D01*
D43*
X93775000Y-102987500D02*
X105412500Y-102987500D01*
X69480000Y-102980000D02*
X70400000Y-103900000D01*
D42*
X78600000Y-112912500D02*
X78650000Y-112962500D01*
X78650000Y-112962500D02*
X79600000Y-112962500D01*
D43*
X117050000Y-75700000D02*
X117050000Y-84800000D01*
X79600000Y-113661396D02*
X79988604Y-114050000D01*
X80912500Y-102637500D02*
X80550000Y-103000000D01*
D42*
X93325000Y-104875000D02*
X93800000Y-104875000D01*
D43*
X79988604Y-114050000D02*
X82350000Y-114050000D01*
X93525000Y-104875000D02*
X92825000Y-104175000D01*
D42*
X67795000Y-102715000D02*
X67730000Y-102650000D01*
D43*
X82100000Y-107550000D02*
X79950000Y-107550000D01*
X82100000Y-107550000D02*
X91900000Y-107550000D01*
D42*
X69480000Y-102715000D02*
X67795000Y-102715000D01*
D43*
X69480000Y-102800000D02*
X69480000Y-102980000D01*
X117050000Y-84800000D02*
X117050000Y-91350000D01*
D42*
X119800000Y-69275000D02*
X118100000Y-69275000D01*
D43*
%TO.N,GND*%
X125050000Y-97600000D02*
X124900000Y-97450000D01*
X65550000Y-101350000D02*
X65500000Y-101400000D01*
D42*
X79950000Y-73300000D02*
X79950000Y-74860000D01*
D43*
X66350000Y-101400000D02*
X66375000Y-101400000D01*
X125800000Y-97600000D02*
X125900000Y-97600000D01*
X66375000Y-101400000D02*
X66780000Y-100995000D01*
X84125000Y-104162500D02*
X85025000Y-103262500D01*
D42*
X83123896Y-98687500D02*
X82550000Y-98687500D01*
X66780000Y-100140000D02*
X66780000Y-98600000D01*
X63900000Y-106850000D02*
X63900000Y-105170000D01*
X64030000Y-101275000D02*
X64030000Y-100100000D01*
X115887500Y-69150000D02*
X116090000Y-68947500D01*
D43*
X65750000Y-104900000D02*
X66780000Y-103870000D01*
X125800000Y-97600000D02*
X126100000Y-97300000D01*
D42*
X86125000Y-101662500D02*
X85776104Y-101662500D01*
X79600000Y-115237500D02*
X79600000Y-116687500D01*
D43*
X124900000Y-97450000D02*
X124900000Y-96600000D01*
D42*
X69480000Y-101250000D02*
X69480000Y-100075000D01*
D43*
X92825000Y-100712500D02*
X92825000Y-99825000D01*
D42*
X63900000Y-105170000D02*
X62230000Y-103500000D01*
D43*
X85025000Y-103262500D02*
X85025000Y-101287500D01*
X67210000Y-101400000D02*
X67700000Y-101400000D01*
D42*
X106100000Y-74110000D02*
X105350000Y-74860000D01*
X67250000Y-72850000D02*
X67250000Y-74860000D01*
D43*
X65500000Y-101400000D02*
X66350000Y-101400000D01*
X66780000Y-100995000D02*
X66780000Y-100970000D01*
X125050000Y-97600000D02*
X125800000Y-97600000D01*
X90050000Y-102000000D02*
X90050000Y-103450000D01*
X92825000Y-99825000D02*
X91950000Y-98950000D01*
D42*
X77000000Y-110437500D02*
X75600000Y-110437500D01*
D43*
X85025000Y-100588604D02*
X83123896Y-98687500D01*
D42*
X85400000Y-101662500D02*
X85025000Y-101287500D01*
D43*
X85025000Y-101287500D02*
X85025000Y-100588604D01*
X125900000Y-97600000D02*
X126100000Y-97800000D01*
D42*
X86125000Y-101662500D02*
X85400000Y-101662500D01*
D43*
X66780000Y-103870000D02*
X66780000Y-100995000D01*
D42*
X82225000Y-110437500D02*
X83475000Y-110437500D01*
D43*
X66780000Y-100970000D02*
X67210000Y-101400000D01*
X66780000Y-100970000D02*
X66780000Y-100140000D01*
D42*
X81825000Y-104187500D02*
X81850000Y-104162500D01*
X80650000Y-119437500D02*
X81800000Y-119437500D01*
X64105000Y-101200000D02*
X64030000Y-101275000D01*
D43*
X81850000Y-104162500D02*
X84125000Y-104162500D01*
D42*
%TO.N,Net-(C4-Pad2)*%
X63980000Y-102875000D02*
X64030000Y-102825000D01*
X70230000Y-106850000D02*
X68980000Y-106850000D01*
X71430000Y-102825000D02*
X71430000Y-105650000D01*
X65830000Y-102650000D02*
X64205000Y-102650000D01*
X71430000Y-105650000D02*
X70230000Y-106850000D01*
X64205000Y-102650000D02*
X64030000Y-102825000D01*
X66440000Y-106850000D02*
X63980000Y-104390000D01*
X68980000Y-106850000D02*
X66440000Y-106850000D01*
X63980000Y-104390000D02*
X63980000Y-102875000D01*
%TO.N,Net-(U3--)*%
X88312500Y-100450000D02*
X88275000Y-100412500D01*
X91875000Y-100712500D02*
X90312500Y-100712500D01*
X90050000Y-100450000D02*
X88312500Y-100450000D01*
X82575000Y-100687500D02*
X83825000Y-100687500D01*
X87950000Y-100412500D02*
X87325000Y-99787500D01*
X83825000Y-100687500D02*
X83850000Y-100712500D01*
X88275000Y-98612500D02*
X88300000Y-98587500D01*
X88275000Y-100412500D02*
X87950000Y-100412500D01*
X88275000Y-100412500D02*
X88275000Y-98612500D01*
%TO.N,Net-(D2-A)*%
X86287500Y-104512500D02*
X86287500Y-102775000D01*
X86287500Y-102775000D02*
X86125000Y-102612500D01*
%TO.N,Net-(D2-K)*%
X88275000Y-103936948D02*
X88275000Y-102062500D01*
X86287500Y-105924448D02*
X88275000Y-103936948D01*
X86287500Y-106412500D02*
X86287500Y-105924448D01*
%TO.N,Net-(D2-COM)*%
X88162500Y-105462500D02*
X88162500Y-106075000D01*
X88575000Y-106487500D02*
X90200000Y-106487500D01*
X88162500Y-106075000D02*
X88575000Y-106487500D01*
X90200000Y-106487500D02*
X90225000Y-106512500D01*
D44*
%TO.N,SiPM*%
X76750000Y-115287500D02*
X76750000Y-116437500D01*
D42*
X79000000Y-117887500D02*
X79050000Y-117837500D01*
D44*
X76750000Y-115287500D02*
X76750000Y-114087500D01*
X79000000Y-125650000D02*
X79000000Y-119437500D01*
X79000000Y-119437500D02*
X79000000Y-118637500D01*
X76750000Y-116437500D02*
X78200000Y-117887500D01*
X79000000Y-118637500D02*
X79000000Y-117887500D01*
X78200000Y-117887500D02*
X79000000Y-117887500D01*
X76750000Y-114087500D02*
X76750000Y-112777500D01*
D42*
%TO.N,Net-(D1-COM)*%
X82600000Y-117837500D02*
X83300000Y-117137500D01*
X80700000Y-115387500D02*
X80550000Y-115237500D01*
X80700000Y-117837500D02*
X80700000Y-115387500D01*
X80700000Y-117837500D02*
X82600000Y-117837500D01*
X83300000Y-117137500D02*
X83300000Y-115925000D01*
%TO.N,RST*%
X82490000Y-96727500D02*
X82490000Y-92640000D01*
X82550000Y-96787500D02*
X82490000Y-96727500D01*
%TO.N,Net-(Q1-D)*%
X85275000Y-98587500D02*
X84425000Y-97737500D01*
X86650000Y-98587500D02*
X85275000Y-98587500D01*
%TO.N,Net-(U8-47-OUT1_3V3)*%
X125150000Y-66490000D02*
X125150000Y-69312500D01*
%TO.N,Net-(U2--)*%
X80362500Y-111587500D02*
X80575000Y-111375000D01*
X80362500Y-111587500D02*
X80550000Y-111775000D01*
X80550000Y-111775000D02*
X80550000Y-112962500D01*
X79600000Y-111587500D02*
X80362500Y-111587500D01*
X80575000Y-111375000D02*
X80575000Y-110437500D01*
%TO.N,SIG*%
X87400000Y-96200000D02*
X87570000Y-96030000D01*
X86125000Y-100712500D02*
X86125000Y-100175000D01*
X64350000Y-99200000D02*
X65290000Y-100140000D01*
X65290000Y-100140000D02*
X65830000Y-100140000D01*
X87570000Y-96030000D02*
X87570000Y-92640000D01*
X78050000Y-114637500D02*
X78650000Y-115237500D01*
X86125000Y-100175000D02*
X85650000Y-99700000D01*
X78050000Y-114187500D02*
X78050000Y-114637500D01*
D43*
%TO.N,STB_VREF*%
X112150000Y-88450000D02*
X115900000Y-84700000D01*
D42*
X118050000Y-70875000D02*
X117875000Y-71050000D01*
D43*
X71050000Y-91520000D02*
X74120000Y-88450000D01*
X115900000Y-74050000D02*
X115900000Y-71062500D01*
X73300000Y-110977500D02*
X75100000Y-112777500D01*
X73300000Y-103045000D02*
X73300000Y-110977500D01*
X74120000Y-88450000D02*
X112150000Y-88450000D01*
X71430000Y-101175000D02*
X71050000Y-100795000D01*
X71430000Y-101175000D02*
X73300000Y-103045000D01*
X71050000Y-100795000D02*
X71050000Y-91520000D01*
X115900000Y-71062500D02*
X115887500Y-71050000D01*
D42*
X75100000Y-112777500D02*
X75100000Y-115287500D01*
X117875000Y-71050000D02*
X115887500Y-71050000D01*
D43*
X115900000Y-84700000D02*
X115900000Y-75750000D01*
D42*
%TO.N,PEAK*%
X93550000Y-101800000D02*
X92200000Y-101800000D01*
X90225000Y-104862500D02*
X91450000Y-104862500D01*
X93775000Y-101075000D02*
X93775000Y-101575000D01*
X92200000Y-101800000D02*
X91875000Y-102125000D01*
X90700000Y-97950000D02*
X92850000Y-97950000D01*
X93775000Y-98875000D02*
X93775000Y-100712500D01*
X92850000Y-97950000D02*
X93775000Y-98875000D01*
X91875000Y-102125000D02*
X91875000Y-102387500D01*
X90110000Y-92640000D02*
X90110000Y-97360000D01*
X91875000Y-104437500D02*
X91875000Y-102987500D01*
X90110000Y-97360000D02*
X90700000Y-97950000D01*
X93775000Y-101575000D02*
X93550000Y-101800000D01*
X91450000Y-104862500D02*
X91875000Y-104437500D01*
%TO.N,INT*%
X67730000Y-98030000D02*
X66050000Y-96350000D01*
X66050000Y-96350000D02*
X62950000Y-96350000D01*
X67730000Y-100140000D02*
X67730000Y-98030000D01*
X62950000Y-96350000D02*
X62170000Y-95570000D01*
X62170000Y-95570000D02*
X62170000Y-92640000D01*
%TO.N,VREF*%
X97750000Y-97262500D02*
X97730000Y-97242500D01*
X97730000Y-97242500D02*
X97730000Y-92640000D01*
X97750000Y-96900000D02*
X97730000Y-96880000D01*
D43*
%TO.N,+5V*%
X124400000Y-95350000D02*
X124400000Y-96600000D01*
X124400000Y-93825000D02*
X124400000Y-95350000D01*
X124975000Y-93250000D02*
X124400000Y-93825000D01*
X124400000Y-95350000D02*
X125025000Y-94725000D01*
X125025000Y-94725000D02*
X131200000Y-94725000D01*
D42*
%TO.N,Net-(IC1-~{SHDN})*%
X123325000Y-96025000D02*
X123900000Y-96600000D01*
D43*
X123325000Y-93250000D02*
X123325000Y-95000000D01*
D42*
X123325000Y-95000000D02*
X123325000Y-96025000D01*
D43*
%TO.N,Net-(IC1-MON)*%
X122450000Y-99550000D02*
X123200000Y-98800000D01*
X121600000Y-99550000D02*
X122450000Y-99550000D01*
D42*
%TO.N,Net-(IC1-MONIN)*%
X123125000Y-101300000D02*
X123075000Y-101250000D01*
X124025000Y-101250000D02*
X124775000Y-102000000D01*
X124775000Y-102000000D02*
X124900000Y-101875000D01*
X123125000Y-103050000D02*
X123125000Y-101300000D01*
X123075000Y-101250000D02*
X124025000Y-101250000D01*
X124900000Y-101875000D02*
X124900000Y-99500000D01*
%TO.N,Net-(IC1-FB)*%
X123200000Y-98300000D02*
X121450000Y-98300000D01*
X121450000Y-98300000D02*
X120275000Y-98300000D01*
D43*
X121475000Y-101300000D02*
X121525000Y-101250000D01*
D42*
X121450000Y-98300000D02*
X121300000Y-98300000D01*
X120275000Y-98300000D02*
X120000000Y-98025000D01*
X120900000Y-98700000D02*
X120900000Y-100625000D01*
X121300000Y-98300000D02*
X120900000Y-98700000D01*
D43*
X121475000Y-103050000D02*
X121475000Y-101300000D01*
D42*
X120900000Y-100625000D02*
X121525000Y-101250000D01*
D44*
%TO.N,BIAS*%
X126425000Y-102000000D02*
X126425000Y-105825000D01*
X126425000Y-105825000D02*
X97960000Y-134290000D01*
D43*
X126250000Y-100350000D02*
X126250000Y-101825000D01*
D44*
X97960000Y-134290000D02*
X79010000Y-134290000D01*
D43*
X126250000Y-101825000D02*
X126425000Y-102000000D01*
X126500000Y-102075000D02*
X126425000Y-102000000D01*
X125400000Y-99500000D02*
X126250000Y-100350000D01*
%TO.N,Net-(IC1-SW_1)*%
X127500000Y-98800000D02*
X126100000Y-98800000D01*
X127500000Y-98800000D02*
X127000000Y-98300000D01*
X127000000Y-98300000D02*
X126100000Y-98300000D01*
X131200000Y-100175000D02*
X128875000Y-100175000D01*
X128875000Y-100175000D02*
X127500000Y-98800000D01*
D42*
%TO.N,Net-(IC1-RT)*%
X126450000Y-95700000D02*
X126300000Y-95700000D01*
X126300000Y-95700000D02*
X125400000Y-96600000D01*
D43*
%TO.N,Net-(IC1-CTRL)*%
X123200000Y-97300000D02*
X123200000Y-97800000D01*
%TD*%
M02*
