%TF.GenerationSoftware,KiCad,Pcbnew,7.0.6*%
%TF.CreationDate,2023-08-29T11:28:15+01:00*%
%TF.ProjectId,SiPM_output,5369504d-5f6f-4757-9470-75742e6b6963,2.2*%
%TF.SameCoordinates,Original*%
%TF.FileFunction,Soldermask,Bot*%
%TF.FilePolarity,Negative*%
%FSLAX46Y46*%
G04 Gerber Fmt 4.6, Leading zero omitted, Abs format (unit mm)*
G04 Created by KiCad (PCBNEW 7.0.6) date 2023-08-29 11:28:15*
%MOMM*%
%LPD*%
G01*
G04 APERTURE LIST*
G04 Aperture macros list*
%AMRoundRect*
0 Rectangle with rounded corners*
0 $1 Rounding radius*
0 $2 $3 $4 $5 $6 $7 $8 $9 X,Y pos of 4 corners*
0 Add a 4 corners polygon primitive as box body*
4,1,4,$2,$3,$4,$5,$6,$7,$8,$9,$2,$3,0*
0 Add four circle primitives for the rounded corners*
1,1,$1+$1,$2,$3*
1,1,$1+$1,$4,$5*
1,1,$1+$1,$6,$7*
1,1,$1+$1,$8,$9*
0 Add four rect primitives between the rounded corners*
20,1,$1+$1,$2,$3,$4,$5,0*
20,1,$1+$1,$4,$5,$6,$7,0*
20,1,$1+$1,$6,$7,$8,$9,0*
20,1,$1+$1,$8,$9,$2,$3,0*%
G04 Aperture macros list end*
%ADD10C,2.250000*%
%ADD11C,1.440000*%
%ADD12O,1.700000X1.700000*%
%ADD13R,1.700000X1.700000*%
%ADD14O,1.800000X1.800000*%
%ADD15O,1.500000X1.500000*%
%ADD16C,6.350000*%
%ADD17R,1.600000X1.600000*%
%ADD18C,1.600000*%
%ADD19C,3.800000*%
%ADD20RoundRect,0.225000X0.250000X-0.225000X0.250000X0.225000X-0.250000X0.225000X-0.250000X-0.225000X0*%
%ADD21RoundRect,0.200000X0.200000X0.275000X-0.200000X0.275000X-0.200000X-0.275000X0.200000X-0.275000X0*%
%ADD22RoundRect,0.200000X-0.275000X0.200000X-0.275000X-0.200000X0.275000X-0.200000X0.275000X0.200000X0*%
%ADD23RoundRect,0.200000X0.275000X-0.200000X0.275000X0.200000X-0.275000X0.200000X-0.275000X-0.200000X0*%
G04 APERTURE END LIST*
D10*
%TO.C,J6*%
X76460000Y-123110000D03*
X76460000Y-128190000D03*
X81540000Y-123110000D03*
X81540000Y-128190000D03*
D11*
X79000000Y-125650000D03*
%TD*%
D12*
%TO.C,U5*%
X62400000Y-86290000D03*
D13*
X62400000Y-83750000D03*
D12*
X62400000Y-81210000D03*
X110430000Y-92640000D03*
X107890000Y-92640000D03*
D13*
X105350000Y-92640000D03*
D12*
X102810000Y-92640000D03*
X100270000Y-92640000D03*
X97730000Y-92640000D03*
X95190000Y-92640000D03*
D13*
X92650000Y-92640000D03*
D12*
X90110000Y-92640000D03*
X87570000Y-92640000D03*
X85030000Y-92640000D03*
X82490000Y-92640000D03*
D13*
X79950000Y-92640000D03*
D12*
X77410000Y-92640000D03*
X74870000Y-92640000D03*
X72330000Y-92640000D03*
X69790000Y-92640000D03*
D13*
X67250000Y-92640000D03*
D12*
X64710000Y-92640000D03*
X62170000Y-92640000D03*
X62170000Y-74860000D03*
X64710000Y-74860000D03*
D13*
X67250000Y-74860000D03*
D12*
X69790000Y-74860000D03*
X72330000Y-74860000D03*
X74870000Y-74860000D03*
X77410000Y-74860000D03*
D13*
X79950000Y-74860000D03*
D12*
X82490000Y-74860000D03*
X85030000Y-74860000D03*
X87570000Y-74860000D03*
X90110000Y-74860000D03*
D13*
X92650000Y-74860000D03*
D12*
X95190000Y-74860000D03*
X97730000Y-74860000D03*
X100270000Y-74860000D03*
X102810000Y-74860000D03*
D13*
X105350000Y-74860000D03*
D12*
X107890000Y-74860000D03*
X110430000Y-74860000D03*
D14*
X110300000Y-86475000D03*
D15*
X107270000Y-86175000D03*
X107270000Y-81325000D03*
D14*
X110300000Y-81025000D03*
%TD*%
D12*
%TO.C,J1*%
X55850000Y-81620000D03*
X55850000Y-79080000D03*
X55850000Y-76540000D03*
D13*
X55850000Y-74000000D03*
%TD*%
D11*
%TO.C,RV1*%
X63900000Y-106850000D03*
X66440000Y-106850000D03*
X68980000Y-106850000D03*
%TD*%
D10*
%TO.C,J4*%
X76470000Y-131750000D03*
X76470000Y-136830000D03*
X81550000Y-131750000D03*
X81550000Y-136830000D03*
D11*
X79010000Y-134290000D03*
%TD*%
D16*
%TO.C,U8*%
X57840000Y-144600000D03*
X61650000Y-58870000D03*
X135310000Y-58870000D03*
X137850000Y-144600000D03*
D17*
X66730000Y-66490000D03*
D18*
X66730000Y-63950000D03*
X69270000Y-66490000D03*
X69270000Y-63950000D03*
X71810000Y-66490000D03*
X71810000Y-63950000D03*
X74350000Y-66490000D03*
X74350000Y-63950000D03*
X76890000Y-66490000D03*
X76890000Y-63950000D03*
X79430000Y-66490000D03*
X79430000Y-63950000D03*
X81970000Y-66490000D03*
X81970000Y-63950000D03*
X84510000Y-66490000D03*
X84510000Y-63950000D03*
X87050000Y-66490000D03*
X87050000Y-63950000D03*
X89590000Y-66490000D03*
X89590000Y-63950000D03*
X92130000Y-66490000D03*
X92130000Y-63950000D03*
X94670000Y-66490000D03*
X94670000Y-63950000D03*
X97210000Y-66490000D03*
X97210000Y-63950000D03*
X99750000Y-66490000D03*
X99750000Y-63950000D03*
X102290000Y-66490000D03*
X102290000Y-63950000D03*
X104830000Y-66490000D03*
X104830000Y-63950000D03*
X107370000Y-66490000D03*
X107370000Y-63950000D03*
X109910000Y-66490000D03*
X109910000Y-63950000D03*
X112450000Y-66490000D03*
X112450000Y-63950000D03*
X114990000Y-66490000D03*
X114990000Y-63950000D03*
X117530000Y-66490000D03*
X117530000Y-63950000D03*
X120070000Y-66490000D03*
X120070000Y-63950000D03*
X122610000Y-66490000D03*
X122610000Y-63950000D03*
X125150000Y-66490000D03*
X125150000Y-63950000D03*
X127690000Y-66490000D03*
X127690000Y-63950000D03*
X130230000Y-66490000D03*
X130230000Y-63950000D03*
X66730000Y-61410000D03*
X66730000Y-58870000D03*
X69270000Y-61410000D03*
X69270000Y-58870000D03*
X71810000Y-61410000D03*
X71810000Y-58870000D03*
X74350000Y-61410000D03*
X74350000Y-58870000D03*
X76890000Y-61410000D03*
X76890000Y-58870000D03*
X79430000Y-61410000D03*
X79430000Y-58870000D03*
X81970000Y-61410000D03*
X81970000Y-58870000D03*
X84510000Y-61410000D03*
X84510000Y-58870000D03*
X87050000Y-61410000D03*
X87050000Y-58870000D03*
X89590000Y-61410000D03*
X89590000Y-58870000D03*
X92130000Y-61410000D03*
X92130000Y-58870000D03*
X94670000Y-61410000D03*
X94670000Y-58870000D03*
X97210000Y-61410000D03*
X97210000Y-58870000D03*
X99750000Y-61410000D03*
X99750000Y-58870000D03*
X102290000Y-61410000D03*
X102290000Y-58870000D03*
X104830000Y-61410000D03*
X104830000Y-58870000D03*
X107370000Y-61410000D03*
X107370000Y-58870000D03*
X109910000Y-61410000D03*
X109910000Y-58870000D03*
X112450000Y-61410000D03*
X112450000Y-58870000D03*
X114990000Y-61410000D03*
X114990000Y-58870000D03*
X117530000Y-61410000D03*
X117530000Y-58870000D03*
X120070000Y-61410000D03*
X120070000Y-58870000D03*
X122610000Y-61410000D03*
X122610000Y-58870000D03*
X125150000Y-61410000D03*
X125150000Y-58870000D03*
X127690000Y-61410000D03*
X127690000Y-58870000D03*
X130230000Y-61410000D03*
X130230000Y-58870000D03*
%TD*%
D19*
%TO.C,REF\u002A\u002A*%
X130150000Y-144750000D03*
%TD*%
%TO.C,REF\u002A\u002A*%
X95150000Y-144750000D03*
%TD*%
%TO.C,REF\u002A\u002A*%
X130150000Y-109750000D03*
%TD*%
%TO.C,REF\u002A\u002A*%
X95150000Y-109750000D03*
%TD*%
D12*
%TO.C,J2*%
X55850000Y-87740000D03*
D13*
X55850000Y-85200000D03*
%TD*%
D12*
%TO.C,J3*%
X55850000Y-70420000D03*
X55850000Y-67880000D03*
X55850000Y-65340000D03*
D13*
X55850000Y-62800000D03*
%TD*%
D20*
%TO.C,C13*%
X124550000Y-98075000D03*
X124550000Y-99625000D03*
%TD*%
D21*
%TO.C,R13*%
X123525000Y-96400000D03*
X125175000Y-96400000D03*
%TD*%
D20*
%TO.C,C5*%
X121600000Y-98025000D03*
X121600000Y-99575000D03*
%TD*%
D22*
%TO.C,R2*%
X79600000Y-114187500D03*
X79600000Y-112537500D03*
%TD*%
D23*
%TO.C,R12*%
X120000000Y-97975000D03*
X120000000Y-99625000D03*
%TD*%
M02*
