M48
; DRILL file {KiCad 7.0.6} date Tue Aug 29 11:28:12 2023
; FORMAT={-:-/ absolute / metric / decimal}
; #@! TF.CreationDate,2023-08-29T11:28:12+01:00
; #@! TF.GenerationSoftware,Kicad,Pcbnew,7.0.6
; #@! TF.FileFunction,Plated,1,2,PTH
FMAT,2
METRIC
; #@! TA.AperFunction,Plated,PTH,ViaDrill
T1C0.250
; #@! TA.AperFunction,Plated,PTH,ViaDrill
T2C0.300
; #@! TA.AperFunction,Plated,PTH,ComponentDrill
T3C0.800
; #@! TA.AperFunction,Plated,PTH,ComponentDrill
T4C0.890
; #@! TA.AperFunction,Plated,PTH,ComponentDrill
T5C1.000
; #@! TA.AperFunction,Plated,PTH,ComponentDrill
T6C1.016
; #@! TA.AperFunction,Plated,PTH,ComponentDrill
T7C1.020
; #@! TA.AperFunction,Plated,PTH,ComponentDrill
T8C1.700
; #@! TA.AperFunction,Plated,PTH,ComponentDrill
T9C2.200
; #@! TA.AperFunction,Plated,PTH,ComponentDrill
T10C3.180
%
G90
G05
T1
X76.25Y-116.25
X76.574Y-116.896
X77.069Y-117.391
X77.21Y-116.26
X77.564Y-117.886
X77.705Y-116.755
X78.059Y-118.381
X78.2Y-117.25
X78.2Y-119.6
X78.2Y-120.3
X78.25Y-118.85
X78.55Y-120.75
X78.55Y-121.45
X78.55Y-122.15
X78.55Y-122.85
X78.55Y-123.55
X78.55Y-124.25
X79.45Y-120.75
X79.45Y-121.45
X79.45Y-122.15
X79.45Y-122.85
X79.45Y-123.55
X79.45Y-124.25
X79.7Y-120.25
T2
X62.23Y-103.5
X64.03Y-100.1
X64.35Y-99.2
X65.5Y-101.4
X65.75Y-104.9
X66.78Y-98.6
X67.7Y-101.4
X69.48Y-100.075
X70.4Y-103.9
X74.076Y-82.426
X75.6Y-110.438
X78.05Y-114.188
X79.6Y-111.587
X79.6Y-116.688
X81.8Y-119.438
X82.575Y-100.688
X83.475Y-110.438
X84.25Y-112.8
X85.025Y-101.287
X85.65Y-99.7
X87.325Y-99.787
X87.4Y-96.2
X90.05Y-103.45
X91.95Y-98.95
X94.7Y-96.75
X94.9Y-106.2
X105.75Y-68.55
X108.6Y-68.7
X111.75Y-105.5
X115.9Y-70.05
X115.9Y-74.05
X115.9Y-75.75
X117.05Y-68.05
X117.05Y-75.7
X117.05Y-84.8
X119.05Y-95.6
X119.8Y-72.0
X121.3Y-82.7
X121.5Y-71.95
X121.6Y-99.55
X121.75Y-93.85
X123.15Y-72.2
X124.2Y-98.45
X125.05Y-97.6
X125.5Y-72.0
X126.25Y-100.35
X126.45Y-95.7
X127.45Y-68.45
X127.45Y-75.35
X129.45Y-88.45
T3
X63.9Y-106.85
X66.44Y-106.85
X68.98Y-106.85
T4
X79.0Y-125.65
X79.01Y-134.29
T5
X55.85Y-62.8
X55.85Y-65.34
X55.85Y-67.88
X55.85Y-70.42
X55.85Y-74.0
X55.85Y-76.54
X55.85Y-79.08
X55.85Y-81.62
X55.85Y-85.2
X55.85Y-87.74
T6
X66.73Y-58.87
X66.73Y-61.41
X66.73Y-63.95
X66.73Y-66.49
X69.27Y-58.87
X69.27Y-61.41
X69.27Y-63.95
X69.27Y-66.49
X71.81Y-58.87
X71.81Y-61.41
X71.81Y-63.95
X71.81Y-66.49
X74.35Y-58.87
X74.35Y-61.41
X74.35Y-63.95
X74.35Y-66.49
X76.89Y-58.87
X76.89Y-61.41
X76.89Y-63.95
X76.89Y-66.49
X79.43Y-58.87
X79.43Y-61.41
X79.43Y-63.95
X79.43Y-66.49
X81.97Y-58.87
X81.97Y-61.41
X81.97Y-63.95
X81.97Y-66.49
X84.51Y-58.87
X84.51Y-61.41
X84.51Y-63.95
X84.51Y-66.49
X87.05Y-58.87
X87.05Y-61.41
X87.05Y-63.95
X87.05Y-66.49
X89.59Y-58.87
X89.59Y-61.41
X89.59Y-63.95
X89.59Y-66.49
X92.13Y-58.87
X92.13Y-61.41
X92.13Y-63.95
X92.13Y-66.49
X94.67Y-58.87
X94.67Y-61.41
X94.67Y-63.95
X94.67Y-66.49
X97.21Y-58.87
X97.21Y-61.41
X97.21Y-63.95
X97.21Y-66.49
X99.75Y-58.87
X99.75Y-61.41
X99.75Y-63.95
X99.75Y-66.49
X102.29Y-58.87
X102.29Y-61.41
X102.29Y-63.95
X102.29Y-66.49
X104.83Y-58.87
X104.83Y-61.41
X104.83Y-63.95
X104.83Y-66.49
X107.37Y-58.87
X107.37Y-61.41
X107.37Y-63.95
X107.37Y-66.49
X109.91Y-58.87
X109.91Y-61.41
X109.91Y-63.95
X109.91Y-66.49
X112.45Y-58.87
X112.45Y-61.41
X112.45Y-63.95
X112.45Y-66.49
X114.99Y-58.87
X114.99Y-61.41
X114.99Y-63.95
X114.99Y-66.49
X117.53Y-58.87
X117.53Y-61.41
X117.53Y-63.95
X117.53Y-66.49
X120.07Y-58.87
X120.07Y-61.41
X120.07Y-63.95
X120.07Y-66.49
X122.61Y-58.87
X122.61Y-61.41
X122.61Y-63.95
X122.61Y-66.49
X125.15Y-58.87
X125.15Y-61.41
X125.15Y-63.95
X125.15Y-66.49
X127.69Y-58.87
X127.69Y-61.41
X127.69Y-63.95
X127.69Y-66.49
X130.23Y-58.87
X130.23Y-61.41
X130.23Y-63.95
X130.23Y-66.49
T7
X62.17Y-74.86
X62.17Y-92.64
X62.4Y-81.21
X62.4Y-83.75
X62.4Y-86.29
X64.71Y-74.86
X64.71Y-92.64
X67.25Y-74.86
X67.25Y-92.64
X69.79Y-74.86
X69.79Y-92.64
X72.33Y-74.86
X72.33Y-92.64
X74.87Y-74.86
X74.87Y-92.64
X77.41Y-74.86
X77.41Y-92.64
X79.95Y-74.86
X79.95Y-92.64
X82.49Y-74.86
X82.49Y-92.64
X85.03Y-74.86
X85.03Y-92.64
X87.57Y-74.86
X87.57Y-92.64
X90.11Y-74.86
X90.11Y-92.64
X92.65Y-74.86
X92.65Y-92.64
X95.19Y-74.86
X95.19Y-92.64
X97.73Y-74.86
X97.73Y-92.64
X100.27Y-74.86
X100.27Y-92.64
X102.81Y-74.86
X102.81Y-92.64
X105.35Y-74.86
X105.35Y-92.64
X107.89Y-74.86
X107.89Y-92.64
X110.43Y-74.86
X110.43Y-92.64
T8
X76.46Y-123.11
X76.46Y-128.19
X76.47Y-131.75
X76.47Y-136.83
X81.54Y-123.11
X81.54Y-128.19
X81.55Y-131.75
X81.55Y-136.83
T9
X95.15Y-109.75
X95.15Y-144.75
X130.15Y-109.75
X130.15Y-144.75
T10
X57.84Y-144.6
X61.65Y-58.87
X135.31Y-58.87
X137.85Y-144.6
T0
M30
