%TF.GenerationSoftware,KiCad,Pcbnew,7.0.6*%
%TF.CreationDate,2023-08-29T11:28:15+01:00*%
%TF.ProjectId,SiPM_output,5369504d-5f6f-4757-9470-75742e6b6963,2.2*%
%TF.SameCoordinates,Original*%
%TF.FileFunction,Legend,Bot*%
%TF.FilePolarity,Positive*%
%FSLAX46Y46*%
G04 Gerber Fmt 4.6, Leading zero omitted, Abs format (unit mm)*
G04 Created by KiCad (PCBNEW 7.0.6) date 2023-08-29 11:28:15*
%MOMM*%
%LPD*%
G01*
G04 APERTURE LIST*
%ADD10C,0.150000*%
%ADD11C,0.120000*%
G04 APERTURE END LIST*
D10*
X124809580Y-101207142D02*
X124857200Y-101159523D01*
X124857200Y-101159523D02*
X124904819Y-101016666D01*
X124904819Y-101016666D02*
X124904819Y-100921428D01*
X124904819Y-100921428D02*
X124857200Y-100778571D01*
X124857200Y-100778571D02*
X124761961Y-100683333D01*
X124761961Y-100683333D02*
X124666723Y-100635714D01*
X124666723Y-100635714D02*
X124476247Y-100588095D01*
X124476247Y-100588095D02*
X124333390Y-100588095D01*
X124333390Y-100588095D02*
X124142914Y-100635714D01*
X124142914Y-100635714D02*
X124047676Y-100683333D01*
X124047676Y-100683333D02*
X123952438Y-100778571D01*
X123952438Y-100778571D02*
X123904819Y-100921428D01*
X123904819Y-100921428D02*
X123904819Y-101016666D01*
X123904819Y-101016666D02*
X123952438Y-101159523D01*
X123952438Y-101159523D02*
X124000057Y-101207142D01*
X124904819Y-102159523D02*
X124904819Y-101588095D01*
X124904819Y-101873809D02*
X123904819Y-101873809D01*
X123904819Y-101873809D02*
X124047676Y-101778571D01*
X124047676Y-101778571D02*
X124142914Y-101683333D01*
X124142914Y-101683333D02*
X124190533Y-101588095D01*
X123904819Y-102492857D02*
X123904819Y-103111904D01*
X123904819Y-103111904D02*
X124285771Y-102778571D01*
X124285771Y-102778571D02*
X124285771Y-102921428D01*
X124285771Y-102921428D02*
X124333390Y-103016666D01*
X124333390Y-103016666D02*
X124381009Y-103064285D01*
X124381009Y-103064285D02*
X124476247Y-103111904D01*
X124476247Y-103111904D02*
X124714342Y-103111904D01*
X124714342Y-103111904D02*
X124809580Y-103064285D01*
X124809580Y-103064285D02*
X124857200Y-103016666D01*
X124857200Y-103016666D02*
X124904819Y-102921428D01*
X124904819Y-102921428D02*
X124904819Y-102635714D01*
X124904819Y-102635714D02*
X124857200Y-102540476D01*
X124857200Y-102540476D02*
X124809580Y-102492857D01*
X124992857Y-95424819D02*
X125326190Y-94948628D01*
X125564285Y-95424819D02*
X125564285Y-94424819D01*
X125564285Y-94424819D02*
X125183333Y-94424819D01*
X125183333Y-94424819D02*
X125088095Y-94472438D01*
X125088095Y-94472438D02*
X125040476Y-94520057D01*
X125040476Y-94520057D02*
X124992857Y-94615295D01*
X124992857Y-94615295D02*
X124992857Y-94758152D01*
X124992857Y-94758152D02*
X125040476Y-94853390D01*
X125040476Y-94853390D02*
X125088095Y-94901009D01*
X125088095Y-94901009D02*
X125183333Y-94948628D01*
X125183333Y-94948628D02*
X125564285Y-94948628D01*
X124040476Y-95424819D02*
X124611904Y-95424819D01*
X124326190Y-95424819D02*
X124326190Y-94424819D01*
X124326190Y-94424819D02*
X124421428Y-94567676D01*
X124421428Y-94567676D02*
X124516666Y-94662914D01*
X124516666Y-94662914D02*
X124611904Y-94710533D01*
X123707142Y-94424819D02*
X123088095Y-94424819D01*
X123088095Y-94424819D02*
X123421428Y-94805771D01*
X123421428Y-94805771D02*
X123278571Y-94805771D01*
X123278571Y-94805771D02*
X123183333Y-94853390D01*
X123183333Y-94853390D02*
X123135714Y-94901009D01*
X123135714Y-94901009D02*
X123088095Y-94996247D01*
X123088095Y-94996247D02*
X123088095Y-95234342D01*
X123088095Y-95234342D02*
X123135714Y-95329580D01*
X123135714Y-95329580D02*
X123183333Y-95377200D01*
X123183333Y-95377200D02*
X123278571Y-95424819D01*
X123278571Y-95424819D02*
X123564285Y-95424819D01*
X123564285Y-95424819D02*
X123659523Y-95377200D01*
X123659523Y-95377200D02*
X123707142Y-95329580D01*
X121909580Y-101033333D02*
X121957200Y-100985714D01*
X121957200Y-100985714D02*
X122004819Y-100842857D01*
X122004819Y-100842857D02*
X122004819Y-100747619D01*
X122004819Y-100747619D02*
X121957200Y-100604762D01*
X121957200Y-100604762D02*
X121861961Y-100509524D01*
X121861961Y-100509524D02*
X121766723Y-100461905D01*
X121766723Y-100461905D02*
X121576247Y-100414286D01*
X121576247Y-100414286D02*
X121433390Y-100414286D01*
X121433390Y-100414286D02*
X121242914Y-100461905D01*
X121242914Y-100461905D02*
X121147676Y-100509524D01*
X121147676Y-100509524D02*
X121052438Y-100604762D01*
X121052438Y-100604762D02*
X121004819Y-100747619D01*
X121004819Y-100747619D02*
X121004819Y-100842857D01*
X121004819Y-100842857D02*
X121052438Y-100985714D01*
X121052438Y-100985714D02*
X121100057Y-101033333D01*
X121004819Y-101938095D02*
X121004819Y-101461905D01*
X121004819Y-101461905D02*
X121481009Y-101414286D01*
X121481009Y-101414286D02*
X121433390Y-101461905D01*
X121433390Y-101461905D02*
X121385771Y-101557143D01*
X121385771Y-101557143D02*
X121385771Y-101795238D01*
X121385771Y-101795238D02*
X121433390Y-101890476D01*
X121433390Y-101890476D02*
X121481009Y-101938095D01*
X121481009Y-101938095D02*
X121576247Y-101985714D01*
X121576247Y-101985714D02*
X121814342Y-101985714D01*
X121814342Y-101985714D02*
X121909580Y-101938095D01*
X121909580Y-101938095D02*
X121957200Y-101890476D01*
X121957200Y-101890476D02*
X122004819Y-101795238D01*
X122004819Y-101795238D02*
X122004819Y-101557143D01*
X122004819Y-101557143D02*
X121957200Y-101461905D01*
X121957200Y-101461905D02*
X121909580Y-101414286D01*
X78654819Y-112533333D02*
X78178628Y-112200000D01*
X78654819Y-111961905D02*
X77654819Y-111961905D01*
X77654819Y-111961905D02*
X77654819Y-112342857D01*
X77654819Y-112342857D02*
X77702438Y-112438095D01*
X77702438Y-112438095D02*
X77750057Y-112485714D01*
X77750057Y-112485714D02*
X77845295Y-112533333D01*
X77845295Y-112533333D02*
X77988152Y-112533333D01*
X77988152Y-112533333D02*
X78083390Y-112485714D01*
X78083390Y-112485714D02*
X78131009Y-112438095D01*
X78131009Y-112438095D02*
X78178628Y-112342857D01*
X78178628Y-112342857D02*
X78178628Y-111961905D01*
X77750057Y-112914286D02*
X77702438Y-112961905D01*
X77702438Y-112961905D02*
X77654819Y-113057143D01*
X77654819Y-113057143D02*
X77654819Y-113295238D01*
X77654819Y-113295238D02*
X77702438Y-113390476D01*
X77702438Y-113390476D02*
X77750057Y-113438095D01*
X77750057Y-113438095D02*
X77845295Y-113485714D01*
X77845295Y-113485714D02*
X77940533Y-113485714D01*
X77940533Y-113485714D02*
X78083390Y-113438095D01*
X78083390Y-113438095D02*
X78654819Y-112866667D01*
X78654819Y-112866667D02*
X78654819Y-113485714D01*
X120454819Y-101107142D02*
X119978628Y-100773809D01*
X120454819Y-100535714D02*
X119454819Y-100535714D01*
X119454819Y-100535714D02*
X119454819Y-100916666D01*
X119454819Y-100916666D02*
X119502438Y-101011904D01*
X119502438Y-101011904D02*
X119550057Y-101059523D01*
X119550057Y-101059523D02*
X119645295Y-101107142D01*
X119645295Y-101107142D02*
X119788152Y-101107142D01*
X119788152Y-101107142D02*
X119883390Y-101059523D01*
X119883390Y-101059523D02*
X119931009Y-101011904D01*
X119931009Y-101011904D02*
X119978628Y-100916666D01*
X119978628Y-100916666D02*
X119978628Y-100535714D01*
X120454819Y-102059523D02*
X120454819Y-101488095D01*
X120454819Y-101773809D02*
X119454819Y-101773809D01*
X119454819Y-101773809D02*
X119597676Y-101678571D01*
X119597676Y-101678571D02*
X119692914Y-101583333D01*
X119692914Y-101583333D02*
X119740533Y-101488095D01*
X119550057Y-102440476D02*
X119502438Y-102488095D01*
X119502438Y-102488095D02*
X119454819Y-102583333D01*
X119454819Y-102583333D02*
X119454819Y-102821428D01*
X119454819Y-102821428D02*
X119502438Y-102916666D01*
X119502438Y-102916666D02*
X119550057Y-102964285D01*
X119550057Y-102964285D02*
X119645295Y-103011904D01*
X119645295Y-103011904D02*
X119740533Y-103011904D01*
X119740533Y-103011904D02*
X119883390Y-102964285D01*
X119883390Y-102964285D02*
X120454819Y-102392857D01*
X120454819Y-102392857D02*
X120454819Y-103011904D01*
D11*
%TO.C,C13*%
X125060000Y-98990580D02*
X125060000Y-98709420D01*
X124040000Y-98990580D02*
X124040000Y-98709420D01*
%TO.C,R13*%
X124587258Y-95877500D02*
X124112742Y-95877500D01*
X124587258Y-96922500D02*
X124112742Y-96922500D01*
%TO.C,C5*%
X122110000Y-98940580D02*
X122110000Y-98659420D01*
X121090000Y-98940580D02*
X121090000Y-98659420D01*
%TO.C,R2*%
X79077500Y-113125242D02*
X79077500Y-113599758D01*
X80122500Y-113125242D02*
X80122500Y-113599758D01*
%TO.C,R12*%
X120522500Y-99037258D02*
X120522500Y-98562742D01*
X119477500Y-99037258D02*
X119477500Y-98562742D01*
%TD*%
M02*
