%MOIN*%
%OFA0B0*%
%FSLAX46Y46*%
%IPPOS*%
%LPD*%
%AMRoundRect*
4,1,4,
0.07874015748031496,0.11811023622047245,
0.15748031496062992,0.19685039370078741,
0.23622047244094491,0.27559055118110237,
0.31496062992125984,0.35433070866141736,
0.07874015748031496,0.11811023622047245,
0*
1,1,$1,$2,$3*
1,1,$1,$2,$3*
1,1,$1,$2,$3*
1,1,$1,$2,$3*
20,1,$1,$2,$3,$4,$5,0*
20,1,$1,$2,$3,$4,$5,0*
20,1,$1,$2,$3,$4,$5,0*
20,1,$1,$2,$3,$4,$5,0*%
%AMCOMP5*
4,1,3,
0.00984251968503937,-0.0088582677165354329,
0.00984251968503937,0.0088582677165354329,
-0.00984251968503937,0.0088582677165354329,
-0.00984251968503937,-0.0088582677165354329,
0*
4,1,19,
0.00984251968503937,0,
0.012579874950171779,-0.00043355448163741962,
0.015049278809677422,-0.0016917785931353079,
0.017009008808439495,-0.0036515085918973839,
0.018267232919937385,-0.0061209124514030253,
0.018700787401574805,-0.0088582677165354329,
0.018267232919937385,-0.011595622981667842,
0.017009008808439495,-0.014065026841173483,
0.015049278809677422,-0.01602475683993556,
0.012579874950171779,-0.017282980951433446,
0.00984251968503937,-0.017716535433070866,
0.0071051644199069588,-0.017282980951433446,
0.0046357605604013218,-0.01602475683993556,
0.0026760305616392458,-0.014065026841173483,
0.0014178064501413565,-0.011595622981667842,
0.00098425196850393678,-0.0088582677165354347,
0.0014178064501413554,-0.0061209124514030279,
0.0026760305616392436,-0.0036515085918973861,
0.0046357605604013183,-0.001691778593135309,
0.0071051644199069614,-0.00043355448163741962,
0*
4,1,19,
0.00984251968503937,0.017716535433070866,
0.012579874950171779,0.017282980951433446,
0.015049278809677422,0.01602475683993556,
0.017009008808439495,0.014065026841173483,
0.018267232919937385,0.011595622981667842,
0.018700787401574805,0.0088582677165354329,
0.018267232919937385,0.0061209124514030253,
0.017009008808439495,0.0036515085918973852,
0.015049278809677422,0.001691778593135309,
0.012579874950171779,0.00043355448163741962,
0.00984251968503937,0,
0.0071051644199069588,0.00043355448163741962,
0.0046357605604013218,0.0016917785931353068,
0.0026760305616392458,0.003651508591897383,
0.0014178064501413565,0.0061209124514030244,
0.00098425196850393678,0.0088582677165354329,
0.0014178064501413554,0.011595622981667841,
0.0026760305616392436,0.014065026841173481,
0.0046357605604013183,0.01602475683993556,
0.0071051644199069614,0.017282980951433446,
0*
4,1,19,
-0.00984251968503937,0.017716535433070866,
-0.0071051644199069623,0.017282980951433446,
-0.0046357605604013209,0.01602475683993556,
-0.0026760305616392449,0.014065026841173483,
-0.0014178064501413565,0.011595622981667842,
-0.00098425196850393678,0.0088582677165354329,
-0.0014178064501413554,0.0061209124514030253,
-0.0026760305616392449,0.0036515085918973852,
-0.00463576056040132,0.001691778593135309,
-0.0071051644199069614,0.00043355448163741962,
-0.00984251968503937,0,
-0.012579874950171783,0.00043355448163741962,
-0.01504927880967742,0.0016917785931353068,
-0.017009008808439495,0.003651508591897383,
-0.018267232919937385,0.0061209124514030244,
-0.018700787401574805,0.0088582677165354329,
-0.018267232919937385,0.011595622981667841,
-0.0170090088084395,0.014065026841173481,
-0.015049278809677422,0.01602475683993556,
-0.012579874950171779,0.017282980951433446,
0*
4,1,19,
-0.00984251968503937,0,
-0.0071051644199069623,-0.00043355448163741962,
-0.0046357605604013209,-0.0016917785931353079,
-0.0026760305616392449,-0.0036515085918973839,
-0.0014178064501413565,-0.0061209124514030253,
-0.00098425196850393678,-0.0088582677165354329,
-0.0014178064501413554,-0.011595622981667842,
-0.0026760305616392449,-0.014065026841173483,
-0.00463576056040132,-0.01602475683993556,
-0.0071051644199069614,-0.017282980951433446,
-0.00984251968503937,-0.017716535433070866,
-0.012579874950171783,-0.017282980951433446,
-0.01504927880967742,-0.01602475683993556,
-0.017009008808439495,-0.014065026841173483,
-0.018267232919937385,-0.011595622981667842,
-0.018700787401574805,-0.0088582677165354347,
-0.018267232919937385,-0.0061209124514030279,
-0.0170090088084395,-0.0036515085918973861,
-0.015049278809677422,-0.001691778593135309,
-0.012579874950171779,-0.00043355448163741962,
0*
4,1,3,
0.018700787401574805,-0.0088582677165354329,
0.00098425196850393678,-0.0088582677165354329,
0.00098425196850393678,0.0088582677165354329,
0.018700787401574805,0.0088582677165354329,
0*
4,1,3,
0.00984251968503937,0.017716535433070866,
0.00984251968503937,0,
-0.00984251968503937,0,
-0.00984251968503937,0.017716535433070866,
0*
4,1,3,
-0.018700787401574805,0.0088582677165354329,
-0.00098425196850393678,0.0088582677165354329,
-0.00098425196850393678,-0.0088582677165354329,
-0.018700787401574805,-0.0088582677165354329,
0*
4,1,3,
-0.00984251968503937,-0.017716535433070866,
-0.00984251968503937,0,
0.00984251968503937,0,
0.00984251968503937,-0.017716535433070866,
0*%
%AMCOMP6*
4,1,3,
0.0078740157480314977,0.010826771653543309,
-0.0078740157480314977,0.010826771653543309,
-0.0078740157480314977,-0.010826771653543309,
0.0078740157480314977,-0.010826771653543309,
0*
4,1,19,
0.0078740157480314977,0.018700787401574805,
0.010307220428149194,0.018315405640119319,
0.012502246081043097,0.017196984207676753,
0.014244228302164944,0.015455001986554908,
0.015362649734607511,0.013259976333661005,
0.015748031496062995,0.010826771653543309,
0.015362649734607511,0.0083935669734256126,
0.014244228302164944,0.0061985413205317089,
0.0125022460810431,0.0044565590994098637,
0.010307220428149194,0.0033381376669672958,
0.0078740157480314977,0.0029527559055118114,
0.005440811067913799,0.0033381376669672958,
0.0032457854150198975,0.0044565590994098628,
0.0015038031938980523,0.0061985413205317081,
0.00038538176145548424,0.00839356697342561,
0,0.010826771653543307,
0.00038538176145548316,0.013259976333661003,
0.0015038031938980512,0.015455001986554907,
0.0032457854150198949,0.017196984207676753,
0.005440811067913799,0.018315405640119319,
0*
4,1,19,
-0.0078740157480314977,0.018700787401574805,
-0.0054408110679138007,0.018315405640119319,
-0.0032457854150198971,0.017196984207676753,
-0.0015038031938980512,0.015455001986554908,
-0.00038538176145548424,0.013259976333661005,
0,0.010826771653543309,
-0.00038538176145548316,0.0083935669734256126,
-0.0015038031938980512,0.0061985413205317089,
-0.0032457854150198962,0.0044565590994098637,
-0.0054408110679138,0.0033381376669672958,
-0.007874015748031496,0.0029527559055118114,
-0.010307220428149196,0.0033381376669672958,
-0.012502246081043097,0.0044565590994098628,
-0.01424422830216494,0.0061985413205317081,
-0.015362649734607511,0.00839356697342561,
-0.015748031496062995,0.010826771653543307,
-0.015362649734607511,0.013259976333661003,
-0.014244228302164944,0.015455001986554907,
-0.0125022460810431,0.017196984207676753,
-0.010307220428149196,0.018315405640119319,
0*
4,1,19,
-0.0078740157480314977,-0.0029527559055118114,
-0.0054408110679138007,-0.0033381376669672958,
-0.0032457854150198971,-0.0044565590994098628,
-0.0015038031938980512,-0.0061985413205317089,
-0.00038538176145548424,-0.0083935669734256126,
0,-0.010826771653543309,
-0.00038538176145548316,-0.013259976333661005,
-0.0015038031938980512,-0.015455001986554908,
-0.0032457854150198962,-0.017196984207676753,
-0.0054408110679138,-0.018315405640119319,
-0.007874015748031496,-0.018700787401574805,
-0.010307220428149196,-0.018315405640119319,
-0.012502246081043097,-0.017196984207676753,
-0.01424422830216494,-0.015455001986554908,
-0.015362649734607511,-0.013259976333661007,
-0.015748031496062995,-0.01082677165354331,
-0.015362649734607511,-0.0083935669734256143,
-0.014244228302164944,-0.0061985413205317107,
-0.0125022460810431,-0.0044565590994098637,
-0.010307220428149196,-0.0033381376669672958,
0*
4,1,19,
0.0078740157480314977,-0.0029527559055118114,
0.010307220428149194,-0.0033381376669672958,
0.012502246081043097,-0.0044565590994098628,
0.014244228302164944,-0.0061985413205317089,
0.015362649734607511,-0.0083935669734256126,
0.015748031496062995,-0.010826771653543309,
0.015362649734607511,-0.013259976333661005,
0.014244228302164944,-0.015455001986554908,
0.0125022460810431,-0.017196984207676753,
0.010307220428149194,-0.018315405640119319,
0.0078740157480314977,-0.018700787401574805,
0.005440811067913799,-0.018315405640119319,
0.0032457854150198975,-0.017196984207676753,
0.0015038031938980523,-0.015455001986554908,
0.00038538176145548424,-0.013259976333661007,
0,-0.01082677165354331,
0.00038538176145548316,-0.0083935669734256143,
0.0015038031938980512,-0.0061985413205317107,
0.0032457854150198949,-0.0044565590994098637,
0.005440811067913799,-0.0033381376669672958,
0*
4,1,3,
0.0078740157480314977,0.018700787401574805,
0.0078740157480314977,0.0029527559055118114,
-0.0078740157480314977,0.0029527559055118114,
-0.0078740157480314977,0.018700787401574805,
0*
4,1,3,
-0.015748031496062995,0.010826771653543309,
0,0.010826771653543309,
0,-0.010826771653543309,
-0.015748031496062995,-0.010826771653543309,
0*
4,1,3,
-0.0078740157480314977,-0.018700787401574805,
-0.0078740157480314977,-0.0029527559055118114,
0.0078740157480314977,-0.0029527559055118114,
0.0078740157480314977,-0.018700787401574805,
0*
4,1,3,
0.015748031496062995,-0.010826771653543309,
0,-0.010826771653543309,
0,0.010826771653543309,
0.015748031496062995,0.010826771653543309,
0*%
%AMCOMP7*
4,1,3,
-0.010826771653543309,0.0078740157480314977,
-0.010826771653543309,-0.0078740157480314977,
0.010826771653543309,-0.0078740157480314977,
0.010826771653543309,0.0078740157480314977,
0*
4,1,19,
-0.010826771653543309,0.015748031496062995,
-0.0083935669734256126,0.015362649734607511,
-0.0061985413205317089,0.014244228302164944,
-0.0044565590994098628,0.012502246081043097,
-0.0033381376669672958,0.010307220428149194,
-0.0029527559055118114,0.0078740157480314977,
-0.0033381376669672949,0.0054408110679138007,
-0.0044565590994098628,0.0032457854150198975,
-0.0061985413205317081,0.0015038031938980523,
-0.00839356697342561,0.00038538176145548424,
-0.010826771653543309,0,
-0.013259976333661007,0.00038538176145548424,
-0.015455001986554908,0.0015038031938980512,
-0.017196984207676753,0.0032457854150198962,
-0.018315405640119319,0.0054408110679138,
-0.018700787401574805,0.007874015748031496,
-0.018315405640119322,0.010307220428149194,
-0.017196984207676753,0.012502246081043094,
-0.01545500198655491,0.01424422830216494,
-0.013259976333661007,0.015362649734607511,
0*
4,1,19,
-0.010826771653543309,0,
-0.0083935669734256126,-0.00038538176145548424,
-0.0061985413205317089,-0.0015038031938980512,
-0.0044565590994098628,-0.0032457854150198971,
-0.0033381376669672958,-0.0054408110679138007,
-0.0029527559055118114,-0.0078740157480314977,
-0.0033381376669672949,-0.010307220428149194,
-0.0044565590994098628,-0.012502246081043097,
-0.0061985413205317081,-0.01424422830216494,
-0.00839356697342561,-0.015362649734607511,
-0.010826771653543309,-0.015748031496062995,
-0.013259976333661007,-0.015362649734607511,
-0.015455001986554908,-0.014244228302164944,
-0.017196984207676753,-0.0125022460810431,
-0.018315405640119319,-0.010307220428149196,
-0.018700787401574805,-0.0078740157480314977,
-0.018315405640119322,-0.0054408110679138016,
-0.017196984207676753,-0.0032457854150198988,
-0.01545500198655491,-0.0015038031938980523,
-0.013259976333661007,-0.00038538176145548424,
0*
4,1,19,
0.010826771653543309,0,
0.013259976333661005,-0.00038538176145548424,
0.015455001986554908,-0.0015038031938980512,
0.017196984207676753,-0.0032457854150198971,
0.018315405640119319,-0.0054408110679138007,
0.018700787401574805,-0.0078740157480314977,
0.018315405640119322,-0.010307220428149194,
0.017196984207676753,-0.012502246081043097,
0.015455001986554908,-0.01424422830216494,
0.013259976333661007,-0.015362649734607511,
0.010826771653543309,-0.015748031496062995,
0.00839356697342561,-0.015362649734607511,
0.0061985413205317089,-0.014244228302164944,
0.0044565590994098637,-0.0125022460810431,
0.0033381376669672958,-0.010307220428149196,
0.0029527559055118114,-0.0078740157480314977,
0.0033381376669672949,-0.0054408110679138016,
0.0044565590994098628,-0.0032457854150198988,
0.0061985413205317063,-0.0015038031938980523,
0.00839356697342561,-0.00038538176145548424,
0*
4,1,19,
0.010826771653543309,0.015748031496062995,
0.013259976333661005,0.015362649734607511,
0.015455001986554908,0.014244228302164944,
0.017196984207676753,0.012502246081043097,
0.018315405640119319,0.010307220428149194,
0.018700787401574805,0.0078740157480314977,
0.018315405640119322,0.0054408110679138007,
0.017196984207676753,0.0032457854150198975,
0.015455001986554908,0.0015038031938980523,
0.013259976333661007,0.00038538176145548424,
0.010826771653543309,0,
0.00839356697342561,0.00038538176145548424,
0.0061985413205317089,0.0015038031938980512,
0.0044565590994098637,0.0032457854150198962,
0.0033381376669672958,0.0054408110679138,
0.0029527559055118114,0.007874015748031496,
0.0033381376669672949,0.010307220428149194,
0.0044565590994098628,0.012502246081043094,
0.0061985413205317063,0.01424422830216494,
0.00839356697342561,0.015362649734607511,
0*
4,1,3,
-0.018700787401574805,0.0078740157480314977,
-0.0029527559055118114,0.0078740157480314977,
-0.0029527559055118114,-0.0078740157480314977,
-0.018700787401574805,-0.0078740157480314977,
0*
4,1,3,
-0.010826771653543309,-0.015748031496062995,
-0.010826771653543309,0,
0.010826771653543309,0,
0.010826771653543309,-0.015748031496062995,
0*
4,1,3,
0.018700787401574805,-0.0078740157480314977,
0.0029527559055118114,-0.0078740157480314977,
0.0029527559055118114,0.0078740157480314977,
0.018700787401574805,0.0078740157480314977,
0*
4,1,3,
0.010826771653543309,0.015748031496062995,
0.010826771653543309,0,
-0.010826771653543309,0,
-0.010826771653543309,0.015748031496062995,
0*%
%AMCOMP8*
4,1,3,
0.010826771653543309,-0.0078740157480314977,
0.010826771653543309,0.0078740157480314977,
-0.010826771653543309,0.0078740157480314977,
-0.010826771653543309,-0.0078740157480314977,
0*
4,1,19,
0.010826771653543309,0,
0.013259976333661005,-0.00038538176145548424,
0.015455001986554908,-0.0015038031938980512,
0.017196984207676753,-0.0032457854150198971,
0.018315405640119319,-0.0054408110679138007,
0.018700787401574805,-0.0078740157480314977,
0.018315405640119322,-0.010307220428149194,
0.017196984207676753,-0.012502246081043097,
0.015455001986554908,-0.01424422830216494,
0.013259976333661007,-0.015362649734607511,
0.010826771653543309,-0.015748031496062995,
0.00839356697342561,-0.015362649734607511,
0.0061985413205317089,-0.014244228302164944,
0.0044565590994098637,-0.0125022460810431,
0.0033381376669672958,-0.010307220428149196,
0.0029527559055118114,-0.0078740157480314977,
0.0033381376669672949,-0.0054408110679138016,
0.0044565590994098628,-0.0032457854150198988,
0.0061985413205317063,-0.0015038031938980523,
0.00839356697342561,-0.00038538176145548424,
0*
4,1,19,
0.010826771653543309,0.015748031496062995,
0.013259976333661005,0.015362649734607511,
0.015455001986554908,0.014244228302164944,
0.017196984207676753,0.012502246081043097,
0.018315405640119319,0.010307220428149194,
0.018700787401574805,0.0078740157480314977,
0.018315405640119322,0.0054408110679138007,
0.017196984207676753,0.0032457854150198975,
0.015455001986554908,0.0015038031938980523,
0.013259976333661007,0.00038538176145548424,
0.010826771653543309,0,
0.00839356697342561,0.00038538176145548424,
0.0061985413205317089,0.0015038031938980512,
0.0044565590994098637,0.0032457854150198962,
0.0033381376669672958,0.0054408110679138,
0.0029527559055118114,0.007874015748031496,
0.0033381376669672949,0.010307220428149194,
0.0044565590994098628,0.012502246081043094,
0.0061985413205317063,0.01424422830216494,
0.00839356697342561,0.015362649734607511,
0*
4,1,19,
-0.010826771653543309,0.015748031496062995,
-0.0083935669734256126,0.015362649734607511,
-0.0061985413205317089,0.014244228302164944,
-0.0044565590994098628,0.012502246081043097,
-0.0033381376669672958,0.010307220428149194,
-0.0029527559055118114,0.0078740157480314977,
-0.0033381376669672949,0.0054408110679138007,
-0.0044565590994098628,0.0032457854150198975,
-0.0061985413205317081,0.0015038031938980523,
-0.00839356697342561,0.00038538176145548424,
-0.010826771653543309,0,
-0.013259976333661007,0.00038538176145548424,
-0.015455001986554908,0.0015038031938980512,
-0.017196984207676753,0.0032457854150198962,
-0.018315405640119319,0.0054408110679138,
-0.018700787401574805,0.007874015748031496,
-0.018315405640119322,0.010307220428149194,
-0.017196984207676753,0.012502246081043094,
-0.01545500198655491,0.01424422830216494,
-0.013259976333661007,0.015362649734607511,
0*
4,1,19,
-0.010826771653543309,0,
-0.0083935669734256126,-0.00038538176145548424,
-0.0061985413205317089,-0.0015038031938980512,
-0.0044565590994098628,-0.0032457854150198971,
-0.0033381376669672958,-0.0054408110679138007,
-0.0029527559055118114,-0.0078740157480314977,
-0.0033381376669672949,-0.010307220428149194,
-0.0044565590994098628,-0.012502246081043097,
-0.0061985413205317081,-0.01424422830216494,
-0.00839356697342561,-0.015362649734607511,
-0.010826771653543309,-0.015748031496062995,
-0.013259976333661007,-0.015362649734607511,
-0.015455001986554908,-0.014244228302164944,
-0.017196984207676753,-0.0125022460810431,
-0.018315405640119319,-0.010307220428149196,
-0.018700787401574805,-0.0078740157480314977,
-0.018315405640119322,-0.0054408110679138016,
-0.017196984207676753,-0.0032457854150198988,
-0.01545500198655491,-0.0015038031938980523,
-0.013259976333661007,-0.00038538176145548424,
0*
4,1,3,
0.018700787401574805,-0.0078740157480314977,
0.0029527559055118114,-0.0078740157480314977,
0.0029527559055118114,0.0078740157480314977,
0.018700787401574805,0.0078740157480314977,
0*
4,1,3,
0.010826771653543309,0.015748031496062995,
0.010826771653543309,0,
-0.010826771653543309,0,
-0.010826771653543309,0.015748031496062995,
0*
4,1,3,
-0.018700787401574805,0.0078740157480314977,
-0.0029527559055118114,0.0078740157480314977,
-0.0029527559055118114,-0.0078740157480314977,
-0.018700787401574805,-0.0078740157480314977,
0*
4,1,3,
-0.010826771653543309,-0.015748031496062995,
-0.010826771653543309,0,
0.010826771653543309,0,
0.010826771653543309,-0.015748031496062995,
0*%
%AMRoundRect0*
4,1,4,
0.07874015748031496,0.11811023622047245,
0.15748031496062992,0.19685039370078741,
0.23622047244094491,0.27559055118110237,
0.31496062992125984,0.35433070866141736,
0.07874015748031496,0.11811023622047245,
0*
1,1,$1,$2,$3*
1,1,$1,$2,$3*
1,1,$1,$2,$3*
1,1,$1,$2,$3*
20,1,$1,$2,$3,$4,$5,0*
20,1,$1,$2,$3,$4,$5,0*
20,1,$1,$2,$3,$4,$5,0*
20,1,$1,$2,$3,$4,$5,0*%
%AMCOMP630*
4,1,3,
0.015748031496062995,-0.005905511811023622,
0.015748031496062995,0.005905511811023622,
-0.015748031496062995,0.005905511811023622,
-0.015748031496062995,-0.005905511811023622,
0*
4,1,19,
0.015748031496062995,0,
0.017572935006151265,-0.00028903632109161348,
0.019219204245821693,-0.0011278523954235389,
0.020525690911663074,-0.0024343390612649222,
0.021364506985995006,-0.00408060830093535,
0.021653543307086617,-0.005905511811023622,
0.021364506985995006,-0.007730415321111894,
0.020525690911663074,-0.0093766845607823213,
0.019219204245821693,-0.010683171226623704,
0.017572935006151265,-0.011521987300955629,
0.015748031496062995,-0.011811023622047244,
0.013923127985974721,-0.011521987300955629,
0.012276858746304294,-0.010683171226623706,
0.010970372080462911,-0.0093766845607823231,
0.010131556006130985,-0.0077304153211118949,
0.00984251968503937,-0.0059055118110236228,
0.010131556006130983,-0.0040806083009353507,
0.010970372080462908,-0.0024343390612649239,
0.012276858746304293,-0.0011278523954235395,
0.013923127985974721,-0.00028903632109161348,
0*
4,1,19,
0.015748031496062995,0.011811023622047244,
0.017572935006151265,0.011521987300955629,
0.019219204245821693,0.010683171226623704,
0.020525690911663074,0.0093766845607823213,
0.021364506985995006,0.0077304153211118949,
0.021653543307086617,0.005905511811023622,
0.021364506985995006,0.0040806083009353507,
0.020525690911663074,0.002434339061264923,
0.019219204245821693,0.0011278523954235395,
0.017572935006151265,0.00028903632109161348,
0.015748031496062995,0,
0.013923127985974721,0.00028903632109161348,
0.012276858746304294,0.0011278523954235378,
0.010970372080462911,0.0024343390612649217,
0.010131556006130985,0.00408060830093535,
0.00984251968503937,0.0059055118110236211,
0.010131556006130983,0.0077304153211118923,
0.010970372080462908,0.0093766845607823213,
0.012276858746304293,0.010683171226623704,
0.013923127985974721,0.011521987300955629,
0*
4,1,19,
-0.015748031496062995,0.011811023622047244,
-0.013923127985974722,0.011521987300955629,
-0.012276858746304294,0.010683171226623704,
-0.010970372080462911,0.0093766845607823213,
-0.010131556006130985,0.0077304153211118949,
-0.00984251968503937,0.005905511811023622,
-0.010131556006130983,0.0040806083009353507,
-0.010970372080462911,0.002434339061264923,
-0.012276858746304294,0.0011278523954235395,
-0.013923127985974722,0.00028903632109161348,
-0.015748031496062995,0,
-0.017572935006151268,0.00028903632109161348,
-0.019219204245821693,0.0011278523954235378,
-0.020525690911663074,0.0024343390612649217,
-0.021364506985995006,0.00408060830093535,
-0.021653543307086617,0.0059055118110236211,
-0.021364506985995006,0.0077304153211118923,
-0.020525690911663078,0.0093766845607823213,
-0.019219204245821696,0.010683171226623704,
-0.017572935006151268,0.011521987300955629,
0*
4,1,19,
-0.015748031496062995,0,
-0.013923127985974722,-0.00028903632109161348,
-0.012276858746304294,-0.0011278523954235389,
-0.010970372080462911,-0.0024343390612649222,
-0.010131556006130985,-0.00408060830093535,
-0.00984251968503937,-0.005905511811023622,
-0.010131556006130983,-0.007730415321111894,
-0.010970372080462911,-0.0093766845607823213,
-0.012276858746304294,-0.010683171226623704,
-0.013923127985974722,-0.011521987300955629,
-0.015748031496062995,-0.011811023622047244,
-0.017572935006151268,-0.011521987300955629,
-0.019219204245821693,-0.010683171226623706,
-0.020525690911663074,-0.0093766845607823231,
-0.021364506985995006,-0.0077304153211118949,
-0.021653543307086617,-0.0059055118110236228,
-0.021364506985995006,-0.0040806083009353507,
-0.020525690911663078,-0.0024343390612649239,
-0.019219204245821696,-0.0011278523954235395,
-0.017572935006151268,-0.00028903632109161348,
0*
4,1,3,
0.021653543307086617,-0.005905511811023622,
0.00984251968503937,-0.005905511811023622,
0.00984251968503937,0.005905511811023622,
0.021653543307086617,0.005905511811023622,
0*
4,1,3,
0.015748031496062995,0.011811023622047244,
0.015748031496062995,0,
-0.015748031496062995,0,
-0.015748031496062995,0.011811023622047244,
0*
4,1,3,
-0.021653543307086617,0.005905511811023622,
-0.00984251968503937,0.005905511811023622,
-0.00984251968503937,-0.005905511811023622,
-0.021653543307086617,-0.005905511811023622,
0*
4,1,3,
-0.015748031496062995,-0.011811023622047244,
-0.015748031496062995,0,
0.015748031496062995,0,
0.015748031496062995,-0.011811023622047244,
0*%
%AMCOMP640*
4,1,3,
0.005905511811023622,0.015748031496062995,
-0.005905511811023622,0.015748031496062995,
-0.005905511811023622,-0.015748031496062995,
0.005905511811023622,-0.015748031496062995,
0*
4,1,19,
0.005905511811023622,0.021653543307086617,
0.0077304153211118949,0.021364506985995006,
0.0093766845607823213,0.020525690911663074,
0.010683171226623704,0.019219204245821693,
0.011521987300955629,0.017572935006151265,
0.011811023622047244,0.015748031496062995,
0.011521987300955631,0.013923127985974722,
0.010683171226623704,0.012276858746304294,
0.0093766845607823231,0.010970372080462911,
0.0077304153211118949,0.010131556006130985,
0.0059055118110236228,0.00984251968503937,
0.0040806083009353481,0.010131556006130985,
0.002434339061264923,0.010970372080462908,
0.0011278523954235395,0.012276858746304294,
0.00028903632109161348,0.013923127985974721,
0,0.015748031496062995,
0.00028903632109161234,0.017572935006151265,
0.0011278523954235378,0.019219204245821693,
0.0024343390612649213,0.020525690911663074,
0.0040806083009353481,0.021364506985995006,
0*
4,1,19,
-0.005905511811023622,0.021653543307086617,
-0.00408060830093535,0.021364506985995006,
-0.0024343390612649222,0.020525690911663074,
-0.0011278523954235389,0.019219204245821693,
-0.00028903632109161348,0.017572935006151265,
0,0.015748031496062995,
-0.00028903632109161234,0.013923127985974722,
-0.0011278523954235389,0.012276858746304294,
-0.0024343390612649217,0.010970372080462911,
-0.00408060830093535,0.010131556006130985,
-0.0059055118110236211,0.00984251968503937,
-0.0077304153211118958,0.010131556006130985,
-0.0093766845607823213,0.010970372080462908,
-0.010683171226623704,0.012276858746304294,
-0.011521987300955629,0.013923127985974721,
-0.011811023622047244,0.015748031496062995,
-0.011521987300955631,0.017572935006151265,
-0.010683171226623706,0.019219204245821693,
-0.0093766845607823231,0.020525690911663074,
-0.0077304153211118958,0.021364506985995006,
0*
4,1,19,
-0.005905511811023622,-0.00984251968503937,
-0.00408060830093535,-0.010131556006130985,
-0.0024343390612649222,-0.010970372080462911,
-0.0011278523954235389,-0.012276858746304294,
-0.00028903632109161348,-0.013923127985974722,
0,-0.015748031496062995,
-0.00028903632109161234,-0.017572935006151265,
-0.0011278523954235389,-0.019219204245821693,
-0.0024343390612649217,-0.020525690911663074,
-0.00408060830093535,-0.021364506985995006,
-0.0059055118110236211,-0.021653543307086617,
-0.0077304153211118958,-0.021364506985995006,
-0.0093766845607823213,-0.020525690911663078,
-0.010683171226623704,-0.019219204245821693,
-0.011521987300955629,-0.017572935006151268,
-0.011811023622047244,-0.015748031496062995,
-0.011521987300955631,-0.013923127985974722,
-0.010683171226623706,-0.012276858746304296,
-0.0093766845607823231,-0.010970372080462911,
-0.0077304153211118958,-0.010131556006130985,
0*
4,1,19,
0.005905511811023622,-0.00984251968503937,
0.0077304153211118949,-0.010131556006130985,
0.0093766845607823213,-0.010970372080462911,
0.010683171226623704,-0.012276858746304294,
0.011521987300955629,-0.013923127985974722,
0.011811023622047244,-0.015748031496062995,
0.011521987300955631,-0.017572935006151265,
0.010683171226623704,-0.019219204245821693,
0.0093766845607823231,-0.020525690911663074,
0.0077304153211118949,-0.021364506985995006,
0.0059055118110236228,-0.021653543307086617,
0.0040806083009353481,-0.021364506985995006,
0.002434339061264923,-0.020525690911663078,
0.0011278523954235395,-0.019219204245821693,
0.00028903632109161348,-0.017572935006151268,
0,-0.015748031496062995,
0.00028903632109161234,-0.013923127985974722,
0.0011278523954235378,-0.012276858746304296,
0.0024343390612649213,-0.010970372080462911,
0.0040806083009353481,-0.010131556006130985,
0*
4,1,3,
0.005905511811023622,0.021653543307086617,
0.005905511811023622,0.00984251968503937,
-0.005905511811023622,0.00984251968503937,
-0.005905511811023622,0.021653543307086617,
0*
4,1,3,
-0.011811023622047244,0.015748031496062995,
0,0.015748031496062995,
0,-0.015748031496062995,
-0.011811023622047244,-0.015748031496062995,
0*
4,1,3,
-0.005905511811023622,-0.021653543307086617,
-0.005905511811023622,-0.00984251968503937,
0.005905511811023622,-0.00984251968503937,
0.005905511811023622,-0.021653543307086617,
0*
4,1,3,
0.011811023622047244,-0.015748031496062995,
0,-0.015748031496062995,
0,0.015748031496062995,
0.011811023622047244,0.015748031496062995,
0*%
%AMRoundRect1*
4,1,4,
0.07874015748031496,0.11811023622047245,
0.15748031496062992,0.19685039370078741,
0.23622047244094491,0.27559055118110237,
0.31496062992125984,0.35433070866141736,
0.07874015748031496,0.11811023622047245,
0*
1,1,$1,$2,$3*
1,1,$1,$2,$3*
1,1,$1,$2,$3*
1,1,$1,$2,$3*
20,1,$1,$2,$3,$4,$5,0*
20,1,$1,$2,$3,$4,$5,0*
20,1,$1,$2,$3,$4,$5,0*
20,1,$1,$2,$3,$4,$5,0*%
%AMCOMP960*
4,1,3,
0.015748031496062995,-0.005905511811023622,
0.015748031496062995,0.005905511811023622,
-0.015748031496062995,0.005905511811023622,
-0.015748031496062995,-0.005905511811023622,
0*
4,1,19,
0.015748031496062995,0,
0.017572935006151265,-0.00028903632109161348,
0.019219204245821693,-0.0011278523954235389,
0.020525690911663074,-0.0024343390612649222,
0.021364506985995006,-0.00408060830093535,
0.021653543307086617,-0.005905511811023622,
0.021364506985995006,-0.007730415321111894,
0.020525690911663074,-0.0093766845607823213,
0.019219204245821693,-0.010683171226623704,
0.017572935006151265,-0.011521987300955629,
0.015748031496062995,-0.011811023622047244,
0.013923127985974721,-0.011521987300955629,
0.012276858746304294,-0.010683171226623706,
0.010970372080462911,-0.0093766845607823231,
0.010131556006130985,-0.0077304153211118949,
0.00984251968503937,-0.0059055118110236228,
0.010131556006130983,-0.0040806083009353507,
0.010970372080462908,-0.0024343390612649239,
0.012276858746304293,-0.0011278523954235395,
0.013923127985974721,-0.00028903632109161348,
0*
4,1,19,
0.015748031496062995,0.011811023622047244,
0.017572935006151265,0.011521987300955629,
0.019219204245821693,0.010683171226623704,
0.020525690911663074,0.0093766845607823213,
0.021364506985995006,0.0077304153211118949,
0.021653543307086617,0.005905511811023622,
0.021364506985995006,0.0040806083009353507,
0.020525690911663074,0.002434339061264923,
0.019219204245821693,0.0011278523954235395,
0.017572935006151265,0.00028903632109161348,
0.015748031496062995,0,
0.013923127985974721,0.00028903632109161348,
0.012276858746304294,0.0011278523954235378,
0.010970372080462911,0.0024343390612649217,
0.010131556006130985,0.00408060830093535,
0.00984251968503937,0.0059055118110236211,
0.010131556006130983,0.0077304153211118923,
0.010970372080462908,0.0093766845607823213,
0.012276858746304293,0.010683171226623704,
0.013923127985974721,0.011521987300955629,
0*
4,1,19,
-0.015748031496062995,0.011811023622047244,
-0.013923127985974722,0.011521987300955629,
-0.012276858746304294,0.010683171226623704,
-0.010970372080462911,0.0093766845607823213,
-0.010131556006130985,0.0077304153211118949,
-0.00984251968503937,0.005905511811023622,
-0.010131556006130983,0.0040806083009353507,
-0.010970372080462911,0.002434339061264923,
-0.012276858746304294,0.0011278523954235395,
-0.013923127985974722,0.00028903632109161348,
-0.015748031496062995,0,
-0.017572935006151268,0.00028903632109161348,
-0.019219204245821693,0.0011278523954235378,
-0.020525690911663074,0.0024343390612649217,
-0.021364506985995006,0.00408060830093535,
-0.021653543307086617,0.0059055118110236211,
-0.021364506985995006,0.0077304153211118923,
-0.020525690911663078,0.0093766845607823213,
-0.019219204245821696,0.010683171226623704,
-0.017572935006151268,0.011521987300955629,
0*
4,1,19,
-0.015748031496062995,0,
-0.013923127985974722,-0.00028903632109161348,
-0.012276858746304294,-0.0011278523954235389,
-0.010970372080462911,-0.0024343390612649222,
-0.010131556006130985,-0.00408060830093535,
-0.00984251968503937,-0.005905511811023622,
-0.010131556006130983,-0.007730415321111894,
-0.010970372080462911,-0.0093766845607823213,
-0.012276858746304294,-0.010683171226623704,
-0.013923127985974722,-0.011521987300955629,
-0.015748031496062995,-0.011811023622047244,
-0.017572935006151268,-0.011521987300955629,
-0.019219204245821693,-0.010683171226623706,
-0.020525690911663074,-0.0093766845607823231,
-0.021364506985995006,-0.0077304153211118949,
-0.021653543307086617,-0.0059055118110236228,
-0.021364506985995006,-0.0040806083009353507,
-0.020525690911663078,-0.0024343390612649239,
-0.019219204245821696,-0.0011278523954235395,
-0.017572935006151268,-0.00028903632109161348,
0*
4,1,3,
0.021653543307086617,-0.005905511811023622,
0.00984251968503937,-0.005905511811023622,
0.00984251968503937,0.005905511811023622,
0.021653543307086617,0.005905511811023622,
0*
4,1,3,
0.015748031496062995,0.011811023622047244,
0.015748031496062995,0,
-0.015748031496062995,0,
-0.015748031496062995,0.011811023622047244,
0*
4,1,3,
-0.021653543307086617,0.005905511811023622,
-0.00984251968503937,0.005905511811023622,
-0.00984251968503937,-0.005905511811023622,
-0.021653543307086617,-0.005905511811023622,
0*
4,1,3,
-0.015748031496062995,-0.011811023622047244,
-0.015748031496062995,0,
0.015748031496062995,0,
0.015748031496062995,-0.011811023622047244,
0*%
%AMCOMP970*
4,1,3,
0.005905511811023622,0.015748031496062995,
-0.005905511811023622,0.015748031496062995,
-0.005905511811023622,-0.015748031496062995,
0.005905511811023622,-0.015748031496062995,
0*
4,1,19,
0.005905511811023622,0.021653543307086617,
0.0077304153211118949,0.021364506985995006,
0.0093766845607823213,0.020525690911663074,
0.010683171226623704,0.019219204245821693,
0.011521987300955629,0.017572935006151265,
0.011811023622047244,0.015748031496062995,
0.011521987300955631,0.013923127985974722,
0.010683171226623704,0.012276858746304294,
0.0093766845607823231,0.010970372080462911,
0.0077304153211118949,0.010131556006130985,
0.0059055118110236228,0.00984251968503937,
0.0040806083009353481,0.010131556006130985,
0.002434339061264923,0.010970372080462908,
0.0011278523954235395,0.012276858746304294,
0.00028903632109161348,0.013923127985974721,
0,0.015748031496062995,
0.00028903632109161234,0.017572935006151265,
0.0011278523954235378,0.019219204245821693,
0.0024343390612649213,0.020525690911663074,
0.0040806083009353481,0.021364506985995006,
0*
4,1,19,
-0.005905511811023622,0.021653543307086617,
-0.00408060830093535,0.021364506985995006,
-0.0024343390612649222,0.020525690911663074,
-0.0011278523954235389,0.019219204245821693,
-0.00028903632109161348,0.017572935006151265,
0,0.015748031496062995,
-0.00028903632109161234,0.013923127985974722,
-0.0011278523954235389,0.012276858746304294,
-0.0024343390612649217,0.010970372080462911,
-0.00408060830093535,0.010131556006130985,
-0.0059055118110236211,0.00984251968503937,
-0.0077304153211118958,0.010131556006130985,
-0.0093766845607823213,0.010970372080462908,
-0.010683171226623704,0.012276858746304294,
-0.011521987300955629,0.013923127985974721,
-0.011811023622047244,0.015748031496062995,
-0.011521987300955631,0.017572935006151265,
-0.010683171226623706,0.019219204245821693,
-0.0093766845607823231,0.020525690911663074,
-0.0077304153211118958,0.021364506985995006,
0*
4,1,19,
-0.005905511811023622,-0.00984251968503937,
-0.00408060830093535,-0.010131556006130985,
-0.0024343390612649222,-0.010970372080462911,
-0.0011278523954235389,-0.012276858746304294,
-0.00028903632109161348,-0.013923127985974722,
0,-0.015748031496062995,
-0.00028903632109161234,-0.017572935006151265,
-0.0011278523954235389,-0.019219204245821693,
-0.0024343390612649217,-0.020525690911663074,
-0.00408060830093535,-0.021364506985995006,
-0.0059055118110236211,-0.021653543307086617,
-0.0077304153211118958,-0.021364506985995006,
-0.0093766845607823213,-0.020525690911663078,
-0.010683171226623704,-0.019219204245821693,
-0.011521987300955629,-0.017572935006151268,
-0.011811023622047244,-0.015748031496062995,
-0.011521987300955631,-0.013923127985974722,
-0.010683171226623706,-0.012276858746304296,
-0.0093766845607823231,-0.010970372080462911,
-0.0077304153211118958,-0.010131556006130985,
0*
4,1,19,
0.005905511811023622,-0.00984251968503937,
0.0077304153211118949,-0.010131556006130985,
0.0093766845607823213,-0.010970372080462911,
0.010683171226623704,-0.012276858746304294,
0.011521987300955629,-0.013923127985974722,
0.011811023622047244,-0.015748031496062995,
0.011521987300955631,-0.017572935006151265,
0.010683171226623704,-0.019219204245821693,
0.0093766845607823231,-0.020525690911663074,
0.0077304153211118949,-0.021364506985995006,
0.0059055118110236228,-0.021653543307086617,
0.0040806083009353481,-0.021364506985995006,
0.002434339061264923,-0.020525690911663078,
0.0011278523954235395,-0.019219204245821693,
0.00028903632109161348,-0.017572935006151268,
0,-0.015748031496062995,
0.00028903632109161234,-0.013923127985974722,
0.0011278523954235378,-0.012276858746304296,
0.0024343390612649213,-0.010970372080462911,
0.0040806083009353481,-0.010131556006130985,
0*
4,1,3,
0.005905511811023622,0.021653543307086617,
0.005905511811023622,0.00984251968503937,
-0.005905511811023622,0.00984251968503937,
-0.005905511811023622,0.021653543307086617,
0*
4,1,3,
-0.011811023622047244,0.015748031496062995,
0,0.015748031496062995,
0,-0.015748031496062995,
-0.011811023622047244,-0.015748031496062995,
0*
4,1,3,
-0.005905511811023622,-0.021653543307086617,
-0.005905511811023622,-0.00984251968503937,
0.005905511811023622,-0.00984251968503937,
0.005905511811023622,-0.021653543307086617,
0*
4,1,3,
0.011811023622047244,-0.015748031496062995,
0,-0.015748031496062995,
0,0.015748031496062995,
0.011811023622047244,0.015748031496062995,
0*%
%AMRoundRect0*
4,1,4,
0.07874015748031496,0.11811023622047245,
0.15748031496062992,0.19685039370078741,
0.23622047244094491,0.27559055118110237,
0.31496062992125984,0.35433070866141736,
0.07874015748031496,0.11811023622047245,
0*
1,1,$1,$2,$3*
1,1,$1,$2,$3*
1,1,$1,$2,$3*
1,1,$1,$2,$3*
20,1,$1,$2,$3,$4,$5,0*
20,1,$1,$2,$3,$4,$5,0*
20,1,$1,$2,$3,$4,$5,0*
20,1,$1,$2,$3,$4,$5,0*%
%AMCOMP1290*
4,1,3,
0.015748031496062995,-0.005905511811023622,
0.015748031496062995,0.005905511811023622,
-0.015748031496062995,0.005905511811023622,
-0.015748031496062995,-0.005905511811023622,
0*
4,1,19,
0.015748031496062995,0,
0.017572935006151265,-0.00028903632109161348,
0.019219204245821693,-0.0011278523954235389,
0.020525690911663074,-0.0024343390612649222,
0.021364506985995006,-0.00408060830093535,
0.021653543307086617,-0.005905511811023622,
0.021364506985995006,-0.007730415321111894,
0.020525690911663074,-0.0093766845607823213,
0.019219204245821693,-0.010683171226623704,
0.017572935006151265,-0.011521987300955629,
0.015748031496062995,-0.011811023622047244,
0.013923127985974721,-0.011521987300955629,
0.012276858746304294,-0.010683171226623706,
0.010970372080462911,-0.0093766845607823231,
0.010131556006130985,-0.0077304153211118949,
0.00984251968503937,-0.0059055118110236228,
0.010131556006130983,-0.0040806083009353507,
0.010970372080462908,-0.0024343390612649239,
0.012276858746304293,-0.0011278523954235395,
0.013923127985974721,-0.00028903632109161348,
0*
4,1,19,
0.015748031496062995,0.011811023622047244,
0.017572935006151265,0.011521987300955629,
0.019219204245821693,0.010683171226623704,
0.020525690911663074,0.0093766845607823213,
0.021364506985995006,0.0077304153211118949,
0.021653543307086617,0.005905511811023622,
0.021364506985995006,0.0040806083009353507,
0.020525690911663074,0.002434339061264923,
0.019219204245821693,0.0011278523954235395,
0.017572935006151265,0.00028903632109161348,
0.015748031496062995,0,
0.013923127985974721,0.00028903632109161348,
0.012276858746304294,0.0011278523954235378,
0.010970372080462911,0.0024343390612649217,
0.010131556006130985,0.00408060830093535,
0.00984251968503937,0.0059055118110236211,
0.010131556006130983,0.0077304153211118923,
0.010970372080462908,0.0093766845607823213,
0.012276858746304293,0.010683171226623704,
0.013923127985974721,0.011521987300955629,
0*
4,1,19,
-0.015748031496062995,0.011811023622047244,
-0.013923127985974722,0.011521987300955629,
-0.012276858746304294,0.010683171226623704,
-0.010970372080462911,0.0093766845607823213,
-0.010131556006130985,0.0077304153211118949,
-0.00984251968503937,0.005905511811023622,
-0.010131556006130983,0.0040806083009353507,
-0.010970372080462911,0.002434339061264923,
-0.012276858746304294,0.0011278523954235395,
-0.013923127985974722,0.00028903632109161348,
-0.015748031496062995,0,
-0.017572935006151268,0.00028903632109161348,
-0.019219204245821693,0.0011278523954235378,
-0.020525690911663074,0.0024343390612649217,
-0.021364506985995006,0.00408060830093535,
-0.021653543307086617,0.0059055118110236211,
-0.021364506985995006,0.0077304153211118923,
-0.020525690911663078,0.0093766845607823213,
-0.019219204245821696,0.010683171226623704,
-0.017572935006151268,0.011521987300955629,
0*
4,1,19,
-0.015748031496062995,0,
-0.013923127985974722,-0.00028903632109161348,
-0.012276858746304294,-0.0011278523954235389,
-0.010970372080462911,-0.0024343390612649222,
-0.010131556006130985,-0.00408060830093535,
-0.00984251968503937,-0.005905511811023622,
-0.010131556006130983,-0.007730415321111894,
-0.010970372080462911,-0.0093766845607823213,
-0.012276858746304294,-0.010683171226623704,
-0.013923127985974722,-0.011521987300955629,
-0.015748031496062995,-0.011811023622047244,
-0.017572935006151268,-0.011521987300955629,
-0.019219204245821693,-0.010683171226623706,
-0.020525690911663074,-0.0093766845607823231,
-0.021364506985995006,-0.0077304153211118949,
-0.021653543307086617,-0.0059055118110236228,
-0.021364506985995006,-0.0040806083009353507,
-0.020525690911663078,-0.0024343390612649239,
-0.019219204245821696,-0.0011278523954235395,
-0.017572935006151268,-0.00028903632109161348,
0*
4,1,3,
0.021653543307086617,-0.005905511811023622,
0.00984251968503937,-0.005905511811023622,
0.00984251968503937,0.005905511811023622,
0.021653543307086617,0.005905511811023622,
0*
4,1,3,
0.015748031496062995,0.011811023622047244,
0.015748031496062995,0,
-0.015748031496062995,0,
-0.015748031496062995,0.011811023622047244,
0*
4,1,3,
-0.021653543307086617,0.005905511811023622,
-0.00984251968503937,0.005905511811023622,
-0.00984251968503937,-0.005905511811023622,
-0.021653543307086617,-0.005905511811023622,
0*
4,1,3,
-0.015748031496062995,-0.011811023622047244,
-0.015748031496062995,0,
0.015748031496062995,0,
0.015748031496062995,-0.011811023622047244,
0*%
%AMCOMP1300*
4,1,3,
0.005905511811023622,0.015748031496062995,
-0.005905511811023622,0.015748031496062995,
-0.005905511811023622,-0.015748031496062995,
0.005905511811023622,-0.015748031496062995,
0*
4,1,19,
0.005905511811023622,0.021653543307086617,
0.0077304153211118949,0.021364506985995006,
0.0093766845607823213,0.020525690911663074,
0.010683171226623704,0.019219204245821693,
0.011521987300955629,0.017572935006151265,
0.011811023622047244,0.015748031496062995,
0.011521987300955631,0.013923127985974722,
0.010683171226623704,0.012276858746304294,
0.0093766845607823231,0.010970372080462911,
0.0077304153211118949,0.010131556006130985,
0.0059055118110236228,0.00984251968503937,
0.0040806083009353481,0.010131556006130985,
0.002434339061264923,0.010970372080462908,
0.0011278523954235395,0.012276858746304294,
0.00028903632109161348,0.013923127985974721,
0,0.015748031496062995,
0.00028903632109161234,0.017572935006151265,
0.0011278523954235378,0.019219204245821693,
0.0024343390612649213,0.020525690911663074,
0.0040806083009353481,0.021364506985995006,
0*
4,1,19,
-0.005905511811023622,0.021653543307086617,
-0.00408060830093535,0.021364506985995006,
-0.0024343390612649222,0.020525690911663074,
-0.0011278523954235389,0.019219204245821693,
-0.00028903632109161348,0.017572935006151265,
0,0.015748031496062995,
-0.00028903632109161234,0.013923127985974722,
-0.0011278523954235389,0.012276858746304294,
-0.0024343390612649217,0.010970372080462911,
-0.00408060830093535,0.010131556006130985,
-0.0059055118110236211,0.00984251968503937,
-0.0077304153211118958,0.010131556006130985,
-0.0093766845607823213,0.010970372080462908,
-0.010683171226623704,0.012276858746304294,
-0.011521987300955629,0.013923127985974721,
-0.011811023622047244,0.015748031496062995,
-0.011521987300955631,0.017572935006151265,
-0.010683171226623706,0.019219204245821693,
-0.0093766845607823231,0.020525690911663074,
-0.0077304153211118958,0.021364506985995006,
0*
4,1,19,
-0.005905511811023622,-0.00984251968503937,
-0.00408060830093535,-0.010131556006130985,
-0.0024343390612649222,-0.010970372080462911,
-0.0011278523954235389,-0.012276858746304294,
-0.00028903632109161348,-0.013923127985974722,
0,-0.015748031496062995,
-0.00028903632109161234,-0.017572935006151265,
-0.0011278523954235389,-0.019219204245821693,
-0.0024343390612649217,-0.020525690911663074,
-0.00408060830093535,-0.021364506985995006,
-0.0059055118110236211,-0.021653543307086617,
-0.0077304153211118958,-0.021364506985995006,
-0.0093766845607823213,-0.020525690911663078,
-0.010683171226623704,-0.019219204245821693,
-0.011521987300955629,-0.017572935006151268,
-0.011811023622047244,-0.015748031496062995,
-0.011521987300955631,-0.013923127985974722,
-0.010683171226623706,-0.012276858746304296,
-0.0093766845607823231,-0.010970372080462911,
-0.0077304153211118958,-0.010131556006130985,
0*
4,1,19,
0.005905511811023622,-0.00984251968503937,
0.0077304153211118949,-0.010131556006130985,
0.0093766845607823213,-0.010970372080462911,
0.010683171226623704,-0.012276858746304294,
0.011521987300955629,-0.013923127985974722,
0.011811023622047244,-0.015748031496062995,
0.011521987300955631,-0.017572935006151265,
0.010683171226623704,-0.019219204245821693,
0.0093766845607823231,-0.020525690911663074,
0.0077304153211118949,-0.021364506985995006,
0.0059055118110236228,-0.021653543307086617,
0.0040806083009353481,-0.021364506985995006,
0.002434339061264923,-0.020525690911663078,
0.0011278523954235395,-0.019219204245821693,
0.00028903632109161348,-0.017572935006151268,
0,-0.015748031496062995,
0.00028903632109161234,-0.013923127985974722,
0.0011278523954235378,-0.012276858746304296,
0.0024343390612649213,-0.010970372080462911,
0.0040806083009353481,-0.010131556006130985,
0*
4,1,3,
0.005905511811023622,0.021653543307086617,
0.005905511811023622,0.00984251968503937,
-0.005905511811023622,0.00984251968503937,
-0.005905511811023622,0.021653543307086617,
0*
4,1,3,
-0.011811023622047244,0.015748031496062995,
0,0.015748031496062995,
0,-0.015748031496062995,
-0.011811023622047244,-0.015748031496062995,
0*
4,1,3,
-0.005905511811023622,-0.021653543307086617,
-0.005905511811023622,-0.00984251968503937,
0.005905511811023622,-0.00984251968503937,
0.005905511811023622,-0.021653543307086617,
0*
4,1,3,
0.011811023622047244,-0.015748031496062995,
0,-0.015748031496062995,
0,0.015748031496062995,
0.011811023622047244,0.015748031496062995,
0*%
%ADD10C,0.08858267716535434*%
%ADD11C,0.056692913385826771*%
%ADD12O,0.066929133858267723X0.066929133858267723*%
%ADD13R,0.066929133858267723X0.066929133858267723*%
%ADD14O,0.070866141732283464X0.070866141732283464*%
%ADD15O,0.059055118110236227X0.059055118110236227*%
%ADD16C,0.25*%
%ADD17R,0.062992125984251982X0.062992125984251982*%
%ADD18C,0.062992125984251982*%
%ADD19C,0.14960629921259844*%
%AMCOMP161*
4,1,3,
0.00984251968503937,-0.0088582677165354329,
0.00984251968503937,0.0088582677165354329,
-0.00984251968503937,0.0088582677165354329,
-0.00984251968503937,-0.0088582677165354329,
0*
4,1,19,
0.00984251968503937,0,
0.012579874950171779,-0.00043355448163741962,
0.015049278809677422,-0.0016917785931353079,
0.017009008808439495,-0.0036515085918973839,
0.018267232919937385,-0.0061209124514030253,
0.018700787401574805,-0.0088582677165354329,
0.018267232919937385,-0.011595622981667842,
0.017009008808439495,-0.014065026841173483,
0.015049278809677422,-0.01602475683993556,
0.012579874950171779,-0.017282980951433446,
0.00984251968503937,-0.017716535433070866,
0.0071051644199069588,-0.017282980951433446,
0.0046357605604013218,-0.01602475683993556,
0.0026760305616392458,-0.014065026841173483,
0.0014178064501413565,-0.011595622981667842,
0.00098425196850393678,-0.0088582677165354347,
0.0014178064501413554,-0.0061209124514030279,
0.0026760305616392436,-0.0036515085918973861,
0.0046357605604013183,-0.001691778593135309,
0.0071051644199069614,-0.00043355448163741962,
0*
4,1,19,
0.00984251968503937,0.017716535433070866,
0.012579874950171779,0.017282980951433446,
0.015049278809677422,0.01602475683993556,
0.017009008808439495,0.014065026841173483,
0.018267232919937385,0.011595622981667842,
0.018700787401574805,0.0088582677165354329,
0.018267232919937385,0.0061209124514030253,
0.017009008808439495,0.0036515085918973852,
0.015049278809677422,0.001691778593135309,
0.012579874950171779,0.00043355448163741962,
0.00984251968503937,0,
0.0071051644199069588,0.00043355448163741962,
0.0046357605604013218,0.0016917785931353068,
0.0026760305616392458,0.003651508591897383,
0.0014178064501413565,0.0061209124514030244,
0.00098425196850393678,0.0088582677165354329,
0.0014178064501413554,0.011595622981667841,
0.0026760305616392436,0.014065026841173481,
0.0046357605604013183,0.01602475683993556,
0.0071051644199069614,0.017282980951433446,
0*
4,1,19,
-0.00984251968503937,0.017716535433070866,
-0.0071051644199069623,0.017282980951433446,
-0.0046357605604013209,0.01602475683993556,
-0.0026760305616392449,0.014065026841173483,
-0.0014178064501413565,0.011595622981667842,
-0.00098425196850393678,0.0088582677165354329,
-0.0014178064501413554,0.0061209124514030253,
-0.0026760305616392449,0.0036515085918973852,
-0.00463576056040132,0.001691778593135309,
-0.0071051644199069614,0.00043355448163741962,
-0.00984251968503937,0,
-0.012579874950171783,0.00043355448163741962,
-0.01504927880967742,0.0016917785931353068,
-0.017009008808439495,0.003651508591897383,
-0.018267232919937385,0.0061209124514030244,
-0.018700787401574805,0.0088582677165354329,
-0.018267232919937385,0.011595622981667841,
-0.0170090088084395,0.014065026841173481,
-0.015049278809677422,0.01602475683993556,
-0.012579874950171779,0.017282980951433446,
0*
4,1,19,
-0.00984251968503937,0,
-0.0071051644199069623,-0.00043355448163741962,
-0.0046357605604013209,-0.0016917785931353079,
-0.0026760305616392449,-0.0036515085918973839,
-0.0014178064501413565,-0.0061209124514030253,
-0.00098425196850393678,-0.0088582677165354329,
-0.0014178064501413554,-0.011595622981667842,
-0.0026760305616392449,-0.014065026841173483,
-0.00463576056040132,-0.01602475683993556,
-0.0071051644199069614,-0.017282980951433446,
-0.00984251968503937,-0.017716535433070866,
-0.012579874950171783,-0.017282980951433446,
-0.01504927880967742,-0.01602475683993556,
-0.017009008808439495,-0.014065026841173483,
-0.018267232919937385,-0.011595622981667842,
-0.018700787401574805,-0.0088582677165354347,
-0.018267232919937385,-0.0061209124514030279,
-0.0170090088084395,-0.0036515085918973861,
-0.015049278809677422,-0.001691778593135309,
-0.012579874950171779,-0.00043355448163741962,
0*
4,1,3,
0.018700787401574805,-0.0088582677165354329,
0.00098425196850393678,-0.0088582677165354329,
0.00098425196850393678,0.0088582677165354329,
0.018700787401574805,0.0088582677165354329,
0*
4,1,3,
0.00984251968503937,0.017716535433070866,
0.00984251968503937,0,
-0.00984251968503937,0,
-0.00984251968503937,0.017716535433070866,
0*
4,1,3,
-0.018700787401574805,0.0088582677165354329,
-0.00098425196850393678,0.0088582677165354329,
-0.00098425196850393678,-0.0088582677165354329,
-0.018700787401574805,-0.0088582677165354329,
0*
4,1,3,
-0.00984251968503937,-0.017716535433070866,
-0.00984251968503937,0,
0.00984251968503937,0,
0.00984251968503937,-0.017716535433070866,
0*%
%ADD20COMP161,0.225X0.25X-0.225X0.25X0.225X-0.25X0.225X-0.25X-0.225X0*%
%AMCOMP166*
4,1,3,
0.0078740157480314977,0.010826771653543309,
-0.0078740157480314977,0.010826771653543309,
-0.0078740157480314977,-0.010826771653543309,
0.0078740157480314977,-0.010826771653543309,
0*
4,1,19,
0.0078740157480314977,0.018700787401574805,
0.010307220428149194,0.018315405640119319,
0.012502246081043097,0.017196984207676753,
0.014244228302164944,0.015455001986554908,
0.015362649734607511,0.013259976333661005,
0.015748031496062995,0.010826771653543309,
0.015362649734607511,0.0083935669734256126,
0.014244228302164944,0.0061985413205317089,
0.0125022460810431,0.0044565590994098637,
0.010307220428149194,0.0033381376669672958,
0.0078740157480314977,0.0029527559055118114,
0.005440811067913799,0.0033381376669672958,
0.0032457854150198975,0.0044565590994098628,
0.0015038031938980523,0.0061985413205317081,
0.00038538176145548424,0.00839356697342561,
0,0.010826771653543307,
0.00038538176145548316,0.013259976333661003,
0.0015038031938980512,0.015455001986554907,
0.0032457854150198949,0.017196984207676753,
0.005440811067913799,0.018315405640119319,
0*
4,1,19,
-0.0078740157480314977,0.018700787401574805,
-0.0054408110679138007,0.018315405640119319,
-0.0032457854150198971,0.017196984207676753,
-0.0015038031938980512,0.015455001986554908,
-0.00038538176145548424,0.013259976333661005,
0,0.010826771653543309,
-0.00038538176145548316,0.0083935669734256126,
-0.0015038031938980512,0.0061985413205317089,
-0.0032457854150198962,0.0044565590994098637,
-0.0054408110679138,0.0033381376669672958,
-0.007874015748031496,0.0029527559055118114,
-0.010307220428149196,0.0033381376669672958,
-0.012502246081043097,0.0044565590994098628,
-0.01424422830216494,0.0061985413205317081,
-0.015362649734607511,0.00839356697342561,
-0.015748031496062995,0.010826771653543307,
-0.015362649734607511,0.013259976333661003,
-0.014244228302164944,0.015455001986554907,
-0.0125022460810431,0.017196984207676753,
-0.010307220428149196,0.018315405640119319,
0*
4,1,19,
-0.0078740157480314977,-0.0029527559055118114,
-0.0054408110679138007,-0.0033381376669672958,
-0.0032457854150198971,-0.0044565590994098628,
-0.0015038031938980512,-0.0061985413205317089,
-0.00038538176145548424,-0.0083935669734256126,
0,-0.010826771653543309,
-0.00038538176145548316,-0.013259976333661005,
-0.0015038031938980512,-0.015455001986554908,
-0.0032457854150198962,-0.017196984207676753,
-0.0054408110679138,-0.018315405640119319,
-0.007874015748031496,-0.018700787401574805,
-0.010307220428149196,-0.018315405640119319,
-0.012502246081043097,-0.017196984207676753,
-0.01424422830216494,-0.015455001986554908,
-0.015362649734607511,-0.013259976333661007,
-0.015748031496062995,-0.01082677165354331,
-0.015362649734607511,-0.0083935669734256143,
-0.014244228302164944,-0.0061985413205317107,
-0.0125022460810431,-0.0044565590994098637,
-0.010307220428149196,-0.0033381376669672958,
0*
4,1,19,
0.0078740157480314977,-0.0029527559055118114,
0.010307220428149194,-0.0033381376669672958,
0.012502246081043097,-0.0044565590994098628,
0.014244228302164944,-0.0061985413205317089,
0.015362649734607511,-0.0083935669734256126,
0.015748031496062995,-0.010826771653543309,
0.015362649734607511,-0.013259976333661005,
0.014244228302164944,-0.015455001986554908,
0.0125022460810431,-0.017196984207676753,
0.010307220428149194,-0.018315405640119319,
0.0078740157480314977,-0.018700787401574805,
0.005440811067913799,-0.018315405640119319,
0.0032457854150198975,-0.017196984207676753,
0.0015038031938980523,-0.015455001986554908,
0.00038538176145548424,-0.013259976333661007,
0,-0.01082677165354331,
0.00038538176145548316,-0.0083935669734256143,
0.0015038031938980512,-0.0061985413205317107,
0.0032457854150198949,-0.0044565590994098637,
0.005440811067913799,-0.0033381376669672958,
0*
4,1,3,
0.0078740157480314977,0.018700787401574805,
0.0078740157480314977,0.0029527559055118114,
-0.0078740157480314977,0.0029527559055118114,
-0.0078740157480314977,0.018700787401574805,
0*
4,1,3,
-0.015748031496062995,0.010826771653543309,
0,0.010826771653543309,
0,-0.010826771653543309,
-0.015748031496062995,-0.010826771653543309,
0*
4,1,3,
-0.0078740157480314977,-0.018700787401574805,
-0.0078740157480314977,-0.0029527559055118114,
0.0078740157480314977,-0.0029527559055118114,
0.0078740157480314977,-0.018700787401574805,
0*
4,1,3,
0.015748031496062995,-0.010826771653543309,
0,-0.010826771653543309,
0,0.010826771653543309,
0.015748031496062995,0.010826771653543309,
0*%
%ADD21COMP166,0.2X0.2X0.275X-0.2X0.275X-0.2X-0.275X0.2X-0.275X0*%
%AMCOMP171*
4,1,3,
-0.010826771653543309,0.0078740157480314977,
-0.010826771653543309,-0.0078740157480314977,
0.010826771653543309,-0.0078740157480314977,
0.010826771653543309,0.0078740157480314977,
0*
4,1,19,
-0.010826771653543309,0.015748031496062995,
-0.0083935669734256126,0.015362649734607511,
-0.0061985413205317089,0.014244228302164944,
-0.0044565590994098628,0.012502246081043097,
-0.0033381376669672958,0.010307220428149194,
-0.0029527559055118114,0.0078740157480314977,
-0.0033381376669672949,0.0054408110679138007,
-0.0044565590994098628,0.0032457854150198975,
-0.0061985413205317081,0.0015038031938980523,
-0.00839356697342561,0.00038538176145548424,
-0.010826771653543309,0,
-0.013259976333661007,0.00038538176145548424,
-0.015455001986554908,0.0015038031938980512,
-0.017196984207676753,0.0032457854150198962,
-0.018315405640119319,0.0054408110679138,
-0.018700787401574805,0.007874015748031496,
-0.018315405640119322,0.010307220428149194,
-0.017196984207676753,0.012502246081043094,
-0.01545500198655491,0.01424422830216494,
-0.013259976333661007,0.015362649734607511,
0*
4,1,19,
-0.010826771653543309,0,
-0.0083935669734256126,-0.00038538176145548424,
-0.0061985413205317089,-0.0015038031938980512,
-0.0044565590994098628,-0.0032457854150198971,
-0.0033381376669672958,-0.0054408110679138007,
-0.0029527559055118114,-0.0078740157480314977,
-0.0033381376669672949,-0.010307220428149194,
-0.0044565590994098628,-0.012502246081043097,
-0.0061985413205317081,-0.01424422830216494,
-0.00839356697342561,-0.015362649734607511,
-0.010826771653543309,-0.015748031496062995,
-0.013259976333661007,-0.015362649734607511,
-0.015455001986554908,-0.014244228302164944,
-0.017196984207676753,-0.0125022460810431,
-0.018315405640119319,-0.010307220428149196,
-0.018700787401574805,-0.0078740157480314977,
-0.018315405640119322,-0.0054408110679138016,
-0.017196984207676753,-0.0032457854150198988,
-0.01545500198655491,-0.0015038031938980523,
-0.013259976333661007,-0.00038538176145548424,
0*
4,1,19,
0.010826771653543309,0,
0.013259976333661005,-0.00038538176145548424,
0.015455001986554908,-0.0015038031938980512,
0.017196984207676753,-0.0032457854150198971,
0.018315405640119319,-0.0054408110679138007,
0.018700787401574805,-0.0078740157480314977,
0.018315405640119322,-0.010307220428149194,
0.017196984207676753,-0.012502246081043097,
0.015455001986554908,-0.01424422830216494,
0.013259976333661007,-0.015362649734607511,
0.010826771653543309,-0.015748031496062995,
0.00839356697342561,-0.015362649734607511,
0.0061985413205317089,-0.014244228302164944,
0.0044565590994098637,-0.0125022460810431,
0.0033381376669672958,-0.010307220428149196,
0.0029527559055118114,-0.0078740157480314977,
0.0033381376669672949,-0.0054408110679138016,
0.0044565590994098628,-0.0032457854150198988,
0.0061985413205317063,-0.0015038031938980523,
0.00839356697342561,-0.00038538176145548424,
0*
4,1,19,
0.010826771653543309,0.015748031496062995,
0.013259976333661005,0.015362649734607511,
0.015455001986554908,0.014244228302164944,
0.017196984207676753,0.012502246081043097,
0.018315405640119319,0.010307220428149194,
0.018700787401574805,0.0078740157480314977,
0.018315405640119322,0.0054408110679138007,
0.017196984207676753,0.0032457854150198975,
0.015455001986554908,0.0015038031938980523,
0.013259976333661007,0.00038538176145548424,
0.010826771653543309,0,
0.00839356697342561,0.00038538176145548424,
0.0061985413205317089,0.0015038031938980512,
0.0044565590994098637,0.0032457854150198962,
0.0033381376669672958,0.0054408110679138,
0.0029527559055118114,0.007874015748031496,
0.0033381376669672949,0.010307220428149194,
0.0044565590994098628,0.012502246081043094,
0.0061985413205317063,0.01424422830216494,
0.00839356697342561,0.015362649734607511,
0*
4,1,3,
-0.018700787401574805,0.0078740157480314977,
-0.0029527559055118114,0.0078740157480314977,
-0.0029527559055118114,-0.0078740157480314977,
-0.018700787401574805,-0.0078740157480314977,
0*
4,1,3,
-0.010826771653543309,-0.015748031496062995,
-0.010826771653543309,0,
0.010826771653543309,0,
0.010826771653543309,-0.015748031496062995,
0*
4,1,3,
0.018700787401574805,-0.0078740157480314977,
0.0029527559055118114,-0.0078740157480314977,
0.0029527559055118114,0.0078740157480314977,
0.018700787401574805,0.0078740157480314977,
0*
4,1,3,
0.010826771653543309,0.015748031496062995,
0.010826771653543309,0,
-0.010826771653543309,0,
-0.010826771653543309,0.015748031496062995,
0*%
%ADD22COMP171,0.2X-0.275X0.2X-0.275X-0.2X0.275X-0.2X0.275X0.2X0*%
%AMCOMP176*
4,1,3,
0.010826771653543309,-0.0078740157480314977,
0.010826771653543309,0.0078740157480314977,
-0.010826771653543309,0.0078740157480314977,
-0.010826771653543309,-0.0078740157480314977,
0*
4,1,19,
0.010826771653543309,0,
0.013259976333661005,-0.00038538176145548424,
0.015455001986554908,-0.0015038031938980512,
0.017196984207676753,-0.0032457854150198971,
0.018315405640119319,-0.0054408110679138007,
0.018700787401574805,-0.0078740157480314977,
0.018315405640119322,-0.010307220428149194,
0.017196984207676753,-0.012502246081043097,
0.015455001986554908,-0.01424422830216494,
0.013259976333661007,-0.015362649734607511,
0.010826771653543309,-0.015748031496062995,
0.00839356697342561,-0.015362649734607511,
0.0061985413205317089,-0.014244228302164944,
0.0044565590994098637,-0.0125022460810431,
0.0033381376669672958,-0.010307220428149196,
0.0029527559055118114,-0.0078740157480314977,
0.0033381376669672949,-0.0054408110679138016,
0.0044565590994098628,-0.0032457854150198988,
0.0061985413205317063,-0.0015038031938980523,
0.00839356697342561,-0.00038538176145548424,
0*
4,1,19,
0.010826771653543309,0.015748031496062995,
0.013259976333661005,0.015362649734607511,
0.015455001986554908,0.014244228302164944,
0.017196984207676753,0.012502246081043097,
0.018315405640119319,0.010307220428149194,
0.018700787401574805,0.0078740157480314977,
0.018315405640119322,0.0054408110679138007,
0.017196984207676753,0.0032457854150198975,
0.015455001986554908,0.0015038031938980523,
0.013259976333661007,0.00038538176145548424,
0.010826771653543309,0,
0.00839356697342561,0.00038538176145548424,
0.0061985413205317089,0.0015038031938980512,
0.0044565590994098637,0.0032457854150198962,
0.0033381376669672958,0.0054408110679138,
0.0029527559055118114,0.007874015748031496,
0.0033381376669672949,0.010307220428149194,
0.0044565590994098628,0.012502246081043094,
0.0061985413205317063,0.01424422830216494,
0.00839356697342561,0.015362649734607511,
0*
4,1,19,
-0.010826771653543309,0.015748031496062995,
-0.0083935669734256126,0.015362649734607511,
-0.0061985413205317089,0.014244228302164944,
-0.0044565590994098628,0.012502246081043097,
-0.0033381376669672958,0.010307220428149194,
-0.0029527559055118114,0.0078740157480314977,
-0.0033381376669672949,0.0054408110679138007,
-0.0044565590994098628,0.0032457854150198975,
-0.0061985413205317081,0.0015038031938980523,
-0.00839356697342561,0.00038538176145548424,
-0.010826771653543309,0,
-0.013259976333661007,0.00038538176145548424,
-0.015455001986554908,0.0015038031938980512,
-0.017196984207676753,0.0032457854150198962,
-0.018315405640119319,0.0054408110679138,
-0.018700787401574805,0.007874015748031496,
-0.018315405640119322,0.010307220428149194,
-0.017196984207676753,0.012502246081043094,
-0.01545500198655491,0.01424422830216494,
-0.013259976333661007,0.015362649734607511,
0*
4,1,19,
-0.010826771653543309,0,
-0.0083935669734256126,-0.00038538176145548424,
-0.0061985413205317089,-0.0015038031938980512,
-0.0044565590994098628,-0.0032457854150198971,
-0.0033381376669672958,-0.0054408110679138007,
-0.0029527559055118114,-0.0078740157480314977,
-0.0033381376669672949,-0.010307220428149194,
-0.0044565590994098628,-0.012502246081043097,
-0.0061985413205317081,-0.01424422830216494,
-0.00839356697342561,-0.015362649734607511,
-0.010826771653543309,-0.015748031496062995,
-0.013259976333661007,-0.015362649734607511,
-0.015455001986554908,-0.014244228302164944,
-0.017196984207676753,-0.0125022460810431,
-0.018315405640119319,-0.010307220428149196,
-0.018700787401574805,-0.0078740157480314977,
-0.018315405640119322,-0.0054408110679138016,
-0.017196984207676753,-0.0032457854150198988,
-0.01545500198655491,-0.0015038031938980523,
-0.013259976333661007,-0.00038538176145548424,
0*
4,1,3,
0.018700787401574805,-0.0078740157480314977,
0.0029527559055118114,-0.0078740157480314977,
0.0029527559055118114,0.0078740157480314977,
0.018700787401574805,0.0078740157480314977,
0*
4,1,3,
0.010826771653543309,0.015748031496062995,
0.010826771653543309,0,
-0.010826771653543309,0,
-0.010826771653543309,0.015748031496062995,
0*
4,1,3,
-0.018700787401574805,0.0078740157480314977,
-0.0029527559055118114,0.0078740157480314977,
-0.0029527559055118114,-0.0078740157480314977,
-0.018700787401574805,-0.0078740157480314977,
0*
4,1,3,
-0.010826771653543309,-0.015748031496062995,
-0.010826771653543309,0,
0.010826771653543309,0,
0.010826771653543309,-0.015748031496062995,
0*%
%ADD23COMP176,0.2X0.275X-0.2X0.275X0.2X-0.275X0.2X-0.275X-0.2X0*%
%ADD34C,0.14960629921259844*%
%ADD35C,0.13779527559055119*%
%ADD36C,0.056692913385826771*%
%ADD37C,0.08858267716535434*%
%AMCOMP181*
4,1,3,
0.015748031496062995,-0.005905511811023622,
0.015748031496062995,0.005905511811023622,
-0.015748031496062995,0.005905511811023622,
-0.015748031496062995,-0.005905511811023622,
0*
4,1,19,
0.015748031496062995,0,
0.017572935006151265,-0.00028903632109161348,
0.019219204245821693,-0.0011278523954235389,
0.020525690911663074,-0.0024343390612649222,
0.021364506985995006,-0.00408060830093535,
0.021653543307086617,-0.005905511811023622,
0.021364506985995006,-0.007730415321111894,
0.020525690911663074,-0.0093766845607823213,
0.019219204245821693,-0.010683171226623704,
0.017572935006151265,-0.011521987300955629,
0.015748031496062995,-0.011811023622047244,
0.013923127985974721,-0.011521987300955629,
0.012276858746304294,-0.010683171226623706,
0.010970372080462911,-0.0093766845607823231,
0.010131556006130985,-0.0077304153211118949,
0.00984251968503937,-0.0059055118110236228,
0.010131556006130983,-0.0040806083009353507,
0.010970372080462908,-0.0024343390612649239,
0.012276858746304293,-0.0011278523954235395,
0.013923127985974721,-0.00028903632109161348,
0*
4,1,19,
0.015748031496062995,0.011811023622047244,
0.017572935006151265,0.011521987300955629,
0.019219204245821693,0.010683171226623704,
0.020525690911663074,0.0093766845607823213,
0.021364506985995006,0.0077304153211118949,
0.021653543307086617,0.005905511811023622,
0.021364506985995006,0.0040806083009353507,
0.020525690911663074,0.002434339061264923,
0.019219204245821693,0.0011278523954235395,
0.017572935006151265,0.00028903632109161348,
0.015748031496062995,0,
0.013923127985974721,0.00028903632109161348,
0.012276858746304294,0.0011278523954235378,
0.010970372080462911,0.0024343390612649217,
0.010131556006130985,0.00408060830093535,
0.00984251968503937,0.0059055118110236211,
0.010131556006130983,0.0077304153211118923,
0.010970372080462908,0.0093766845607823213,
0.012276858746304293,0.010683171226623704,
0.013923127985974721,0.011521987300955629,
0*
4,1,19,
-0.015748031496062995,0.011811023622047244,
-0.013923127985974722,0.011521987300955629,
-0.012276858746304294,0.010683171226623704,
-0.010970372080462911,0.0093766845607823213,
-0.010131556006130985,0.0077304153211118949,
-0.00984251968503937,0.005905511811023622,
-0.010131556006130983,0.0040806083009353507,
-0.010970372080462911,0.002434339061264923,
-0.012276858746304294,0.0011278523954235395,
-0.013923127985974722,0.00028903632109161348,
-0.015748031496062995,0,
-0.017572935006151268,0.00028903632109161348,
-0.019219204245821693,0.0011278523954235378,
-0.020525690911663074,0.0024343390612649217,
-0.021364506985995006,0.00408060830093535,
-0.021653543307086617,0.0059055118110236211,
-0.021364506985995006,0.0077304153211118923,
-0.020525690911663078,0.0093766845607823213,
-0.019219204245821696,0.010683171226623704,
-0.017572935006151268,0.011521987300955629,
0*
4,1,19,
-0.015748031496062995,0,
-0.013923127985974722,-0.00028903632109161348,
-0.012276858746304294,-0.0011278523954235389,
-0.010970372080462911,-0.0024343390612649222,
-0.010131556006130985,-0.00408060830093535,
-0.00984251968503937,-0.005905511811023622,
-0.010131556006130983,-0.007730415321111894,
-0.010970372080462911,-0.0093766845607823213,
-0.012276858746304294,-0.010683171226623704,
-0.013923127985974722,-0.011521987300955629,
-0.015748031496062995,-0.011811023622047244,
-0.017572935006151268,-0.011521987300955629,
-0.019219204245821693,-0.010683171226623706,
-0.020525690911663074,-0.0093766845607823231,
-0.021364506985995006,-0.0077304153211118949,
-0.021653543307086617,-0.0059055118110236228,
-0.021364506985995006,-0.0040806083009353507,
-0.020525690911663078,-0.0024343390612649239,
-0.019219204245821696,-0.0011278523954235395,
-0.017572935006151268,-0.00028903632109161348,
0*
4,1,3,
0.021653543307086617,-0.005905511811023622,
0.00984251968503937,-0.005905511811023622,
0.00984251968503937,0.005905511811023622,
0.021653543307086617,0.005905511811023622,
0*
4,1,3,
0.015748031496062995,0.011811023622047244,
0.015748031496062995,0,
-0.015748031496062995,0,
-0.015748031496062995,0.011811023622047244,
0*
4,1,3,
-0.021653543307086617,0.005905511811023622,
-0.00984251968503937,0.005905511811023622,
-0.00984251968503937,-0.005905511811023622,
-0.021653543307086617,-0.005905511811023622,
0*
4,1,3,
-0.015748031496062995,-0.011811023622047244,
-0.015748031496062995,0,
0.015748031496062995,0,
0.015748031496062995,-0.011811023622047244,
0*%
%ADD38COMP181,0.15X0.4X-0.15X0.4X0.15X-0.4X0.15X-0.4X-0.15X0*%
%AMCOMP186*
4,1,3,
0.005905511811023622,0.015748031496062995,
-0.005905511811023622,0.015748031496062995,
-0.005905511811023622,-0.015748031496062995,
0.005905511811023622,-0.015748031496062995,
0*
4,1,19,
0.005905511811023622,0.021653543307086617,
0.0077304153211118949,0.021364506985995006,
0.0093766845607823213,0.020525690911663074,
0.010683171226623704,0.019219204245821693,
0.011521987300955629,0.017572935006151265,
0.011811023622047244,0.015748031496062995,
0.011521987300955631,0.013923127985974722,
0.010683171226623704,0.012276858746304294,
0.0093766845607823231,0.010970372080462911,
0.0077304153211118949,0.010131556006130985,
0.0059055118110236228,0.00984251968503937,
0.0040806083009353481,0.010131556006130985,
0.002434339061264923,0.010970372080462908,
0.0011278523954235395,0.012276858746304294,
0.00028903632109161348,0.013923127985974721,
0,0.015748031496062995,
0.00028903632109161234,0.017572935006151265,
0.0011278523954235378,0.019219204245821693,
0.0024343390612649213,0.020525690911663074,
0.0040806083009353481,0.021364506985995006,
0*
4,1,19,
-0.005905511811023622,0.021653543307086617,
-0.00408060830093535,0.021364506985995006,
-0.0024343390612649222,0.020525690911663074,
-0.0011278523954235389,0.019219204245821693,
-0.00028903632109161348,0.017572935006151265,
0,0.015748031496062995,
-0.00028903632109161234,0.013923127985974722,
-0.0011278523954235389,0.012276858746304294,
-0.0024343390612649217,0.010970372080462911,
-0.00408060830093535,0.010131556006130985,
-0.0059055118110236211,0.00984251968503937,
-0.0077304153211118958,0.010131556006130985,
-0.0093766845607823213,0.010970372080462908,
-0.010683171226623704,0.012276858746304294,
-0.011521987300955629,0.013923127985974721,
-0.011811023622047244,0.015748031496062995,
-0.011521987300955631,0.017572935006151265,
-0.010683171226623706,0.019219204245821693,
-0.0093766845607823231,0.020525690911663074,
-0.0077304153211118958,0.021364506985995006,
0*
4,1,19,
-0.005905511811023622,-0.00984251968503937,
-0.00408060830093535,-0.010131556006130985,
-0.0024343390612649222,-0.010970372080462911,
-0.0011278523954235389,-0.012276858746304294,
-0.00028903632109161348,-0.013923127985974722,
0,-0.015748031496062995,
-0.00028903632109161234,-0.017572935006151265,
-0.0011278523954235389,-0.019219204245821693,
-0.0024343390612649217,-0.020525690911663074,
-0.00408060830093535,-0.021364506985995006,
-0.0059055118110236211,-0.021653543307086617,
-0.0077304153211118958,-0.021364506985995006,
-0.0093766845607823213,-0.020525690911663078,
-0.010683171226623704,-0.019219204245821693,
-0.011521987300955629,-0.017572935006151268,
-0.011811023622047244,-0.015748031496062995,
-0.011521987300955631,-0.013923127985974722,
-0.010683171226623706,-0.012276858746304296,
-0.0093766845607823231,-0.010970372080462911,
-0.0077304153211118958,-0.010131556006130985,
0*
4,1,19,
0.005905511811023622,-0.00984251968503937,
0.0077304153211118949,-0.010131556006130985,
0.0093766845607823213,-0.010970372080462911,
0.010683171226623704,-0.012276858746304294,
0.011521987300955629,-0.013923127985974722,
0.011811023622047244,-0.015748031496062995,
0.011521987300955631,-0.017572935006151265,
0.010683171226623704,-0.019219204245821693,
0.0093766845607823231,-0.020525690911663074,
0.0077304153211118949,-0.021364506985995006,
0.0059055118110236228,-0.021653543307086617,
0.0040806083009353481,-0.021364506985995006,
0.002434339061264923,-0.020525690911663078,
0.0011278523954235395,-0.019219204245821693,
0.00028903632109161348,-0.017572935006151268,
0,-0.015748031496062995,
0.00028903632109161234,-0.013923127985974722,
0.0011278523954235378,-0.012276858746304296,
0.0024343390612649213,-0.010970372080462911,
0.0040806083009353481,-0.010131556006130985,
0*
4,1,3,
0.005905511811023622,0.021653543307086617,
0.005905511811023622,0.00984251968503937,
-0.005905511811023622,0.00984251968503937,
-0.005905511811023622,0.021653543307086617,
0*
4,1,3,
-0.011811023622047244,0.015748031496062995,
0,0.015748031496062995,
0,-0.015748031496062995,
-0.011811023622047244,-0.015748031496062995,
0*
4,1,3,
-0.005905511811023622,-0.021653543307086617,
-0.005905511811023622,-0.00984251968503937,
0.005905511811023622,-0.00984251968503937,
0.005905511811023622,-0.021653543307086617,
0*
4,1,3,
0.011811023622047244,-0.015748031496062995,
0,-0.015748031496062995,
0,0.015748031496062995,
0.011811023622047244,0.015748031496062995,
0*%
%ADD39COMP186,0.15X0.15X0.4X-0.15X0.4X-0.15X-0.4X0.15X-0.4X0*%
%ADD40C,0.14960629921259844*%
%ADD41C,0.13779527559055119*%
%ADD42C,0.056692913385826771*%
%ADD43C,0.08858267716535434*%
%AMCOMP192*
4,1,3,
0.015748031496062995,-0.005905511811023622,
0.015748031496062995,0.005905511811023622,
-0.015748031496062995,0.005905511811023622,
-0.015748031496062995,-0.005905511811023622,
0*
4,1,19,
0.015748031496062995,0,
0.017572935006151265,-0.00028903632109161348,
0.019219204245821693,-0.0011278523954235389,
0.020525690911663074,-0.0024343390612649222,
0.021364506985995006,-0.00408060830093535,
0.021653543307086617,-0.005905511811023622,
0.021364506985995006,-0.007730415321111894,
0.020525690911663074,-0.0093766845607823213,
0.019219204245821693,-0.010683171226623704,
0.017572935006151265,-0.011521987300955629,
0.015748031496062995,-0.011811023622047244,
0.013923127985974721,-0.011521987300955629,
0.012276858746304294,-0.010683171226623706,
0.010970372080462911,-0.0093766845607823231,
0.010131556006130985,-0.0077304153211118949,
0.00984251968503937,-0.0059055118110236228,
0.010131556006130983,-0.0040806083009353507,
0.010970372080462908,-0.0024343390612649239,
0.012276858746304293,-0.0011278523954235395,
0.013923127985974721,-0.00028903632109161348,
0*
4,1,19,
0.015748031496062995,0.011811023622047244,
0.017572935006151265,0.011521987300955629,
0.019219204245821693,0.010683171226623704,
0.020525690911663074,0.0093766845607823213,
0.021364506985995006,0.0077304153211118949,
0.021653543307086617,0.005905511811023622,
0.021364506985995006,0.0040806083009353507,
0.020525690911663074,0.002434339061264923,
0.019219204245821693,0.0011278523954235395,
0.017572935006151265,0.00028903632109161348,
0.015748031496062995,0,
0.013923127985974721,0.00028903632109161348,
0.012276858746304294,0.0011278523954235378,
0.010970372080462911,0.0024343390612649217,
0.010131556006130985,0.00408060830093535,
0.00984251968503937,0.0059055118110236211,
0.010131556006130983,0.0077304153211118923,
0.010970372080462908,0.0093766845607823213,
0.012276858746304293,0.010683171226623704,
0.013923127985974721,0.011521987300955629,
0*
4,1,19,
-0.015748031496062995,0.011811023622047244,
-0.013923127985974722,0.011521987300955629,
-0.012276858746304294,0.010683171226623704,
-0.010970372080462911,0.0093766845607823213,
-0.010131556006130985,0.0077304153211118949,
-0.00984251968503937,0.005905511811023622,
-0.010131556006130983,0.0040806083009353507,
-0.010970372080462911,0.002434339061264923,
-0.012276858746304294,0.0011278523954235395,
-0.013923127985974722,0.00028903632109161348,
-0.015748031496062995,0,
-0.017572935006151268,0.00028903632109161348,
-0.019219204245821693,0.0011278523954235378,
-0.020525690911663074,0.0024343390612649217,
-0.021364506985995006,0.00408060830093535,
-0.021653543307086617,0.0059055118110236211,
-0.021364506985995006,0.0077304153211118923,
-0.020525690911663078,0.0093766845607823213,
-0.019219204245821696,0.010683171226623704,
-0.017572935006151268,0.011521987300955629,
0*
4,1,19,
-0.015748031496062995,0,
-0.013923127985974722,-0.00028903632109161348,
-0.012276858746304294,-0.0011278523954235389,
-0.010970372080462911,-0.0024343390612649222,
-0.010131556006130985,-0.00408060830093535,
-0.00984251968503937,-0.005905511811023622,
-0.010131556006130983,-0.007730415321111894,
-0.010970372080462911,-0.0093766845607823213,
-0.012276858746304294,-0.010683171226623704,
-0.013923127985974722,-0.011521987300955629,
-0.015748031496062995,-0.011811023622047244,
-0.017572935006151268,-0.011521987300955629,
-0.019219204245821693,-0.010683171226623706,
-0.020525690911663074,-0.0093766845607823231,
-0.021364506985995006,-0.0077304153211118949,
-0.021653543307086617,-0.0059055118110236228,
-0.021364506985995006,-0.0040806083009353507,
-0.020525690911663078,-0.0024343390612649239,
-0.019219204245821696,-0.0011278523954235395,
-0.017572935006151268,-0.00028903632109161348,
0*
4,1,3,
0.021653543307086617,-0.005905511811023622,
0.00984251968503937,-0.005905511811023622,
0.00984251968503937,0.005905511811023622,
0.021653543307086617,0.005905511811023622,
0*
4,1,3,
0.015748031496062995,0.011811023622047244,
0.015748031496062995,0,
-0.015748031496062995,0,
-0.015748031496062995,0.011811023622047244,
0*
4,1,3,
-0.021653543307086617,0.005905511811023622,
-0.00984251968503937,0.005905511811023622,
-0.00984251968503937,-0.005905511811023622,
-0.021653543307086617,-0.005905511811023622,
0*
4,1,3,
-0.015748031496062995,-0.011811023622047244,
-0.015748031496062995,0,
0.015748031496062995,0,
0.015748031496062995,-0.011811023622047244,
0*%
%ADD44COMP192,0.15X0.4X-0.15X0.4X0.15X-0.4X0.15X-0.4X-0.15X0*%
%AMCOMP198*
4,1,3,
0.005905511811023622,0.015748031496062995,
-0.005905511811023622,0.015748031496062995,
-0.005905511811023622,-0.015748031496062995,
0.005905511811023622,-0.015748031496062995,
0*
4,1,19,
0.005905511811023622,0.021653543307086617,
0.0077304153211118949,0.021364506985995006,
0.0093766845607823213,0.020525690911663074,
0.010683171226623704,0.019219204245821693,
0.011521987300955629,0.017572935006151265,
0.011811023622047244,0.015748031496062995,
0.011521987300955631,0.013923127985974722,
0.010683171226623704,0.012276858746304294,
0.0093766845607823231,0.010970372080462911,
0.0077304153211118949,0.010131556006130985,
0.0059055118110236228,0.00984251968503937,
0.0040806083009353481,0.010131556006130985,
0.002434339061264923,0.010970372080462908,
0.0011278523954235395,0.012276858746304294,
0.00028903632109161348,0.013923127985974721,
0,0.015748031496062995,
0.00028903632109161234,0.017572935006151265,
0.0011278523954235378,0.019219204245821693,
0.0024343390612649213,0.020525690911663074,
0.0040806083009353481,0.021364506985995006,
0*
4,1,19,
-0.005905511811023622,0.021653543307086617,
-0.00408060830093535,0.021364506985995006,
-0.0024343390612649222,0.020525690911663074,
-0.0011278523954235389,0.019219204245821693,
-0.00028903632109161348,0.017572935006151265,
0,0.015748031496062995,
-0.00028903632109161234,0.013923127985974722,
-0.0011278523954235389,0.012276858746304294,
-0.0024343390612649217,0.010970372080462911,
-0.00408060830093535,0.010131556006130985,
-0.0059055118110236211,0.00984251968503937,
-0.0077304153211118958,0.010131556006130985,
-0.0093766845607823213,0.010970372080462908,
-0.010683171226623704,0.012276858746304294,
-0.011521987300955629,0.013923127985974721,
-0.011811023622047244,0.015748031496062995,
-0.011521987300955631,0.017572935006151265,
-0.010683171226623706,0.019219204245821693,
-0.0093766845607823231,0.020525690911663074,
-0.0077304153211118958,0.021364506985995006,
0*
4,1,19,
-0.005905511811023622,-0.00984251968503937,
-0.00408060830093535,-0.010131556006130985,
-0.0024343390612649222,-0.010970372080462911,
-0.0011278523954235389,-0.012276858746304294,
-0.00028903632109161348,-0.013923127985974722,
0,-0.015748031496062995,
-0.00028903632109161234,-0.017572935006151265,
-0.0011278523954235389,-0.019219204245821693,
-0.0024343390612649217,-0.020525690911663074,
-0.00408060830093535,-0.021364506985995006,
-0.0059055118110236211,-0.021653543307086617,
-0.0077304153211118958,-0.021364506985995006,
-0.0093766845607823213,-0.020525690911663078,
-0.010683171226623704,-0.019219204245821693,
-0.011521987300955629,-0.017572935006151268,
-0.011811023622047244,-0.015748031496062995,
-0.011521987300955631,-0.013923127985974722,
-0.010683171226623706,-0.012276858746304296,
-0.0093766845607823231,-0.010970372080462911,
-0.0077304153211118958,-0.010131556006130985,
0*
4,1,19,
0.005905511811023622,-0.00984251968503937,
0.0077304153211118949,-0.010131556006130985,
0.0093766845607823213,-0.010970372080462911,
0.010683171226623704,-0.012276858746304294,
0.011521987300955629,-0.013923127985974722,
0.011811023622047244,-0.015748031496062995,
0.011521987300955631,-0.017572935006151265,
0.010683171226623704,-0.019219204245821693,
0.0093766845607823231,-0.020525690911663074,
0.0077304153211118949,-0.021364506985995006,
0.0059055118110236228,-0.021653543307086617,
0.0040806083009353481,-0.021364506985995006,
0.002434339061264923,-0.020525690911663078,
0.0011278523954235395,-0.019219204245821693,
0.00028903632109161348,-0.017572935006151268,
0,-0.015748031496062995,
0.00028903632109161234,-0.013923127985974722,
0.0011278523954235378,-0.012276858746304296,
0.0024343390612649213,-0.010970372080462911,
0.0040806083009353481,-0.010131556006130985,
0*
4,1,3,
0.005905511811023622,0.021653543307086617,
0.005905511811023622,0.00984251968503937,
-0.005905511811023622,0.00984251968503937,
-0.005905511811023622,0.021653543307086617,
0*
4,1,3,
-0.011811023622047244,0.015748031496062995,
0,0.015748031496062995,
0,-0.015748031496062995,
-0.011811023622047244,-0.015748031496062995,
0*
4,1,3,
-0.005905511811023622,-0.021653543307086617,
-0.005905511811023622,-0.00984251968503937,
0.005905511811023622,-0.00984251968503937,
0.005905511811023622,-0.021653543307086617,
0*
4,1,3,
0.011811023622047244,-0.015748031496062995,
0,-0.015748031496062995,
0,0.015748031496062995,
0.011811023622047244,0.015748031496062995,
0*%
%ADD45COMP198,0.15X0.15X0.4X-0.15X0.4X-0.15X-0.4X0.15X-0.4X0*%
%ADD46C,0.14960629921259844*%
%ADD47C,0.13779527559055119*%
%ADD48C,0.056692913385826771*%
%ADD49C,0.08858267716535434*%
%AMCOMP204*
4,1,3,
0.015748031496062995,-0.005905511811023622,
0.015748031496062995,0.005905511811023622,
-0.015748031496062995,0.005905511811023622,
-0.015748031496062995,-0.005905511811023622,
0*
4,1,19,
0.015748031496062995,0,
0.017572935006151265,-0.00028903632109161348,
0.019219204245821693,-0.0011278523954235389,
0.020525690911663074,-0.0024343390612649222,
0.021364506985995006,-0.00408060830093535,
0.021653543307086617,-0.005905511811023622,
0.021364506985995006,-0.007730415321111894,
0.020525690911663074,-0.0093766845607823213,
0.019219204245821693,-0.010683171226623704,
0.017572935006151265,-0.011521987300955629,
0.015748031496062995,-0.011811023622047244,
0.013923127985974721,-0.011521987300955629,
0.012276858746304294,-0.010683171226623706,
0.010970372080462911,-0.0093766845607823231,
0.010131556006130985,-0.0077304153211118949,
0.00984251968503937,-0.0059055118110236228,
0.010131556006130983,-0.0040806083009353507,
0.010970372080462908,-0.0024343390612649239,
0.012276858746304293,-0.0011278523954235395,
0.013923127985974721,-0.00028903632109161348,
0*
4,1,19,
0.015748031496062995,0.011811023622047244,
0.017572935006151265,0.011521987300955629,
0.019219204245821693,0.010683171226623704,
0.020525690911663074,0.0093766845607823213,
0.021364506985995006,0.0077304153211118949,
0.021653543307086617,0.005905511811023622,
0.021364506985995006,0.0040806083009353507,
0.020525690911663074,0.002434339061264923,
0.019219204245821693,0.0011278523954235395,
0.017572935006151265,0.00028903632109161348,
0.015748031496062995,0,
0.013923127985974721,0.00028903632109161348,
0.012276858746304294,0.0011278523954235378,
0.010970372080462911,0.0024343390612649217,
0.010131556006130985,0.00408060830093535,
0.00984251968503937,0.0059055118110236211,
0.010131556006130983,0.0077304153211118923,
0.010970372080462908,0.0093766845607823213,
0.012276858746304293,0.010683171226623704,
0.013923127985974721,0.011521987300955629,
0*
4,1,19,
-0.015748031496062995,0.011811023622047244,
-0.013923127985974722,0.011521987300955629,
-0.012276858746304294,0.010683171226623704,
-0.010970372080462911,0.0093766845607823213,
-0.010131556006130985,0.0077304153211118949,
-0.00984251968503937,0.005905511811023622,
-0.010131556006130983,0.0040806083009353507,
-0.010970372080462911,0.002434339061264923,
-0.012276858746304294,0.0011278523954235395,
-0.013923127985974722,0.00028903632109161348,
-0.015748031496062995,0,
-0.017572935006151268,0.00028903632109161348,
-0.019219204245821693,0.0011278523954235378,
-0.020525690911663074,0.0024343390612649217,
-0.021364506985995006,0.00408060830093535,
-0.021653543307086617,0.0059055118110236211,
-0.021364506985995006,0.0077304153211118923,
-0.020525690911663078,0.0093766845607823213,
-0.019219204245821696,0.010683171226623704,
-0.017572935006151268,0.011521987300955629,
0*
4,1,19,
-0.015748031496062995,0,
-0.013923127985974722,-0.00028903632109161348,
-0.012276858746304294,-0.0011278523954235389,
-0.010970372080462911,-0.0024343390612649222,
-0.010131556006130985,-0.00408060830093535,
-0.00984251968503937,-0.005905511811023622,
-0.010131556006130983,-0.007730415321111894,
-0.010970372080462911,-0.0093766845607823213,
-0.012276858746304294,-0.010683171226623704,
-0.013923127985974722,-0.011521987300955629,
-0.015748031496062995,-0.011811023622047244,
-0.017572935006151268,-0.011521987300955629,
-0.019219204245821693,-0.010683171226623706,
-0.020525690911663074,-0.0093766845607823231,
-0.021364506985995006,-0.0077304153211118949,
-0.021653543307086617,-0.0059055118110236228,
-0.021364506985995006,-0.0040806083009353507,
-0.020525690911663078,-0.0024343390612649239,
-0.019219204245821696,-0.0011278523954235395,
-0.017572935006151268,-0.00028903632109161348,
0*
4,1,3,
0.021653543307086617,-0.005905511811023622,
0.00984251968503937,-0.005905511811023622,
0.00984251968503937,0.005905511811023622,
0.021653543307086617,0.005905511811023622,
0*
4,1,3,
0.015748031496062995,0.011811023622047244,
0.015748031496062995,0,
-0.015748031496062995,0,
-0.015748031496062995,0.011811023622047244,
0*
4,1,3,
-0.021653543307086617,0.005905511811023622,
-0.00984251968503937,0.005905511811023622,
-0.00984251968503937,-0.005905511811023622,
-0.021653543307086617,-0.005905511811023622,
0*
4,1,3,
-0.015748031496062995,-0.011811023622047244,
-0.015748031496062995,0,
0.015748031496062995,0,
0.015748031496062995,-0.011811023622047244,
0*%
%ADD50COMP204,0.15X0.4X-0.15X0.4X0.15X-0.4X0.15X-0.4X-0.15X0*%
%AMCOMP210*
4,1,3,
0.005905511811023622,0.015748031496062995,
-0.005905511811023622,0.015748031496062995,
-0.005905511811023622,-0.015748031496062995,
0.005905511811023622,-0.015748031496062995,
0*
4,1,19,
0.005905511811023622,0.021653543307086617,
0.0077304153211118949,0.021364506985995006,
0.0093766845607823213,0.020525690911663074,
0.010683171226623704,0.019219204245821693,
0.011521987300955629,0.017572935006151265,
0.011811023622047244,0.015748031496062995,
0.011521987300955631,0.013923127985974722,
0.010683171226623704,0.012276858746304294,
0.0093766845607823231,0.010970372080462911,
0.0077304153211118949,0.010131556006130985,
0.0059055118110236228,0.00984251968503937,
0.0040806083009353481,0.010131556006130985,
0.002434339061264923,0.010970372080462908,
0.0011278523954235395,0.012276858746304294,
0.00028903632109161348,0.013923127985974721,
0,0.015748031496062995,
0.00028903632109161234,0.017572935006151265,
0.0011278523954235378,0.019219204245821693,
0.0024343390612649213,0.020525690911663074,
0.0040806083009353481,0.021364506985995006,
0*
4,1,19,
-0.005905511811023622,0.021653543307086617,
-0.00408060830093535,0.021364506985995006,
-0.0024343390612649222,0.020525690911663074,
-0.0011278523954235389,0.019219204245821693,
-0.00028903632109161348,0.017572935006151265,
0,0.015748031496062995,
-0.00028903632109161234,0.013923127985974722,
-0.0011278523954235389,0.012276858746304294,
-0.0024343390612649217,0.010970372080462911,
-0.00408060830093535,0.010131556006130985,
-0.0059055118110236211,0.00984251968503937,
-0.0077304153211118958,0.010131556006130985,
-0.0093766845607823213,0.010970372080462908,
-0.010683171226623704,0.012276858746304294,
-0.011521987300955629,0.013923127985974721,
-0.011811023622047244,0.015748031496062995,
-0.011521987300955631,0.017572935006151265,
-0.010683171226623706,0.019219204245821693,
-0.0093766845607823231,0.020525690911663074,
-0.0077304153211118958,0.021364506985995006,
0*
4,1,19,
-0.005905511811023622,-0.00984251968503937,
-0.00408060830093535,-0.010131556006130985,
-0.0024343390612649222,-0.010970372080462911,
-0.0011278523954235389,-0.012276858746304294,
-0.00028903632109161348,-0.013923127985974722,
0,-0.015748031496062995,
-0.00028903632109161234,-0.017572935006151265,
-0.0011278523954235389,-0.019219204245821693,
-0.0024343390612649217,-0.020525690911663074,
-0.00408060830093535,-0.021364506985995006,
-0.0059055118110236211,-0.021653543307086617,
-0.0077304153211118958,-0.021364506985995006,
-0.0093766845607823213,-0.020525690911663078,
-0.010683171226623704,-0.019219204245821693,
-0.011521987300955629,-0.017572935006151268,
-0.011811023622047244,-0.015748031496062995,
-0.011521987300955631,-0.013923127985974722,
-0.010683171226623706,-0.012276858746304296,
-0.0093766845607823231,-0.010970372080462911,
-0.0077304153211118958,-0.010131556006130985,
0*
4,1,19,
0.005905511811023622,-0.00984251968503937,
0.0077304153211118949,-0.010131556006130985,
0.0093766845607823213,-0.010970372080462911,
0.010683171226623704,-0.012276858746304294,
0.011521987300955629,-0.013923127985974722,
0.011811023622047244,-0.015748031496062995,
0.011521987300955631,-0.017572935006151265,
0.010683171226623704,-0.019219204245821693,
0.0093766845607823231,-0.020525690911663074,
0.0077304153211118949,-0.021364506985995006,
0.0059055118110236228,-0.021653543307086617,
0.0040806083009353481,-0.021364506985995006,
0.002434339061264923,-0.020525690911663078,
0.0011278523954235395,-0.019219204245821693,
0.00028903632109161348,-0.017572935006151268,
0,-0.015748031496062995,
0.00028903632109161234,-0.013923127985974722,
0.0011278523954235378,-0.012276858746304296,
0.0024343390612649213,-0.010970372080462911,
0.0040806083009353481,-0.010131556006130985,
0*
4,1,3,
0.005905511811023622,0.021653543307086617,
0.005905511811023622,0.00984251968503937,
-0.005905511811023622,0.00984251968503937,
-0.005905511811023622,0.021653543307086617,
0*
4,1,3,
-0.011811023622047244,0.015748031496062995,
0,0.015748031496062995,
0,-0.015748031496062995,
-0.011811023622047244,-0.015748031496062995,
0*
4,1,3,
-0.005905511811023622,-0.021653543307086617,
-0.005905511811023622,-0.00984251968503937,
0.005905511811023622,-0.00984251968503937,
0.005905511811023622,-0.021653543307086617,
0*
4,1,3,
0.011811023622047244,-0.015748031496062995,
0,-0.015748031496062995,
0,0.015748031496062995,
0.011811023622047244,0.015748031496062995,
0*%
%ADD51COMP210,0.15X0.15X0.4X-0.15X0.4X-0.15X-0.4X0.15X-0.4X0*%
G01*
D10*
X-0002047244Y0005905511D02*
X0000962992Y0001058661D03*
X0000962992Y0000858661D03*
X0001162992Y0001058661D03*
X0001162992Y0000858661D03*
D11*
X0001062992Y0000958661D03*
D12*
X0000409448Y0002508267D03*
D13*
X0000409448Y0002608267D03*
D12*
X0000409448Y0002708267D03*
X0002300393Y0002258267D03*
X0002200393Y0002258267D03*
D13*
X0002100393Y0002258267D03*
D12*
X0002000393Y0002258267D03*
X0001900393Y0002258267D03*
X0001800393Y0002258267D03*
X0001700393Y0002258267D03*
D13*
X0001600393Y0002258267D03*
D12*
X0001500393Y0002258267D03*
X0001400393Y0002258267D03*
X0001300393Y0002258267D03*
X0001200393Y0002258267D03*
D13*
X0001100393Y0002258267D03*
D12*
X0001000393Y0002258267D03*
X0000900393Y0002258267D03*
X0000800393Y0002258267D03*
X0000700393Y0002258267D03*
D13*
X0000600393Y0002258267D03*
D12*
X0000500393Y0002258267D03*
X0000400393Y0002258267D03*
X0000400393Y0002958267D03*
X0000500393Y0002958267D03*
D13*
X0000600393Y0002958267D03*
D12*
X0000700393Y0002958267D03*
X0000800393Y0002958267D03*
X0000900393Y0002958267D03*
X0001000393Y0002958267D03*
D13*
X0001100393Y0002958267D03*
D12*
X0001200393Y0002958267D03*
X0001300393Y0002958267D03*
X0001400393Y0002958267D03*
X0001500393Y0002958267D03*
D13*
X0001600393Y0002958267D03*
D12*
X0001700393Y0002958267D03*
X0001800393Y0002958267D03*
X0001900393Y0002958267D03*
X0002000393Y0002958267D03*
D13*
X0002100393Y0002958267D03*
D12*
X0002200393Y0002958267D03*
X0002300393Y0002958267D03*
D14*
X0002295275Y0002500984D03*
D15*
X0002175984Y0002512795D03*
X0002175984Y0002703740D03*
D14*
X0002295275Y0002715551D03*
D12*
X0000151574Y0002692125D03*
X0000151574Y0002792125D03*
X0000151574Y0002892125D03*
D13*
X0000151574Y0002992125D03*
D11*
X0000468503Y0001698818D03*
X0000568503Y0001698818D03*
X0000668503Y0001698818D03*
D10*
X0000963385Y0000718503D03*
X0000963385Y0000518503D03*
X0001163385Y0000718503D03*
X0001163385Y0000518503D03*
D11*
X0001063385Y0000618503D03*
D16*
X0000229921Y0000212598D03*
X0000379921Y0003587795D03*
X0003279921Y0003587795D03*
X0003379921Y0000212598D03*
D17*
X0000579921Y0003287795D03*
D18*
X0000579921Y0003387795D03*
X0000679921Y0003287795D03*
X0000679921Y0003387795D03*
X0000779921Y0003287795D03*
X0000779921Y0003387795D03*
X0000879921Y0003287795D03*
X0000879921Y0003387795D03*
X0000979921Y0003287795D03*
X0000979921Y0003387795D03*
X0001079921Y0003287795D03*
X0001079921Y0003387795D03*
X0001179921Y0003287795D03*
X0001179921Y0003387795D03*
X0001279921Y0003287795D03*
X0001279921Y0003387795D03*
X0001379921Y0003287795D03*
X0001379921Y0003387795D03*
X0001479921Y0003287795D03*
X0001479921Y0003387795D03*
X0001579921Y0003287795D03*
X0001579921Y0003387795D03*
X0001679921Y0003287795D03*
X0001679921Y0003387795D03*
X0001779921Y0003287795D03*
X0001779921Y0003387795D03*
X0001879921Y0003287795D03*
X0001879921Y0003387795D03*
X0001979921Y0003287795D03*
X0001979921Y0003387795D03*
X0002079921Y0003287795D03*
X0002079921Y0003387795D03*
X0002179921Y0003287795D03*
X0002179921Y0003387795D03*
X0002279921Y0003287795D03*
X0002279921Y0003387795D03*
X0002379921Y0003287795D03*
X0002379921Y0003387795D03*
X0002479921Y0003287795D03*
X0002479921Y0003387795D03*
X0002579921Y0003287795D03*
X0002579921Y0003387795D03*
X0002679921Y0003287795D03*
X0002679921Y0003387795D03*
X0002779921Y0003287795D03*
X0002779921Y0003387795D03*
X0002879921Y0003287795D03*
X0002879921Y0003387795D03*
X0002979921Y0003287795D03*
X0002979921Y0003387795D03*
X0003079921Y0003287795D03*
X0003079921Y0003387795D03*
X0000579921Y0003487795D03*
X0000579921Y0003587795D03*
X0000679921Y0003487795D03*
X0000679921Y0003587795D03*
X0000779921Y0003487795D03*
X0000779921Y0003587795D03*
X0000879921Y0003487795D03*
X0000879921Y0003587795D03*
X0000979921Y0003487795D03*
X0000979921Y0003587795D03*
X0001079921Y0003487795D03*
X0001079921Y0003587795D03*
X0001179921Y0003487795D03*
X0001179921Y0003587795D03*
X0001279921Y0003487795D03*
X0001279921Y0003587795D03*
X0001379921Y0003487795D03*
X0001379921Y0003587795D03*
X0001479921Y0003487795D03*
X0001479921Y0003587795D03*
X0001579921Y0003487795D03*
X0001579921Y0003587795D03*
X0001679921Y0003487795D03*
X0001679921Y0003587795D03*
X0001779921Y0003487795D03*
X0001779921Y0003587795D03*
X0001879921Y0003487795D03*
X0001879921Y0003587795D03*
X0001979921Y0003487795D03*
X0001979921Y0003587795D03*
X0002079921Y0003487795D03*
X0002079921Y0003587795D03*
X0002179921Y0003487795D03*
X0002179921Y0003587795D03*
X0002279921Y0003487795D03*
X0002279921Y0003587795D03*
X0002379921Y0003487795D03*
X0002379921Y0003587795D03*
X0002479921Y0003487795D03*
X0002479921Y0003587795D03*
X0002579921Y0003487795D03*
X0002579921Y0003587795D03*
X0002679921Y0003487795D03*
X0002679921Y0003587795D03*
X0002779921Y0003487795D03*
X0002779921Y0003587795D03*
X0002879921Y0003487795D03*
X0002879921Y0003587795D03*
X0002979921Y0003487795D03*
X0002979921Y0003587795D03*
X0003079921Y0003487795D03*
X0003079921Y0003587795D03*
D19*
X0003076771Y0000206692D03*
X0001698818Y0000206692D03*
X0003076771Y0001584645D03*
X0001698818Y0001584645D03*
D12*
X0000151574Y0002451181D03*
D13*
X0000151574Y0002551181D03*
D12*
X0000151574Y0003133070D03*
X0000151574Y0003233070D03*
X0000151574Y0003333070D03*
D13*
X0000151574Y0003433070D03*
D20*
X0002856299Y0002044291D03*
X0002856299Y0001983267D03*
D21*
X0002815944Y0002110236D03*
X0002880905Y0002110236D03*
D20*
X0002740157Y0002046259D03*
X0002740157Y0001985236D03*
D22*
X0001086614Y0001409940D03*
X0001086614Y0001474901D03*
D23*
X0002677165Y0002048228D03*
X0002677165Y0001983267D03*
G04 next file*
G04 Gerber Fmt 4.6, Leading zero omitted, Abs format (unit mm)*
G04 Created by KiCad (PCBNEW 7.0.6) date 2023-08-28 22:53:50*
G01*
G04 APERTURE LIST*
G04 Aperture macros list*
G04 Aperture macros list end*
G04 APERTURE END LIST*
D34*
X-0001653543Y0004251968D02*
X0004661417Y0001074803D03*
X0003814960Y0001074803D03*
D35*
X0003814960Y0000228346D03*
D34*
X0004661417Y0000228346D03*
D36*
X0004348425Y0000301181D03*
D37*
X0004448425Y0000201181D03*
X0004448425Y0000401181D03*
X0004248425Y0000201181D03*
X0004248425Y0000401181D03*
X0004029921Y0001107874D03*
X0004029921Y0000907874D03*
X0004229921Y0001107874D03*
X0004229921Y0000907874D03*
D36*
X0004129921Y0001007873D03*
D38*
X0004356299Y0000763779D03*
D39*
X0004129921Y0000769685D03*
D38*
X0004120078Y0000539370D03*
D39*
X0004346456Y0000533464D03*
G04 next file*
G04 Gerber Fmt 4.6, Leading zero omitted, Abs format (unit mm)*
G04 Created by KiCad (PCBNEW 7.0.6) date 2023-08-28 22:53:50*
G01*
G04 APERTURE LIST*
G04 Aperture macros list*
G04 Aperture macros list end*
G04 APERTURE END LIST*
D40*
X-0001653543Y0006653543D02*
X0004661417Y0003476377D03*
X0003814960Y0003476377D03*
D41*
X0003814960Y0002629921D03*
D40*
X0004661417Y0002629921D03*
D42*
X0004348425Y0002702755D03*
D43*
X0004448425Y0002602755D03*
X0004448425Y0002802755D03*
X0004248425Y0002602755D03*
X0004248425Y0002802755D03*
X0004029921Y0003509448D03*
X0004029921Y0003309448D03*
X0004229921Y0003509448D03*
X0004229921Y0003309448D03*
D42*
X0004129921Y0003409448D03*
D44*
X0004356299Y0003165354D03*
D45*
X0004129921Y0003171259D03*
D44*
X0004120078Y0002940944D03*
D45*
X0004346456Y0002935039D03*
G04 next file*
G04 Gerber Fmt 4.6, Leading zero omitted, Abs format (unit mm)*
G04 Created by KiCad (PCBNEW 7.0.6) date 2023-08-28 22:53:50*
G01*
G04 APERTURE LIST*
G04 Aperture macros list*
G04 Aperture macros list end*
G04 APERTURE END LIST*
D46*
X-0001692913Y0005472440D02*
X0004622047Y0002295275D03*
X0003775590Y0002295275D03*
D47*
X0003775590Y0001448818D03*
D46*
X0004622047Y0001448818D03*
D48*
X0004309055Y0001521653D03*
D49*
X0004409055Y0001421653D03*
X0004409055Y0001621653D03*
X0004209055Y0001421653D03*
X0004209055Y0001621653D03*
X0003990551Y0002328346D03*
X0003990551Y0002128346D03*
X0004190551Y0002328346D03*
X0004190551Y0002128346D03*
D48*
X0004090551Y0002228346D03*
D50*
X0004316929Y0001984251D03*
D51*
X0004090551Y0001990157D03*
D50*
X0004080708Y0001759842D03*
D51*
X0004307086Y0001753936D03*
M02*