%MOIN*%
%OFA0B0*%
%FSLAX46Y46*%
%IPPOS*%
%LPD*%
%ADD10C,0.0047244094488188976*%
%ADD21C,0.0039370078740157488*%
%ADD22C,0.0039370078740157488*%
%ADD23C,0.0039370078740157488*%
G01*
D10*
X0000029921Y0002372637D02*
X0000029921Y0003650000D01*
X0000029921Y0001427755D02*
X0000029921Y0000150393D01*
X0000069291Y0002333267D02*
X0000077165Y0002333267D01*
X0000077165Y0001467125D02*
X0000069291Y0001467125D01*
X0000116535Y0002293897D02*
X0000116535Y0001506496D01*
X0000167716Y0003787795D02*
X0001332480Y0003787795D01*
X0001332480Y0000012598D02*
X0000167716Y0000012598D01*
X0001371850Y0003740551D02*
X0001371850Y0003748425D01*
X0001371850Y0000059842D02*
X0001371850Y0000051968D01*
X0001411220Y0003701181D02*
X0002198622Y0003701181D01*
X0002198622Y0000099212D02*
X0001411220Y0000099212D01*
X0002237992Y0003740551D02*
X0002237992Y0003748425D01*
X0002237992Y0000051968D02*
X0002237992Y0000059842D01*
X0002277362Y0003787795D02*
X0003442125Y0003787795D01*
X0003442125Y0000012598D02*
X0002277362Y0000012598D01*
X0003493307Y0002293897D02*
X0003493307Y0001506496D01*
X0003532677Y0001467125D02*
X0003540551Y0001467125D01*
X0003540551Y0002333267D02*
X0003532677Y0002333267D01*
X0003579921Y0003650000D02*
X0003579921Y0002372637D01*
X0003579921Y0001427755D02*
X0003579921Y0000150393D01*
X0000167716Y0003787795D02*
G75*
G03*
X0000029921Y0003650000I0000000000J-0000137795D01*
G01*
X0000069291Y0001467125D02*
G75*
G03*
X0000029921Y0001427755I0000000000J-0000039370D01*
G01*
X0000029921Y0002372637D02*
G75*
G03*
X0000069291Y0002333267I0000039370J0000000000D01*
G01*
X0000116535Y0002293897D02*
G75*
G03*
X0000077165Y0002333267I-0000039370J0000000000D01*
G01*
X0000077165Y0001467125D02*
G75*
G03*
X0000116535Y0001506496I0000000000J0000039370D01*
G01*
X0000029921Y0000150393D02*
G75*
G03*
X0000167716Y0000012598I0000137795J0000000000D01*
G01*
X0001371850Y0003748425D02*
G75*
G03*
X0001332480Y0003787795I-0000039370D01*
G01*
X0001411220Y0000099212D02*
G75*
G03*
X0001371850Y0000059842J-0000039370D01*
G01*
X0001332480Y0000012598D02*
G75*
G03*
X0001371850Y0000051968J0000039370D01*
G01*
X0001371850Y0003740551D02*
G75*
G03*
X0001411220Y0003701181I0000039370D01*
G01*
X0002237992Y0000059842D02*
G75*
G03*
X0002198622Y0000099212I-0000039370D01*
G01*
X0002277362Y0003787795D02*
G75*
G03*
X0002237992Y0003748425J-0000039370D01*
G01*
X0002198622Y0003701181D02*
G75*
G03*
X0002237992Y0003740551J0000039370D01*
G01*
X0002237992Y0000051968D02*
G75*
G03*
X0002277362Y0000012598I0000039370D01*
G01*
X0003579921Y0003650000D02*
G75*
G03*
X0003442125Y0003787795I-0000137795D01*
G01*
X0003532677Y0002333267D02*
G75*
G03*
X0003493307Y0002293897J-0000039370D01*
G01*
X0003493307Y0001506496D02*
G75*
G03*
X0003532677Y0001467125I0000039370D01*
G01*
X0003579921Y0001427755D02*
G75*
G03*
X0003540551Y0001467125I-0000039370D01*
G01*
X0003540551Y0002333267D02*
G75*
G03*
X0003579921Y0002372637J0000039370D01*
G01*
X0003442125Y0000012598D02*
G75*
G03*
X0003579921Y0000150393J0000137795D01*
G01*
G04 next file*
G04 Gerber Fmt 4.6, Leading zero omitted, Abs format (unit mm)*
G04 Created by KiCad (PCBNEW 7.0.6) date 2023-08-28 22:53:50*
G01*
G04 APERTURE LIST*
G04 APERTURE END LIST*
D21*
X0004700787Y0000110236D02*
G75*
G03*
X0004779527Y0000188976I0000000000J0000078740D01*
G01*
X0004779527Y0001114173D02*
G75*
G03*
X0004700787Y0001192913I-0000078740J0000000000D01*
G01*
X0004779527Y0001114173D02*
X0004779527Y0000188976D01*
X0003696850Y0000188976D02*
G75*
G03*
X0003775590Y0000110236I0000078740J0000000000D01*
G01*
X0004700787Y0000110236D02*
X0003775590Y0000110236D01*
X0003775590Y0001192913D02*
G75*
G03*
X0003696850Y0001114173I0000000000J-0000078740D01*
G01*
X0003775590Y0001192913D02*
X0004700787Y0001192913D01*
X0003696850Y0000188976D02*
X0003696850Y0001114173D01*
G04 next file*
G04 Gerber Fmt 4.6, Leading zero omitted, Abs format (unit mm)*
G04 Created by KiCad (PCBNEW 7.0.6) date 2023-08-28 22:53:50*
G01*
G04 APERTURE LIST*
G04 APERTURE END LIST*
D22*
X0004700787Y0002511810D02*
G75*
G03*
X0004779527Y0002590551I0000000000J0000078740D01*
G01*
X0004779527Y0003515747D02*
G75*
G03*
X0004700787Y0003594488I-0000078740J0000000000D01*
G01*
X0004779527Y0003515747D02*
X0004779527Y0002590551D01*
X0003696850Y0002590551D02*
G75*
G03*
X0003775590Y0002511810I0000078740J0000000000D01*
G01*
X0004700787Y0002511810D02*
X0003775590Y0002511810D01*
X0003775590Y0003594488D02*
G75*
G03*
X0003696850Y0003515747I0000000000J-0000078740D01*
G01*
X0003775590Y0003594488D02*
X0004700787Y0003594488D01*
X0003696850Y0002590551D02*
X0003696850Y0003515747D01*
G04 next file*
G04 Gerber Fmt 4.6, Leading zero omitted, Abs format (unit mm)*
G04 Created by KiCad (PCBNEW 7.0.6) date 2023-08-28 22:53:50*
G01*
G04 APERTURE LIST*
G04 APERTURE END LIST*
D23*
X0004661417Y0001330708D02*
G75*
G03*
X0004740157Y0001409448I0000000000J0000078740D01*
G01*
X0004740157Y0002334645D02*
G75*
G03*
X0004661417Y0002413385I-0000078740J0000000000D01*
G01*
X0004740157Y0002334645D02*
X0004740157Y0001409448D01*
X0003657480Y0001409448D02*
G75*
G03*
X0003736220Y0001330708I0000078740J0000000000D01*
G01*
X0004661417Y0001330708D02*
X0003736220Y0001330708D01*
X0003736220Y0002413385D02*
G75*
G03*
X0003657480Y0002334645I0000000000J-0000078740D01*
G01*
X0003736220Y0002413385D02*
X0004661417Y0002413385D01*
X0003657480Y0001409448D02*
X0003657480Y0002334645D01*
M02*