%
M48
METRIC,000.000
T10C1.50
T11C1.80
T12C0.25
T13C0.30
T14C0.80
T15C0.89
T16C1.00
T17C1.02
T18C1.70
T19C2.20
T20C3.18
T21C0.40
%
T10
X055269Y068675
X055269Y063825
T11
X058300Y068975
X058300Y063525
T12
X024250Y033750
X024573Y033104
X025069Y032607
X025209Y033739
X025563Y032113
X025705Y033245
X026058Y031619
X026200Y032750
X026200Y030400
X026200Y029700
X026250Y031150
X026549Y029250
X026549Y028549
X026549Y027849
X026549Y027150
X026549Y026450
X026549Y025750
X027450Y029250
X027450Y028549
X027450Y027849
X027450Y027150
X027450Y026450
X027450Y025750
X027700Y029750
X105900Y015700
X109800Y008599
X109900Y012650
X109900Y011650
X109900Y010650
X109900Y009650
X110949Y021000
X111000Y011650
X111000Y010650
X111000Y009650
X111100Y008599
X111250Y012849
X111650Y012150
X112050Y011599
X112150Y013150
X112500Y012000
X113100Y013349
X113300Y011900
X105900Y076700
X109800Y069600
X109900Y073650
X109900Y072650
X109900Y071650
X109900Y070650
X110949Y082000
X111000Y072650
X111000Y071650
X111000Y070650
X111100Y069600
X111250Y073850
X111650Y073150
X112050Y072600
X112150Y074150
X112500Y073000
X113100Y074350
X113300Y072900
X104900Y046700
X108800Y039599
X108900Y043650
X108900Y042650
X108900Y041650
X108900Y040650
X109949Y052000
X110000Y042650
X110000Y041650
X110000Y040650
X110100Y039599
X110250Y043849
X110650Y043150
X111050Y042599
X111150Y044150
X111500Y043000
X112100Y044349
X112300Y042900
T13
X010229Y046500
X012030Y049900
X012349Y050800
X013500Y048599
X013750Y045099
X014780Y051400
X015700Y048599
X017480Y049925
X018400Y046099
X022075Y067574
X023599Y039562
X026049Y035812
X027599Y038413
X027599Y033312
X029799Y030561
X030575Y049312
X031474Y039562
X032250Y037200
X033025Y048712
X033650Y050300
X035325Y050212
X035400Y053800
X038050Y046550
X039950Y051050
X042700Y053250
X042900Y043800
X053750Y081450
X056599Y081300
X059750Y044500
X063900Y079950
X063900Y075950
X063900Y074250
X065050Y081950
X065050Y074300
X065050Y065200
X067050Y054400
X067800Y078000
X069300Y067300
X069500Y078050
X069600Y050450
X069750Y056150
X071150Y077800
X072200Y051550
X073050Y052400
X073500Y078000
X074250Y049650
X074450Y054300
X075450Y081550
X075450Y074650
X077449Y061550
T14
X011899Y043150
X014439Y043150
X016980Y043150
T15
X027000Y024349
X027010Y015710
X104900Y025599
X110449Y007650
X104900Y086600
X110449Y068650
X103900Y056599
X109449Y038650
T16
X003850Y087200
X003850Y084660
X003850Y082120
X003850Y079580
X003850Y076000
X003850Y073460
X003850Y070920
X003850Y068380
X003850Y064800
X003850Y062260
T17
X014730Y091130
X014730Y088590
X014730Y086050
X014730Y083510
X017269Y091130
X017269Y088590
X017269Y086050
X017269Y083510
X019810Y091130
X019810Y088590
X019810Y086050
X019810Y083510
X022349Y091130
X022349Y088590
X022349Y086050
X022349Y083510
X024890Y091130
X024890Y088590
X024890Y086050
X024890Y083510
X027430Y091130
X027430Y088590
X027430Y086050
X027430Y083510
X029970Y091130
X029970Y088590
X029970Y086050
X029970Y083510
X032509Y091130
X032509Y088590
X032509Y086050
X032509Y083510
X035050Y091130
X035050Y088590
X035050Y086050
X035050Y083510
X037590Y091130
X037590Y088590
X037590Y086050
X037590Y083510
X040129Y091130
X040129Y088590
X040129Y086050
X040129Y083510
X042670Y091130
X042670Y088590
X042670Y086050
X042670Y083510
X045209Y091130
X045209Y088590
X045209Y086050
X045209Y083510
X047750Y091130
X047750Y088590
X047750Y086050
X047750Y083510
X050290Y091130
X050290Y088590
X050290Y086050
X050290Y083510
X052830Y091130
X052830Y088590
X052830Y086050
X052830Y083510
X055370Y091130
X055370Y088590
X055370Y086050
X055370Y083510
X057910Y091130
X057910Y088590
X057910Y086050
X057910Y083510
X060450Y091130
X060450Y088590
X060450Y086050
X060450Y083510
X062989Y091130
X062989Y088590
X062989Y086050
X062989Y083510
X065530Y091130
X065530Y088590
X065530Y086050
X065530Y083510
X068070Y091130
X068070Y088590
X068070Y086050
X068070Y083510
X070610Y091130
X070610Y088590
X070610Y086050
X070610Y083510
X073150Y091130
X073150Y088590
X073150Y086050
X073150Y083510
X075690Y091130
X075690Y088590
X075690Y086050
X075690Y083510
X078229Y091130
X078229Y088590
X078229Y086050
X078229Y083510
X010170Y075140
X010170Y057360
X010399Y068790
X010399Y066250
X010399Y063709
X012709Y075140
X012709Y057360
X015250Y075140
X015250Y057360
X017790Y075140
X017790Y057360
X020330Y075140
X020330Y057360
X022870Y075140
X022870Y057360
X025409Y075140
X025409Y057360
X027950Y075140
X027950Y057360
X030489Y075140
X030489Y057360
X033030Y075140
X033030Y057360
X035569Y075140
X035569Y057360
X038110Y075140
X038110Y057360
X040650Y075140
X040650Y057360
X043190Y075140
X043190Y057360
X045730Y075140
X045730Y057360
X048269Y075140
X048269Y057360
X050810Y075140
X050810Y057360
X053349Y075140
X053349Y057360
X055890Y075140
X055890Y057360
X058430Y075140
X058430Y057360
T18
X024459Y026890
X024459Y021810
X024470Y018250
X024470Y013169
X029540Y026890
X029540Y021810
X029549Y018250
X029549Y013169
X102360Y028140
X102360Y023060
X107440Y028140
X107440Y023060
X107910Y010189
X107910Y005109
X112990Y010189
X112990Y005109
X102360Y089140
X102360Y084060
X107440Y089140
X107440Y084060
X107910Y071190
X107910Y066110
X112990Y071190
X112990Y066110
X101360Y059140
X101360Y054060
X106440Y059140
X106440Y054060
X106910Y041190
X106910Y036110
X111990Y041190
X111990Y036110
T19
X043150Y040250
X043150Y005250
X078150Y040250
X078150Y005250
X096900Y027299
X096900Y005799
X118400Y027299
X118400Y005799
X096900Y088300
X096900Y066800
X118400Y088300
X118400Y066800
X095900Y058300
X095900Y036800
X117400Y058300
X117400Y036800
T20
X005840Y005400
X009649Y091130
X083310Y091130
X085850Y005400
T21
X105900Y020849
X111949Y016549
X117500Y018400
X105900Y081850
X111949Y077550
X117500Y079400
X104900Y051849
X110949Y047550
X116500Y049400
M30