%
M48
METRIC,000.000
T01C0.50
%
T01
X013429Y098750
X014429Y098750
X015429Y098750
X016429Y098750
X017429Y098750
X017705Y096459
X016705Y096459
X015705Y096459
X014705Y096459
X013705Y096459
X012705Y096459
X123750Y086315
X123750Y085315
X123750Y084315
X123750Y083315
X123750Y082315
X121649Y081269
X121649Y082269
X121649Y083269
X121649Y084269
X121649Y085269
X121649Y086269
X123750Y075315
X123750Y074315
X123750Y073315
X123750Y072315
X123750Y071315
X121649Y070269
X121649Y071269
X121649Y072269
X121649Y073269
X121649Y074269
X121649Y075269
X061429Y098750
X062429Y098750
X063429Y098750
X064429Y098750
X065429Y098750
X066429Y098750
X066030Y096459
X065030Y096459
X064030Y096459
X063030Y096459
X062030Y096459
X079429Y098750
X080429Y098750
X081429Y098750
X082429Y098750
X083429Y098750
X084429Y098750
X084030Y096459
X083030Y096459
X082030Y096459
X081030Y096459
X080030Y096459
X025429Y098750
X026429Y098750
X027429Y098750
X028429Y098750
X029429Y098750
X029705Y096459
X028705Y096459
X027705Y096459
X026705Y096459
X025705Y096459
X024705Y096459
X091179Y083997
X091179Y084997
X091179Y085997
X091179Y086997
X091179Y087997
X093649Y087892
X093649Y086892
X093649Y085892
X093649Y084892
X093649Y083892
X091179Y068997
X091179Y069997
X091179Y070997
X091179Y071997
X091179Y072997
X093649Y072892
X093649Y071892
X093649Y070892
X093649Y069892
X093649Y068892
X105277Y063549
X106277Y063549
X107277Y063549
X108277Y063549
X109277Y063549
X109961Y061549
X108961Y061549
X107961Y061549
X106961Y061549
X105961Y061549
X104961Y061549
X123750Y056315
X123750Y055315
X123750Y054315
X123750Y053315
X123750Y052315
X120649Y052269
X120649Y053269
X120649Y054269
X120649Y055269
X120649Y056269
X123750Y042315
X123750Y041315
X123750Y040315
X123750Y039315
X123750Y038315
X120649Y038269
X120649Y039269
X120649Y040269
X120649Y041269
X120649Y042269
X101961Y030549
X100961Y030549
X099961Y030549
X098961Y030549
X097961Y030549
X098277Y033549
X099277Y033549
X100277Y033549
X101277Y033549
X102277Y033549
X113961Y030549
X112961Y030549
X111961Y030549
X110961Y030549
X109961Y030549
X110277Y033549
X111277Y033549
X112277Y033549
X113277Y033549
X114277Y033549
X088979Y052334
X088979Y053334
X088979Y054334
X088979Y055334
X092649Y055892
X092649Y054892
X092649Y053892
X092649Y052892
X092649Y051892
X088979Y040334
X088979Y041334
X088979Y042334
X088979Y043334
X092649Y043892
X092649Y042892
X092649Y041892
X092649Y040892
X092649Y039892
X091179Y022672
X091179Y023672
X091179Y024672
X091179Y025672
X091179Y026672
X091179Y027672
X093649Y026892
X093649Y025892
X093649Y024892
X093649Y023892
X093649Y022892
X091179Y007672
X091179Y008672
X091179Y009672
X091179Y010672
X091179Y011672
X091179Y012672
X093649Y011892
X093649Y010892
X093649Y009892
X093649Y008892
X093649Y007892
X123750Y026315
X123750Y025315
X123750Y024315
X123750Y023315
X123750Y022315
X123750Y021315
X121649Y022269
X121649Y023269
X121649Y024269
X121649Y025269
X121649Y026269
X123750Y013315
X123750Y012315
X123750Y011315
X123750Y010315
X123750Y009315
X123750Y008315
X121649Y009269
X121649Y010269
X121649Y011269
X121649Y012269
X121649Y013269
M30