%MOIN*%
%OFA0B0*%
%FSLAX36Y36*%
%IPPOS*%
%LPD*%
%ADD10C,0*%
D10*
X004031495Y001330708D02*
X004031495Y001330708D01*
X004314960Y001330708D01*
X004318143Y001330579D01*
X004321305Y001330194D01*
X004324426Y001329554D01*
X004327484Y001328663D01*
X004330461Y001327529D01*
X004333336Y001326157D01*
X004336090Y001324557D01*
X004338707Y001322740D01*
X004341168Y001320718D01*
X004343457Y001318503D01*
X004345560Y001316110D01*
X004347463Y001313555D01*
X004349152Y001310855D01*
X004350618Y001308027D01*
X004351851Y001305089D01*
X004352842Y001302062D01*
X004353585Y001298964D01*
X004354075Y001295817D01*
X004354309Y001292640D01*
X004354285Y001289455D01*
X004351457Y001230400D01*
X004351199Y001227413D01*
X004350716Y001224456D01*
X004350008Y001221543D01*
X004349082Y001218693D01*
X004347941Y001215921D01*
X004346592Y001213244D01*
X004345044Y001210678D01*
X004343305Y001208237D01*
X004341386Y001205935D01*
X004339296Y001203786D01*
X004337050Y001201802D01*
X004334659Y001199995D01*
X004332137Y001198375D01*
X004329500Y001196951D01*
X004326762Y001195732D01*
X004323939Y001194725D01*
X004321047Y001193936D01*
X004318104Y001193369D01*
X004315127Y001193027D01*
X004312132Y001192913D01*
X004034324Y001192913D01*
X004031329Y001193027D01*
X004028351Y001193369D01*
X004025408Y001193936D01*
X004022517Y001194725D01*
X004019694Y001195732D01*
X004016956Y001196951D01*
X004014318Y001198375D01*
X004011797Y001199995D01*
X004009406Y001201802D01*
X004007159Y001203786D01*
X004005070Y001205935D01*
X004003151Y001208237D01*
X004001412Y001210678D01*
X003999863Y001213244D01*
X003998515Y001215921D01*
X003997374Y001218693D01*
X003996447Y001221543D01*
X003995740Y001224456D01*
X003995256Y001227413D01*
X003994999Y001230400D01*
X003992170Y001289455D01*
X003992147Y001292640D01*
X003992381Y001295817D01*
X003992871Y001298964D01*
X003993614Y001302062D01*
X003994605Y001305089D01*
X003995837Y001308027D01*
X003997303Y001310855D01*
X003998993Y001313555D01*
X004000896Y001316110D01*
X004002998Y001318503D01*
X004005288Y001320718D01*
X004007749Y001322740D01*
X004010365Y001324557D01*
X004013120Y001326157D01*
X004015995Y001327529D01*
X004018972Y001328663D01*
X004022030Y001329554D01*
X004025151Y001330194D01*
X004028313Y001330579D01*
X004031495Y001330708D01*
X003696850Y003294423D02*
X003696850Y003294423D01*
X003696850Y002886678D01*
X003696647Y002882687D01*
X003696040Y002878736D01*
X003695036Y002874868D01*
X003693646Y002871121D01*
X003691882Y002867535D01*
X003689764Y002864145D01*
X003687313Y002860988D01*
X003684555Y002858096D01*
X003681517Y002855498D01*
X003678232Y002853222D01*
X003674733Y002851290D01*
X003671057Y002849723D01*
X003667240Y002848537D01*
X003663323Y002847744D01*
X003659345Y002847352D01*
X003655349Y002847366D01*
X003651374Y002847785D01*
X003647462Y002848604D01*
X003643654Y002849816D01*
X003639988Y002851407D01*
X003601799Y002870346D01*
X003599868Y002871371D01*
X003597998Y002872502D01*
X003596193Y002873735D01*
X003594459Y002875065D01*
X003592802Y002876490D01*
X003591227Y002878005D01*
X003589738Y002879605D01*
X003588340Y002881285D01*
X003587037Y002883040D01*
X003585834Y002884865D01*
X003584734Y002886753D01*
X003583741Y002888700D01*
X003582857Y002890699D01*
X003582085Y002892743D01*
X003581428Y002894828D01*
X003580887Y002896946D01*
X003580465Y002899090D01*
X003580163Y002901255D01*
X003579981Y002903433D01*
X003579920Y002905617D01*
X003579920Y003275484D01*
X003579981Y003277669D01*
X003580163Y003279847D01*
X003580465Y003282011D01*
X003580887Y003284156D01*
X003581428Y003286273D01*
X003582085Y003288358D01*
X003582857Y003290403D01*
X003583741Y003292402D01*
X003584734Y003294348D01*
X003585834Y003296237D01*
X003587037Y003298061D01*
X003588340Y003299816D01*
X003589738Y003301496D01*
X003591227Y003303096D01*
X003592802Y003304611D01*
X003594459Y003306036D01*
X003596193Y003307367D01*
X003597998Y003308599D01*
X003599868Y003309730D01*
X003601799Y003310755D01*
X003639988Y003329694D01*
X003643654Y003331286D01*
X003647462Y003332497D01*
X003651374Y003333317D01*
X003655349Y003333735D01*
X003659345Y003333749D01*
X003663323Y003333357D01*
X003667240Y003332564D01*
X003671057Y003331378D01*
X003674733Y003329811D01*
X003678232Y003327879D01*
X003681517Y003325603D01*
X003684555Y003323005D01*
X003687313Y003320113D01*
X003689764Y003316956D01*
X003691882Y003313567D01*
X003693646Y003309980D01*
X003695036Y003306233D01*
X003696040Y003302365D01*
X003696647Y003298415D01*
X003696850Y003294423D01*
X003493306Y002203204D02*
X003493306Y002203204D01*
X003493306Y002293897D01*
X003493791Y002300056D01*
X003495234Y002306063D01*
X003497598Y002311771D01*
X003500825Y002317039D01*
X003504838Y002321736D01*
X003509535Y002325748D01*
X003514803Y002328976D01*
X003520510Y002331340D01*
X003526518Y002332783D01*
X003532676Y002333267D01*
X003540550Y002333267D01*
X003546709Y002333752D01*
X003552717Y002335194D01*
X003558424Y002337559D01*
X003563691Y002340787D01*
X003568389Y002344799D01*
X003572402Y002349496D01*
X003575629Y002354764D01*
X003577993Y002360472D01*
X003579436Y002366478D01*
X003579920Y002372637D01*
X003579920Y002684933D01*
X003579981Y002687118D01*
X003580163Y002689296D01*
X003580465Y002691460D01*
X003580887Y002693605D01*
X003581428Y002695722D01*
X003582085Y002697807D01*
X003582857Y002699852D01*
X003583741Y002701850D01*
X003584734Y002703797D01*
X003585834Y002705686D01*
X003587037Y002707510D01*
X003588340Y002709265D01*
X003589738Y002710945D01*
X003591227Y002712545D01*
X003592802Y002714060D01*
X003594459Y002715485D01*
X003596193Y002716816D01*
X003597998Y002718048D01*
X003599868Y002719179D01*
X003601799Y002720204D01*
X003639988Y002739143D01*
X003643654Y002740734D01*
X003647462Y002741946D01*
X003651374Y002742766D01*
X003655349Y002743184D01*
X003659345Y002743198D01*
X003663323Y002742806D01*
X003667240Y002742013D01*
X003671057Y002740827D01*
X003674733Y002739260D01*
X003678232Y002737328D01*
X003681517Y002735052D01*
X003684555Y002732454D01*
X003687313Y002729562D01*
X003689764Y002726405D01*
X003691882Y002723016D01*
X003693646Y002719429D01*
X003695036Y002715682D01*
X003696040Y002711814D01*
X003696647Y002707863D01*
X003696850Y002703872D01*
X003696850Y002590551D01*
X003697819Y002578233D01*
X003700703Y002566219D01*
X003705432Y002554803D01*
X003711888Y002544268D01*
X003719912Y002534873D01*
X003729308Y002526849D01*
X003739842Y002520393D01*
X003751258Y002515664D01*
X003763272Y002512780D01*
X003775590Y002511811D01*
X004118110Y002511811D01*
X004122770Y002511534D01*
X004127365Y002510707D01*
X004131830Y002509343D01*
X004136102Y002507459D01*
X004140121Y002505083D01*
X004143830Y002502248D01*
X004147178Y002498994D01*
X004150117Y002495366D01*
X004152605Y002491416D01*
X004154609Y002487199D01*
X004156099Y002482775D01*
X004157056Y002478205D01*
X004157464Y002473554D01*
X004157319Y002468888D01*
X004156623Y002464271D01*
X004155385Y002459769D01*
X004153623Y002455446D01*
X004151362Y002451362D01*
X004148632Y002447574D01*
X004145474Y002444135D01*
X004125112Y002424450D01*
X004124005Y002423420D01*
X004122858Y002422433D01*
X004121675Y002421491D01*
X004120456Y002420594D01*
X004119204Y002419746D01*
X004117920Y002418946D01*
X004116606Y002418196D01*
X004115265Y002417497D01*
X004113897Y002416850D01*
X004112506Y002416256D01*
X004111093Y002415716D01*
X004109660Y002415231D01*
X004108210Y002414801D01*
X004106744Y002414427D01*
X004105265Y002414110D01*
X004103775Y002413850D01*
X004102276Y002413647D01*
X004100770Y002413502D01*
X004099260Y002413415D01*
X004097748Y002413385D01*
X003736220Y002413385D01*
X003723902Y002412416D01*
X003711888Y002409532D01*
X003700472Y002404804D01*
X003689938Y002398347D01*
X003680542Y002390323D01*
X003672518Y002380927D01*
X003666062Y002370393D01*
X003661333Y002358977D01*
X003658449Y002346963D01*
X003657480Y002334645D01*
X003657480Y002217387D01*
X003657382Y002214621D01*
X003657091Y002211869D01*
X003656607Y002209144D01*
X003655933Y002206459D01*
X003655071Y002203829D01*
X003654028Y002201266D01*
X003652806Y002198782D01*
X003651413Y002196390D01*
X003649856Y002194102D01*
X003648142Y002191930D01*
X003646279Y002189883D01*
X003644277Y002187971D01*
X003642146Y002186206D01*
X003639895Y002184594D01*
X003637538Y002183145D01*
X003635084Y002181864D01*
X003632546Y002180759D01*
X003629937Y002179836D01*
X003627270Y002179097D01*
X003624557Y002178548D01*
X003539124Y002164366D01*
X003535734Y002163953D01*
X003532321Y002163836D01*
X003528911Y002164015D01*
X003525529Y002164488D01*
X003522201Y002165253D01*
X003518952Y002166304D01*
X003515806Y002167632D01*
X003512787Y002169228D01*
X003509917Y002171079D01*
X003507219Y002173172D01*
X003504712Y002175491D01*
X003502416Y002178019D01*
X003500347Y002180736D01*
X003498522Y002183622D01*
X003496954Y002186655D01*
X003495654Y002189813D01*
X003494633Y002193072D01*
X003493898Y002196406D01*
X003493455Y002199792D01*
X003493306Y002203204D01*
X003579920Y001427755D02*
X003579920Y001427755D01*
X003579436Y001433914D01*
X003577993Y001439922D01*
X003575629Y001445629D01*
X003572402Y001450897D01*
X003568389Y001455594D01*
X003563691Y001459607D01*
X003558424Y001462835D01*
X003552717Y001465199D01*
X003546709Y001466641D01*
X003540550Y001467125D01*
X003532676Y001467125D01*
X003526518Y001467611D01*
X003520510Y001469053D01*
X003514803Y001471417D01*
X003509535Y001474645D01*
X003504838Y001478657D01*
X003500825Y001483355D01*
X003497598Y001488622D01*
X003495234Y001494330D01*
X003493791Y001500337D01*
X003493306Y001506496D01*
X003493306Y001576322D01*
X003493455Y001579734D01*
X003493898Y001583120D01*
X003494633Y001586455D01*
X003495654Y001589714D01*
X003496954Y001592871D01*
X003498522Y001595905D01*
X003500347Y001598791D01*
X003502416Y001601508D01*
X003504712Y001604035D01*
X003507219Y001606354D01*
X003509917Y001608448D01*
X003512787Y001610299D01*
X003515806Y001611895D01*
X003518952Y001613223D01*
X003522201Y001614273D01*
X003525529Y001615038D01*
X003528911Y001615512D01*
X003532321Y001615691D01*
X003535734Y001615574D01*
X003539124Y001615161D01*
X003624557Y001600978D01*
X003627270Y001600429D01*
X003629937Y001599691D01*
X003632546Y001598767D01*
X003635084Y001597662D01*
X003637538Y001596382D01*
X003639895Y001594932D01*
X003642146Y001593321D01*
X003644277Y001591555D01*
X003646279Y001589644D01*
X003648142Y001587597D01*
X003649856Y001585424D01*
X003651413Y001583136D01*
X003652806Y001580745D01*
X003654028Y001578261D01*
X003655071Y001575698D01*
X003655933Y001573067D01*
X003656607Y001570383D01*
X003657091Y001567658D01*
X003657382Y001564906D01*
X003657480Y001562140D01*
X003657480Y001409448D01*
X003658449Y001397131D01*
X003661333Y001385116D01*
X003666062Y001373701D01*
X003672518Y001363166D01*
X003680542Y001353771D01*
X003689938Y001345746D01*
X003700472Y001339290D01*
X003711888Y001334562D01*
X003723902Y001331678D01*
X003736220Y001330708D01*
X003842519Y001330708D01*
X003845702Y001330579D01*
X003848864Y001330194D01*
X003851985Y001329554D01*
X003855043Y001328663D01*
X003858020Y001327529D01*
X003860895Y001326157D01*
X003863649Y001324557D01*
X003866266Y001322740D01*
X003868727Y001320718D01*
X003871016Y001318503D01*
X003873119Y001316110D01*
X003875022Y001313555D01*
X003876711Y001310855D01*
X003878177Y001308027D01*
X003879410Y001305089D01*
X003880401Y001302062D01*
X003881144Y001298964D01*
X003881634Y001295817D01*
X003881868Y001292640D01*
X003881844Y001289455D01*
X003879016Y001230400D01*
X003878758Y001227413D01*
X003878275Y001224456D01*
X003877568Y001221543D01*
X003876641Y001218693D01*
X003875500Y001215921D01*
X003874151Y001213244D01*
X003872603Y001210678D01*
X003870864Y001208237D01*
X003868945Y001205935D01*
X003866855Y001203786D01*
X003864609Y001201802D01*
X003862218Y001199995D01*
X003859696Y001198375D01*
X003857059Y001196951D01*
X003854321Y001195732D01*
X003851498Y001194725D01*
X003848606Y001193936D01*
X003845663Y001193369D01*
X003842686Y001193027D01*
X003839691Y001192913D01*
X003775590Y001192913D01*
X003763272Y001191944D01*
X003751258Y001189059D01*
X003739842Y001184331D01*
X003729308Y001177875D01*
X003719912Y001169851D01*
X003711888Y001160455D01*
X003705432Y001149920D01*
X003700703Y001138505D01*
X003697819Y001126490D01*
X003696850Y001114173D01*
X003696850Y001075655D01*
X003696647Y001071663D01*
X003696040Y001067713D01*
X003695036Y001063844D01*
X003693646Y001060097D01*
X003691882Y001056511D01*
X003689764Y001053122D01*
X003687313Y001049965D01*
X003684555Y001047072D01*
X003681517Y001044475D01*
X003678232Y001042198D01*
X003674733Y001040267D01*
X003671057Y001038700D01*
X003667240Y001037514D01*
X003663323Y001036721D01*
X003659345Y001036329D01*
X003655349Y001036342D01*
X003651374Y001036761D01*
X003647462Y001037580D01*
X003643654Y001038792D01*
X003639988Y001040384D01*
X003601799Y001059323D01*
X003599868Y001060348D01*
X003597998Y001061478D01*
X003596193Y001062711D01*
X003594459Y001064042D01*
X003592802Y001065467D01*
X003591227Y001066982D01*
X003589738Y001068581D01*
X003588340Y001070261D01*
X003587037Y001072016D01*
X003585834Y001073841D01*
X003584734Y001075730D01*
X003583741Y001077676D01*
X003582857Y001079675D01*
X003582085Y001081720D01*
X003581428Y001083804D01*
X003580887Y001085922D01*
X003580465Y001088066D01*
X003580163Y001090231D01*
X003579981Y001092409D01*
X003579920Y001094594D01*
X003579920Y001427755D01*
X004881889Y001486768D02*
X004881889Y001486768D01*
X004881889Y001056237D01*
X004881828Y001054034D01*
X004881643Y001051838D01*
X004881335Y001049656D01*
X004880906Y001047494D01*
X004880357Y001045360D01*
X004879689Y001043260D01*
X004878905Y001041201D01*
X004878007Y001039189D01*
X004876997Y001037230D01*
X004875880Y001035330D01*
X004874658Y001033497D01*
X004873335Y001031734D01*
X004871916Y001030048D01*
X004870405Y001028445D01*
X004868806Y001026928D01*
X004867125Y001025503D01*
X004865367Y001024174D01*
X004863537Y001022946D01*
X004861641Y001021822D01*
X004859686Y001020806D01*
X004836064Y001009361D01*
X004832400Y001007809D01*
X004828599Y001006635D01*
X004824698Y001005851D01*
X004820738Y001005464D01*
X004816760Y001005479D01*
X004812803Y001005896D01*
X004808909Y001006709D01*
X004805116Y001007912D01*
X004801464Y001009491D01*
X004797991Y001011431D01*
X004794730Y001013711D01*
X004791717Y001016309D01*
X004788981Y001019197D01*
X004786551Y001022347D01*
X004784451Y001025727D01*
X004782702Y001029301D01*
X004781324Y001033033D01*
X004780329Y001036885D01*
X004779728Y001040818D01*
X004779527Y001044791D01*
X004779527Y001114173D01*
X004778557Y001126490D01*
X004775673Y001138505D01*
X004770945Y001149920D01*
X004764489Y001160455D01*
X004756464Y001169851D01*
X004747069Y001177875D01*
X004736534Y001184331D01*
X004725119Y001189059D01*
X004713104Y001191944D01*
X004700787Y001192913D01*
X004506765Y001192913D01*
X004503770Y001193027D01*
X004500792Y001193369D01*
X004497849Y001193936D01*
X004494958Y001194725D01*
X004492135Y001195732D01*
X004489397Y001196951D01*
X004486759Y001198375D01*
X004484238Y001199995D01*
X004481847Y001201802D01*
X004479600Y001203786D01*
X004477511Y001205935D01*
X004475592Y001208237D01*
X004473853Y001210678D01*
X004472304Y001213244D01*
X004470956Y001215921D01*
X004469815Y001218693D01*
X004468888Y001221543D01*
X004468181Y001224456D01*
X004467697Y001227413D01*
X004467440Y001230400D01*
X004464611Y001289455D01*
X004464588Y001292640D01*
X004464822Y001295817D01*
X004465312Y001298964D01*
X004466055Y001302062D01*
X004467046Y001305089D01*
X004468278Y001308027D01*
X004469744Y001310855D01*
X004471434Y001313555D01*
X004473337Y001316110D01*
X004475439Y001318503D01*
X004477729Y001320718D01*
X004480190Y001322740D01*
X004482806Y001324557D01*
X004485561Y001326157D01*
X004488436Y001327529D01*
X004491413Y001328663D01*
X004494471Y001329554D01*
X004497592Y001330194D01*
X004500754Y001330579D01*
X004503936Y001330708D01*
X004661417Y001330708D01*
X004673734Y001331678D01*
X004685749Y001334562D01*
X004697164Y001339290D01*
X004707699Y001345746D01*
X004717094Y001353771D01*
X004725119Y001363166D01*
X004731575Y001373701D01*
X004736303Y001385116D01*
X004739187Y001397131D01*
X004740157Y001409448D01*
X004740157Y001474893D01*
X004740251Y001477616D01*
X004740533Y001480326D01*
X004741003Y001483010D01*
X004741656Y001485655D01*
X004742491Y001488249D01*
X004743504Y001490779D01*
X004744689Y001493232D01*
X004746041Y001495598D01*
X004747553Y001497864D01*
X004749219Y001500021D01*
X004751029Y001502057D01*
X004752976Y001503963D01*
X004755051Y001505730D01*
X004757242Y001507349D01*
X004759541Y001508813D01*
X004761935Y001510114D01*
X004764413Y001511246D01*
X004766964Y001512205D01*
X004769574Y001512984D01*
X004772233Y001513581D01*
X004835225Y001525457D01*
X004838648Y001525948D01*
X004842101Y001526136D01*
X004845557Y001526021D01*
X004848989Y001525603D01*
X004852372Y001524886D01*
X004855678Y001523874D01*
X004858883Y001522577D01*
X004861962Y001521003D01*
X004864891Y001519165D01*
X004867647Y001517077D01*
X004870210Y001514755D01*
X004872559Y001512217D01*
X004874676Y001509483D01*
X004876545Y001506574D01*
X004878151Y001503512D01*
X004879483Y001500321D01*
X004880530Y001497026D01*
X004881283Y001493651D01*
X004881737Y001490223D01*
X004881889Y001486768D01*
X004881889Y002037950D02*
X004881889Y002037950D01*
X004881889Y001662837D01*
X004881737Y001659382D01*
X004881283Y001655955D01*
X004880530Y001652580D01*
X004879483Y001649284D01*
X004878151Y001646093D01*
X004876545Y001643031D01*
X004874676Y001640122D01*
X004872559Y001637388D01*
X004870210Y001634850D01*
X004867647Y001632529D01*
X004864891Y001630441D01*
X004861962Y001628603D01*
X004858883Y001627029D01*
X004855678Y001625731D01*
X004852372Y001624720D01*
X004848989Y001624002D01*
X004845557Y001623584D01*
X004842101Y001623469D01*
X004838648Y001623658D01*
X004835225Y001624148D01*
X004772233Y001636024D01*
X004769574Y001636621D01*
X004766964Y001637401D01*
X004764413Y001638359D01*
X004761935Y001639492D01*
X004759541Y001640793D01*
X004757242Y001642256D01*
X004755051Y001643875D01*
X004752976Y001645642D01*
X004751029Y001647548D01*
X004749219Y001649584D01*
X004747553Y001651741D01*
X004746041Y001654008D01*
X004744689Y001656373D01*
X004743504Y001658827D01*
X004742491Y001661356D01*
X004741656Y001663950D01*
X004741003Y001666595D01*
X004740533Y001669279D01*
X004740251Y001671989D01*
X004740157Y001674713D01*
X004740157Y002026074D01*
X004740251Y002028797D01*
X004740533Y002031507D01*
X004741003Y002034191D01*
X004741656Y002036836D01*
X004742491Y002039430D01*
X004743504Y002041960D01*
X004744689Y002044413D01*
X004746041Y002046779D01*
X004747553Y002049045D01*
X004749219Y002051202D01*
X004751029Y002053238D01*
X004752976Y002055144D01*
X004755051Y002056911D01*
X004757242Y002058530D01*
X004759541Y002059994D01*
X004761935Y002061295D01*
X004764413Y002062427D01*
X004766964Y002063386D01*
X004769574Y002064165D01*
X004772233Y002064762D01*
X004835225Y002076638D01*
X004838648Y002077129D01*
X004842101Y002077317D01*
X004845557Y002077202D01*
X004848989Y002076784D01*
X004852372Y002076067D01*
X004855678Y002075055D01*
X004858883Y002073758D01*
X004861962Y002072184D01*
X004864891Y002070346D01*
X004867647Y002068258D01*
X004870210Y002065936D01*
X004872559Y002063398D01*
X004874676Y002060664D01*
X004876545Y002057755D01*
X004878151Y002054693D01*
X004879483Y002051502D01*
X004880530Y002048207D01*
X004881283Y002044832D01*
X004881737Y002041404D01*
X004881889Y002037950D01*
X004881889Y002785981D02*
X004881889Y002785981D01*
X004881889Y002214018D01*
X004881737Y002210563D01*
X004881283Y002207136D01*
X004880530Y002203761D01*
X004879483Y002200465D01*
X004878151Y002197274D01*
X004876545Y002194212D01*
X004874676Y002191303D01*
X004872559Y002188569D01*
X004870210Y002186032D01*
X004867647Y002183710D01*
X004864891Y002181622D01*
X004861962Y002179784D01*
X004858883Y002178210D01*
X004855678Y002176912D01*
X004852372Y002175901D01*
X004848989Y002175183D01*
X004845557Y002174765D01*
X004842101Y002174650D01*
X004838648Y002174839D01*
X004835225Y002175329D01*
X004772233Y002187205D01*
X004769574Y002187802D01*
X004766964Y002188582D01*
X004764413Y002189540D01*
X004761935Y002190673D01*
X004759541Y002191974D01*
X004757242Y002193437D01*
X004755051Y002195057D01*
X004752976Y002196823D01*
X004751029Y002198729D01*
X004749219Y002200766D01*
X004747553Y002202922D01*
X004746041Y002205189D01*
X004744689Y002207554D01*
X004743504Y002210008D01*
X004742491Y002212538D01*
X004741656Y002215131D01*
X004741003Y002217776D01*
X004740533Y002220460D01*
X004740251Y002223171D01*
X004740157Y002225894D01*
X004740157Y002334645D01*
X004739187Y002346963D01*
X004736303Y002358977D01*
X004731575Y002370392D01*
X004725119Y002380927D01*
X004717094Y002390323D01*
X004707699Y002398347D01*
X004697164Y002404804D01*
X004685749Y002409532D01*
X004673734Y002412416D01*
X004661417Y002413385D01*
X004327448Y002413385D01*
X004325936Y002413415D01*
X004324425Y002413502D01*
X004322920Y002413647D01*
X004321421Y002413850D01*
X004319930Y002414110D01*
X004318451Y002414427D01*
X004316986Y002414801D01*
X004315535Y002415231D01*
X004314103Y002415716D01*
X004312690Y002416256D01*
X004311298Y002416850D01*
X004309931Y002417497D01*
X004308589Y002418196D01*
X004307276Y002418946D01*
X004305992Y002419746D01*
X004304740Y002420594D01*
X004303521Y002421491D01*
X004302337Y002422433D01*
X004301191Y002423420D01*
X004300084Y002424450D01*
X004279722Y002444135D01*
X004276563Y002447574D01*
X004273834Y002451362D01*
X004271573Y002455446D01*
X004269811Y002459769D01*
X004268573Y002464271D01*
X004267877Y002468888D01*
X004267732Y002473554D01*
X004268140Y002478205D01*
X004269096Y002482775D01*
X004270587Y002487199D01*
X004272590Y002491416D01*
X004275079Y002495366D01*
X004278018Y002498994D01*
X004281366Y002502248D01*
X004285075Y002505083D01*
X004289094Y002507459D01*
X004293366Y002509343D01*
X004297831Y002510707D01*
X004302426Y002511534D01*
X004307086Y002511811D01*
X004700787Y002511811D01*
X004713104Y002512780D01*
X004725119Y002515664D01*
X004736534Y002520393D01*
X004747069Y002526849D01*
X004756464Y002534873D01*
X004764489Y002544268D01*
X004770945Y002554803D01*
X004775673Y002566219D01*
X004778557Y002578233D01*
X004779527Y002590551D01*
X004779527Y002758291D01*
X004779551Y002759681D01*
X004779625Y002761070D01*
X004779748Y002762455D01*
X004779919Y002763834D01*
X004780139Y002765207D01*
X004780407Y002766571D01*
X004780724Y002767925D01*
X004781088Y002769267D01*
X004781499Y002770595D01*
X004781956Y002771908D01*
X004782460Y002773203D01*
X004783009Y002774481D01*
X004783603Y002775738D01*
X004784241Y002776973D01*
X004784923Y002778185D01*
X004785646Y002779372D01*
X004786411Y002780533D01*
X004787217Y002781666D01*
X004788062Y002782770D01*
X004788945Y002783843D01*
X004812568Y002811533D01*
X004815893Y002814982D01*
X004819613Y002818001D01*
X004823672Y002820547D01*
X004828010Y002822580D01*
X004832562Y002824071D01*
X004837263Y002824999D01*
X004842041Y002825348D01*
X004846826Y002825115D01*
X004851548Y002824302D01*
X004856135Y002822922D01*
X004860522Y002820994D01*
X004864641Y002818548D01*
X004868433Y002815620D01*
X004871841Y002812253D01*
X004874815Y002808497D01*
X004877311Y002804407D01*
X004879292Y002800045D01*
X004880728Y002795474D01*
X004881598Y002790763D01*
X004881889Y002785981D01*
X002631040Y003897637D02*
X002631040Y003897637D01*
X003116991Y003897637D01*
X003119118Y003897580D01*
X003121239Y003897407D01*
X003123348Y003897121D01*
X003125438Y003896720D01*
X003127503Y003896208D01*
X003129538Y003895584D01*
X003131536Y003894852D01*
X003133492Y003894012D01*
X003135399Y003893069D01*
X003137253Y003892023D01*
X003139047Y003890879D01*
X003140777Y003889639D01*
X003142437Y003888308D01*
X003144023Y003886889D01*
X003145530Y003885387D01*
X003146954Y003883805D01*
X003148290Y003882149D01*
X003149535Y003880423D01*
X003150685Y003878632D01*
X003151736Y003876782D01*
X003168309Y003845679D01*
X003170029Y003842008D01*
X003171362Y003838179D01*
X003172294Y003834234D01*
X003172816Y003830213D01*
X003172921Y003826161D01*
X003172609Y003822119D01*
X003171883Y003818130D01*
X003170751Y003814237D01*
X003169224Y003810482D01*
X003167320Y003806903D01*
X003165057Y003803539D01*
X003162460Y003800426D01*
X003159557Y003797596D01*
X003156379Y003795079D01*
X003152958Y003792903D01*
X003149332Y003791090D01*
X003145539Y003789660D01*
X003141618Y003788627D01*
X003137613Y003788003D01*
X003133564Y003787795D01*
X002614467Y003787795D01*
X002610418Y003788003D01*
X002606412Y003788627D01*
X002602492Y003789660D01*
X002598698Y003791090D01*
X002595072Y003792903D01*
X002591652Y003795079D01*
X002588473Y003797596D01*
X002585570Y003800426D01*
X002582974Y003803539D01*
X002580711Y003806903D01*
X002578806Y003810482D01*
X002577280Y003814237D01*
X002576147Y003818130D01*
X002575421Y003822119D01*
X002575109Y003826161D01*
X002575215Y003830213D01*
X002575736Y003834234D01*
X002576669Y003838179D01*
X002578002Y003842008D01*
X002579722Y003845679D01*
X002596295Y003876782D01*
X002597346Y003878632D01*
X002598496Y003880423D01*
X002599740Y003882149D01*
X002601076Y003883805D01*
X002602500Y003885387D01*
X002604007Y003886889D01*
X002605593Y003888308D01*
X002607254Y003889639D01*
X002608984Y003890879D01*
X002610778Y003892023D01*
X002612632Y003893069D01*
X002614539Y003894012D01*
X002616494Y003894852D01*
X002618493Y003895584D01*
X002620527Y003896208D01*
X002622593Y003896720D01*
X002624683Y003897121D01*
X002626792Y003897407D01*
X002628913Y003897580D01*
X002631040Y003897637D01*
X004803149Y003897637D02*
X004803149Y003897637D01*
X004815467Y003896668D01*
X004827481Y003893784D01*
X004838896Y003889055D01*
X004849431Y003882599D01*
X004858826Y003874575D01*
X004866852Y003865180D01*
X004873306Y003854645D01*
X004878036Y003843229D01*
X004880919Y003831215D01*
X004881889Y003818897D01*
X004881889Y003395120D01*
X004881598Y003390338D01*
X004880728Y003385627D01*
X004879292Y003381056D01*
X004877311Y003376694D01*
X004874815Y003372604D01*
X004871841Y003368848D01*
X004868433Y003365481D01*
X004864641Y003362553D01*
X004860522Y003360107D01*
X004856135Y003358180D01*
X004851548Y003356799D01*
X004846826Y003355987D01*
X004842041Y003355753D01*
X004837263Y003356103D01*
X004832562Y003357030D01*
X004828010Y003358521D01*
X004823672Y003360555D01*
X004819613Y003363100D01*
X004815893Y003366119D01*
X004812568Y003369568D01*
X004788945Y003397258D01*
X004788062Y003398331D01*
X004787217Y003399435D01*
X004786411Y003400569D01*
X004785646Y003401729D01*
X004784923Y003402917D01*
X004784241Y003404129D01*
X004783603Y003405364D01*
X004783009Y003406621D01*
X004782460Y003407898D01*
X004781956Y003409194D01*
X004781499Y003410506D01*
X004781088Y003411835D01*
X004780724Y003413176D01*
X004780407Y003414530D01*
X004780139Y003415894D01*
X004779919Y003417267D01*
X004779748Y003418647D01*
X004779625Y003420032D01*
X004779551Y003421420D01*
X004779527Y003422810D01*
X004779527Y003515748D01*
X004778557Y003528065D01*
X004775673Y003540080D01*
X004770945Y003551495D01*
X004764489Y003562030D01*
X004756464Y003571425D01*
X004747069Y003579450D01*
X004736534Y003585906D01*
X004725119Y003590634D01*
X004713104Y003593519D01*
X004700787Y003594488D01*
X003775590Y003594488D01*
X003763272Y003593519D01*
X003751258Y003590634D01*
X003739842Y003585906D01*
X003729308Y003579450D01*
X003719912Y003571425D01*
X003711888Y003562030D01*
X003705432Y003551495D01*
X003700703Y003540080D01*
X003697819Y003528065D01*
X003696850Y003515748D01*
X003696850Y003477230D01*
X003696647Y003473238D01*
X003696040Y003469288D01*
X003695036Y003465419D01*
X003693646Y003461672D01*
X003691882Y003458086D01*
X003689764Y003454697D01*
X003687313Y003451540D01*
X003684555Y003448647D01*
X003681517Y003446050D01*
X003678232Y003443773D01*
X003674733Y003441842D01*
X003671057Y003440275D01*
X003667240Y003439089D01*
X003663323Y003438295D01*
X003659345Y003437904D01*
X003655349Y003437917D01*
X003651374Y003438336D01*
X003647462Y003439155D01*
X003643654Y003440367D01*
X003639988Y003441959D01*
X003601799Y003460898D01*
X003599868Y003461923D01*
X003597998Y003463053D01*
X003596193Y003464286D01*
X003594459Y003465617D01*
X003592802Y003467042D01*
X003591227Y003468556D01*
X003589738Y003470156D01*
X003588340Y003471836D01*
X003587037Y003473591D01*
X003585834Y003475416D01*
X003584734Y003477304D01*
X003583741Y003479251D01*
X003582857Y003481250D01*
X003582085Y003483295D01*
X003581428Y003485379D01*
X003580887Y003487497D01*
X003580465Y003489641D01*
X003580163Y003491806D01*
X003579981Y003493984D01*
X003579920Y003496168D01*
X003579920Y003649999D01*
X003579332Y003662714D01*
X003577575Y003675320D01*
X003574660Y003687709D01*
X003570616Y003699777D01*
X003565474Y003711420D01*
X003559281Y003722540D01*
X003552088Y003733040D01*
X003543957Y003742832D01*
X003534958Y003751832D01*
X003525165Y003759963D01*
X003514665Y003767155D01*
X003503546Y003773349D01*
X003491902Y003778490D01*
X003479835Y003782535D01*
X003467445Y003785449D01*
X003454839Y003787207D01*
X003442125Y003787795D01*
X003323128Y003787795D01*
X003319079Y003788003D01*
X003315074Y003788627D01*
X003311153Y003789660D01*
X003307360Y003791090D01*
X003303734Y003792903D01*
X003300313Y003795079D01*
X003297135Y003797596D01*
X003294232Y003800426D01*
X003291635Y003803539D01*
X003289372Y003806903D01*
X003287468Y003810482D01*
X003285941Y003814237D01*
X003284809Y003818130D01*
X003284083Y003822119D01*
X003283771Y003826161D01*
X003283876Y003830213D01*
X003284398Y003834234D01*
X003285330Y003838179D01*
X003286663Y003842008D01*
X003288383Y003845679D01*
X003304956Y003876782D01*
X003306007Y003878632D01*
X003307157Y003880423D01*
X003308402Y003882149D01*
X003309738Y003883805D01*
X003311162Y003885387D01*
X003312669Y003886889D01*
X003314255Y003888308D01*
X003315915Y003889639D01*
X003317645Y003890879D01*
X003319439Y003892023D01*
X003321293Y003893069D01*
X003323200Y003894012D01*
X003325156Y003894852D01*
X003327154Y003895584D01*
X003329189Y003896208D01*
X003331254Y003896720D01*
X003333344Y003897121D01*
X003335453Y003897407D01*
X003337574Y003897580D01*
X003339701Y003897637D01*
X004803149Y003897637D01*
X004779527Y000844971D02*
X004779527Y000844971D01*
X004779728Y000848945D01*
X004780329Y000852878D01*
X004781324Y000856730D01*
X004782702Y000860462D01*
X004784451Y000864036D01*
X004786551Y000867415D01*
X004788981Y000870565D01*
X004791717Y000873454D01*
X004794730Y000876052D01*
X004797991Y000878332D01*
X004801464Y000880272D01*
X004805116Y000881851D01*
X004808909Y000883053D01*
X004812803Y000883867D01*
X004816760Y000884284D01*
X004820738Y000884298D01*
X004824698Y000883912D01*
X004828599Y000883127D01*
X004832400Y000881953D01*
X004836064Y000880402D01*
X004859686Y000868956D01*
X004861641Y000867940D01*
X004863537Y000866816D01*
X004865367Y000865588D01*
X004867125Y000864260D01*
X004868806Y000862835D01*
X004870405Y000861318D01*
X004871916Y000859714D01*
X004873335Y000858029D01*
X004874658Y000856266D01*
X004875880Y000854432D01*
X004876997Y000852533D01*
X004878007Y000850574D01*
X004878905Y000848562D01*
X004879689Y000846502D01*
X004880357Y000844402D01*
X004880906Y000842268D01*
X004881335Y000840107D01*
X004881643Y000837925D01*
X004881828Y000835729D01*
X004881889Y000833526D01*
X004881889Y000544426D01*
X004881828Y000542223D01*
X004881643Y000540027D01*
X004881335Y000537845D01*
X004880906Y000535683D01*
X004880357Y000533549D01*
X004879689Y000531449D01*
X004878905Y000529390D01*
X004878007Y000527378D01*
X004876997Y000525419D01*
X004875880Y000523519D01*
X004874658Y000521686D01*
X004873335Y000519923D01*
X004871916Y000518237D01*
X004870405Y000516634D01*
X004868806Y000515117D01*
X004867125Y000513692D01*
X004865367Y000512363D01*
X004863537Y000511135D01*
X004861641Y000510011D01*
X004859686Y000508995D01*
X004836064Y000497550D01*
X004832400Y000495998D01*
X004828599Y000494824D01*
X004824698Y000494040D01*
X004820738Y000493653D01*
X004816760Y000493668D01*
X004812803Y000494085D01*
X004808909Y000494898D01*
X004805116Y000496101D01*
X004801464Y000497680D01*
X004797991Y000499620D01*
X004794730Y000501900D01*
X004791717Y000504498D01*
X004788981Y000507386D01*
X004786551Y000510536D01*
X004784451Y000513916D01*
X004782702Y000517490D01*
X004781324Y000521222D01*
X004780329Y000525074D01*
X004779728Y000529007D01*
X004779527Y000532980D01*
X004779527Y000844971D01*
X003579920Y000283358D02*
X003579920Y000283358D01*
X003579981Y000285543D01*
X003580163Y000287721D01*
X003580465Y000289885D01*
X003580887Y000292030D01*
X003581428Y000294147D01*
X003582085Y000296232D01*
X003582857Y000298277D01*
X003583741Y000300276D01*
X003584734Y000302222D01*
X003585834Y000304111D01*
X003587037Y000305935D01*
X003588340Y000307690D01*
X003589738Y000309370D01*
X003591227Y000310970D01*
X003592802Y000312485D01*
X003594459Y000313910D01*
X003596193Y000315241D01*
X003597998Y000316473D01*
X003599868Y000317604D01*
X003601799Y000318629D01*
X003639988Y000337568D01*
X003643654Y000339160D01*
X003647462Y000340371D01*
X003651374Y000341191D01*
X003655349Y000341609D01*
X003659345Y000341623D01*
X003663323Y000341231D01*
X003667240Y000340438D01*
X003671057Y000339252D01*
X003674733Y000337685D01*
X003678232Y000335753D01*
X003681517Y000333477D01*
X003684555Y000330879D01*
X003687313Y000327987D01*
X003689764Y000324830D01*
X003691882Y000321441D01*
X003693646Y000317854D01*
X003695036Y000314107D01*
X003696040Y000310239D01*
X003696647Y000306289D01*
X003696850Y000302297D01*
X003696850Y000188976D01*
X003697819Y000176658D01*
X003700703Y000164644D01*
X003705432Y000153229D01*
X003711888Y000142694D01*
X003719912Y000133298D01*
X003729308Y000125274D01*
X003739842Y000118818D01*
X003751258Y000114090D01*
X003763272Y000111205D01*
X003775590Y000110236D01*
X004700787Y000110236D01*
X004713104Y000111205D01*
X004725119Y000114090D01*
X004736534Y000118818D01*
X004747069Y000125274D01*
X004756464Y000133298D01*
X004764489Y000142694D01*
X004770945Y000153229D01*
X004775673Y000164644D01*
X004778557Y000176658D01*
X004779527Y000188976D01*
X004779527Y000333160D01*
X004779728Y000337134D01*
X004780329Y000341067D01*
X004781324Y000344919D01*
X004782702Y000348651D01*
X004784451Y000352225D01*
X004786551Y000355604D01*
X004788981Y000358754D01*
X004791717Y000361643D01*
X004794730Y000364241D01*
X004797991Y000366521D01*
X004801464Y000368461D01*
X004805116Y000370040D01*
X004808909Y000371242D01*
X004812803Y000372056D01*
X004816760Y000372472D01*
X004820738Y000372487D01*
X004824698Y000372101D01*
X004828599Y000371316D01*
X004832400Y000370142D01*
X004836064Y000368591D01*
X004859686Y000357145D01*
X004861641Y000356129D01*
X004863537Y000355005D01*
X004865367Y000353777D01*
X004867125Y000352449D01*
X004868806Y000351024D01*
X004870405Y000349507D01*
X004871916Y000347903D01*
X004873335Y000346218D01*
X004874658Y000344455D01*
X004875880Y000342621D01*
X004876997Y000340722D01*
X004878007Y000338763D01*
X004878905Y000336751D01*
X004879689Y000334691D01*
X004880357Y000332591D01*
X004880906Y000330457D01*
X004881335Y000328296D01*
X004881643Y000326114D01*
X004881828Y000323918D01*
X004881889Y000321715D01*
X004881889Y000078740D01*
X005196850Y000078740D01*
X005196850Y004212598D01*
X000078740Y004212598D01*
X000078740Y003897637D01*
X000502517Y003897637D01*
X000506966Y003897385D01*
X000511359Y003896631D01*
X000515638Y003895386D01*
X000519750Y003893665D01*
X000523640Y003891491D01*
X000527260Y003888890D01*
X000530562Y003885898D01*
X000533506Y003882551D01*
X000536052Y003878893D01*
X000538168Y003874970D01*
X000539827Y003870834D01*
X000541008Y003866536D01*
X000541696Y003862133D01*
X000541882Y003857680D01*
X000541564Y003853234D01*
X000540744Y003848853D01*
X000539435Y003844593D01*
X000537653Y003840508D01*
X000535421Y003836650D01*
X000532767Y003833070D01*
X000506860Y003801967D01*
X000505727Y003800666D01*
X000504538Y003799417D01*
X000503296Y003798220D01*
X000502003Y003797079D01*
X000500661Y003795995D01*
X000499272Y003794972D01*
X000497841Y003794010D01*
X000496368Y003793112D01*
X000494858Y003792279D01*
X000493312Y003791513D01*
X000491734Y003790816D01*
X000490128Y003790189D01*
X000488495Y003789632D01*
X000486840Y003789147D01*
X000485165Y003788736D01*
X000483474Y003788398D01*
X000481769Y003788134D01*
X000480055Y003787946D01*
X000478334Y003787833D01*
X000476609Y003787795D01*
X000167716Y003787795D01*
X000155002Y003787207D01*
X000142396Y003785449D01*
X000130006Y003782535D01*
X000117939Y003778490D01*
X000106295Y003773349D01*
X000095176Y003767156D01*
X000084675Y003759963D01*
X000074884Y003751832D01*
X000065884Y003742832D01*
X000057753Y003733040D01*
X000050560Y003722540D01*
X000044366Y003711420D01*
X000039226Y003699777D01*
X000035181Y003687709D01*
X000032267Y003675320D01*
X000030509Y003662714D01*
X000029921Y003649999D01*
X000029921Y002372637D01*
X000030405Y002366478D01*
X000031848Y002360472D01*
X000034212Y002354764D01*
X000037440Y002349496D01*
X000041452Y002344799D01*
X000046150Y002340787D01*
X000051417Y002337559D01*
X000057125Y002335194D01*
X000063132Y002333752D01*
X000069291Y002333267D01*
X000077165Y002333267D01*
X000083323Y002332783D01*
X000089331Y002331340D01*
X000095038Y002328976D01*
X000100306Y002325748D01*
X000105003Y002321736D01*
X000109016Y002317039D01*
X000112244Y002311771D01*
X000114608Y002306063D01*
X000116050Y002300056D01*
X000116535Y002293897D01*
X000116535Y001506496D01*
X000116050Y001500337D01*
X000114608Y001494330D01*
X000112244Y001488622D01*
X000109016Y001483355D01*
X000105003Y001478657D01*
X000100306Y001474645D01*
X000095038Y001471417D01*
X000089331Y001469053D01*
X000083323Y001467611D01*
X000077165Y001467125D01*
X000069291Y001467125D01*
X000063132Y001466641D01*
X000057125Y001465199D01*
X000051417Y001462835D01*
X000046150Y001459607D01*
X000041452Y001455594D01*
X000037440Y001450897D01*
X000034212Y001445629D01*
X000031848Y001439922D01*
X000030405Y001433914D01*
X000029921Y001427755D01*
X000029921Y000150393D01*
X000030509Y000137679D01*
X000032267Y000125074D01*
X000035181Y000112684D01*
X000039226Y000100616D01*
X000044366Y000088973D01*
X000050560Y000077854D01*
X000057753Y000067353D01*
X000065884Y000057561D01*
X000074884Y000048561D01*
X000084675Y000040430D01*
X000095176Y000033237D01*
X000106295Y000027044D01*
X000117939Y000021903D01*
X000130006Y000017858D01*
X000142396Y000014944D01*
X000155002Y000013186D01*
X000167716Y000012598D01*
X001332480Y000012598D01*
X001338638Y000013083D01*
X001344645Y000014525D01*
X001350353Y000016889D01*
X001355621Y000020117D01*
X001360318Y000024129D01*
X001364330Y000028827D01*
X001367559Y000034094D01*
X001369923Y000039802D01*
X001371365Y000045810D01*
X001371850Y000051968D01*
X001371850Y000059842D01*
X001372334Y000066001D01*
X001373777Y000072008D01*
X001376141Y000077716D01*
X001379369Y000082983D01*
X001383381Y000087681D01*
X001388079Y000091693D01*
X001393346Y000094921D01*
X001399054Y000097285D01*
X001405061Y000098727D01*
X001411220Y000099212D01*
X002198622Y000099212D01*
X002204780Y000098727D01*
X002210787Y000097285D01*
X002216495Y000094921D01*
X002221762Y000091693D01*
X002226460Y000087681D01*
X002230472Y000082983D01*
X002233700Y000077716D01*
X002236065Y000072008D01*
X002237507Y000066001D01*
X002237992Y000059842D01*
X002237992Y000051968D01*
X002238476Y000045810D01*
X002239919Y000039802D01*
X002242282Y000034094D01*
X002245511Y000028827D01*
X002249523Y000024129D01*
X002254220Y000020117D01*
X002259488Y000016889D01*
X002265196Y000014525D01*
X002271203Y000013083D01*
X002277362Y000012598D01*
X003442125Y000012598D01*
X003454839Y000013186D01*
X003467445Y000014944D01*
X003479835Y000017858D01*
X003491902Y000021903D01*
X003503546Y000027044D01*
X003514665Y000033238D01*
X003525165Y000040430D01*
X003534958Y000048561D01*
X003543957Y000057561D01*
X003552088Y000067353D01*
X003559281Y000077854D01*
X003565474Y000088973D01*
X003570616Y000100616D01*
X003574660Y000112684D01*
X003577575Y000125074D01*
X003579332Y000137679D01*
X003579920Y000150393D01*
X003579920Y000283358D01*
X003579920Y000873909D02*
X003579920Y000873909D01*
X003579981Y000876094D01*
X003580163Y000878272D01*
X003580465Y000880437D01*
X003580887Y000882581D01*
X003581428Y000884699D01*
X003582085Y000886783D01*
X003582857Y000888828D01*
X003583741Y000890827D01*
X003584734Y000892773D01*
X003585834Y000894662D01*
X003587037Y000896487D01*
X003588340Y000898242D01*
X003589738Y000899922D01*
X003591227Y000901521D01*
X003592802Y000903036D01*
X003594459Y000904461D01*
X003596193Y000905792D01*
X003597998Y000907025D01*
X003599868Y000908155D01*
X003601799Y000909180D01*
X003639988Y000928119D01*
X003643654Y000929711D01*
X003647462Y000930923D01*
X003651374Y000931742D01*
X003655349Y000932161D01*
X003659345Y000932174D01*
X003663323Y000931782D01*
X003667240Y000930989D01*
X003671057Y000929803D01*
X003674733Y000928236D01*
X003678232Y000926305D01*
X003681517Y000924028D01*
X003684555Y000921430D01*
X003687313Y000918538D01*
X003689764Y000915381D01*
X003691882Y000911992D01*
X003693646Y000908405D01*
X003695036Y000904659D01*
X003696040Y000900790D01*
X003696647Y000896840D01*
X003696850Y000892848D01*
X003696850Y000485104D01*
X003696647Y000481112D01*
X003696040Y000477162D01*
X003695036Y000473293D01*
X003693646Y000469546D01*
X003691882Y000465960D01*
X003689764Y000462571D01*
X003687313Y000459414D01*
X003684555Y000456521D01*
X003681517Y000453924D01*
X003678232Y000451647D01*
X003674733Y000449716D01*
X003671057Y000448149D01*
X003667240Y000446963D01*
X003663323Y000446169D01*
X003659345Y000445778D01*
X003655349Y000445791D01*
X003651374Y000446210D01*
X003647462Y000447029D01*
X003643654Y000448241D01*
X003639988Y000449833D01*
X003601799Y000468772D01*
X003599868Y000469797D01*
X003597998Y000470927D01*
X003596193Y000472160D01*
X003594459Y000473491D01*
X003592802Y000474916D01*
X003591227Y000476430D01*
X003589738Y000478030D01*
X003588340Y000479710D01*
X003587037Y000481465D01*
X003585834Y000483290D01*
X003584734Y000485178D01*
X003583741Y000487125D01*
X003582857Y000489124D01*
X003582085Y000491169D01*
X003581428Y000493253D01*
X003580887Y000495371D01*
X003580465Y000497515D01*
X003580163Y000499680D01*
X003579981Y000501858D01*
X003579920Y000504043D01*
X003579920Y000873909D01*
X003493306Y002048763D02*
X003493306Y002048763D01*
X003493455Y002052175D01*
X003493898Y002055561D01*
X003494633Y002058896D01*
X003495654Y002062155D01*
X003496954Y002065312D01*
X003498522Y002068346D01*
X003500347Y002071232D01*
X003502416Y002073949D01*
X003504712Y002076476D01*
X003507219Y002078795D01*
X003509917Y002080888D01*
X003512787Y002082740D01*
X003515806Y002084336D01*
X003518952Y002085664D01*
X003522201Y002086714D01*
X003525529Y002087479D01*
X003528911Y002087953D01*
X003532321Y002088132D01*
X003535734Y002088015D01*
X003539124Y002087602D01*
X003624557Y002073419D01*
X003627270Y002072870D01*
X003629937Y002072132D01*
X003632546Y002071208D01*
X003635084Y002070103D01*
X003637538Y002068823D01*
X003639895Y002067373D01*
X003642146Y002065762D01*
X003644277Y002063996D01*
X003646279Y002062085D01*
X003648142Y002060038D01*
X003649856Y002057865D01*
X003651413Y002055577D01*
X003652806Y002053185D01*
X003654028Y002050702D01*
X003655071Y002048139D01*
X003655933Y002045508D01*
X003656607Y002042824D01*
X003657091Y002040099D01*
X003657382Y002037347D01*
X003657480Y002034581D01*
X003657480Y001744946D01*
X003657382Y001742180D01*
X003657091Y001739428D01*
X003656607Y001736703D01*
X003655933Y001734018D01*
X003655071Y001731388D01*
X003654028Y001728825D01*
X003652806Y001726341D01*
X003651413Y001723949D01*
X003649856Y001721661D01*
X003648142Y001719489D01*
X003646279Y001717442D01*
X003644277Y001715531D01*
X003642146Y001713765D01*
X003639895Y001712153D01*
X003637538Y001710704D01*
X003635084Y001709423D01*
X003632546Y001708318D01*
X003629937Y001707395D01*
X003627270Y001706656D01*
X003624557Y001706108D01*
X003539124Y001691925D01*
X003535734Y001691512D01*
X003532321Y001691395D01*
X003528911Y001691574D01*
X003525529Y001692047D01*
X003522201Y001692812D01*
X003518952Y001693863D01*
X003515806Y001695191D01*
X003512787Y001696787D01*
X003509917Y001698638D01*
X003507219Y001700731D01*
X003504712Y001703050D01*
X003502416Y001705578D01*
X003500347Y001708295D01*
X003498522Y001711181D01*
X003496954Y001714214D01*
X003495654Y001717372D01*
X003494633Y001720631D01*
X003493898Y001723966D01*
X003493455Y001727352D01*
X003493306Y001730763D01*
X003493306Y002048763D01*
X002408329Y003897637D02*
X002408329Y003897637D01*
X002410456Y003897580D01*
X002412578Y003897407D01*
X002414686Y003897121D01*
X002416776Y003896720D01*
X002418842Y003896208D01*
X002420877Y003895584D01*
X002422875Y003894852D01*
X002424830Y003894012D01*
X002426738Y003893069D01*
X002428591Y003892023D01*
X002430385Y003890879D01*
X002432115Y003889639D01*
X002433776Y003888308D01*
X002435362Y003886889D01*
X002436869Y003885387D01*
X002438293Y003883805D01*
X002439629Y003882149D01*
X002440873Y003880423D01*
X002442023Y003878632D01*
X002443074Y003876782D01*
X002459648Y003845679D01*
X002461367Y003842008D01*
X002462700Y003838179D01*
X002463633Y003834234D01*
X002464154Y003830213D01*
X002464260Y003826161D01*
X002463948Y003822119D01*
X002463222Y003818130D01*
X002462090Y003814237D01*
X002460563Y003810482D01*
X002458658Y003806903D01*
X002456396Y003803539D01*
X002453799Y003800426D01*
X002450896Y003797596D01*
X002447717Y003795079D01*
X002444297Y003792903D01*
X002440671Y003791090D01*
X002436877Y003789660D01*
X002432957Y003788627D01*
X002428951Y003788003D01*
X002424902Y003787795D01*
X002277362Y003787795D01*
X002271203Y003787310D01*
X002265196Y003785868D01*
X002259488Y003783504D01*
X002254220Y003780276D01*
X002249523Y003776264D01*
X002245511Y003771566D01*
X002242282Y003766299D01*
X002239919Y003760591D01*
X002238476Y003754584D01*
X002237992Y003748425D01*
X002237992Y003740551D01*
X002237507Y003734392D01*
X002236065Y003728385D01*
X002233700Y003722677D01*
X002230472Y003717410D01*
X002226460Y003712712D01*
X002221762Y003708700D01*
X002216495Y003705472D01*
X002210787Y003703108D01*
X002204780Y003701666D01*
X002198622Y003701181D01*
X001411220Y003701181D01*
X001405061Y003701666D01*
X001399054Y003703108D01*
X001393346Y003705472D01*
X001388079Y003708700D01*
X001383381Y003712712D01*
X001379369Y003717410D01*
X001376141Y003722677D01*
X001373777Y003728385D01*
X001372334Y003734392D01*
X001371850Y003740551D01*
X001371850Y003748425D01*
X001371365Y003754584D01*
X001369923Y003760591D01*
X001367559Y003766299D01*
X001364330Y003771566D01*
X001360318Y003776264D01*
X001355621Y003780276D01*
X001350353Y003783504D01*
X001344645Y003785868D01*
X001338638Y003787310D01*
X001332480Y003787795D01*
X001176933Y003787795D01*
X001175209Y003787833D01*
X001173488Y003787946D01*
X001171773Y003788134D01*
X001170069Y003788398D01*
X001168377Y003788736D01*
X001166702Y003789147D01*
X001165047Y003789632D01*
X001163414Y003790189D01*
X001161808Y003790816D01*
X001160230Y003791513D01*
X001158685Y003792279D01*
X001157174Y003793112D01*
X001155702Y003794010D01*
X001154270Y003794972D01*
X001152882Y003795995D01*
X001151540Y003797079D01*
X001150246Y003798220D01*
X001149004Y003799417D01*
X001147815Y003800666D01*
X001146683Y003801967D01*
X001120775Y003833070D01*
X001118121Y003836650D01*
X001115889Y003840508D01*
X001114107Y003844593D01*
X001112798Y003848853D01*
X001111979Y003853234D01*
X001111660Y003857680D01*
X001111846Y003862133D01*
X001112534Y003866536D01*
X001113715Y003870834D01*
X001115374Y003874970D01*
X001117491Y003878893D01*
X001120037Y003882551D01*
X001122980Y003885898D01*
X001126283Y003888890D01*
X001129902Y003891491D01*
X001133793Y003893665D01*
X001137904Y003895386D01*
X001142183Y003896631D01*
X001146576Y003897385D01*
X001151026Y003897637D01*
X002408329Y003897637D01*
X004779527Y003191362D02*
X004779527Y003191362D01*
X004779551Y003192752D01*
X004779625Y003194141D01*
X004779748Y003195525D01*
X004779919Y003196905D01*
X004780139Y003198278D01*
X004780407Y003199642D01*
X004780724Y003200996D01*
X004781088Y003202338D01*
X004781499Y003203666D01*
X004781956Y003204978D01*
X004782460Y003206274D01*
X004783009Y003207551D01*
X004783603Y003208808D01*
X004784241Y003210044D01*
X004784923Y003211256D01*
X004785646Y003212443D01*
X004786411Y003213604D01*
X004787217Y003214737D01*
X004788062Y003215841D01*
X004788945Y003216914D01*
X004812568Y003244604D01*
X004815893Y003248053D01*
X004819613Y003251072D01*
X004823672Y003253617D01*
X004828010Y003255651D01*
X004832562Y003257142D01*
X004837263Y003258070D01*
X004842041Y003258419D01*
X004846826Y003258186D01*
X004851548Y003257373D01*
X004856135Y003255992D01*
X004860522Y003254065D01*
X004864641Y003251619D01*
X004868433Y003248691D01*
X004871841Y003245324D01*
X004874815Y003241568D01*
X004877311Y003237478D01*
X004879292Y003233116D01*
X004880728Y003228545D01*
X004881598Y003223834D01*
X004881889Y003219052D01*
X004881889Y002962049D01*
X004881598Y002957267D01*
X004880728Y002952556D01*
X004879292Y002947985D01*
X004877311Y002943623D01*
X004874815Y002939534D01*
X004871841Y002935777D01*
X004868433Y002932410D01*
X004864641Y002929482D01*
X004860522Y002927036D01*
X004856135Y002925109D01*
X004851548Y002923729D01*
X004846826Y002922916D01*
X004842041Y002922682D01*
X004837263Y002923032D01*
X004832562Y002923959D01*
X004828010Y002925451D01*
X004823672Y002927484D01*
X004819613Y002930029D01*
X004815893Y002933049D01*
X004812568Y002936497D01*
X004788945Y002964187D01*
X004788062Y002965261D01*
X004787217Y002966365D01*
X004786411Y002967498D01*
X004785646Y002968659D01*
X004784923Y002969846D01*
X004784241Y002971058D01*
X004783603Y002972293D01*
X004783009Y002973550D01*
X004782460Y002974827D01*
X004781956Y002976123D01*
X004781499Y002977436D01*
X004781088Y002978764D01*
X004780724Y002980106D01*
X004780407Y002981459D01*
X004780139Y002982823D01*
X004779919Y002984196D01*
X004779748Y002985576D01*
X004779625Y002986961D01*
X004779551Y002988349D01*
X004779527Y002989739D01*
X004779527Y003191362D01*
X000704492Y003787795D02*
X000704492Y003787795D01*
X000702768Y003787833D01*
X000701047Y003787946D01*
X000699332Y003788134D01*
X000697628Y003788398D01*
X000695936Y003788736D01*
X000694261Y003789147D01*
X000692606Y003789632D01*
X000690973Y003790189D01*
X000689367Y003790816D01*
X000687789Y003791513D01*
X000686244Y003792279D01*
X000684733Y003793112D01*
X000683261Y003794010D01*
X000681829Y003794972D01*
X000680441Y003795995D01*
X000679099Y003797079D01*
X000677805Y003798220D01*
X000676563Y003799417D01*
X000675375Y003800666D01*
X000674242Y003801967D01*
X000648335Y003833070D01*
X000645680Y003836650D01*
X000643448Y003840508D01*
X000641666Y003844593D01*
X000640357Y003848853D01*
X000639538Y003853234D01*
X000639219Y003857680D01*
X000639405Y003862133D01*
X000640093Y003866536D01*
X000641274Y003870834D01*
X000642934Y003874970D01*
X000645050Y003878893D01*
X000647596Y003882551D01*
X000650539Y003885898D01*
X000653842Y003888890D01*
X000657461Y003891491D01*
X000661352Y003893665D01*
X000665463Y003895386D01*
X000669742Y003896631D01*
X000674135Y003897385D01*
X000678585Y003897637D01*
X000974957Y003897637D01*
X000979407Y003897385D01*
X000983800Y003896631D01*
X000988079Y003895386D01*
X000992191Y003893665D01*
X000996081Y003891491D01*
X000999701Y003888890D01*
X001003003Y003885898D01*
X001005946Y003882551D01*
X001008493Y003878893D01*
X001010609Y003874970D01*
X001012268Y003870834D01*
X001013449Y003866536D01*
X001014137Y003862133D01*
X001014323Y003857680D01*
X001014004Y003853234D01*
X001013185Y003848853D01*
X001011876Y003844593D01*
X001010094Y003840508D01*
X001007862Y003836650D01*
X001005208Y003833070D01*
X000979300Y003801967D01*
X000978168Y003800666D01*
X000976979Y003799417D01*
X000975737Y003798220D01*
X000974444Y003797079D01*
X000973102Y003795995D01*
X000971713Y003794972D01*
X000970281Y003794010D01*
X000968809Y003793112D01*
X000967298Y003792279D01*
X000965753Y003791513D01*
X000964175Y003790816D01*
X000962569Y003790189D01*
X000960936Y003789632D01*
X000959281Y003789147D01*
X000957606Y003788736D01*
X000955915Y003788398D01*
X000954210Y003788134D01*
X000952496Y003787946D01*
X000950775Y003787833D01*
X000949050Y003787795D01*
X000704492Y003787795D01*
M02*